G04 ================== begin FILE IDENTIFICATION RECORD ==================*
G04 Layout Name:  D:/Sankar/ozone_alice_sensors (1)/ozone_alice_sensors/Sensor.brd*
G04 Film Name:    ASSY_TOP*
G04 File Format:  Gerber RS274X*
G04 File Origin:  Cadence Allegro 16.6-P004*
G04 Origin Date:  Fri May 21 14:24:47 2021*
G04 *
G04 Layer:  REF DES/ASSEMBLY_TOP*
G04 Layer:  PIN/TOP*
G04 Layer:  PACKAGE GEOMETRY/ASSEMBLY_TOP*
G04 Layer:  BOARD GEOMETRY/OUTLINE*
G04 *
G04 Offset:    (0.000 0.000)*
G04 Mirror:    No*
G04 Mode:      Positive*
G04 Rotation:  0*
G04 FullContactRelief:  No*
G04 UndefLineWidth:     0.000*
G04 ================== end FILE IDENTIFICATION RECORD ====================*
%FSLAX25Y25*MOIN*%
%IR0*IPPOS*OFA0.00000B0.00000*MIA0B0*SFA1.00000B1.00000*%
%ADD10C,.13*%
%ADD17R,.07874X.216535*%
%AMMACRO19*
4,1,40,.034646,-.011811,
-.034646,-.011811,
-.035159,-.011765,
-.035657,-.011631,
-.036124,-.011412,
-.036546,-.011116,
-.036909,-.010751,
-.037204,-.010328,
-.037421,-.009861,
-.037554,-.009362,
-.037598,-.008858,
-.037598,.008858,
-.037552,.009371,
-.037418,.009869,
-.0372,.010336,
-.036904,.010758,
-.036539,.011122,
-.036116,.011417,
-.035649,.011634,
-.03515,.011767,
-.034646,.011811,
.034646,.011811,
.035159,.011765,
.035657,.011631,
.036124,.011412,
.036546,.011116,
.036909,.010751,
.037204,.010328,
.037421,.009861,
.037554,.009362,
.037598,.008858,
.037598,-.008858,
.037552,-.009371,
.037418,-.009869,
.0372,-.010336,
.036904,-.010758,
.036539,-.011122,
.036116,-.011417,
.035649,-.011634,
.03515,-.011767,
.034646,-.011811,
0.0*
%
%ADD19MACRO19*%
%AMMACRO23*
4,1,44,.013335,-.018307,
-.013335,-.018307,
-.014129,-.018239,
-.014899,-.018034,
-.015621,-.017699,
-.016274,-.017243,
-.016839,-.016681,
-.017297,-.016029,
-.017635,-.015307,
-.017842,-.014538,
-.017913,-.013745,
-.017913,-.013732,
-.017913,.013732,
-.017844,.014526,
-.017639,.015295,
-.017303,.016018,
-.016847,.016671,
-.016284,.017235,
-.015632,.017692,
-.014911,.01803,
-.014141,.018237,
-.013348,.018307,
-.013335,.018307,
.013335,.018307,
.014129,.018239,
.014899,.018034,
.015621,.017699,
.016274,.017243,
.016839,.016681,
.017297,.016029,
.017635,.015307,
.017842,.014538,
.017913,.013745,
.017913,.013732,
.017913,-.013732,
.017844,-.014526,
.017639,-.015295,
.017303,-.016018,
.016847,-.016671,
.016284,-.017235,
.015632,-.017692,
.014911,-.01803,
.014141,-.018237,
.013348,-.018307,
.013335,-.018307,
0.0*
%
%ADD23MACRO23*%
%ADD13C,.06*%
%ADD12P,.070313X8X22.5*%
%ADD14R,.06X.06*%
%ADD21C,.055039*%
%ADD16R,.03937X.043307*%
%ADD15R,.043307X.03937*%
%ADD11C,.064961*%
%ADD25C,.053937*%
%ADD22R,.055039X.055039*%
%ADD24R,.064961X.064961*%
%ADD26R,.053937X.053937*%
%ADD20R,.045276X.057087*%
%ADD18R,.068898X.023622*%
%ADD27C,.004*%
%ADD28C,.005*%
%ADD29C,.008*%
%ADD30C,.003937*%
%ADD31C,.009449*%
%ADD32C,.007874*%
%ADD33C,.019685*%
G75*
%LPD*%
G75*
G36*
G01X17096Y94800D02*
Y91052D01*
X19059D01*
Y94800D01*
X17096D01*
G37*
G36*
G01X12481D02*
Y91055D01*
X14459D01*
Y94800D01*
X12481D01*
G37*
G36*
G01X17226Y131400D02*
Y127653D01*
X19189D01*
Y131400D01*
X17226D01*
G37*
G36*
G01X12611D02*
Y127655D01*
X14589D01*
Y131400D01*
X12611D01*
G37*
G36*
G01X17385Y162900D02*
Y159152D01*
X19349D01*
Y162900D01*
X17385D01*
G37*
G36*
G01X12771D02*
Y159155D01*
X14749D01*
Y162900D01*
X12771D01*
G37*
G36*
G01X44960Y-6962D02*
X48708D01*
Y-4999D01*
X44960D01*
Y-6962D01*
G37*
G36*
G01Y-11577D02*
X48706D01*
Y-9599D01*
X44960D01*
Y-11577D01*
G37*
G36*
G01X44566Y30439D02*
X48314D01*
Y32403D01*
X44566D01*
Y30439D01*
G37*
G36*
G01Y25825D02*
X48312D01*
Y27803D01*
X44566D01*
Y25825D01*
G37*
G36*
G01X24740Y185794D02*
X20993D01*
Y183831D01*
X24740D01*
Y185794D01*
G37*
G36*
G01Y190409D02*
X20995D01*
Y188431D01*
X24740D01*
Y190409D01*
G37*
G36*
G01X53025Y50078D02*
Y53826D01*
X51062D01*
Y50078D01*
X53025D01*
G37*
G36*
G01X57640D02*
Y53824D01*
X55662D01*
Y50078D01*
X57640D01*
G37*
G36*
G01X58661Y63189D02*
X62992D01*
Y65118D01*
X58661D01*
Y63189D01*
G37*
G36*
G01Y68189D02*
X62992D01*
Y70118D01*
X58661D01*
Y68189D01*
G37*
G36*
G01Y73189D02*
X62992D01*
Y75118D01*
X58661D01*
Y73189D01*
G37*
G36*
G01Y78189D02*
X62992D01*
Y80118D01*
X58661D01*
Y78189D01*
G37*
G36*
G01X62550Y185405D02*
X58802D01*
Y183441D01*
X62550D01*
Y185405D01*
G37*
G36*
G01Y190019D02*
X58805D01*
Y188041D01*
X62550D01*
Y190019D01*
G37*
G36*
G01X78740Y73189D02*
X83071D01*
Y75118D01*
X78740D01*
Y73189D01*
G37*
G36*
G01Y68189D02*
X83071D01*
Y70118D01*
X78740D01*
Y68189D01*
G37*
G36*
G01Y63189D02*
X83071D01*
Y65118D01*
X78740D01*
Y63189D01*
G37*
G36*
G01X91417Y78865D02*
X95165D01*
Y80828D01*
X91417D01*
Y78865D01*
G37*
G36*
G01Y74250D02*
X95162D01*
Y76228D01*
X91417D01*
Y74250D01*
G37*
G36*
G01X96535Y78865D02*
X100283D01*
Y80828D01*
X96535D01*
Y78865D01*
G37*
G36*
G01Y74250D02*
X100280D01*
Y76228D01*
X96535D01*
Y74250D01*
G37*
G36*
G01X78740Y78189D02*
X83071D01*
Y80118D01*
X78740D01*
Y78189D01*
G37*
G36*
G01X98360Y186324D02*
X94612D01*
Y184361D01*
X98360D01*
Y186324D01*
G37*
G36*
G01Y190939D02*
X94615D01*
Y188961D01*
X98360D01*
Y190939D01*
G37*
G36*
G01X130787Y33589D02*
X134535D01*
Y35552D01*
X130787D01*
Y33589D01*
G37*
G36*
G01Y28974D02*
X134532D01*
Y30952D01*
X130787D01*
Y28974D01*
G37*
G36*
G01X126772Y47441D02*
Y42323D01*
X128740D01*
Y47441D01*
X126772D01*
G37*
G36*
G01X120866D02*
Y42323D01*
X122835D01*
Y47441D01*
X120866D01*
G37*
G36*
G01X126109Y55434D02*
Y51686D01*
X128072D01*
Y55434D01*
X126109D01*
G37*
G36*
G01X121494D02*
Y51688D01*
X123472D01*
Y55434D01*
X121494D01*
G37*
G36*
G01X126109Y60945D02*
Y57198D01*
X128072D01*
Y60945D01*
X126109D01*
G37*
G36*
G01X121494D02*
Y57200D01*
X123472D01*
Y60945D01*
X121494D01*
G37*
G36*
G01X132220Y186394D02*
X128472D01*
Y184431D01*
X132220D01*
Y186394D01*
G37*
G36*
G01Y191009D02*
X128475D01*
Y189031D01*
X132220D01*
Y191009D01*
G37*
G36*
G01X167630Y185794D02*
X163882D01*
Y183831D01*
X167630D01*
Y185794D01*
G37*
G36*
G01Y190409D02*
X163885D01*
Y188431D01*
X167630D01*
Y190409D01*
G37*
G36*
G01X202660Y185754D02*
X198912D01*
Y183791D01*
X202660D01*
Y185754D01*
G37*
G36*
G01Y190369D02*
X198915D01*
Y188391D01*
X202660D01*
Y190369D01*
G37*
G36*
G01X260174Y-5600D02*
Y-1852D01*
X258211D01*
Y-5600D01*
X260174D01*
G37*
G36*
G01X255371Y98190D02*
Y94445D01*
X257349D01*
Y98190D01*
X255371D01*
G37*
G36*
G01X256795Y124430D02*
Y128177D01*
X254831D01*
Y124430D01*
X256795D01*
G37*
G36*
G01X256534Y172363D02*
Y168617D01*
X258511D01*
Y172363D01*
X256534D01*
G37*
G36*
G01X264789Y-5600D02*
Y-1855D01*
X262811D01*
Y-5600D01*
X264789D01*
G37*
G36*
G01X259986Y98190D02*
Y94442D01*
X261949D01*
Y98190D01*
X259986D01*
G37*
G36*
G01X261409Y124430D02*
Y128175D01*
X259431D01*
Y124430D01*
X261409D01*
G37*
G36*
G01X261148Y172363D02*
Y168615D01*
X263111D01*
Y172363D01*
X261148D01*
G37*
G54D10*
X50Y-960D03*
Y195891D03*
X354381Y-960D03*
Y195891D03*
G54D20*
X128346Y44882D03*
X121260D03*
G54D11*
X-1181Y62047D03*
X250826Y200393D03*
X265826D03*
G54D30*
G01X363360Y89670D02*
Y19670D01*
X373360D01*
Y89670D01*
X363360D01*
Y19670D01*
G01X364291Y180196D02*
Y110196D01*
X374291D01*
Y180196D01*
X364291D01*
Y110196D01*
G54D21*
X182677Y-13701D03*
Y-3701D03*
Y6299D03*
Y16299D03*
Y26299D03*
Y36299D03*
Y46299D03*
Y56299D03*
Y66299D03*
Y76299D03*
Y86299D03*
Y96299D03*
Y106299D03*
Y116299D03*
X242677Y-13701D03*
Y-3701D03*
Y6299D03*
Y16299D03*
Y26299D03*
Y36299D03*
Y46299D03*
Y56299D03*
Y66299D03*
Y76299D03*
Y86299D03*
Y96299D03*
Y106299D03*
Y116299D03*
G54D12*
X-1181Y72047D03*
G54D31*
G01X253228Y164173D02*
G03I-472J0D01*
G54D22*
X182677Y126299D03*
X242677D03*
G54D13*
X-3150Y102756D03*
X-3543Y139370D03*
X-3937Y170866D03*
X41339Y61968D03*
Y51968D03*
X32677Y204724D03*
X70472D03*
X106299D03*
X140157D03*
X175590D03*
X210630D03*
X292913Y202362D03*
X322913D03*
X312913D03*
X302913D03*
X332913D03*
G54D32*
G01X77874Y36929D02*
G03I-393J0D01*
G01X191606Y126299D02*
G03I-394J0D01*
G01X251606D02*
G03I-394J0D01*
G01X368754Y92229D02*
G03I-394J0D01*
G01X369684Y182756D02*
G03I-394J0D01*
G54D14*
X-3150Y92913D03*
X-3543Y129527D03*
X-3937Y161023D03*
X22835Y204724D03*
X60630D03*
X96457D03*
X130315D03*
X165748D03*
X200787D03*
G54D23*
X257244Y164173D03*
X263228D03*
G54D33*
G01X-6299Y215748D02*
X372047D01*
G02X379921Y207874I0J-7874D01*
G01Y-12992D01*
G02X372441Y-20472I-7480J0D01*
G01X-5715D01*
G02X-11417Y-18110I0J8065D01*
G02X-13780Y-12408I5703J5703D01*
G01Y209190D01*
G02X-12205Y212992I5377J0D01*
G01X-11676Y213521D01*
G02X-6299Y215748I5377J-5377D01*
G54D24*
X235826Y200393D03*
G54D15*
X19136Y92910D03*
X12444D03*
X19266Y129510D03*
X12574D03*
X19426Y161010D03*
X12734D03*
X50984Y51968D03*
X57677D03*
X128150Y53543D03*
X121457D03*
X128150Y59055D03*
X121457D03*
X258134Y-3710D03*
X255334Y96300D03*
X254754Y126320D03*
X256496Y170472D03*
X264826Y-3710D03*
X262026Y96300D03*
X261446Y126320D03*
X263189Y170472D03*
G54D25*
X368360Y24670D03*
Y34670D03*
Y44670D03*
Y54670D03*
Y64670D03*
Y74670D03*
X369291Y115196D03*
Y125196D03*
Y135196D03*
Y145196D03*
Y155196D03*
Y165196D03*
G54D16*
X46850Y-4921D03*
Y-11614D03*
X46457Y32480D03*
Y25787D03*
X22850Y183754D03*
Y190446D03*
X60660Y183364D03*
Y190056D03*
X93307Y74213D03*
X98425D03*
X93307Y80906D03*
X98425D03*
X96470Y184284D03*
Y190977D03*
X132677Y35630D03*
Y28937D03*
X130330Y184354D03*
Y191046D03*
X165740Y183754D03*
Y190446D03*
X200770Y183714D03*
Y190406D03*
G54D26*
X368360Y84670D03*
X369291Y175196D03*
G54D17*
X27559Y-4921D03*
Y32480D03*
G54D27*
G01X14388Y91260D02*
X17192D01*
G01X14388Y94611D02*
X17192D01*
G01X14518Y127860D02*
X17322D01*
G01X14518Y131211D02*
X17322D01*
G01X14678Y159360D02*
X17482D01*
G01X14678Y162711D02*
X17482D01*
G01X48500Y-9669D02*
Y-6866D01*
G01X45150Y-9669D02*
Y-6866D01*
G01X48106Y27732D02*
Y30535D01*
G01X44756Y27732D02*
Y30535D01*
G01X21200Y188502D02*
Y185698D01*
G01X24551Y188502D02*
Y185698D01*
G01X55732Y53618D02*
X52929D01*
G01X55732Y50268D02*
X52929D01*
G01X59010Y188112D02*
Y185308D01*
G01X62361Y188112D02*
Y185308D01*
G01X94957Y76158D02*
Y78961D01*
G01X91606Y76158D02*
Y78961D01*
G01X100075Y76158D02*
Y78961D01*
G01X96724Y76158D02*
Y78961D01*
G01X94820Y189032D02*
Y186228D01*
G01X98171Y189032D02*
Y186228D01*
G01X134327Y30882D02*
Y33685D01*
G01X130976Y30882D02*
Y33685D01*
G01X123402Y51894D02*
X126205D01*
G01X123402Y55244D02*
X126205D01*
G01X123402Y57406D02*
X126205D01*
G01X123402Y60756D02*
X126205D01*
G01X128680Y189102D02*
Y186298D01*
G01X132031Y189102D02*
Y186298D01*
G01X164090Y188502D02*
Y185698D01*
G01X167441Y188502D02*
Y185698D01*
G01X199120Y188462D02*
Y185658D01*
G01X202471Y188462D02*
Y185658D01*
G01X257278Y94650D02*
X260082D01*
G01X257278Y98001D02*
X260082D01*
G01X259502Y127970D02*
X256698D01*
G01X259502Y124619D02*
X256698D01*
G01X258441Y168823D02*
X261244D01*
G01X258441Y172173D02*
X261244D01*
G01X262882Y-2060D02*
X260078D01*
G01X262882Y-5411D02*
X260078D01*
G54D18*
X59842Y64154D03*
Y69154D03*
Y74154D03*
X81890D03*
Y69154D03*
Y64154D03*
X59842Y79154D03*
X81890D03*
G54D28*
G01X-4931Y59547D02*
X-12431Y58297D01*
G01X-4931Y64548D02*
X-12432Y65797D01*
G01X-4931Y69547D02*
X-12431Y68297D01*
G01X-13386Y77953D02*
X11024D01*
Y56142D01*
X-13386D01*
Y77953D01*
G01X-4931Y74548D02*
X-12432Y75797D01*
G01X18110Y-8661D02*
X37008D01*
Y36220D01*
X18110D01*
Y-8661D01*
G01X2354Y62047D02*
G03I-3535J0D01*
G01Y72047D02*
G03I-3535J0D01*
G01X1319Y59547D02*
X-3681Y64547D01*
G01X1319Y69547D02*
X-3681Y74547D01*
G01X118110Y-8366D02*
X88189D01*
Y37500D01*
X118110D01*
Y-8366D01*
G01X120866Y47441D02*
X128740D01*
Y42323D01*
X120866D01*
Y47441D01*
G01X178079Y130500D02*
X187276D01*
Y-17902D01*
X178079D01*
Y130500D01*
G01X228740Y214960D02*
X273700D01*
Y186220D01*
X228740D01*
Y214960D01*
G01X238079Y130500D02*
X247276D01*
Y-17902D01*
X238079D01*
Y130500D01*
G01X263583Y162402D02*
X256890D01*
Y165945D01*
X263583D01*
Y162402D01*
G54D19*
X85000Y-5433D03*
Y-433D03*
Y4567D03*
Y9567D03*
Y14567D03*
Y19567D03*
Y24567D03*
Y29567D03*
Y34567D03*
X121299Y9567D03*
Y4567D03*
Y-433D03*
Y-5433D03*
Y34567D03*
Y29567D03*
Y24567D03*
Y19567D03*
Y14567D03*
G54D29*
G01X15551Y-10274D02*
X13076D01*
X10051Y-11607D01*
G01Y-8941D02*
X13076Y-10274D01*
G01X15551Y-5774D02*
X10051D01*
X11151Y-6574D01*
G01X15551D02*
Y-4974D01*
G01X13669Y76380D02*
X13119Y76047D01*
X12752Y75647D01*
X12569Y75180D01*
X12752Y74647D01*
X13119Y74247D01*
X13669Y73847D01*
X14402Y73714D01*
X18069D01*
G01X12569Y70680D02*
X13760Y70547D01*
X14769Y70347D01*
X15686Y70080D01*
X16694Y69747D01*
X18069Y69214D01*
Y71880D01*
G01X7450Y95416D02*
Y100916D01*
X9117D01*
X9650Y100641D01*
X9984Y100275D01*
X10117Y99541D01*
X9984Y98808D01*
X9584Y98350D01*
X9117Y98075D01*
X7450D01*
G01X9117D02*
X10117Y95416D01*
G01X13284D02*
Y100916D01*
X12484Y99816D01*
G01Y95416D02*
X14084D01*
G01X16317Y96241D02*
X16717Y95783D01*
X17184Y95508D01*
X17784Y95416D01*
X18384Y95600D01*
X18850Y95966D01*
X19184Y96608D01*
X19250Y97341D01*
X19117Y98075D01*
X18784Y98533D01*
X18317Y98900D01*
X17850Y98991D01*
X17384Y98900D01*
X16784Y98533D01*
X16984Y100916D01*
X18784D01*
G01X7580Y132016D02*
Y137516D01*
X9247D01*
X9780Y137241D01*
X10114Y136875D01*
X10247Y136141D01*
X10114Y135408D01*
X9714Y134950D01*
X9247Y134675D01*
X7580D01*
G01X9247D02*
X10247Y132016D01*
G01X13414D02*
Y137516D01*
X12614Y136416D01*
G01Y132016D02*
X14214D01*
G01X18714D02*
Y137516D01*
X16247Y133575D01*
X19580D01*
G01X7740Y163516D02*
Y169016D01*
X9407D01*
X9940Y168741D01*
X10274Y168375D01*
X10407Y167641D01*
X10274Y166908D01*
X9874Y166450D01*
X9407Y166175D01*
X7740D01*
G01X9407D02*
X10407Y163516D01*
G01X13574D02*
Y169016D01*
X12774Y167916D01*
G01Y163516D02*
X14374D01*
G01X16607Y164616D02*
X17007Y163974D01*
X17540Y163608D01*
X18140Y163516D01*
X18674Y163608D01*
X19207Y164066D01*
X19540Y164616D01*
X19607Y165166D01*
X19474Y165808D01*
X19007Y166266D01*
X18540Y166450D01*
X17940D01*
G01X18540D02*
X18940Y166725D01*
X19274Y167183D01*
X19407Y167733D01*
X19274Y168283D01*
X18940Y168741D01*
X18340Y169016D01*
X17740Y168925D01*
X17140Y168558D01*
G01X39302Y-11557D02*
X39027Y-11957D01*
X38844Y-12424D01*
Y-12957D01*
X39119Y-13557D01*
X39577Y-14024D01*
X40128Y-14357D01*
X41044Y-14624D01*
X41869Y-14691D01*
X42694Y-14557D01*
X43244Y-14357D01*
X43794Y-13957D01*
X44161Y-13491D01*
X44344Y-13024D01*
Y-12557D01*
X44161Y-12091D01*
X43886Y-11691D01*
X43519Y-11357D01*
G01X39761Y-9791D02*
X39211Y-9391D01*
X38936Y-8924D01*
X38844Y-8391D01*
X39027Y-7724D01*
X39486Y-7257D01*
X40036Y-7124D01*
X40586Y-7191D01*
X41044Y-7457D01*
X41961Y-8791D01*
X42602Y-9391D01*
X43519Y-9791D01*
X44344Y-9924D01*
Y-7124D01*
G01X38909Y25844D02*
X38634Y25444D01*
X38450Y24978D01*
Y24444D01*
X38726Y23844D01*
X39184Y23378D01*
X39734Y23044D01*
X40650Y22778D01*
X41475Y22711D01*
X42300Y22844D01*
X42850Y23044D01*
X43400Y23444D01*
X43767Y23911D01*
X43950Y24378D01*
Y24844D01*
X43767Y25311D01*
X43492Y25711D01*
X43126Y26044D01*
G01X43950Y28878D02*
X38450D01*
X39550Y28078D01*
G01X43950D02*
Y29678D01*
G01X44439Y45785D02*
X44989Y46118D01*
X45355Y46518D01*
X45539Y46985D01*
X45355Y47518D01*
X44989Y47918D01*
X44439Y48318D01*
X43705Y48452D01*
X40039D01*
G01X43247Y50352D02*
X42605Y50818D01*
X42239Y51218D01*
X42055Y51752D01*
X42239Y52219D01*
X42605Y52552D01*
X43155Y52818D01*
X43797Y52885D01*
X44347Y52818D01*
X44897Y52552D01*
X45355Y52152D01*
X45539Y51685D01*
X45355Y51152D01*
X44805Y50685D01*
X43980Y50418D01*
X43064Y50352D01*
X41872Y50485D01*
X41230Y50685D01*
X40589Y51018D01*
X40130Y51485D01*
X40039Y51952D01*
X40222Y52418D01*
X40680Y52752D01*
G01X25356Y195440D02*
X30856D01*
Y193773D01*
X30581Y193240D01*
X30215Y192906D01*
X29481Y192773D01*
X28748Y192906D01*
X28290Y193306D01*
X28015Y193773D01*
Y195440D01*
G01Y193773D02*
X25356Y192773D01*
G01Y189606D02*
X30856D01*
X29756Y190406D01*
G01X25356D02*
Y188806D01*
G01X29940Y186373D02*
X30489Y185973D01*
X30765Y185506D01*
X30856Y184973D01*
X30673Y184306D01*
X30215Y183840D01*
X29665Y183706D01*
X29114Y183773D01*
X28656Y184040D01*
X27740Y185373D01*
X27098Y185973D01*
X26181Y186373D01*
X25356Y186506D01*
Y183706D01*
G01X60420Y49462D02*
Y43962D01*
X58754D01*
X58220Y44237D01*
X57887Y44604D01*
X57754Y45337D01*
X57887Y46071D01*
X58287Y46529D01*
X58754Y46804D01*
X60420D01*
G01X58754D02*
X57754Y49462D01*
G01X55854Y47171D02*
X55387Y46529D01*
X54987Y46162D01*
X54454Y45979D01*
X53987Y46162D01*
X53654Y46529D01*
X53387Y47079D01*
X53320Y47721D01*
X53387Y48271D01*
X53654Y48821D01*
X54054Y49279D01*
X54520Y49462D01*
X55054Y49279D01*
X55520Y48729D01*
X55787Y47904D01*
X55854Y46987D01*
X55720Y45796D01*
X55520Y45154D01*
X55187Y44512D01*
X54720Y44054D01*
X54254Y43962D01*
X53787Y44146D01*
X53454Y44604D01*
G01X72866Y60687D02*
X76808D01*
X77633Y60953D01*
X78183Y61487D01*
X78366Y62153D01*
X78183Y62820D01*
X77633Y63353D01*
X76808Y63620D01*
X72866D01*
G01X73783Y65387D02*
X73233Y65787D01*
X72958Y66254D01*
X72866Y66787D01*
X73049Y67454D01*
X73508Y67920D01*
X74058Y68054D01*
X74608Y67987D01*
X75066Y67720D01*
X75983Y66387D01*
X76624Y65787D01*
X77541Y65387D01*
X78366Y65254D01*
Y68054D01*
G01X76378Y81102D02*
Y62205D01*
G01X63386Y81102D02*
X78347D01*
Y62205D01*
X63386D01*
Y81102D01*
G01X63166Y195050D02*
X68666D01*
Y193383D01*
X68391Y192850D01*
X68025Y192516D01*
X67291Y192383D01*
X66558Y192516D01*
X66100Y192916D01*
X65825Y193383D01*
Y195050D01*
G01Y193383D02*
X63166Y192383D01*
G01Y189216D02*
X68666D01*
X67566Y190016D01*
G01X63166D02*
Y188416D01*
G01X68666Y184716D02*
X68483Y185250D01*
X68025Y185650D01*
X67475Y185916D01*
X66741Y186116D01*
X65916Y186183D01*
X65091Y186116D01*
X64358Y185916D01*
X63808Y185650D01*
X63350Y185250D01*
X63166Y184716D01*
X63350Y184183D01*
X63808Y183783D01*
X64358Y183516D01*
X65091Y183316D01*
X65916Y183250D01*
X66741Y183316D01*
X67475Y183516D01*
X68025Y183783D01*
X68483Y184183D01*
X68666Y184716D01*
G01X81203Y43697D02*
Y39755D01*
X81469Y38930D01*
X82003Y38380D01*
X82669Y38197D01*
X83336Y38380D01*
X83869Y38930D01*
X84136Y39755D01*
Y43697D01*
G01X87169Y38197D02*
Y43697D01*
X86369Y42597D01*
G01Y38197D02*
X87969D01*
G01X85759Y74270D02*
X85484Y73869D01*
X85301Y73403D01*
Y72870D01*
X85576Y72269D01*
X86034Y71803D01*
X86584Y71469D01*
X87501Y71203D01*
X88326Y71136D01*
X89151Y71270D01*
X89701Y71469D01*
X90251Y71870D01*
X90618Y72336D01*
X90801Y72803D01*
Y73269D01*
X90618Y73736D01*
X90343Y74136D01*
X89976Y74470D01*
G01X90801Y77169D02*
X89609Y77303D01*
X88601Y77503D01*
X87684Y77769D01*
X86676Y78103D01*
X85301Y78636D01*
Y75969D01*
G01X90877Y74270D02*
X90602Y73869D01*
X90419Y73403D01*
Y72870D01*
X90694Y72269D01*
X91152Y71803D01*
X91702Y71469D01*
X92619Y71203D01*
X93444Y71136D01*
X94269Y71270D01*
X94819Y71469D01*
X95369Y71870D01*
X95736Y72336D01*
X95919Y72803D01*
Y73269D01*
X95736Y73736D01*
X95461Y74136D01*
X95094Y74470D01*
G01X95919Y77303D02*
X95827Y77769D01*
X95552Y78303D01*
X95094Y78636D01*
X94452Y78770D01*
X93811Y78636D01*
X93261Y78236D01*
X92986Y77636D01*
Y76970D01*
X92802Y76569D01*
X92344Y76236D01*
X91702Y76103D01*
X91061Y76303D01*
X90602Y76769D01*
X90419Y77303D01*
X90602Y77836D01*
X91061Y78303D01*
X91702Y78503D01*
X92344Y78369D01*
X92802Y78036D01*
X92986Y77636D01*
Y76970D01*
X93261Y76370D01*
X93811Y75969D01*
X94452Y75836D01*
X95094Y75969D01*
X95552Y76303D01*
X95827Y76836D01*
X95919Y77303D01*
G01X98976Y193720D02*
X104476D01*
Y192053D01*
X104201Y191520D01*
X103835Y191186D01*
X103101Y191053D01*
X102368Y191186D01*
X101910Y191586D01*
X101635Y192053D01*
Y193720D01*
G01Y192053D02*
X98976Y191053D01*
G01X99618Y189020D02*
X99160Y188553D01*
X98976Y188020D01*
X99160Y187486D01*
X99710Y187020D01*
X100535Y186686D01*
X101360Y186553D01*
X102368D01*
X103193Y186686D01*
X103926Y187020D01*
X104293Y187420D01*
X104476Y187886D01*
X104293Y188420D01*
X103926Y188820D01*
X103376Y189086D01*
X102643Y189220D01*
X102001Y189086D01*
X101360Y188753D01*
X100993Y188353D01*
X100901Y187886D01*
X101084Y187353D01*
X101543Y186953D01*
X102368Y186553D01*
G01X130171Y26194D02*
X124671D01*
Y27861D01*
X124946Y28394D01*
X125313Y28727D01*
X126046Y28861D01*
X126779Y28727D01*
X127238Y28327D01*
X127513Y27861D01*
Y26194D01*
G01Y27861D02*
X130171Y28861D01*
G01Y32027D02*
X124671D01*
X125771Y31227D01*
G01X130171D02*
Y32827D01*
G01X121514Y61091D02*
X121114Y61366D01*
X120647Y61550D01*
X120114D01*
X119514Y61274D01*
X119047Y60816D01*
X118714Y60266D01*
X118447Y59350D01*
X118380Y58525D01*
X118514Y57700D01*
X118714Y57150D01*
X119114Y56600D01*
X119580Y56233D01*
X120047Y56050D01*
X120514D01*
X120980Y56233D01*
X121380Y56508D01*
X121714Y56874D01*
G01X125347Y56050D02*
Y61550D01*
X122880Y57608D01*
X126214D01*
G01X121514Y66603D02*
X121114Y66878D01*
X120647Y67061D01*
X120114D01*
X119514Y66786D01*
X119047Y66328D01*
X118714Y65778D01*
X118447Y64861D01*
X118380Y64036D01*
X118514Y63211D01*
X118714Y62661D01*
X119114Y62111D01*
X119580Y61745D01*
X120047Y61561D01*
X120514D01*
X120980Y61745D01*
X121380Y62020D01*
X121714Y62386D01*
G01X123080D02*
X123480Y61928D01*
X123947Y61653D01*
X124547Y61561D01*
X125147Y61745D01*
X125614Y62111D01*
X125947Y62753D01*
X126014Y63486D01*
X125880Y64220D01*
X125547Y64678D01*
X125080Y65045D01*
X124614Y65136D01*
X124147Y65045D01*
X123547Y64678D01*
X123747Y67061D01*
X125547D01*
G01X116933Y53860D02*
X116533Y54136D01*
X116067Y54319D01*
X115533D01*
X114933Y54044D01*
X114466Y53586D01*
X114133Y53036D01*
X113866Y52119D01*
X113800Y51294D01*
X113933Y50469D01*
X114133Y49919D01*
X114533Y49369D01*
X115000Y49002D01*
X115466Y48819D01*
X115933D01*
X116400Y49002D01*
X116800Y49277D01*
X117133Y49644D01*
G01X118500Y49919D02*
X118900Y49277D01*
X119433Y48910D01*
X120033Y48819D01*
X120567Y48910D01*
X121100Y49369D01*
X121433Y49919D01*
X121500Y50469D01*
X121366Y51110D01*
X120900Y51569D01*
X120433Y51752D01*
X119833D01*
G01X120433D02*
X120833Y52027D01*
X121166Y52486D01*
X121300Y53036D01*
X121166Y53586D01*
X120833Y54044D01*
X120233Y54319D01*
X119633Y54227D01*
X119033Y53860D01*
G01X132836Y193790D02*
X138336D01*
Y192123D01*
X138061Y191590D01*
X137695Y191256D01*
X136961Y191123D01*
X136228Y191256D01*
X135770Y191656D01*
X135495Y192123D01*
Y193790D01*
G01Y192123D02*
X132836Y191123D01*
G01Y187956D02*
X132928Y187490D01*
X133203Y186956D01*
X133661Y186623D01*
X134303Y186490D01*
X134944Y186623D01*
X135495Y187023D01*
X135770Y187623D01*
Y188290D01*
X135953Y188690D01*
X136411Y189023D01*
X137053Y189156D01*
X137695Y188956D01*
X138153Y188490D01*
X138336Y187956D01*
X138153Y187423D01*
X137695Y186956D01*
X137053Y186756D01*
X136411Y186890D01*
X135953Y187223D01*
X135770Y187623D01*
Y188290D01*
X135495Y188890D01*
X134944Y189290D01*
X134303Y189423D01*
X133661Y189290D01*
X133203Y188956D01*
X132928Y188423D01*
X132836Y187956D01*
G01X168246Y193190D02*
X173746D01*
Y191523D01*
X173471Y190990D01*
X173105Y190656D01*
X172371Y190523D01*
X171638Y190656D01*
X171180Y191056D01*
X170905Y191523D01*
Y193190D01*
G01Y191523D02*
X168246Y190523D01*
G01Y187490D02*
X169438Y187356D01*
X170446Y187156D01*
X171363Y186890D01*
X172371Y186556D01*
X173746Y186023D01*
Y188690D01*
G01X192323Y138113D02*
X191773Y137780D01*
X191406Y137380D01*
X191223Y136913D01*
X191406Y136380D01*
X191773Y135980D01*
X192323Y135580D01*
X193056Y135446D01*
X196723D01*
G01X191223Y131480D02*
X196723D01*
X192781Y133946D01*
Y130613D01*
G01X203276Y195400D02*
X208776D01*
Y193733D01*
X208501Y193200D01*
X208135Y192866D01*
X207401Y192733D01*
X206668Y192866D01*
X206210Y193266D01*
X205935Y193733D01*
Y195400D01*
G01Y193733D02*
X203276Y192733D01*
G01Y189566D02*
X208776D01*
X207676Y190366D01*
G01X203276D02*
Y188766D01*
G01Y185066D02*
X208776D01*
X207676Y185866D01*
G01X203276D02*
Y184266D01*
G01X219807Y175820D02*
X220140Y175270D01*
X220540Y174903D01*
X221007Y174720D01*
X221540Y174903D01*
X221940Y175270D01*
X222340Y175820D01*
X222473Y176553D01*
Y180220D01*
G01X225640Y174720D02*
X226107Y174812D01*
X226640Y175087D01*
X226973Y175545D01*
X227107Y176187D01*
X226973Y176828D01*
X226573Y177378D01*
X225973Y177653D01*
X225307D01*
X224907Y177837D01*
X224573Y178295D01*
X224440Y178937D01*
X224640Y179578D01*
X225107Y180037D01*
X225640Y180220D01*
X226173Y180037D01*
X226640Y179578D01*
X226840Y178937D01*
X226707Y178295D01*
X226373Y177837D01*
X225973Y177653D01*
X225307D01*
X224707Y177378D01*
X224307Y176828D01*
X224173Y176187D01*
X224307Y175545D01*
X224640Y175087D01*
X225173Y174812D01*
X225640Y174720D01*
G01X252590Y98806D02*
Y104306D01*
X254257D01*
X254790Y104031D01*
X255124Y103665D01*
X255257Y102931D01*
X255124Y102198D01*
X254724Y101740D01*
X254257Y101465D01*
X252590D01*
G01X254257D02*
X255257Y98806D01*
G01X256957Y99906D02*
X257357Y99264D01*
X257890Y98898D01*
X258490Y98806D01*
X259024Y98898D01*
X259557Y99356D01*
X259890Y99906D01*
X259957Y100456D01*
X259824Y101098D01*
X259357Y101556D01*
X258890Y101740D01*
X258290D01*
G01X258890D02*
X259290Y102015D01*
X259624Y102473D01*
X259757Y103023D01*
X259624Y103573D01*
X259290Y104031D01*
X258690Y104306D01*
X258090Y104215D01*
X257490Y103848D01*
G01X252323Y138113D02*
X251773Y137780D01*
X251406Y137380D01*
X251223Y136913D01*
X251406Y136380D01*
X251773Y135980D01*
X252323Y135580D01*
X253056Y135446D01*
X256723D01*
G01X252048Y133746D02*
X251589Y133346D01*
X251314Y132880D01*
X251223Y132280D01*
X251406Y131679D01*
X251773Y131213D01*
X252414Y130880D01*
X253148Y130813D01*
X253881Y130946D01*
X254339Y131280D01*
X254706Y131746D01*
X254798Y132213D01*
X254706Y132680D01*
X254339Y133280D01*
X256723Y133080D01*
Y131280D01*
G01X264190Y123814D02*
Y118314D01*
X262523D01*
X261990Y118589D01*
X261656Y118955D01*
X261523Y119689D01*
X261656Y120422D01*
X262056Y120880D01*
X262523Y121155D01*
X264190D01*
G01X262523D02*
X261523Y123814D01*
G01X257556D02*
Y118314D01*
X260023Y122255D01*
X256690D01*
G01X253753Y172979D02*
Y178479D01*
X255420D01*
X255953Y178204D01*
X256286Y177837D01*
X256420Y177104D01*
X256286Y176370D01*
X255886Y175912D01*
X255420Y175637D01*
X253753D01*
G01X255420D02*
X256420Y172979D01*
G01X258320Y177562D02*
X258720Y178112D01*
X259186Y178387D01*
X259720Y178479D01*
X260386Y178295D01*
X260853Y177837D01*
X260986Y177287D01*
X260920Y176737D01*
X260653Y176279D01*
X259320Y175362D01*
X258720Y174720D01*
X258320Y173804D01*
X258186Y172979D01*
X260986D01*
G01X250614Y168110D02*
Y173610D01*
X251947D01*
X252481Y173335D01*
X252881Y172968D01*
X253214Y172419D01*
X253481Y171777D01*
X253547Y170860D01*
X253481Y169944D01*
X253214Y169302D01*
X252881Y168752D01*
X252481Y168385D01*
X251947Y168110D01*
X250614D01*
G01X256581D02*
Y173610D01*
X255781Y172510D01*
G01Y168110D02*
X257381D01*
G01X267570Y-6216D02*
Y-11716D01*
X265903D01*
X265370Y-11441D01*
X265036Y-11075D01*
X264903Y-10341D01*
X265036Y-9608D01*
X265436Y-9150D01*
X265903Y-8875D01*
X267570D01*
G01X265903D02*
X264903Y-6216D01*
G01X263203Y-7041D02*
X262803Y-6583D01*
X262336Y-6308D01*
X261736Y-6216D01*
X261136Y-6400D01*
X260670Y-6766D01*
X260336Y-7408D01*
X260270Y-8141D01*
X260403Y-8875D01*
X260736Y-9333D01*
X261203Y-9700D01*
X261670Y-9791D01*
X262136Y-9700D01*
X262736Y-9333D01*
X262536Y-11716D01*
X260736D01*
G01X296473Y181850D02*
X296140Y182400D01*
X295740Y182767D01*
X295273Y182950D01*
X294740Y182767D01*
X294340Y182400D01*
X293940Y181850D01*
X293807Y181117D01*
Y177450D01*
G01X292107Y181850D02*
X291707Y182492D01*
X291173Y182858D01*
X290573Y182950D01*
X290040Y182858D01*
X289507Y182400D01*
X289173Y181850D01*
X289107Y181300D01*
X289240Y180658D01*
X289707Y180200D01*
X290173Y180017D01*
X290773D01*
G01X290173D02*
X289773Y179742D01*
X289440Y179283D01*
X289307Y178733D01*
X289440Y178183D01*
X289773Y177725D01*
X290373Y177450D01*
X290973Y177542D01*
X291573Y177908D01*
G01X379381Y92940D02*
X378831Y92607D01*
X378465Y92207D01*
X378281Y91740D01*
X378465Y91207D01*
X378831Y90807D01*
X379381Y90407D01*
X380115Y90274D01*
X383781D01*
G01X378281Y87107D02*
X383781D01*
X382681Y87907D01*
G01X378281D02*
Y86307D01*
G01X380312Y183467D02*
X379762Y183134D01*
X379395Y182734D01*
X379212Y182267D01*
X379395Y181734D01*
X379762Y181334D01*
X380312Y180934D01*
X381045Y180800D01*
X384712D01*
G01X383795Y178900D02*
X384345Y178500D01*
X384620Y178034D01*
X384712Y177500D01*
X384529Y176834D01*
X384070Y176367D01*
X383520Y176234D01*
X382970Y176300D01*
X382512Y176567D01*
X381595Y177900D01*
X380954Y178500D01*
X380037Y178900D01*
X379212Y179034D01*
Y176234D01*
M02*
