G04 ================== begin FILE IDENTIFICATION RECORD ==================*
G04 Layout Name:  D:/Sankar/ozone_alice_sensors (1)/ozone_alice_sensors/Sensor.brd*
G04 Film Name:    PASTE_TOP*
G04 File Format:  Gerber RS274X*
G04 File Origin:  Cadence Allegro 16.6-P004*
G04 Origin Date:  Fri May 21 14:24:47 2021*
G04 *
G04 Layer:  PIN/PASTEMASK_TOP*
G04 Layer:  PACKAGE GEOMETRY/PASTEMASK_TOP*
G04 Layer:  DRAWING FORMAT/TITLE_BLOCK*
G04 Layer:  BOARD GEOMETRY/OUTLINE*
G04 *
G04 Offset:    (0.000 0.000)*
G04 Mirror:    No*
G04 Mode:      Positive*
G04 Rotation:  0*
G04 FullContactRelief:  No*
G04 UndefLineWidth:     0.000*
G04 ================== end FILE IDENTIFICATION RECORD ====================*
%FSLAX25Y25*MOIN*%
%IR0*IPPOS*OFA0.00000B0.00000*MIA0B0*SFA1.00000B1.00000*%
%ADD12R,.07874X.216535*%
%AMMACRO14*
4,1,40,.034646,-.011811,
-.034646,-.011811,
-.035159,-.011765,
-.035657,-.011631,
-.036124,-.011412,
-.036546,-.011116,
-.036909,-.010751,
-.037204,-.010328,
-.037421,-.009861,
-.037554,-.009362,
-.037598,-.008858,
-.037598,.008858,
-.037552,.009371,
-.037418,.009869,
-.0372,.010336,
-.036904,.010758,
-.036539,.011122,
-.036116,.011417,
-.035649,.011634,
-.03515,.011767,
-.034646,.011811,
.034646,.011811,
.035159,.011765,
.035657,.011631,
.036124,.011412,
.036546,.011116,
.036909,.010751,
.037204,.010328,
.037421,.009861,
.037554,.009362,
.037598,.008858,
.037598,-.008858,
.037552,-.009371,
.037418,-.009869,
.0372,-.010336,
.036904,-.010758,
.036539,-.011122,
.036116,-.011417,
.035649,-.011634,
.03515,-.011767,
.034646,-.011811,
0.0*
%
%ADD14MACRO14*%
%AMMACRO16*
4,1,44,.013335,-.018307,
-.013335,-.018307,
-.014129,-.018239,
-.014899,-.018034,
-.015621,-.017699,
-.016274,-.017243,
-.016839,-.016681,
-.017297,-.016029,
-.017635,-.015307,
-.017842,-.014538,
-.017913,-.013745,
-.017913,-.013732,
-.017913,.013732,
-.017844,.014526,
-.017639,.015295,
-.017303,.016018,
-.016847,.016671,
-.016284,.017235,
-.015632,.017692,
-.014911,.01803,
-.014141,.018237,
-.013348,.018307,
-.013335,.018307,
.013335,.018307,
.014129,.018239,
.014899,.018034,
.015621,.017699,
.016274,.017243,
.016839,.016681,
.017297,.016029,
.017635,.015307,
.017842,.014538,
.017913,.013745,
.017913,.013732,
.017913,-.013732,
.017844,-.014526,
.017639,-.015295,
.017303,-.016018,
.016847,-.016671,
.016284,-.017235,
.015632,-.017692,
.014911,-.01803,
.014141,-.018237,
.013348,-.018307,
.013335,-.018307,
0.0*
%
%ADD16MACRO16*%
%ADD11R,.03937X.043307*%
%ADD10R,.043307X.03937*%
%ADD15R,.045276X.057087*%
%ADD13R,.068898X.023622*%
%ADD17C,.019685*%
G75*
%LPD*%
G75*
G54D10*
X19136Y92910D03*
X12444D03*
X19266Y129510D03*
X12574D03*
X19426Y161010D03*
X12734D03*
X50984Y51968D03*
X57677D03*
X128150Y53543D03*
X121457D03*
X128150Y59055D03*
X121457D03*
X258134Y-3710D03*
X255334Y96300D03*
X254754Y126320D03*
X256496Y170472D03*
X264826Y-3710D03*
X262026Y96300D03*
X261446Y126320D03*
X263189Y170472D03*
G54D11*
X46850Y-4921D03*
Y-11614D03*
X46457Y32480D03*
Y25787D03*
X22850Y183754D03*
Y190446D03*
X60660Y183364D03*
Y190056D03*
X93307Y74213D03*
X98425D03*
X93307Y80906D03*
X98425D03*
X96470Y184284D03*
Y190977D03*
X132677Y35630D03*
Y28937D03*
X130330Y184354D03*
Y191046D03*
X165740Y183754D03*
Y190446D03*
X200770Y183714D03*
Y190406D03*
G54D12*
X27559Y-4921D03*
Y32480D03*
G54D13*
X59842Y64154D03*
Y69154D03*
Y74154D03*
X81890D03*
Y69154D03*
Y64154D03*
X59842Y79154D03*
X81890D03*
G54D14*
X85000Y-5433D03*
Y-433D03*
Y4567D03*
Y9567D03*
Y14567D03*
Y19567D03*
Y24567D03*
Y29567D03*
Y34567D03*
X121299Y9567D03*
Y4567D03*
Y-433D03*
Y-5433D03*
Y34567D03*
Y29567D03*
Y24567D03*
Y19567D03*
Y14567D03*
G54D15*
X128346Y44882D03*
X121260D03*
G54D16*
X257244Y164173D03*
X263228D03*
G54D17*
G01X-6299Y215748D02*
X372047D01*
G02X379921Y207874I0J-7874D01*
G01Y-12992D01*
G02X372441Y-20472I-7480J0D01*
G01X-5715D01*
G02X-11417Y-18110I0J8065D01*
G02X-13780Y-12408I5703J5703D01*
G01Y209190D01*
G02X-12205Y212992I5377J0D01*
G01X-11676Y213521D01*
G02X-6299Y215748I5377J-5377D01*
M02*
