G04 ================== begin FILE IDENTIFICATION RECORD ==================*
G04 Layout Name:  D:/Sankar/Personal/sensors (1)/ozone_alice_sensors/Sensor.brd*
G04 Film Name:    SILK_TOP*
G04 File Format:  Gerber RS274X*
G04 File Origin:  Cadence Allegro 16.6-P004*
G04 Origin Date:  Tue Jun 01 16:26:08 2021*
G04 *
G04 Layer:  REF DES/SILKSCREEN_TOP*
G04 Layer:  PACKAGE GEOMETRY/SILKSCREEN_TOP*
G04 Layer:  MANUFACTURING/AUTOSILK_TOP*
G04 Layer:  DRAWING FORMAT/TITLE_BLOCK*
G04 Layer:  BOARD GEOMETRY/OUTLINE*
G04 Layer:  BOARD GEOMETRY/SILKSCREEN_TOP*
G04 *
G04 Offset:    (0.000 0.000)*
G04 Mirror:    No*
G04 Mode:      Positive*
G04 Rotation:  0*
G04 FullContactRelief:  No*
G04 UndefLineWidth:     0.000*
G04 ================== end FILE IDENTIFICATION RECORD ====================*
%FSLAX25Y25*MOIN*%
%IR0*IPPOS*OFA0.00000B0.00000*MIA0B0*SFA1.00000B1.00000*%
%ADD10C,.005*%
%ADD11C,.008*%
%ADD12C,.000098*%
%ADD13C,.009449*%
%ADD14C,.007874*%
%ADD15C,.012*%
%ADD16C,.019685*%
G75*
%LPD*%
G75*
G54D10*
G01X-13386Y72047D02*
Y77953D01*
X-7480D01*
G01Y56102D02*
X-13386D01*
Y62008D01*
G01X22622Y-8661D02*
X18110D01*
Y36220D01*
X22622D01*
G01X5118Y77953D02*
X11024D01*
Y72047D01*
G01Y62008D02*
Y56102D01*
X5315D01*
G01X32496Y36220D02*
X37008D01*
Y-8661D01*
X32496D01*
G01X88189Y-8366D02*
X118110D01*
G01X88189Y37500D02*
X118110D01*
G01X178079Y130500D02*
X187276D01*
Y-17902D01*
X178079D01*
Y130500D01*
G01X228740Y186220D02*
Y214960D01*
X273700D01*
Y186220D01*
X228740D01*
G01X238079Y130500D02*
X247276D01*
Y-17902D01*
X238079D01*
Y130500D01*
G01X257087Y161496D02*
X263386D01*
G01X257087Y166850D02*
X263386D01*
G54D11*
G01X12280Y15180D02*
X9805D01*
X6780Y13847D01*
G01Y16513D02*
X9805Y15180D01*
G01X12280Y19680D02*
X6780D01*
X7880Y18880D01*
G01X12280D02*
Y20480D01*
G01X20660Y82673D02*
X20110Y82340D01*
X19743Y81940D01*
X19560Y81473D01*
X19743Y80940D01*
X20110Y80540D01*
X20660Y80140D01*
X21393Y80007D01*
X25060D01*
G01X19560Y76973D02*
X20752Y76840D01*
X21760Y76640D01*
X22677Y76373D01*
X23685Y76040D01*
X25060Y75507D01*
Y78173D01*
G01X17147Y107510D02*
X17605Y108043D01*
X17880Y108643D01*
Y109177D01*
X17605Y109710D01*
X17147Y110110D01*
X16505Y110310D01*
X15863Y110177D01*
X15313Y109843D01*
X14947Y109243D01*
X14763Y108443D01*
X14397Y107977D01*
X13755Y107777D01*
X13113Y107910D01*
X12655Y108243D01*
X12380Y108710D01*
Y109177D01*
X12563Y109643D01*
X13022Y110043D01*
G01X12380Y111410D02*
X17880Y112343D01*
X12380Y113410D01*
X17880Y114477D01*
X12380Y115410D01*
G01X17880Y117910D02*
X17788Y118377D01*
X17513Y118910D01*
X17055Y119243D01*
X16413Y119377D01*
X15772Y119243D01*
X15222Y118843D01*
X14947Y118243D01*
Y117577D01*
X14763Y117177D01*
X14305Y116843D01*
X13663Y116710D01*
X13022Y116910D01*
X12563Y117377D01*
X12380Y117910D01*
X12563Y118443D01*
X13022Y118910D01*
X13663Y119110D01*
X14305Y118977D01*
X14763Y118643D01*
X14947Y118243D01*
Y117577D01*
X15222Y116977D01*
X15772Y116577D01*
X16413Y116443D01*
X17055Y116577D01*
X17513Y116910D01*
X17788Y117443D01*
X17880Y117910D01*
G01X16817Y141990D02*
X17275Y142523D01*
X17550Y143123D01*
Y143657D01*
X17275Y144190D01*
X16817Y144590D01*
X16175Y144790D01*
X15533Y144657D01*
X14983Y144323D01*
X14617Y143723D01*
X14433Y142923D01*
X14067Y142457D01*
X13425Y142257D01*
X12783Y142390D01*
X12325Y142723D01*
X12050Y143190D01*
Y143657D01*
X12233Y144123D01*
X12692Y144523D01*
G01X12050Y145890D02*
X17550Y146823D01*
X12050Y147890D01*
X17550Y148957D01*
X12050Y149890D01*
G01X17550Y152257D02*
X16358Y152390D01*
X15350Y152590D01*
X14433Y152857D01*
X13425Y153190D01*
X12050Y153723D01*
Y151057D01*
G01X13397Y174160D02*
X13855Y174693D01*
X14130Y175293D01*
Y175827D01*
X13855Y176360D01*
X13397Y176760D01*
X12755Y176960D01*
X12113Y176827D01*
X11563Y176493D01*
X11197Y175893D01*
X11013Y175093D01*
X10647Y174627D01*
X10005Y174427D01*
X9363Y174560D01*
X8905Y174893D01*
X8630Y175360D01*
Y175827D01*
X8813Y176293D01*
X9272Y176693D01*
G01X8630Y178060D02*
X14130Y178993D01*
X8630Y180060D01*
X14130Y181127D01*
X8630Y182060D01*
G01X11838Y183293D02*
X11197Y183760D01*
X10830Y184160D01*
X10647Y184693D01*
X10830Y185160D01*
X11197Y185493D01*
X11747Y185760D01*
X12388Y185827D01*
X12938Y185760D01*
X13488Y185493D01*
X13947Y185093D01*
X14130Y184627D01*
X13947Y184093D01*
X13397Y183627D01*
X12572Y183360D01*
X11655Y183293D01*
X10463Y183427D01*
X9822Y183627D01*
X9180Y183960D01*
X8722Y184427D01*
X8630Y184893D01*
X8813Y185360D01*
X9272Y185693D01*
G01X28800Y48287D02*
X29350Y48620D01*
X29717Y49020D01*
X29900Y49487D01*
X29717Y50020D01*
X29350Y50420D01*
X28800Y50820D01*
X28067Y50953D01*
X24400D01*
G01X27608Y52853D02*
X26967Y53320D01*
X26600Y53720D01*
X26417Y54253D01*
X26600Y54720D01*
X26967Y55053D01*
X27517Y55320D01*
X28158Y55387D01*
X28708Y55320D01*
X29258Y55053D01*
X29717Y54653D01*
X29900Y54187D01*
X29717Y53653D01*
X29167Y53187D01*
X28342Y52920D01*
X27425Y52853D01*
X26233Y52987D01*
X25592Y53187D01*
X24950Y53520D01*
X24492Y53987D01*
X24400Y54453D01*
X24583Y54920D01*
X25042Y55253D01*
G01X25717Y92970D02*
Y98470D01*
X27383D01*
X27917Y98195D01*
X28250Y97828D01*
X28383Y97095D01*
X28250Y96362D01*
X27850Y95903D01*
X27383Y95628D01*
X25717D01*
G01X27383D02*
X28383Y92970D01*
G01X31550D02*
Y98470D01*
X30750Y97370D01*
G01Y92970D02*
X32350D01*
G01X34583Y93795D02*
X34983Y93337D01*
X35450Y93062D01*
X36050Y92970D01*
X36650Y93153D01*
X37117Y93520D01*
X37450Y94162D01*
X37517Y94895D01*
X37383Y95628D01*
X37050Y96087D01*
X36583Y96453D01*
X36117Y96545D01*
X35650Y96453D01*
X35050Y96087D01*
X35250Y98470D01*
X37050D01*
G01X24167Y129510D02*
Y135010D01*
X25833D01*
X26367Y134735D01*
X26700Y134368D01*
X26833Y133635D01*
X26700Y132902D01*
X26300Y132443D01*
X25833Y132168D01*
X24167D01*
G01X25833D02*
X26833Y129510D01*
G01X30000D02*
Y135010D01*
X29200Y133910D01*
G01Y129510D02*
X30800D01*
G01X35300D02*
Y135010D01*
X32833Y131068D01*
X36167D01*
G01X32870Y145770D02*
X32337Y145862D01*
X31870Y146228D01*
X31470Y146778D01*
X31203Y147420D01*
X31070Y148153D01*
Y148887D01*
X31203Y149620D01*
X31470Y150262D01*
X31870Y150812D01*
X32337Y151178D01*
X32870Y151270D01*
X33403Y151178D01*
X33870Y150812D01*
X34270Y150262D01*
X34537Y149620D01*
X34670Y148887D01*
Y148153D01*
X34537Y147420D01*
X34270Y146778D01*
X33870Y146228D01*
X33403Y145862D01*
X32870Y145770D01*
G01X36103Y151270D02*
X38637D01*
X36103Y145770D01*
X38637D01*
G01X41870D02*
X41337Y145862D01*
X40870Y146228D01*
X40470Y146778D01*
X40203Y147420D01*
X40070Y148153D01*
Y148887D01*
X40203Y149620D01*
X40470Y150262D01*
X40870Y150812D01*
X41337Y151178D01*
X41870Y151270D01*
X42403Y151178D01*
X42870Y150812D01*
X43270Y150262D01*
X43537Y149620D01*
X43670Y148887D01*
Y148153D01*
X43537Y147420D01*
X43270Y146778D01*
X42870Y146228D01*
X42403Y145862D01*
X41870Y145770D01*
G01X44837D02*
Y151270D01*
X47903Y145770D01*
Y151270D01*
G01X52203Y145770D02*
X49537D01*
Y151270D01*
X52203D01*
G01X51137Y148612D02*
X49537D01*
G01X53370Y143937D02*
X57370D01*
G01X58137Y145770D02*
Y151270D01*
X59870Y146687D01*
X61603Y151270D01*
Y145770D01*
G01X64370D02*
X63837Y145862D01*
X63370Y146228D01*
X62970Y146778D01*
X62703Y147420D01*
X62570Y148153D01*
Y148887D01*
X62703Y149620D01*
X62970Y150262D01*
X63370Y150812D01*
X63837Y151178D01*
X64370Y151270D01*
X64903Y151178D01*
X65370Y150812D01*
X65770Y150262D01*
X66037Y149620D01*
X66170Y148887D01*
Y148153D01*
X66037Y147420D01*
X65770Y146778D01*
X65370Y146228D01*
X64903Y145862D01*
X64370Y145770D01*
G01X68870Y151270D02*
Y145770D01*
G01X67337Y151270D02*
X70403D01*
G01X73370Y145770D02*
X72837Y145862D01*
X72370Y146228D01*
X71970Y146778D01*
X71703Y147420D01*
X71570Y148153D01*
Y148887D01*
X71703Y149620D01*
X71970Y150262D01*
X72370Y150812D01*
X72837Y151178D01*
X73370Y151270D01*
X73903Y151178D01*
X74370Y150812D01*
X74770Y150262D01*
X75037Y149620D01*
X75170Y148887D01*
Y148153D01*
X75037Y147420D01*
X74770Y146778D01*
X74370Y146228D01*
X73903Y145862D01*
X73370Y145770D01*
G01X76537D02*
Y151270D01*
X78203D01*
X78737Y150995D01*
X79070Y150628D01*
X79203Y149895D01*
X79070Y149162D01*
X78670Y148703D01*
X78203Y148428D01*
X76537D01*
G01X78203D02*
X79203Y145770D01*
G01X80970Y146503D02*
X81503Y146045D01*
X82103Y145770D01*
X82637D01*
X83170Y146045D01*
X83570Y146503D01*
X83770Y147145D01*
X83637Y147787D01*
X83303Y148337D01*
X82703Y148703D01*
X81903Y148887D01*
X81437Y149253D01*
X81237Y149895D01*
X81370Y150537D01*
X81703Y150995D01*
X82170Y151270D01*
X82637D01*
X83103Y151087D01*
X83503Y150628D01*
G01X84870Y143937D02*
X88870D01*
G01X89970Y146503D02*
X90503Y146045D01*
X91103Y145770D01*
X91637D01*
X92170Y146045D01*
X92570Y146503D01*
X92770Y147145D01*
X92637Y147787D01*
X92303Y148337D01*
X91703Y148703D01*
X90903Y148887D01*
X90437Y149253D01*
X90237Y149895D01*
X90370Y150537D01*
X90703Y150995D01*
X91170Y151270D01*
X91637D01*
X92103Y151087D01*
X92503Y150628D01*
G01X97203Y145770D02*
X94537D01*
Y151270D01*
X97203D01*
G01X96137Y148612D02*
X94537D01*
G01X98837Y145770D02*
Y151270D01*
X101903Y145770D01*
Y151270D01*
G01X103470Y146503D02*
X104003Y146045D01*
X104603Y145770D01*
X105137D01*
X105670Y146045D01*
X106070Y146503D01*
X106270Y147145D01*
X106137Y147787D01*
X105803Y148337D01*
X105203Y148703D01*
X104403Y148887D01*
X103937Y149253D01*
X103737Y149895D01*
X103870Y150537D01*
X104203Y150995D01*
X104670Y151270D01*
X105137D01*
X105603Y151087D01*
X106003Y150628D01*
G01X109370Y145770D02*
X108837Y145862D01*
X108370Y146228D01*
X107970Y146778D01*
X107703Y147420D01*
X107570Y148153D01*
Y148887D01*
X107703Y149620D01*
X107970Y150262D01*
X108370Y150812D01*
X108837Y151178D01*
X109370Y151270D01*
X109903Y151178D01*
X110370Y150812D01*
X110770Y150262D01*
X111037Y149620D01*
X111170Y148887D01*
Y148153D01*
X111037Y147420D01*
X110770Y146778D01*
X110370Y146228D01*
X109903Y145862D01*
X109370Y145770D01*
G01X112537D02*
Y151270D01*
X114203D01*
X114737Y150995D01*
X115070Y150628D01*
X115203Y149895D01*
X115070Y149162D01*
X114670Y148703D01*
X114203Y148428D01*
X112537D01*
G01X114203D02*
X115203Y145770D01*
G01X116970Y146503D02*
X117503Y146045D01*
X118103Y145770D01*
X118637D01*
X119170Y146045D01*
X119570Y146503D01*
X119770Y147145D01*
X119637Y147787D01*
X119303Y148337D01*
X118703Y148703D01*
X117903Y148887D01*
X117437Y149253D01*
X117237Y149895D01*
X117370Y150537D01*
X117703Y150995D01*
X118170Y151270D01*
X118637D01*
X119103Y151087D01*
X119503Y150628D01*
G01X25367Y160880D02*
Y166380D01*
X27033D01*
X27567Y166105D01*
X27900Y165738D01*
X28033Y165005D01*
X27900Y164272D01*
X27500Y163813D01*
X27033Y163538D01*
X25367D01*
G01X27033D02*
X28033Y160880D01*
G01X31200D02*
Y166380D01*
X30400Y165280D01*
G01Y160880D02*
X32000D01*
G01X34233Y161980D02*
X34633Y161338D01*
X35167Y160972D01*
X35767Y160880D01*
X36300Y160972D01*
X36833Y161430D01*
X37167Y161980D01*
X37233Y162530D01*
X37100Y163172D01*
X36633Y163630D01*
X36167Y163813D01*
X35567D01*
G01X36167D02*
X36567Y164088D01*
X36900Y164547D01*
X37033Y165097D01*
X36900Y165647D01*
X36567Y166105D01*
X35967Y166380D01*
X35367Y166288D01*
X34767Y165922D01*
G01X37700Y184903D02*
X38233Y184445D01*
X38833Y184170D01*
X39367D01*
X39900Y184445D01*
X40300Y184903D01*
X40500Y185545D01*
X40367Y186187D01*
X40033Y186737D01*
X39433Y187103D01*
X38633Y187287D01*
X38167Y187653D01*
X37967Y188295D01*
X38100Y188937D01*
X38433Y189395D01*
X38900Y189670D01*
X39367D01*
X39833Y189487D01*
X40233Y189028D01*
G01X41600Y189670D02*
X42533Y184170D01*
X43600Y189670D01*
X44667Y184170D01*
X45600Y189670D01*
G01X46633Y184995D02*
X47033Y184537D01*
X47500Y184262D01*
X48100Y184170D01*
X48700Y184353D01*
X49167Y184720D01*
X49500Y185362D01*
X49567Y186095D01*
X49433Y186828D01*
X49100Y187287D01*
X48633Y187653D01*
X48167Y187745D01*
X47700Y187653D01*
X47100Y187287D01*
X47300Y189670D01*
X49100D01*
G01X31400Y180267D02*
X25900D01*
Y181933D01*
X26175Y182467D01*
X26542Y182800D01*
X27275Y182933D01*
X28008Y182800D01*
X28467Y182400D01*
X28742Y181933D01*
Y180267D01*
G01Y181933D02*
X31400Y182933D01*
G01Y186100D02*
X25900D01*
X27000Y185300D01*
G01X31400D02*
Y186900D01*
G01X26817Y189333D02*
X26267Y189733D01*
X25992Y190200D01*
X25900Y190733D01*
X26083Y191400D01*
X26542Y191867D01*
X27092Y192000D01*
X27642Y191933D01*
X28100Y191667D01*
X29017Y190333D01*
X29658Y189733D01*
X30575Y189333D01*
X31400Y189200D01*
Y192000D01*
G01X52118Y-9303D02*
X51843Y-9703D01*
X51660Y-10170D01*
Y-10703D01*
X51935Y-11303D01*
X52393Y-11770D01*
X52943Y-12103D01*
X53860Y-12370D01*
X54685Y-12437D01*
X55510Y-12303D01*
X56060Y-12103D01*
X56610Y-11703D01*
X56977Y-11237D01*
X57160Y-10770D01*
Y-10303D01*
X56977Y-9837D01*
X56702Y-9437D01*
X56335Y-9103D01*
G01X52577Y-7537D02*
X52027Y-7137D01*
X51752Y-6670D01*
X51660Y-6137D01*
X51843Y-5470D01*
X52302Y-5003D01*
X52852Y-4870D01*
X53402Y-4937D01*
X53860Y-5203D01*
X54777Y-6537D01*
X55418Y-7137D01*
X56335Y-7537D01*
X57160Y-7670D01*
Y-4870D01*
G01X50718Y28997D02*
X50443Y28597D01*
X50260Y28130D01*
Y27597D01*
X50535Y26997D01*
X50993Y26530D01*
X51543Y26197D01*
X52460Y25930D01*
X53285Y25863D01*
X54110Y25997D01*
X54660Y26197D01*
X55210Y26597D01*
X55577Y27063D01*
X55760Y27530D01*
Y27997D01*
X55577Y28463D01*
X55302Y28863D01*
X54935Y29197D01*
G01X55760Y32030D02*
X50260D01*
X51360Y31230D01*
G01X55760D02*
Y32830D01*
G01X51037Y43810D02*
Y49310D01*
X52703D01*
X53237Y49035D01*
X53570Y48668D01*
X53703Y47935D01*
X53570Y47202D01*
X53170Y46743D01*
X52703Y46468D01*
X51037D01*
G01X52703D02*
X53703Y43810D01*
G01X55603Y46102D02*
X56070Y46743D01*
X56470Y47110D01*
X57003Y47293D01*
X57470Y47110D01*
X57803Y46743D01*
X58070Y46193D01*
X58137Y45552D01*
X58070Y45002D01*
X57803Y44452D01*
X57403Y43993D01*
X56937Y43810D01*
X56403Y43993D01*
X55937Y44543D01*
X55670Y45368D01*
X55603Y46285D01*
X55737Y47477D01*
X55937Y48118D01*
X56270Y48760D01*
X56737Y49218D01*
X57203Y49310D01*
X57670Y49127D01*
X58003Y48668D01*
G01X73550Y185953D02*
X74083Y185495D01*
X74683Y185220D01*
X75217D01*
X75750Y185495D01*
X76150Y185953D01*
X76350Y186595D01*
X76217Y187237D01*
X75883Y187787D01*
X75283Y188153D01*
X74483Y188337D01*
X74017Y188703D01*
X73817Y189345D01*
X73950Y189987D01*
X74283Y190445D01*
X74750Y190720D01*
X75217D01*
X75683Y190537D01*
X76083Y190078D01*
G01X77450Y190720D02*
X78383Y185220D01*
X79450Y190720D01*
X80517Y185220D01*
X81450Y190720D01*
G01X84750Y185220D02*
Y190720D01*
X82283Y186778D01*
X85617D01*
G01X60610Y166127D02*
X55110D01*
Y167793D01*
X55385Y168327D01*
X55752Y168660D01*
X56485Y168793D01*
X57218Y168660D01*
X57677Y168260D01*
X57952Y167793D01*
Y166127D01*
G01Y167793D02*
X60610Y168793D01*
G01Y171960D02*
X55110D01*
X56210Y171160D01*
G01X60610D02*
Y172760D01*
G01X55110Y176460D02*
X55293Y175927D01*
X55752Y175527D01*
X56302Y175260D01*
X57035Y175060D01*
X57860Y174993D01*
X58685Y175060D01*
X59418Y175260D01*
X59968Y175527D01*
X60427Y175927D01*
X60610Y176460D01*
X60427Y176993D01*
X59968Y177393D01*
X59418Y177660D01*
X58685Y177860D01*
X57860Y177927D01*
X57035Y177860D01*
X56302Y177660D01*
X55752Y177393D01*
X55293Y176993D01*
X55110Y176460D01*
G01X85563Y48720D02*
Y44778D01*
X85830Y43953D01*
X86363Y43403D01*
X87030Y43220D01*
X87697Y43403D01*
X88230Y43953D01*
X88497Y44778D01*
Y48720D01*
G01X91530Y43220D02*
Y48720D01*
X90730Y47620D01*
G01Y43220D02*
X92330D01*
G01X109317Y47532D02*
X108917Y47807D01*
X108450Y47990D01*
X107917D01*
X107317Y47715D01*
X106850Y47257D01*
X106517Y46707D01*
X106250Y45790D01*
X106183Y44965D01*
X106317Y44140D01*
X106517Y43590D01*
X106917Y43040D01*
X107383Y42673D01*
X107850Y42490D01*
X108317D01*
X108783Y42673D01*
X109183Y42948D01*
X109517Y43315D01*
G01X110883Y43590D02*
X111283Y42948D01*
X111817Y42582D01*
X112417Y42490D01*
X112950Y42582D01*
X113483Y43040D01*
X113817Y43590D01*
X113883Y44140D01*
X113750Y44782D01*
X113283Y45240D01*
X112817Y45423D01*
X112217D01*
G01X112817D02*
X113217Y45698D01*
X113550Y46157D01*
X113683Y46707D01*
X113550Y47257D01*
X113217Y47715D01*
X112617Y47990D01*
X112017Y47898D01*
X111417Y47532D01*
G01X109667Y55602D02*
X109267Y55877D01*
X108800Y56060D01*
X108267D01*
X107667Y55785D01*
X107200Y55327D01*
X106867Y54777D01*
X106600Y53860D01*
X106533Y53035D01*
X106667Y52210D01*
X106867Y51660D01*
X107267Y51110D01*
X107733Y50743D01*
X108200Y50560D01*
X108667D01*
X109133Y50743D01*
X109533Y51018D01*
X109867Y51385D01*
G01X113500Y50560D02*
Y56060D01*
X111033Y52118D01*
X114367D01*
G01X110017Y62352D02*
X109617Y62627D01*
X109150Y62810D01*
X108617D01*
X108017Y62535D01*
X107550Y62077D01*
X107217Y61527D01*
X106950Y60610D01*
X106883Y59785D01*
X107017Y58960D01*
X107217Y58410D01*
X107617Y57860D01*
X108083Y57493D01*
X108550Y57310D01*
X109017D01*
X109483Y57493D01*
X109883Y57768D01*
X110217Y58135D01*
G01X111583D02*
X111983Y57677D01*
X112450Y57402D01*
X113050Y57310D01*
X113650Y57493D01*
X114117Y57860D01*
X114450Y58502D01*
X114517Y59235D01*
X114383Y59968D01*
X114050Y60427D01*
X113583Y60793D01*
X113117Y60885D01*
X112650Y60793D01*
X112050Y60427D01*
X112250Y62810D01*
X114050D01*
G01X98437Y58580D02*
Y62522D01*
X98170Y63347D01*
X97637Y63897D01*
X96970Y64080D01*
X96303Y63897D01*
X95770Y63347D01*
X95503Y62522D01*
Y58580D01*
G01X93737Y59497D02*
X93337Y58947D01*
X92870Y58672D01*
X92337Y58580D01*
X91670Y58763D01*
X91203Y59222D01*
X91070Y59772D01*
X91137Y60322D01*
X91403Y60780D01*
X92737Y61697D01*
X93337Y62338D01*
X93737Y63255D01*
X93870Y64080D01*
X91070D01*
G01X88318Y90097D02*
X88043Y89697D01*
X87860Y89230D01*
Y88697D01*
X88135Y88097D01*
X88593Y87630D01*
X89143Y87297D01*
X90060Y87030D01*
X90885Y86963D01*
X91710Y87097D01*
X92260Y87297D01*
X92810Y87697D01*
X93177Y88163D01*
X93360Y88630D01*
Y89097D01*
X93177Y89563D01*
X92902Y89963D01*
X92535Y90297D01*
G01X93360Y92997D02*
X92168Y93130D01*
X91160Y93330D01*
X90243Y93597D01*
X89235Y93930D01*
X87860Y94463D01*
Y91797D01*
G01X95858Y89567D02*
X95583Y89167D01*
X95400Y88700D01*
Y88167D01*
X95675Y87567D01*
X96133Y87100D01*
X96683Y86767D01*
X97600Y86500D01*
X98425Y86433D01*
X99250Y86567D01*
X99800Y86767D01*
X100350Y87167D01*
X100717Y87633D01*
X100900Y88100D01*
Y88567D01*
X100717Y89033D01*
X100442Y89433D01*
X100075Y89767D01*
G01X100900Y92600D02*
X100808Y93067D01*
X100533Y93600D01*
X100075Y93933D01*
X99433Y94067D01*
X98792Y93933D01*
X98242Y93533D01*
X97967Y92933D01*
Y92267D01*
X97783Y91867D01*
X97325Y91533D01*
X96683Y91400D01*
X96042Y91600D01*
X95583Y92067D01*
X95400Y92600D01*
X95583Y93133D01*
X96042Y93600D01*
X96683Y93800D01*
X97325Y93667D01*
X97783Y93333D01*
X97967Y92933D01*
Y92267D01*
X98242Y91667D01*
X98792Y91267D01*
X99433Y91133D01*
X100075Y91267D01*
X100533Y91600D01*
X100808Y92133D01*
X100900Y92600D01*
G01X106950Y186123D02*
X107483Y185665D01*
X108083Y185390D01*
X108617D01*
X109150Y185665D01*
X109550Y186123D01*
X109750Y186765D01*
X109617Y187407D01*
X109283Y187957D01*
X108683Y188323D01*
X107883Y188507D01*
X107417Y188873D01*
X107217Y189515D01*
X107350Y190157D01*
X107683Y190615D01*
X108150Y190890D01*
X108617D01*
X109083Y190707D01*
X109483Y190248D01*
G01X110850Y190890D02*
X111783Y185390D01*
X112850Y190890D01*
X113917Y185390D01*
X114850Y190890D01*
G01X115883Y186490D02*
X116283Y185848D01*
X116817Y185482D01*
X117417Y185390D01*
X117950Y185482D01*
X118483Y185940D01*
X118817Y186490D01*
X118883Y187040D01*
X118750Y187682D01*
X118283Y188140D01*
X117817Y188323D01*
X117217D01*
G01X117817D02*
X118217Y188598D01*
X118550Y189057D01*
X118683Y189607D01*
X118550Y190157D01*
X118217Y190615D01*
X117617Y190890D01*
X117017Y190798D01*
X116417Y190432D01*
G01X96470Y170617D02*
X90970D01*
Y172283D01*
X91245Y172817D01*
X91612Y173150D01*
X92345Y173283D01*
X93078Y173150D01*
X93537Y172750D01*
X93812Y172283D01*
Y170617D01*
G01Y172283D02*
X96470Y173283D01*
G01X95828Y175317D02*
X96287Y175783D01*
X96470Y176317D01*
X96287Y176850D01*
X95737Y177317D01*
X94912Y177650D01*
X94087Y177783D01*
X93078D01*
X92253Y177650D01*
X91520Y177317D01*
X91153Y176917D01*
X90970Y176450D01*
X91153Y175917D01*
X91520Y175517D01*
X92070Y175250D01*
X92803Y175117D01*
X93445Y175250D01*
X94087Y175583D01*
X94453Y175983D01*
X94545Y176450D01*
X94362Y176983D01*
X93903Y177383D01*
X93078Y177783D01*
G01X142880Y28477D02*
X137380D01*
Y30143D01*
X137655Y30677D01*
X138022Y31010D01*
X138755Y31143D01*
X139488Y31010D01*
X139947Y30610D01*
X140222Y30143D01*
Y28477D01*
G01Y30143D02*
X142880Y31143D01*
G01Y34310D02*
X137380D01*
X138480Y33510D01*
G01X142880D02*
Y35110D01*
G01X130160Y169637D02*
X124660D01*
Y171303D01*
X124935Y171837D01*
X125302Y172170D01*
X126035Y172303D01*
X126768Y172170D01*
X127227Y171770D01*
X127502Y171303D01*
Y169637D01*
G01Y171303D02*
X130160Y172303D01*
G01Y175470D02*
X130068Y175937D01*
X129793Y176470D01*
X129335Y176803D01*
X128693Y176937D01*
X128052Y176803D01*
X127502Y176403D01*
X127227Y175803D01*
Y175137D01*
X127043Y174737D01*
X126585Y174403D01*
X125943Y174270D01*
X125302Y174470D01*
X124843Y174937D01*
X124660Y175470D01*
X124843Y176003D01*
X125302Y176470D01*
X125943Y176670D01*
X126585Y176537D01*
X127043Y176203D01*
X127227Y175803D01*
Y175137D01*
X127502Y174537D01*
X128052Y174137D01*
X128693Y174003D01*
X129335Y174137D01*
X129793Y174470D01*
X130068Y175003D01*
X130160Y175470D01*
G01X142100Y184723D02*
X142633Y184265D01*
X143233Y183990D01*
X143767D01*
X144300Y184265D01*
X144700Y184723D01*
X144900Y185365D01*
X144767Y186007D01*
X144433Y186557D01*
X143833Y186923D01*
X143033Y187107D01*
X142567Y187473D01*
X142367Y188115D01*
X142500Y188757D01*
X142833Y189215D01*
X143300Y189490D01*
X143767D01*
X144233Y189307D01*
X144633Y188848D01*
G01X146000Y189490D02*
X146933Y183990D01*
X148000Y189490D01*
X149067Y183990D01*
X150000Y189490D01*
G01X151233Y188573D02*
X151633Y189123D01*
X152100Y189398D01*
X152633Y189490D01*
X153300Y189307D01*
X153767Y188848D01*
X153900Y188298D01*
X153833Y187748D01*
X153567Y187290D01*
X152233Y186373D01*
X151633Y185732D01*
X151233Y184815D01*
X151100Y183990D01*
X153900D01*
G01X165690Y168547D02*
X160190D01*
Y170213D01*
X160465Y170747D01*
X160832Y171080D01*
X161565Y171213D01*
X162298Y171080D01*
X162757Y170680D01*
X163032Y170213D01*
Y168547D01*
G01Y170213D02*
X165690Y171213D01*
G01Y174247D02*
X164498Y174380D01*
X163490Y174580D01*
X162573Y174847D01*
X161565Y175180D01*
X160190Y175713D01*
Y173047D01*
G01X179177Y142930D02*
X179510Y142380D01*
X179910Y142013D01*
X180377Y141830D01*
X180910Y142013D01*
X181310Y142380D01*
X181710Y142930D01*
X181843Y143663D01*
Y147330D01*
G01X185810Y141830D02*
Y147330D01*
X183343Y143388D01*
X186677D01*
G01X177520Y184723D02*
X178053Y184265D01*
X178653Y183990D01*
X179187D01*
X179720Y184265D01*
X180120Y184723D01*
X180320Y185365D01*
X180187Y186007D01*
X179853Y186557D01*
X179253Y186923D01*
X178453Y187107D01*
X177987Y187473D01*
X177787Y188115D01*
X177920Y188757D01*
X178253Y189215D01*
X178720Y189490D01*
X179187D01*
X179653Y189307D01*
X180053Y188848D01*
G01X181420Y189490D02*
X182353Y183990D01*
X183420Y189490D01*
X184487Y183990D01*
X185420Y189490D01*
G01X187920Y183990D02*
Y189490D01*
X187120Y188390D01*
G01Y183990D02*
X188720D01*
G01X200770Y166587D02*
X195270D01*
Y168253D01*
X195545Y168787D01*
X195912Y169120D01*
X196645Y169253D01*
X197378Y169120D01*
X197837Y168720D01*
X198112Y168253D01*
Y166587D01*
G01Y168253D02*
X200770Y169253D01*
G01Y172420D02*
X195270D01*
X196370Y171620D01*
G01X200770D02*
Y173220D01*
G01Y176920D02*
X195270D01*
X196370Y176120D01*
G01X200770D02*
Y177720D01*
G01X211970Y185863D02*
X212503Y185405D01*
X213103Y185130D01*
X213637D01*
X214170Y185405D01*
X214570Y185863D01*
X214770Y186505D01*
X214637Y187147D01*
X214303Y187697D01*
X213703Y188063D01*
X212903Y188247D01*
X212437Y188613D01*
X212237Y189255D01*
X212370Y189897D01*
X212703Y190355D01*
X213170Y190630D01*
X213637D01*
X214103Y190447D01*
X214503Y189988D01*
G01X215870Y190630D02*
X216803Y185130D01*
X217870Y190630D01*
X218937Y185130D01*
X219870Y190630D01*
G01X221237Y185772D02*
X221703Y185313D01*
X222237Y185130D01*
X222770Y185313D01*
X223237Y185863D01*
X223570Y186688D01*
X223703Y187513D01*
Y188522D01*
X223570Y189347D01*
X223237Y190080D01*
X222837Y190447D01*
X222370Y190630D01*
X221837Y190447D01*
X221437Y190080D01*
X221170Y189530D01*
X221037Y188797D01*
X221170Y188155D01*
X221503Y187513D01*
X221903Y187147D01*
X222370Y187055D01*
X222903Y187238D01*
X223303Y187697D01*
X223703Y188522D01*
G01X257717Y-240D02*
Y5260D01*
X259383D01*
X259917Y4985D01*
X260250Y4618D01*
X260383Y3885D01*
X260250Y3152D01*
X259850Y2693D01*
X259383Y2418D01*
X257717D01*
G01X259383D02*
X260383Y-240D01*
G01X262083Y585D02*
X262483Y127D01*
X262950Y-148D01*
X263550Y-240D01*
X264150Y-57D01*
X264617Y310D01*
X264950Y952D01*
X265017Y1685D01*
X264883Y2418D01*
X264550Y2877D01*
X264083Y3243D01*
X263617Y3335D01*
X263150Y3243D01*
X262550Y2877D01*
X262750Y5260D01*
X264550D01*
G01X238777Y141880D02*
X239110Y141330D01*
X239510Y140963D01*
X239977Y140780D01*
X240510Y140963D01*
X240910Y141330D01*
X241310Y141880D01*
X241443Y142613D01*
Y146280D01*
G01X243143Y141605D02*
X243543Y141147D01*
X244010Y140872D01*
X244610Y140780D01*
X245210Y140963D01*
X245677Y141330D01*
X246010Y141972D01*
X246077Y142705D01*
X245943Y143438D01*
X245610Y143897D01*
X245143Y144263D01*
X244677Y144355D01*
X244210Y144263D01*
X243610Y143897D01*
X243810Y146280D01*
X245610D01*
G01X243023Y160940D02*
Y166440D01*
X244357D01*
X244890Y166165D01*
X245290Y165798D01*
X245623Y165248D01*
X245890Y164607D01*
X245957Y163690D01*
X245890Y162773D01*
X245623Y162132D01*
X245290Y161582D01*
X244890Y161215D01*
X244357Y160940D01*
X243023D01*
G01X248990D02*
Y166440D01*
X248190Y165340D01*
G01Y160940D02*
X249790D01*
G01X239463Y175760D02*
X239130Y176310D01*
X238730Y176677D01*
X238263Y176860D01*
X237730Y176677D01*
X237330Y176310D01*
X236930Y175760D01*
X236797Y175027D01*
Y171360D01*
G01X233630Y176860D02*
X233163Y176768D01*
X232630Y176493D01*
X232297Y176035D01*
X232163Y175393D01*
X232297Y174752D01*
X232697Y174202D01*
X233297Y173927D01*
X233963D01*
X234363Y173743D01*
X234697Y173285D01*
X234830Y172643D01*
X234630Y172002D01*
X234163Y171543D01*
X233630Y171360D01*
X233097Y171543D01*
X232630Y172002D01*
X232430Y172643D01*
X232563Y173285D01*
X232897Y173743D01*
X233297Y173927D01*
X233963D01*
X234563Y174202D01*
X234963Y174752D01*
X235097Y175393D01*
X234963Y176035D01*
X234630Y176493D01*
X234097Y176768D01*
X233630Y176860D01*
G01X268227Y96220D02*
Y101720D01*
X269893D01*
X270427Y101445D01*
X270760Y101078D01*
X270893Y100345D01*
X270760Y99612D01*
X270360Y99153D01*
X269893Y98878D01*
X268227D01*
G01X269893D02*
X270893Y96220D01*
G01X272593Y97320D02*
X272993Y96678D01*
X273527Y96312D01*
X274127Y96220D01*
X274660Y96312D01*
X275193Y96770D01*
X275527Y97320D01*
X275593Y97870D01*
X275460Y98512D01*
X274993Y98970D01*
X274527Y99153D01*
X273927D01*
G01X274527D02*
X274927Y99428D01*
X275260Y99887D01*
X275393Y100437D01*
X275260Y100987D01*
X274927Y101445D01*
X274327Y101720D01*
X273727Y101628D01*
X273127Y101262D01*
G01X266827Y126290D02*
Y131790D01*
X268493D01*
X269027Y131515D01*
X269360Y131148D01*
X269493Y130415D01*
X269360Y129682D01*
X268960Y129223D01*
X268493Y128948D01*
X266827D01*
G01X268493D02*
X269493Y126290D01*
G01X273460D02*
Y131790D01*
X270993Y127848D01*
X274327D01*
G01X296603Y184550D02*
X296270Y185100D01*
X295870Y185467D01*
X295403Y185650D01*
X294870Y185467D01*
X294470Y185100D01*
X294070Y184550D01*
X293937Y183817D01*
Y180150D01*
G01X292237Y184550D02*
X291837Y185192D01*
X291303Y185558D01*
X290703Y185650D01*
X290170Y185558D01*
X289637Y185100D01*
X289303Y184550D01*
X289237Y184000D01*
X289370Y183358D01*
X289837Y182900D01*
X290303Y182717D01*
X290903D01*
G01X290303D02*
X289903Y182442D01*
X289570Y181983D01*
X289437Y181433D01*
X289570Y180883D01*
X289903Y180425D01*
X290503Y180150D01*
X291103Y180242D01*
X291703Y180608D01*
G01X269457Y170290D02*
Y175790D01*
X271123D01*
X271657Y175515D01*
X271990Y175148D01*
X272123Y174415D01*
X271990Y173682D01*
X271590Y173223D01*
X271123Y172948D01*
X269457D01*
G01X271123D02*
X272123Y170290D01*
G01X274023Y174873D02*
X274423Y175423D01*
X274890Y175698D01*
X275423Y175790D01*
X276090Y175607D01*
X276557Y175148D01*
X276690Y174598D01*
X276623Y174048D01*
X276357Y173590D01*
X275023Y172673D01*
X274423Y172032D01*
X274023Y171115D01*
X273890Y170290D01*
X276690D01*
G01X350750Y84013D02*
X350200Y83680D01*
X349833Y83280D01*
X349650Y82813D01*
X349833Y82280D01*
X350200Y81880D01*
X350750Y81480D01*
X351483Y81347D01*
X355150D01*
G01X349650Y78180D02*
X355150D01*
X354050Y78980D01*
G01X349650D02*
Y77380D01*
G01X351450Y174613D02*
X350900Y174280D01*
X350533Y173880D01*
X350350Y173413D01*
X350533Y172880D01*
X350900Y172480D01*
X351450Y172080D01*
X352183Y171947D01*
X355850D01*
G01X354933Y170047D02*
X355483Y169647D01*
X355758Y169180D01*
X355850Y168647D01*
X355667Y167980D01*
X355208Y167513D01*
X354658Y167380D01*
X354108Y167447D01*
X353650Y167713D01*
X352733Y169047D01*
X352092Y169647D01*
X351175Y170047D01*
X350350Y170180D01*
Y167380D01*
G54D12*
G01X118110Y48819D02*
X131890D01*
Y40945D01*
X117716D01*
Y48819D01*
X118110D01*
G54D13*
G01X253228Y164173D02*
G03I-472J0D01*
G54D14*
G01X77874Y36929D02*
G03I-393J0D01*
G01X124803Y47047D02*
Y42716D01*
G01X191606Y126299D02*
G03I-394J0D01*
G01X251606D02*
G03I-394J0D01*
G01X363360Y89670D02*
X373360D01*
Y19670D01*
X363360D01*
Y89670D01*
G01X368754Y92229D02*
G03I-394J0D01*
G01X364291Y180196D02*
X374291D01*
Y110196D01*
X364291D01*
Y180196D01*
G01X369684Y182756D02*
G03I-394J0D01*
G54D15*
G01X74866Y63653D02*
X66866D01*
G54D16*
G01X-6299Y215748D02*
X372047D01*
G02X379921Y207874I0J-7874D01*
G01Y-12992D01*
G02X372441Y-20472I-7480J0D01*
G01X-5715D01*
G02X-11417Y-18110I0J8065D01*
G02X-13780Y-12408I5703J5703D01*
G01Y209190D01*
G02X-12205Y212992I5377J0D01*
G01X-11676Y213521D01*
G02X-6299Y215748I5377J-5377D01*
M02*
