G04 ================== begin FILE IDENTIFICATION RECORD ==================*
G04 Layout Name:  D:/Sankar/ozone_alice_sensors (1)/ozone_alice_sensors/Sensor.brd*
G04 Film Name:    TOP*
G04 File Format:  Gerber RS274X*
G04 File Origin:  Cadence Allegro 16.6-P004*
G04 Origin Date:  Fri May 21 14:24:47 2021*
G04 *
G04 Layer:  DRAWING FORMAT/TITLE_BLOCK*
G04 Layer:  BOARD GEOMETRY/OUTLINE*
G04 Layer:  ETCH/TOP*
G04 Layer:  PIN/TOP*
G04 Layer:  VIA CLASS/TOP*
G04 *
G04 Offset:    (0.000 0.000)*
G04 Mirror:    No*
G04 Mode:      Positive*
G04 Rotation:  0*
G04 FullContactRelief:  No*
G04 UndefLineWidth:     0.000*
G04 ================== end FILE IDENTIFICATION RECORD ====================*
%FSLAX25Y25*MOIN*%
%IR0*IPPOS*OFA0.00000B0.00000*MIA0B0*SFA1.00000B1.00000*%
%ADD10C,.13*%
%ADD17R,.07874X.216535*%
%AMMACRO20*
4,1,40,.034646,-.011811,
-.034646,-.011811,
-.035159,-.011765,
-.035657,-.011631,
-.036124,-.011412,
-.036546,-.011116,
-.036909,-.010751,
-.037204,-.010328,
-.037421,-.009861,
-.037554,-.009362,
-.037598,-.008858,
-.037598,.008858,
-.037552,.009371,
-.037418,.009869,
-.0372,.010336,
-.036904,.010758,
-.036539,.011122,
-.036116,.011417,
-.035649,.011634,
-.03515,.011767,
-.034646,.011811,
.034646,.011811,
.035159,.011765,
.035657,.011631,
.036124,.011412,
.036546,.011116,
.036909,.010751,
.037204,.010328,
.037421,.009861,
.037554,.009362,
.037598,.008858,
.037598,-.008858,
.037552,-.009371,
.037418,-.009869,
.0372,-.010336,
.036904,-.010758,
.036539,-.011122,
.036116,-.011417,
.035649,-.011634,
.03515,-.011767,
.034646,-.011811,
0.0*
%
%ADD20MACRO20*%
%AMMACRO24*
4,1,44,.013335,-.018307,
-.013335,-.018307,
-.014129,-.018239,
-.014899,-.018034,
-.015621,-.017699,
-.016274,-.017243,
-.016839,-.016681,
-.017297,-.016029,
-.017635,-.015307,
-.017842,-.014538,
-.017913,-.013745,
-.017913,-.013732,
-.017913,.013732,
-.017844,.014526,
-.017639,.015295,
-.017303,.016018,
-.016847,.016671,
-.016284,.017235,
-.015632,.017692,
-.014911,.01803,
-.014141,.018237,
-.013348,.018307,
-.013335,.018307,
.013335,.018307,
.014129,.018239,
.014899,.018034,
.015621,.017699,
.016274,.017243,
.016839,.016681,
.017297,.016029,
.017635,.015307,
.017842,.014538,
.017913,.013745,
.017913,.013732,
.017913,-.013732,
.017844,-.014526,
.017639,-.015295,
.017303,-.016018,
.016847,-.016671,
.016284,-.017235,
.015632,-.017692,
.014911,-.01803,
.014141,-.018237,
.013348,-.018307,
.013335,-.018307,
0.0*
%
%ADD24MACRO24*%
%ADD19C,.024*%
%ADD13C,.06*%
%ADD12P,.070313X8X22.5*%
%ADD14R,.06X.06*%
%ADD22C,.055039*%
%ADD16R,.03937X.043307*%
%ADD15R,.043307X.03937*%
%ADD11C,.064961*%
%ADD26C,.053937*%
%ADD23R,.055039X.055039*%
%ADD25R,.064961X.064961*%
%ADD27R,.053937X.053937*%
%ADD21R,.045276X.057087*%
%ADD18R,.068898X.023622*%
%ADD28C,.008*%
%ADD29C,.012*%
%ADD30C,.019685*%
%ADD31C,.200006*%
%ADD33C,.104966*%
%ADD32C,.095044*%
%ADD35C,.093942*%
%ADD34R,.104966X.104966*%
%ADD36R,.09394X.09394*%
%ADD37R,.09394X.093942*%
G75*
%LPD*%
G75*
G36*
G01X5512Y-12205D02*
G02X964Y-11702I0J20825D01*
G02X1013Y-10914I87J390D01*
G03X-9006Y-5202I-963J9954D01*
G02X-9660Y-5645I-362J-170D01*
G02X-10860Y-4250I15172J14265D01*
G01X-10298Y192857D01*
G02X-9515Y192973I400J-1D01*
G03X-788Y205855I9565J2918D01*
G02X-1106Y206535I-34J399D01*
G02X4920Y212110I62784J-61820D01*
G01X362090Y211850D01*
G02X375070Y195990I-10987J-22233D01*
G01Y117297D01*
X373492D01*
G03X365089I-4201J-2100D01*
G01X329463D01*
X315013Y131747D01*
Y197824D01*
G03X317542Y200473I-2100J4538D01*
G02X318283I370J-151D01*
G03X327542I4630J1889D01*
G02X328283I370J-151D01*
G03Y204251I4630J1889D01*
G02X327542I-370J151D01*
G03X318283I-4630J-1889D01*
G02X317542I-370J151D01*
G03X308283I-4630J-1889D01*
G02X307542I-370J151D01*
G03Y200473I-4630J-1889D01*
G02X308283I370J-151D01*
G03X310813Y197824I4630J1889D01*
G01Y130007D01*
X327724Y113096D01*
X365089D01*
G03X373174Y112554I4201J2100D01*
G02X373787Y112612I331J-225D01*
G01X374671Y111728D01*
Y58541D01*
X372900Y56770D01*
X372563D01*
X372507Y56876D01*
G03X372561Y52570I-4147J-2206D01*
G01X374640D01*
X374729Y52658D01*
G02X375070Y52517I141J-141D01*
G01Y-3900D01*
G02X363780Y-12205I-11290J3523D01*
G01X247188D01*
G03X238167I-4511J-1496D01*
G01X187188D01*
G03X178167I-4511J-1496D01*
G01X151101D01*
X127229Y11667D01*
X126086D01*
G03X125980Y11773I-1323J-1215D01*
G02Y12361I271J294D01*
G03X126086Y12467I-1217J1320D01*
G01X133943D01*
X152211Y-5801D01*
X178414D01*
G03Y-1601I4263J2100D01*
G01X153951D01*
X135683Y16667D01*
X126086D01*
G03X125980Y16773I-1323J-1215D01*
G02Y17361I271J294D01*
G03X126086Y17467I-1217J1320D01*
G01X127229D01*
X127254Y17492D01*
X131700D01*
G03Y21692I1162J2100D01*
G01X126062D01*
G03X125980Y21773I-1299J-1240D01*
G02Y22361I271J294D01*
G03X126086Y22467I-1217J1320D01*
G01X136653D01*
X154921Y4199D01*
X178414D01*
G03Y8399I4263J2100D01*
G01X156661D01*
X138393Y26667D01*
X136146D01*
Y35768D01*
G02X136829Y36051I400J0D01*
G01X158681Y14199D01*
X178414D01*
G03Y18399I4263J2100D01*
G01X160421D01*
X137530Y41290D01*
Y71507D01*
G02X138033Y71894I400J0D01*
G03X140945Y73503I619J2319D01*
G01X140960Y73550D01*
X145810Y78400D01*
Y89400D01*
X102807Y132403D01*
X102793Y132450D01*
G03X99790Y129447I-2293J-710D01*
G01X99837Y129433D01*
X141610Y87660D01*
Y80140D01*
X137990Y76520D01*
X137943Y76505D01*
G03X137801Y76457I710J-2293D01*
G01X137767Y76444D01*
X137530D01*
Y90636D01*
X123311Y104856D01*
X1388D01*
G03X-5993Y98642I-4538J-2100D01*
G02X-6220Y97913I-227J-329D01*
G01X-8150D01*
Y87913D01*
X1851D01*
Y90813D01*
X8105D01*
X8108Y90810D01*
X8778D01*
Y89441D01*
X16109D01*
Y96379D01*
X8778D01*
Y95013D01*
X1851D01*
Y97913D01*
X-79D01*
G02X-306Y98642I0J400D01*
G03X1388Y100655I-2843J4113D01*
G01X121571D01*
X133330Y88896D01*
Y76758D01*
G02X132763Y76394I-400J0D01*
G03X130601Y76313I-1001J-2182D01*
G01X123519D01*
G03Y72112I-1162J-2100D01*
G01X130601D01*
G03X132763Y72031I1162J2100D01*
G02X133330Y71667I167J-364D01*
G01Y39296D01*
X129209D01*
Y38588D01*
G02X128742Y38194I-400J0D01*
G03X126301Y37084I-396J-2367D01*
G02X125742Y36958I-341J209D01*
G03X124765Y37248I-979J-1505D01*
G01X123399D01*
Y37918D01*
X123360Y37957D01*
Y40527D01*
X125024D01*
Y49236D01*
X123557D01*
Y50075D01*
X125122D01*
Y62524D01*
X124178D01*
G02X123790Y63018I0J400D01*
G03X119124I-2333J565D01*
G02X118735Y62524I-389J-94D01*
G01X117791D01*
Y50075D01*
X119160D01*
Y49236D01*
X117496D01*
Y40527D01*
X119160D01*
Y37248D01*
X117834D01*
G03X116039Y35453I1J-1796D01*
G01Y33680D01*
G03X116618Y32361I1796J1D01*
G02Y31773I-271J-294D01*
G03X116039Y30453I1217J-1320D01*
G01Y28681D01*
G03X116618Y27361I1796J1D01*
G02Y26773I-271J-294D01*
G03X116039Y25453I1217J-1320D01*
G01Y23680D01*
G03X116618Y22361I1796J1D01*
G02Y21773I-271J-294D01*
G03X116039Y20453I1217J-1320D01*
G01Y18680D01*
G03X116618Y17361I1796J1D01*
G02Y16773I-271J-294D01*
G03X116039Y15453I1217J-1320D01*
G01Y13681D01*
G03X116618Y12361I1796J1D01*
G02Y11773I-271J-294D01*
G03X116039Y10453I1217J-1320D01*
G01Y8680D01*
G03X116618Y7361I1796J1D01*
G02Y6773I-271J-294D01*
G03X116039Y5453I1217J-1320D01*
G01Y3680D01*
G03X116618Y2361I1796J1D01*
G02Y1773I-271J-294D01*
G03X116039Y453I1217J-1320D01*
G01Y-1320D01*
G03X116618Y-2639I1796J1D01*
G02Y-3227I-271J-294D01*
G03X116039Y-4547I1217J-1320D01*
G01Y-6320D01*
G03X117834Y-8114I1796J1D01*
G01X124765D01*
G03X126559Y-6320I-1J1796D01*
G01Y-4547D01*
G03X125980Y-3227I-1796J-1D01*
G02Y-2639I271J294D01*
G03X126559Y-1320I-1217J1320D01*
G01Y453D01*
G03X125980Y1773I-1796J-1D01*
G02Y2361I271J294D01*
G03X126559Y3680I-1217J1320D01*
G01Y5453D01*
G03X126494Y5933I-1796J-1D01*
G01X126462Y6046D01*
X126686Y6269D01*
X144478Y-11522D01*
G02X144195Y-12205I-283J-283D01*
G01X32996D01*
Y-6822D01*
X43382D01*
Y-8587D01*
X50319D01*
Y-6821D01*
X67519D01*
X72007Y-2333D01*
X80054D01*
G03X81535Y-3114I1482J1015D01*
G01X88465D01*
G03X90260Y-1320I-1J1796D01*
G01Y453D01*
G03X89681Y1773I-1796J-1D01*
G02Y2361I271J294D01*
G03X90260Y3680I-1217J1320D01*
G01Y5453D01*
G03X89681Y6773I-1796J-1D01*
G02Y7361I271J294D01*
G03X90260Y8680I-1217J1320D01*
G01Y10453D01*
G03X89681Y11773I-1796J-1D01*
G02Y12361I271J294D01*
G03X90260Y13681I-1217J1320D01*
G01Y15453D01*
G03X89681Y16773I-1796J-1D01*
G02Y17361I271J294D01*
G03X90260Y18680I-1217J1320D01*
G01Y20453D01*
G03X89681Y21773I-1796J-1D01*
G02Y22361I271J294D01*
G03X90260Y23680I-1217J1320D01*
G01Y25453D01*
G03X89681Y26773I-1796J-1D01*
G02Y27361I271J294D01*
G03X90260Y28681I-1217J1320D01*
G01Y30453D01*
G03X89681Y31773I-1796J-1D01*
G02Y32361I271J294D01*
G03X90260Y33680I-1217J1320D01*
G01Y35453D01*
G03X88465Y37248I-1796J-1D01*
G01X87100D01*
Y59432D01*
X85743Y60789D01*
G02X86026Y61472I283J283D01*
G01X86835D01*
Y66835D01*
X76945D01*
Y61472D01*
X79790D01*
Y60803D01*
X82900Y57692D01*
Y37248D01*
X81535D01*
G03X79740Y35453I1J-1796D01*
G01Y33680D01*
G03X80319Y32361I1796J1D01*
G02Y31773I-271J-294D01*
G03X80213Y31667I1217J-1320D01*
G01X79177D01*
X72966Y37878D01*
Y74327D01*
X75693Y77053D01*
X76945D01*
Y71472D01*
X86835D01*
Y72053D01*
X89838D01*
Y70547D01*
X101894D01*
Y72112D01*
X108486D01*
G03Y76313I1162J2100D01*
G01X101894D01*
Y77878D01*
X89838D01*
Y76313D01*
X89169D01*
X89110Y76254D01*
X86835D01*
Y81835D01*
X76945D01*
Y81254D01*
X73953D01*
X68766Y76067D01*
Y36138D01*
X77476Y27427D01*
X79901D01*
G03X80226Y27453I0J2100D01*
G03X80319Y27361I1310J1229D01*
G02Y26773I-271J-294D01*
G03X79740Y25453I1217J-1320D01*
G01Y23680D01*
G03X80319Y22361I1796J1D01*
G02Y21773I-271J-294D01*
G03X79740Y20453I1217J-1320D01*
G01Y18680D01*
G03X80319Y17361I1796J1D01*
G02Y16773I-271J-294D01*
G03X79740Y15453I1217J-1320D01*
G01Y13681D01*
G03X80319Y12361I1796J1D01*
G02Y11773I-271J-294D01*
G03X79740Y10453I1217J-1320D01*
G01Y8680D01*
G03X80319Y7361I1796J1D01*
G02Y6773I-271J-294D01*
G03X80054Y6467I1217J-1320D01*
G01X78226D01*
X50312Y34381D01*
X49925D01*
Y36146D01*
X42988D01*
Y34381D01*
X42601D01*
X42601Y34380D01*
X32996D01*
Y44807D01*
X22122D01*
Y20153D01*
X32996D01*
Y30580D01*
X42988D01*
Y28815D01*
X49925D01*
Y28910D01*
G02X50267Y29051I200J0D01*
G01X76652Y2667D01*
X80054D01*
G03X80319Y2361I1482J1015D01*
G02Y1773I-271J-294D01*
G03X80054Y1467I1217J-1320D01*
G01X70433D01*
X65945Y-3021D01*
X50319D01*
Y-1256D01*
X43382D01*
Y-3021D01*
X42995D01*
X32996Y-3021D01*
Y7406D01*
X22122D01*
Y-12205D01*
X5512D01*
G37*
%LPC*%
G75*
G36*
G01X99939Y194642D02*
Y187311D01*
X93001D01*
Y194642D01*
X94356D01*
Y199724D01*
X91456D01*
Y209724D01*
X101457D01*
Y207795D01*
G03X102186Y207567I400J0D01*
G02Y201881I4113J-2843D01*
G03X101457Y201654I-329J-227D01*
G01Y199724D01*
X98557D01*
Y195558D01*
X98570Y195545D01*
Y194642D01*
X99939D01*
G37*
G36*
G01X26319Y194112D02*
Y186781D01*
X19381D01*
Y194112D01*
X20734D01*
Y199724D01*
X17834D01*
Y209724D01*
X27835D01*
Y207795D01*
G03X28564Y207567I400J0D01*
G02Y201881I4113J-2843D01*
G03X27835Y201654I-329J-227D01*
G01Y199724D01*
X24935D01*
Y194797D01*
X24950Y194782D01*
Y194112D01*
X26319D01*
G37*
G36*
G01X64129Y193722D02*
Y186391D01*
X57191D01*
Y193722D01*
X58560D01*
Y194170D01*
X58530Y194200D01*
Y199724D01*
X55630D01*
Y209724D01*
X65630D01*
Y207795D01*
G03X66359Y207567I400J0D01*
G02Y201881I4113J-2843D01*
G03X65630Y201654I-329J-227D01*
G01Y199724D01*
X62730D01*
Y195940D01*
X62760Y195910D01*
Y193722D01*
X64129D01*
G37*
G36*
G01X264561Y160842D02*
X261896D01*
G02X259937Y162801I-2J1957D01*
G01Y165546D01*
G02X260144Y166424I1957J1D01*
G03X259787Y167004I-358J179D01*
G01X252830D01*
Y168372D01*
X251354D01*
G02Y172573I-1162J2100D01*
G01X252830D01*
Y173941D01*
X266855D01*
Y167004D01*
X266670D01*
G03X266312Y166424I0J-400D01*
G02X266520Y165546I-1750J-877D01*
G01Y162801D01*
G02X264561Y160842I-1957J-1D01*
G37*
G36*
G01X1063Y158923D02*
Y156023D01*
X-8937D01*
Y166024D01*
X-7008D01*
G03X-6780Y166753I0J400D01*
G02X-1094I2843J4113D01*
G03X-866Y166024I227J-329D01*
G01X1063D01*
Y163124D01*
X7800D01*
X7813Y163110D01*
X9068D01*
Y164479D01*
X16399D01*
Y157541D01*
X9068D01*
Y158910D01*
X6073D01*
X6060Y158923D01*
X1063D01*
G37*
G36*
G01X187429Y124199D02*
Y121547D01*
X177925D01*
Y131051D01*
X187429D01*
Y128399D01*
X201079D01*
X208529Y135849D01*
Y200186D01*
G02X206516Y201881I2100J4538D01*
G03X205787Y201654I-329J-227D01*
G01Y199724D01*
X202887D01*
Y194072D01*
X204239D01*
Y186741D01*
X197301D01*
Y194072D01*
X198670D01*
Y194742D01*
X198687Y194759D01*
Y199724D01*
X195787D01*
Y209724D01*
X205787D01*
Y207795D01*
G03X206516Y207567I400J0D01*
G02X212730Y200186I4113J-2843D01*
G01Y134110D01*
X202819Y124199D01*
X187429D01*
G37*
G36*
G01X251668Y94199D02*
X246940D01*
G02Y98399I-4263J2100D01*
G01X250997D01*
X250998Y98400D01*
X251668D01*
Y99769D01*
X259926D01*
Y121602D01*
X259346Y122182D01*
Y122851D01*
X251088D01*
Y124199D01*
X247429D01*
Y121547D01*
X237925D01*
Y131051D01*
X247429D01*
Y128399D01*
X250130D01*
X250151Y128420D01*
X251088D01*
Y129789D01*
X259346D01*
Y131043D01*
X259324Y131087D01*
G02X263570Y131075I2126J1113D01*
G01X263547Y131031D01*
Y129789D01*
X265112D01*
Y122851D01*
X264127D01*
Y99769D01*
X265692D01*
Y92831D01*
X251668D01*
Y94199D01*
G37*
G36*
G01X176891Y88399D02*
X178414D01*
G02Y84199I4263J-2100D01*
G01X175151D01*
X163480Y95870D01*
Y168720D01*
X173490Y178730D01*
Y200186D01*
G02X171477Y201881I2100J4538D01*
G03X170748Y201654I-329J-227D01*
G01Y199724D01*
X167848D01*
Y194112D01*
X169209D01*
Y186781D01*
X162271D01*
Y194112D01*
X163640D01*
Y194782D01*
X163648Y194790D01*
Y199724D01*
X160748D01*
Y209724D01*
X170748D01*
Y207795D01*
G03X171477Y207567I400J0D01*
G02X177690Y200186I4113J-2843D01*
G01Y176990D01*
X167680Y166980D01*
Y97610D01*
X176891Y88399D01*
G37*
G36*
G01X166360Y78460D02*
X178445D01*
G02X178414Y74199I4232J-2161D01*
G01X177655D01*
X177594Y74260D01*
X164620D01*
X154980Y83900D01*
Y95520D01*
X138057Y112443D01*
Y200186D01*
G02X136044Y201881I2100J4538D01*
G03X135315Y201654I-329J-227D01*
G01Y199724D01*
X132415D01*
Y196780D01*
X132430Y196765D01*
Y194712D01*
X133799D01*
Y187381D01*
X126861D01*
Y194712D01*
X128230D01*
Y195025D01*
X128215Y195040D01*
Y199724D01*
X125314D01*
Y209724D01*
X135315D01*
Y207795D01*
G03X136044Y207567I400J0D01*
G02X142257Y200186I4113J-2843D01*
G01Y114183D01*
X159180Y97260D01*
Y85640D01*
X166360Y78460D01*
G37*
G36*
G01X162431Y28399D02*
X178414D01*
G02Y24199I4263J-2100D01*
G01X160691D01*
X146325Y38565D01*
Y94406D01*
X103461Y137270D01*
X994D01*
G02X-700Y135256I-4538J2100D01*
G03X-473Y134528I227J-329D01*
G01X1457D01*
Y131628D01*
X1727D01*
X1744Y131610D01*
X8908D01*
Y132979D01*
X16239D01*
Y126041D01*
X8908D01*
Y127410D01*
X1457D01*
Y124527D01*
X-8544D01*
Y134528D01*
X-6614D01*
G03X-6386Y135256I0J400D01*
G02X994Y141470I2843J4113D01*
G01X105200D01*
X150525Y96145D01*
Y40305D01*
X162431Y28399D01*
G37*
G36*
G01X268492Y-7179D02*
X267232D01*
X267225Y-7371D01*
G02X262428I-2399J88D01*
G01X262421Y-7179D01*
X254468D01*
Y-5810D01*
X253798D01*
X253789Y-5801D01*
X246940D01*
G02Y-1601I-4263J2100D01*
G01X254468D01*
Y-241D01*
X268492D01*
Y-7179D01*
G37*
G36*
G01X45964Y50068D02*
G02X39450Y56598I-4625J1900D01*
G03Y57339I-151J370D01*
G02X36801Y59868I1889J4630D01*
G01X36069D01*
X35990Y59947D01*
X17405D01*
X3629Y59947D01*
G02X-3838Y66573I-4810J2100D01*
G03X-3757Y67201I-202J345D01*
G01X-6429Y69873D01*
Y74221D01*
X-3355Y77295D01*
X993D01*
X4067Y74221D01*
Y69873D01*
X1395Y67201D01*
G03X1476Y66573I283J-283D01*
G02X3629Y64147I-2657J-4526D01*
G01X15665D01*
X15666Y64147D01*
X36838D01*
G02X39238Y66506I4500J-2179D01*
G01Y71342D01*
X44150Y76254D01*
X54897D01*
Y81835D01*
X64788D01*
Y66472D01*
X54897D01*
Y67053D01*
X53281D01*
Y63468D01*
X59777Y56972D01*
Y55437D01*
X61343D01*
Y48500D01*
X47319D01*
Y50068D01*
X45964D01*
G37*
G54D31*
X354381Y-960D03*
Y195890D03*
G54D33*
X250826Y200393D03*
G54D32*
X182677Y36299D03*
Y46299D03*
Y56299D03*
Y66299D03*
Y106299D03*
Y116299D03*
X242677Y6299D03*
Y16299D03*
Y26299D03*
Y36299D03*
Y46299D03*
Y56299D03*
Y66299D03*
Y76299D03*
Y86299D03*
Y106299D03*
G54D35*
X368360Y24670D03*
Y34670D03*
Y44670D03*
Y64670D03*
X369291Y125196D03*
Y135196D03*
Y145196D03*
Y155196D03*
G54D34*
X235826Y200393D03*
G54D36*
X368360Y84670D03*
G54D37*
X369291Y175196D03*
%LPD*%
G75*
G36*
G01X45964Y53869D02*
G03X43228Y56598I-4625J-1900D01*
G02Y57339I151J370D01*
G03X43439Y66506I-1889J4630D01*
G01Y69602D01*
X45890Y72053D01*
X49677D01*
G02X49892Y71316I0J-400D01*
G03X49081Y68129I1289J-2025D01*
G01Y61728D01*
X54689Y56120D01*
G02X54406Y55437I-283J-283D01*
G01X47319D01*
Y53869D01*
X45964D01*
G37*
G54D10*
X50Y-960D03*
Y195891D03*
X354381Y-960D03*
Y195891D03*
G54D11*
X-1181Y62047D03*
X250826Y200393D03*
X265826D03*
G54D20*
X85000Y-5433D03*
Y-433D03*
Y4567D03*
Y9567D03*
Y14567D03*
Y19567D03*
Y24567D03*
Y29567D03*
Y34567D03*
X121299Y9567D03*
Y4567D03*
Y-433D03*
Y-5433D03*
Y34567D03*
Y29567D03*
Y24567D03*
Y19567D03*
Y14567D03*
G54D30*
G01X-6299Y215748D02*
X372047D01*
G02X379921Y207874I0J-7874D01*
G01Y-12992D01*
G02X372441Y-20472I-7480J0D01*
G01X-5715D01*
G02X-11417Y-18110I0J8065D01*
G02X-13780Y-12408I5703J5703D01*
G01Y209190D01*
G02X-12205Y212992I5377J0D01*
G01X-11676Y213521D01*
G02X-6299Y215748I5377J-5377D01*
G54D21*
X128346Y44882D03*
X121260D03*
G54D12*
X-1181Y72047D03*
G54D22*
X182677Y-13701D03*
Y-3701D03*
Y6299D03*
Y16299D03*
Y26299D03*
Y36299D03*
Y46299D03*
Y56299D03*
Y66299D03*
Y76299D03*
Y86299D03*
Y96299D03*
Y106299D03*
Y116299D03*
X242677Y-13701D03*
Y-3701D03*
Y6299D03*
Y16299D03*
Y26299D03*
Y36299D03*
Y46299D03*
Y56299D03*
Y66299D03*
Y76299D03*
Y86299D03*
Y96299D03*
Y106299D03*
Y116299D03*
G54D13*
X-3150Y102756D03*
X-3543Y139370D03*
X-3937Y170866D03*
X41339Y61968D03*
Y51968D03*
X32677Y204724D03*
X70472D03*
X106299D03*
X140157D03*
X175590D03*
X210630D03*
X292913Y202362D03*
X322913D03*
X312913D03*
X302913D03*
X332913D03*
G54D23*
X182677Y126299D03*
X242677D03*
G54D14*
X-3150Y92913D03*
X-3543Y129527D03*
X-3937Y161023D03*
X22835Y204724D03*
X60630D03*
X96457D03*
X130315D03*
X165748D03*
X200787D03*
G54D15*
X19136Y92910D03*
X12444D03*
X19266Y129510D03*
X12574D03*
X19426Y161010D03*
X12734D03*
X50984Y51968D03*
X57677D03*
X128150Y53543D03*
X121457D03*
X128150Y59055D03*
X121457D03*
X258134Y-3710D03*
X255334Y96300D03*
X254754Y126320D03*
X256496Y170472D03*
X264826Y-3710D03*
X262026Y96300D03*
X261446Y126320D03*
X263189Y170472D03*
G54D24*
X257244Y164173D03*
X263228D03*
G54D25*
X235826Y200393D03*
G54D16*
X46850Y-4921D03*
Y-11614D03*
X46457Y32480D03*
Y25787D03*
X22850Y183754D03*
Y190446D03*
X60660Y183364D03*
Y190056D03*
X93307Y74213D03*
X98425D03*
X93307Y80906D03*
X98425D03*
X96470Y184284D03*
Y190977D03*
X132677Y35630D03*
Y28937D03*
X130330Y184354D03*
Y191046D03*
X165740Y183754D03*
Y190446D03*
X200770Y183714D03*
Y190406D03*
G54D26*
X368360Y24670D03*
Y34670D03*
Y44670D03*
Y54670D03*
Y64670D03*
Y74670D03*
X369291Y115196D03*
Y125196D03*
Y135196D03*
Y145196D03*
Y155196D03*
Y165196D03*
G54D17*
X27559Y-4921D03*
Y32480D03*
G54D18*
X59842Y64154D03*
Y69154D03*
Y74154D03*
X81890D03*
Y69154D03*
Y64154D03*
X59842Y79154D03*
X81890D03*
G54D27*
X368360Y84670D03*
X369291Y175196D03*
G54D28*
G01X85000Y-433D02*
X71220D01*
X66732Y-4921D01*
X46850D01*
G01X27559Y-4921D02*
X43782D01*
X46850Y-4921D01*
G01X27559Y32480D02*
X43388D01*
X46457Y32480D01*
G01X85000Y4567D02*
X77439D01*
X49525Y32480D01*
X46457D01*
G01X41339Y51968D02*
X50984D01*
G54D19*
X51181Y69291D03*
X109647Y74213D03*
X100500Y131740D03*
X128346Y35827D03*
X132862Y19592D03*
X121457Y63582D03*
X138653Y74213D03*
X131763D03*
X122357D03*
X250192Y170472D03*
X264826Y-7284D03*
X261450Y132200D03*
G54D29*
G01X-1181Y62047D02*
X16535D01*
X36860Y62047D01*
X36939Y61968D01*
X41339D01*
G01X-3150Y102756D02*
X122441D01*
X135430Y89766D01*
Y40420D01*
X159551Y16299D01*
X182677D01*
G01X-3150Y92913D02*
X8975D01*
X8978Y92910D01*
X12444D01*
G01X12574Y129510D02*
X874D01*
X857Y129527D01*
X-3543D01*
G01X182677Y26299D02*
X161561D01*
X148425Y39435D01*
Y95275D01*
X104331Y139370D01*
X-3543D01*
G01X12734Y161010D02*
X6943D01*
X6930Y161023D01*
X-3937D01*
G01X59842Y74154D02*
X45020D01*
X41339Y70472D01*
Y61968D01*
G01X22835Y204724D02*
Y193927D01*
X22850Y193912D01*
Y190446D01*
G01X85000Y29567D02*
X79940D01*
X79901Y29528D01*
X78346D01*
X70866Y37008D01*
Y75197D01*
X74823Y79154D01*
X81890D01*
G01X51181Y69291D02*
X53781D01*
X53919Y69154D01*
X59842D01*
G01X57677Y51968D02*
Y56102D01*
X51181Y62598D01*
Y69291D01*
G01X60660Y190056D02*
Y195040D01*
X60630Y195070D01*
Y204724D01*
G01X85000Y34567D02*
Y58562D01*
X81890Y61672D01*
Y64154D01*
G01X98425Y74213D02*
X93307D01*
G01X81890Y74154D02*
X89980D01*
X90039Y74213D01*
X93307D01*
G01X98425D02*
X109647D01*
G01X100500Y131740D02*
X143710Y88530D01*
Y79270D01*
X138653Y74213D01*
G01X96470Y190977D02*
Y194675D01*
X96457Y194688D01*
Y204724D01*
G01X182677Y-3701D02*
X153081D01*
X134813Y14567D01*
X121299D01*
G01X242677Y-13701D02*
X238268Y-18110D01*
X154036D01*
X126359Y9567D01*
X121299D01*
G01X121260Y44882D02*
Y37087D01*
X121299Y37048D01*
Y34567D01*
G01X132677Y35630D02*
X128543D01*
X128346Y35827D01*
G01X132862Y19592D02*
X126384D01*
X126359Y19567D01*
X121299D01*
G01Y29567D02*
X128779D01*
X129409Y28937D01*
X132677D01*
G01X182677Y6299D02*
X155791D01*
X137523Y24567D01*
X121299D01*
G01X121457Y53543D02*
Y59055D01*
G01Y53543D02*
Y49233D01*
X121260Y49036D01*
Y44882D01*
G01X121457Y59055D02*
Y63582D01*
G01X122357Y74213D02*
X131763D01*
G01X130330Y191046D02*
Y195895D01*
X130315Y195910D01*
Y204724D01*
G01X175590D02*
Y177860D01*
X165580Y167850D01*
Y96740D01*
X176021Y86299D01*
X182677D01*
G01Y76299D02*
X178525D01*
X178464Y76360D01*
X165490D01*
X157080Y84770D01*
Y96390D01*
X140157Y113313D01*
Y204724D01*
G01X165748D02*
Y193920D01*
X165740Y193912D01*
Y190446D01*
G01X182677Y126299D02*
X201949D01*
X210630Y134980D01*
Y204724D01*
G01X200787D02*
Y193889D01*
X200770Y193872D01*
Y190406D01*
G01X242677Y-3701D02*
X254659D01*
X254668Y-3710D01*
X258134D01*
G01X242677Y96299D02*
X251867D01*
X251868Y96300D01*
X255334D01*
G01X254754Y126320D02*
X251021D01*
X251000Y126299D01*
X242677D01*
G01X256496Y170472D02*
X250192D01*
G01X264826Y-3710D02*
Y-7284D01*
G01X262026Y96300D02*
Y122472D01*
X261446Y123052D01*
Y126320D01*
G01X261450Y132200D02*
X261446Y132196D01*
Y126320D01*
G01X263189Y170472D02*
Y164212D01*
X263228Y164173D01*
G01X312913Y202362D02*
Y130877D01*
X328594Y115196D01*
X369291D01*
G01X368360Y54670D02*
X373770D01*
X376771Y57671D01*
Y112598D01*
X374173Y115196D01*
X369291D01*
M02*
