G04 ================== begin FILE IDENTIFICATION RECORD ==================*
G04 Layout Name:  D:/Sankar/AcceleroMeter_con/AC_CON.brd*
G04 Film Name:    SILK_TOP*
G04 File Format:  Gerber RS274X*
G04 File Origin:  Cadence Allegro 16.6-P004*
G04 Origin Date:  Fri May 28 18:59:21 2021*
G04 *
G04 Layer:  REF DES/SILKSCREEN_TOP*
G04 Layer:  PACKAGE GEOMETRY/SILKSCREEN_TOP*
G04 Layer:  MANUFACTURING/AUTOSILK_TOP*
G04 Layer:  DRAWING FORMAT/TITLE_BLOCK*
G04 Layer:  BOARD GEOMETRY/OUTLINE*
G04 Layer:  BOARD GEOMETRY/SILKSCREEN_TOP*
G04 *
G04 Offset:    (0.000 0.000)*
G04 Mirror:    No*
G04 Mode:      Positive*
G04 Rotation:  0*
G04 FullContactRelief:  No*
G04 UndefLineWidth:     0.000*
G04 ================== end FILE IDENTIFICATION RECORD ====================*
%FSLAX25Y25*MOIN*%
%IR0*IPPOS*OFA0.00000B0.00000*MIA0B0*SFA1.00000B1.00000*%
%ADD10C,.008*%
%ADD11C,.01*%
G75*
%LPD*%
G75*
G54D10*
G01X-57241Y5302D02*
X-57774Y5393D01*
X-58241Y5760D01*
X-58641Y6310D01*
X-58908Y6952D01*
X-59041Y7685D01*
Y8419D01*
X-58908Y9152D01*
X-58641Y9794D01*
X-58241Y10343D01*
X-57774Y10710D01*
X-57241Y10802D01*
X-56708Y10710D01*
X-56241Y10343D01*
X-55841Y9794D01*
X-55574Y9152D01*
X-55441Y8419D01*
Y7685D01*
X-55574Y6952D01*
X-55841Y6310D01*
X-56241Y5760D01*
X-56708Y5393D01*
X-57241Y5302D01*
G01X-54008Y10802D02*
X-51474D01*
X-54008Y5302D01*
X-51474D01*
G01X-48241D02*
X-48774Y5393D01*
X-49241Y5760D01*
X-49641Y6310D01*
X-49908Y6952D01*
X-50041Y7685D01*
Y8419D01*
X-49908Y9152D01*
X-49641Y9794D01*
X-49241Y10343D01*
X-48774Y10710D01*
X-48241Y10802D01*
X-47708Y10710D01*
X-47241Y10343D01*
X-46841Y9794D01*
X-46574Y9152D01*
X-46441Y8419D01*
Y7685D01*
X-46574Y6952D01*
X-46841Y6310D01*
X-47241Y5760D01*
X-47708Y5393D01*
X-48241Y5302D01*
G01X-45274D02*
Y10802D01*
X-42208Y5302D01*
Y10802D01*
G01X-37908Y5302D02*
X-40574D01*
Y10802D01*
X-37908D01*
G01X-38974Y8144D02*
X-40574D01*
G01X-36741Y3468D02*
X-32741D01*
G01X-31974Y5302D02*
Y10802D01*
X-30241Y6218D01*
X-28508Y10802D01*
Y5302D01*
G01X-25741D02*
X-26274Y5393D01*
X-26741Y5760D01*
X-27141Y6310D01*
X-27408Y6952D01*
X-27541Y7685D01*
Y8419D01*
X-27408Y9152D01*
X-27141Y9794D01*
X-26741Y10343D01*
X-26274Y10710D01*
X-25741Y10802D01*
X-25208Y10710D01*
X-24741Y10343D01*
X-24341Y9794D01*
X-24074Y9152D01*
X-23941Y8419D01*
Y7685D01*
X-24074Y6952D01*
X-24341Y6310D01*
X-24741Y5760D01*
X-25208Y5393D01*
X-25741Y5302D01*
G01X-21241Y10802D02*
Y5302D01*
G01X-22774Y10802D02*
X-19708D01*
G01X-16741Y5302D02*
X-17274Y5393D01*
X-17741Y5760D01*
X-18141Y6310D01*
X-18408Y6952D01*
X-18541Y7685D01*
Y8419D01*
X-18408Y9152D01*
X-18141Y9794D01*
X-17741Y10343D01*
X-17274Y10710D01*
X-16741Y10802D01*
X-16208Y10710D01*
X-15741Y10343D01*
X-15341Y9794D01*
X-15074Y9152D01*
X-14941Y8419D01*
Y7685D01*
X-15074Y6952D01*
X-15341Y6310D01*
X-15741Y5760D01*
X-16208Y5393D01*
X-16741Y5302D01*
G01X-13574D02*
Y10802D01*
X-11908D01*
X-11374Y10527D01*
X-11041Y10160D01*
X-10908Y9427D01*
X-11041Y8693D01*
X-11441Y8235D01*
X-11908Y7960D01*
X-13574D01*
G01X-11908D02*
X-10908Y5302D01*
G01X-50333Y17134D02*
X-49833Y17451D01*
X-49500Y17831D01*
X-49333Y18274D01*
X-49500Y18781D01*
X-49833Y19161D01*
X-50333Y19541D01*
X-51000Y19667D01*
X-54333D01*
G01X-53500Y21497D02*
X-54000Y21877D01*
X-54250Y22321D01*
X-54333Y22827D01*
X-54167Y23461D01*
X-53750Y23904D01*
X-53250Y24031D01*
X-52750Y23967D01*
X-52333Y23714D01*
X-51500Y22447D01*
X-50916Y21877D01*
X-50083Y21497D01*
X-49333Y21371D01*
Y24031D01*
G01X-54592Y31115D02*
Y36115D01*
X-53009D01*
X-52502Y35865D01*
X-52186Y35532D01*
X-52059Y34865D01*
X-52186Y34198D01*
X-52566Y33782D01*
X-53009Y33532D01*
X-54592D01*
G01X-53009D02*
X-52059Y31115D01*
G01X-48266D02*
Y36115D01*
X-50609Y32532D01*
X-47442D01*
G01X-55464Y55096D02*
Y60096D01*
X-53881D01*
X-53374Y59846D01*
X-53058Y59512D01*
X-52931Y58846D01*
X-53058Y58179D01*
X-53438Y57762D01*
X-53881Y57512D01*
X-55464D01*
G01X-53881D02*
X-52931Y55096D01*
G01X-51291Y56096D02*
X-50911Y55512D01*
X-50405Y55179D01*
X-49834Y55096D01*
X-49328Y55179D01*
X-48821Y55596D01*
X-48504Y56096D01*
X-48441Y56596D01*
X-48568Y57179D01*
X-49011Y57596D01*
X-49454Y57762D01*
X-50025D01*
G01X-49454D02*
X-49075Y58012D01*
X-48758Y58429D01*
X-48631Y58929D01*
X-48758Y59429D01*
X-49075Y59846D01*
X-49644Y60096D01*
X-50214Y60012D01*
X-50784Y59679D01*
G01X-54573Y71324D02*
Y76324D01*
X-52989D01*
X-52483Y76074D01*
X-52166Y75741D01*
X-52039Y75074D01*
X-52166Y74408D01*
X-52546Y73991D01*
X-52989Y73741D01*
X-54573D01*
G01X-52989D02*
X-52039Y71324D01*
G01X-50399Y72074D02*
X-50019Y71658D01*
X-49576Y71408D01*
X-49006Y71324D01*
X-48436Y71491D01*
X-47993Y71824D01*
X-47676Y72408D01*
X-47613Y73074D01*
X-47739Y73741D01*
X-48056Y74158D01*
X-48499Y74491D01*
X-48943Y74574D01*
X-49386Y74491D01*
X-49956Y74158D01*
X-49766Y76324D01*
X-48056D01*
G01X-21051Y17222D02*
X-20551Y17539D01*
X-20217Y17919D01*
X-20051Y18362D01*
X-20217Y18869D01*
X-20551Y19249D01*
X-21051Y19629D01*
X-21717Y19756D01*
X-25051D01*
G01X-20051Y22789D02*
X-25051D01*
X-24051Y22029D01*
G01X-20051D02*
Y23549D01*
G01X-36178Y30939D02*
Y35939D01*
X-34595D01*
X-34088Y35688D01*
X-33771Y35355D01*
X-33645Y34689D01*
X-33771Y34022D01*
X-34151Y33605D01*
X-34595Y33355D01*
X-36178D01*
G01X-34595D02*
X-33645Y30939D01*
G01X-31815Y35105D02*
X-31435Y35605D01*
X-30991Y35855D01*
X-30485Y35939D01*
X-29851Y35772D01*
X-29408Y35355D01*
X-29281Y34855D01*
X-29345Y34355D01*
X-29598Y33939D01*
X-30865Y33105D01*
X-31435Y32522D01*
X-31815Y31688D01*
X-31941Y30939D01*
X-29281D01*
G01X-35825Y55047D02*
Y60047D01*
X-34242D01*
X-33735Y59797D01*
X-33419Y59463D01*
X-33292Y58797D01*
X-33419Y58130D01*
X-33799Y57713D01*
X-34242Y57463D01*
X-35825D01*
G01X-34242D02*
X-33292Y55047D01*
G01X-30259D02*
Y60047D01*
X-31019Y59047D01*
G01Y55047D02*
X-29499D01*
G54D11*
G01X-73020Y78576D02*
X-20D01*
G02X3479Y75078I0J-3499D01*
G01Y1431D01*
G02X647Y-1401I-2832J0D01*
G01X-73324D01*
G02X-76548Y1823I0J3224D01*
G01Y75048D01*
G02X-73020Y78576I3528J0D01*
M02*
