G04 ================== begin FILE IDENTIFICATION RECORD ==================*
G04 Layout Name:  D:/Sankar/Personal/Backup/relay/Relay.brd*
G04 Film Name:    ASSY_BOT*
G04 File Format:  Gerber RS274X*
G04 File Origin:  Cadence Allegro 16.6-P004*
G04 Origin Date:  Tue Jun 29 11:59:57 2021*
G04 *
G04 Layer:  REF DES/ASSEMBLY_BOTTOM*
G04 Layer:  PIN/BOTTOM*
G04 Layer:  PACKAGE GEOMETRY/ASSEMBLY_BOTTOM*
G04 Layer:  BOARD GEOMETRY/OUTLINE*
G04 *
G04 Offset:    (0.000 0.000)*
G04 Mirror:    No*
G04 Mode:      Positive*
G04 Rotation:  0*
G04 FullContactRelief:  No*
G04 UndefLineWidth:     0.000*
G04 ================== end FILE IDENTIFICATION RECORD ====================*
%FSLAX25Y25*MOIN*%
%IR0*IPPOS*OFA0.00000B0.00000*MIA0B0*SFA1.00000B1.00000*%
%ADD12C,.13*%
%ADD14R,.081X.024*%
%ADD20C,.06*%
%ADD11P,.070313X8X22.5*%
%ADD15C,.055*%
%ADD16R,.055X.055*%
%ADD19C,.055039*%
%ADD10C,.064961*%
%ADD18R,.055039X.055039*%
%ADD13C,.076772*%
%ADD17R,.064961X.064961*%
%ADD21C,.001*%
%ADD22C,.006*%
%ADD23C,.008*%
G75*
%LPD*%
G75*
G36*
G01X-46387Y239455D02*
Y241385D01*
X-42056D01*
Y239455D01*
X-46387D01*
G37*
G54D10*
X-769176Y15842D03*
X-768434Y87920D03*
X-766946Y157162D03*
X-768936Y229012D03*
X-767016Y308192D03*
X-594776Y367562D03*
X-562847Y-14151D03*
X-488026Y367692D03*
X-393076Y-14948D03*
X-330596Y364392D03*
X-340596D03*
X-320596D03*
X-238186Y-14448D03*
X-236470Y366050D03*
X-152922Y365243D03*
X5444Y60092D03*
X5984Y139292D03*
X5976Y243825D03*
X7157Y327998D03*
G54D11*
X-769176Y25842D03*
X-768434Y97920D03*
X-766946Y167162D03*
X-768936Y239012D03*
X-767016Y318192D03*
X-584776Y367562D03*
X-552847Y-14151D03*
X-478026Y367692D03*
X-383076Y-14948D03*
X-228186Y-14448D03*
X-246470Y366050D03*
X-162922Y365243D03*
X5444Y50092D03*
X5984Y129292D03*
X5976Y253825D03*
X7157Y317998D03*
G54D20*
X5976Y270597D03*
Y280597D03*
G54D21*
G01X-753796Y371952D02*
X-6246D01*
G02X7684Y366182I0J-19700D01*
G01X8154Y365712D01*
G02X13444Y352941I-12771J-12771D01*
G01Y-2688D01*
G02X-5626Y-21758I-19070J0D01*
G01X-754446D01*
G02X-773956Y-2248I0J19510D01*
G01Y351792D01*
G02X-753796Y371952I20160J0D01*
G54D12*
X-755856Y353371D03*
X-499950Y-960D03*
X50D03*
Y353371D03*
G54D22*
G01X-514126Y186271D02*
X-529826D01*
Y225671D01*
X-514126D01*
Y186271D01*
G01X-531426Y193471D02*
X-529826D01*
G01X-531426Y188471D02*
X-529826D01*
G01X-512526D02*
X-514126D01*
G01X-512526Y193471D02*
X-514126D01*
G01X-531426Y218471D02*
X-529826D01*
G01X-531426Y213471D02*
X-529826D01*
G01X-531426Y208471D02*
X-529826D01*
G01X-531426Y203471D02*
X-529826D01*
G01X-531426Y198471D02*
X-529826D01*
G01X-512526D02*
X-514126D01*
G01X-512526Y203471D02*
X-514126D01*
G01X-512526Y208471D02*
X-514126D01*
G01X-512526Y213471D02*
X-514126D01*
G01X-512526Y218471D02*
X-514126D01*
G01X-531426Y223471D02*
X-529826D01*
G01X-512526D02*
X-514126D01*
G54D13*
X-737400Y31597D03*
X-737930Y101393D03*
X-738978Y172414D03*
X-738625Y247286D03*
X-738978Y321628D03*
X-707400Y31597D03*
X-707930Y101393D03*
X-708978Y172414D03*
X-708625Y247286D03*
X-708978Y321628D03*
X-667243Y1597D03*
Y31597D03*
X-667772Y71393D03*
Y101393D03*
X-668821Y142414D03*
Y172414D03*
X-668468Y217286D03*
Y247286D03*
X-668821Y291628D03*
Y321628D03*
X-620378Y334574D03*
X-590378D03*
X-574544Y62908D03*
X-544544D03*
X-550221Y304574D03*
Y334574D03*
X-504386Y32908D03*
Y62908D03*
X-519968Y334564D03*
X-489968D03*
X-449810Y304564D03*
Y334564D03*
X-412922Y54863D03*
X-382922D03*
X-342765Y24863D03*
Y54863D03*
X-284514Y301505D03*
Y331505D03*
X-258112Y50845D03*
X-228112D03*
X-244356Y301505D03*
X-214356D03*
X-187954Y20845D03*
Y50845D03*
X-188826Y301505D03*
Y331505D03*
X-148669Y301505D03*
X-118669D03*
X-94198Y35974D03*
Y65974D03*
X-93492Y120989D03*
Y150989D03*
X-92620Y302906D03*
Y332906D03*
X-54040Y35974D03*
X-53335Y120989D03*
X-52462Y302906D03*
X-24040Y35974D03*
X-23334Y120989D03*
X-22462Y302906D03*
G54D23*
G01X-499467Y235133D02*
Y231191D01*
X-499734Y230366D01*
X-500267Y229816D01*
X-500933Y229633D01*
X-501600Y229816D01*
X-502134Y230366D01*
X-502400Y231191D01*
Y235133D01*
G01X-505433Y229633D02*
Y235133D01*
X-504634Y234033D01*
G01Y229633D02*
X-506233D01*
G54D14*
X-531426Y188471D03*
Y198471D03*
Y193471D03*
Y223471D03*
Y218471D03*
Y213471D03*
Y208471D03*
Y203471D03*
X-512526Y188471D03*
Y193471D03*
Y198471D03*
Y203471D03*
Y208471D03*
Y213471D03*
Y218471D03*
Y223471D03*
G54D15*
X-410166Y134022D03*
Y144022D03*
Y154022D03*
Y164022D03*
Y174022D03*
Y184022D03*
Y194022D03*
Y204022D03*
Y214022D03*
Y224022D03*
Y244022D03*
Y234022D03*
Y254022D03*
Y264022D03*
Y274022D03*
Y284022D03*
Y294022D03*
Y304022D03*
Y314022D03*
X-349143Y134022D03*
Y144022D03*
Y154022D03*
Y164022D03*
Y174022D03*
Y184022D03*
Y194022D03*
Y204022D03*
Y214022D03*
Y224022D03*
Y244022D03*
Y234022D03*
Y254022D03*
Y264022D03*
Y274022D03*
Y284022D03*
Y294022D03*
Y304022D03*
Y314022D03*
G54D16*
X-410166Y324022D03*
X-349143D03*
G54D17*
X-350596Y364392D03*
G54D18*
X4007Y173707D03*
G54D19*
Y193707D03*
Y183707D03*
Y223707D03*
Y213707D03*
Y203707D03*
M02*
