G04 ================== begin FILE IDENTIFICATION RECORD ==================*
G04 Layout Name:  D:/Sankar/Personal/Backup/relay/Relay.brd*
G04 Film Name:    BOTTOM*
G04 File Format:  Gerber RS274X*
G04 File Origin:  Cadence Allegro 16.6-P004*
G04 Origin Date:  Tue Jun 29 11:59:57 2021*
G04 *
G04 Layer:  DRAWING FORMAT/TITLE_BLOCK*
G04 Layer:  BOARD GEOMETRY/OUTLINE*
G04 Layer:  ETCH/BOTTOM*
G04 Layer:  PIN/BOTTOM*
G04 Layer:  VIA CLASS/BOTTOM*
G04 *
G04 Offset:    (0.000 0.000)*
G04 Mirror:    No*
G04 Mode:      Positive*
G04 Rotation:  0*
G04 FullContactRelief:  No*
G04 UndefLineWidth:     0.000*
G04 ================== end FILE IDENTIFICATION RECORD ====================*
%FSLAX25Y25*MOIN*%
%IR0*IPPOS*OFA0.00000B0.00000*MIA0B0*SFA1.00000B1.00000*%
%ADD12C,.13*%
%ADD15R,.081X.024*%
%ADD21C,.06*%
%ADD14C,.024*%
%ADD11P,.070313X8X22.5*%
%ADD16C,.055*%
%ADD17R,.055X.055*%
%ADD20C,.055039*%
%ADD10C,.064961*%
%ADD19R,.055039X.055039*%
%ADD13C,.076772*%
%ADD18R,.064961X.064961*%
%ADD22C,.001*%
%ADD23C,.02*%
%ADD24C,.03*%
%ADD25C,.200006*%
%ADD26C,.116776*%
%ADD27C,.095004*%
%ADD30C,.095044*%
%ADD28R,.095004X.095004*%
%ADD29R,.095042X.095042*%
G75*
%LPD*%
G75*
G36*
G01X-748513Y-18854D02*
G02X-768196Y829I1J19684D01*
G01Y10684D01*
X-768039Y10718D01*
G03X-766519Y20368I-1137J5124D01*
G02X-766600Y20996I202J345D01*
G01X-763928Y23668D01*
Y28016D01*
X-767002Y31090D01*
X-768196D01*
Y82677D01*
G03X-765777Y92446I-238J5243D01*
G02X-765858Y93074I202J345D01*
G01X-763186Y95746D01*
Y100094D01*
X-766260Y103168D01*
X-768196D01*
Y151578D01*
G02X-767736Y151974I400J0D01*
G03X-764290Y161688I790J5189D01*
G02X-764370Y162316I202J345D01*
G01X-761698Y164988D01*
Y169336D01*
X-764772Y172410D01*
X-768196D01*
Y223814D01*
X-768031Y223843D01*
G03X-766280Y233539I-906J5170D01*
G02X-766360Y234166I202J345D01*
G01X-763688Y236838D01*
Y241186D01*
X-766762Y244260D01*
X-768196D01*
Y302598D01*
G02X-767741Y302994I400J0D01*
G03X-764360Y312718I725J5198D01*
G02X-764440Y313346I202J345D01*
G01X-761768Y316018D01*
Y320366D01*
X-764842Y323440D01*
X-768196D01*
Y347289D01*
G02X-766455Y355382I19684J-1D01*
G02X-765697Y355147I365J-165D01*
G03X-759433Y362709I9841J-1776D01*
G02X-759806Y363410I-143J374D01*
G02X-748513Y366972I11294J-16122D01*
G01X-599994D01*
X-599969Y366801D01*
G03X-590250Y364906I5193J761D01*
G02X-589622Y364986I345J-202D01*
G01X-586950Y362314D01*
X-582602D01*
X-579528Y365388D01*
Y366972D01*
X-493228D01*
X-493199Y366806D01*
G03X-483500Y365036I5173J886D01*
G02X-482872Y365116I345J-202D01*
G01X-480200Y362444D01*
X-475852D01*
X-472778Y365518D01*
Y366972D01*
X-345807D01*
G02X-345438Y366418I0J-400D01*
G03X-335950Y361951I4841J-2026D01*
G02X-335242I354J-186D01*
G03X-333596Y360086I4646J2441D01*
G01Y328070D01*
X-328139Y322612D01*
Y313275D01*
G03X-322138I3000J0D01*
G01Y325097D01*
X-327596Y330555D01*
Y360086D01*
G03X-325950Y361951I-3000J4306D01*
G02X-325242I354J-186D01*
G03X-315755Y366418I4646J2441D01*
G02X-315386Y366972I369J154D01*
G01X-251718D01*
Y363876D01*
X-248644Y360801D01*
X-244296D01*
X-241624Y363473D01*
G02X-240996Y363393I283J-283D01*
G03X-231244Y366535I4526J2657D01*
G02X-230846Y366972I398J37D01*
G01X-168170D01*
Y363069D01*
X-165096Y359994D01*
X-160748D01*
X-158076Y362666D01*
G02X-157448Y362586I283J-283D01*
G03X-147821Y366478I4526J2657D01*
G02X-147432Y366972I389J94D01*
G01X-8352D01*
G02X2149Y363937I-1J-19684D01*
G02X1863Y363205I-213J-338D01*
G03X9959Y352022I-1813J-9834D01*
G02X10743Y352065I396J-54D01*
G02X11332Y347289I-19096J-4776D01*
G01Y332200D01*
G02X10664Y331903I-400J0D01*
G03X4500Y323472I-3507J-3904D01*
G02X4580Y322844I-202J-345D01*
G01X1908Y320172D01*
Y315824D01*
X4983Y312750D01*
X9331D01*
X10649Y314068D01*
G02X11332Y313785I283J-283D01*
G01Y282742D01*
G02X10564Y282583I-400J0D01*
G03X4087Y275967I-4589J-1986D01*
G02Y275226I-151J-370D01*
G03X1645Y273097I1889J-4630D01*
G01X-847D01*
X-8146Y265798D01*
Y246557D01*
X-2915Y241325D01*
X1361D01*
G03X10581Y241307I4614J2500D01*
G02X11332Y241116I351J-192D01*
G01Y142017D01*
G02X10581Y141824I-400J0D01*
G03X3327Y134766I-4597J-2532D01*
G02X3408Y134138I-202J-345D01*
G01X736Y131466D01*
Y127118D01*
X3810Y124044D01*
X8158D01*
X10649Y126535D01*
G02X11332Y126252I283J-283D01*
G01Y829D01*
G02X-8352Y-18854I-19684J1D01*
G01X-224205D01*
G02X-224488Y-18172I0J400D01*
G01X-222938Y-16622D01*
Y-12274D01*
X-226012Y-9199D01*
X-230360D01*
X-233032Y-11871D01*
G02X-233660Y-11791I-283J283D01*
G03X-241885Y-18171I-4526J-2657D01*
G02X-242167Y-18854I-282J-284D01*
G01X-378595D01*
G02X-378878Y-18172I0J400D01*
G01X-377828Y-17122D01*
Y-12774D01*
X-380902Y-9699D01*
X-385250D01*
X-387922Y-12371D01*
G02X-388550Y-12291I-283J283D01*
G03X-397190Y-18206I-4526J-2657D01*
G02X-397504Y-18854I-314J-248D01*
G01X-549162D01*
G02X-549445Y-18172I0J400D01*
G01X-547599Y-16325D01*
Y-11977D01*
X-550673Y-8903D01*
X-555021D01*
X-557693Y-11575D01*
G02X-558321Y-11495I-283J283D01*
G03X-566247Y-18150I-4526J-2657D01*
G02X-566506Y-18854I-259J-305D01*
G01X-748513D01*
G37*
G36*
G01X-844Y246325D02*
X-3146Y248628D01*
Y263727D01*
X1224Y268097D01*
X1644D01*
X1702Y268001D01*
G03X10564Y268611I4273J2596D01*
G02X11332Y268452I367J-159D01*
G01Y256857D01*
G02X10649Y256574I-400J0D01*
G01X8150Y259073D01*
X3802D01*
X727Y255999D01*
Y251651D01*
X3399Y248979D01*
G02X3319Y248352I-283J-283D01*
G03X1361Y246325I2657J-4526D01*
G01X-844D01*
G37*
G36*
G01X10649Y132050D02*
X8560Y134138D01*
G02X8641Y134766I283J283D01*
G03X10581Y136760I-2657J4526D01*
G02X11332Y136567I350J-193D01*
G01Y132332D01*
G02X10649Y132050I-400J0D01*
G37*
G36*
G01X10581Y246343D02*
G03X8632Y248352I-4605J-2518D01*
G02X8552Y248979I202J345D01*
G01X10649Y251076D01*
G02X11332Y250793I283J-283D01*
G01Y246535D01*
G02X10581Y246343I-400J0D01*
G37*
G36*
G01X10564Y272583D02*
G03X7865Y275226I-4589J-1986D01*
G02Y275967I151J370D01*
G03X10564Y278611I-1889J4630D01*
G02X11332Y278452I367J-159D01*
G01Y272742D01*
G02X10564Y272583I-400J0D01*
G37*
%LPC*%
G75*
G36*
G01X-203226Y261985D02*
X-189731Y248490D01*
X-86034D01*
G02Y242490I0J-3000D01*
G01X-192217D01*
X-205711Y255984D01*
X-309621D01*
G02Y261985I0J3000D01*
G01X-203226D01*
G37*
G36*
G01X-306501Y230538D02*
G03X-306218Y231221I0J400D01*
G01X-326519Y251522D01*
X-345104D01*
G02Y256522I-4039J2500D01*
G01X-324448D01*
X-303441Y235515D01*
X-264103D01*
X-264101Y235512D01*
X-255766D01*
G02X-254418Y230906I0J-2500D01*
G01X-254510Y230847D01*
Y230538D01*
X-253860D01*
G02Y225538I0J-2500D01*
G01X-313718D01*
X-319812Y231632D01*
X-343446D01*
X-343556Y231522D01*
X-345104D01*
G02X-345174Y236632I-4039J2500D01*
G01X-317740D01*
X-311646Y230538D01*
X-306501D01*
G37*
G36*
G01X-345104Y216522D02*
X-62122D01*
X-56246Y222398D01*
Y251302D01*
G02X-51246I2500J0D01*
G01Y220327D01*
X-60051Y211522D01*
X-345104D01*
G02Y216522I-4039J2500D01*
G37*
G36*
G01X-343389Y206353D02*
X-265592D01*
X-261002Y210942D01*
X-172032D01*
X-171992Y210982D01*
X-66711D01*
X-66677Y211017D01*
X-62643D01*
G02Y206016I0J-2500D01*
G01X-64610D01*
X-64644Y205982D01*
X-169920D01*
X-169960Y205942D01*
X-258930D01*
X-263520Y201352D01*
X-345214D01*
G02X-345104Y206522I-3929J2670D01*
G01X-343559D01*
X-343389Y206353D01*
G37*
G36*
G01X-10536Y196207D02*
X-34D01*
G02Y191207I4041J-2500D01*
G01X-12606D01*
X-12921Y191522D01*
X-345104D01*
G02Y196522I-4039J2500D01*
G01X-10852D01*
X-10536Y196207D01*
G37*
G36*
G01X-333466Y186207D02*
X-34D01*
G02Y181207I4041J-2500D01*
G01X-335537D01*
X-335852Y181522D01*
X-345104D01*
G02Y186522I-4039J2500D01*
G01X-333780D01*
X-333466Y186207D01*
G37*
G36*
G01X-506976Y225971D02*
X-497590D01*
X-432742Y290819D01*
G02X-429206Y287283I1768J-1768D01*
G01X-494836Y221654D01*
G03X-494553Y220971I283J-283D01*
G01X-491873D01*
X-426322Y286522D01*
X-414205D01*
G02Y281522I4039J-2500D01*
G01X-424251D01*
X-489118Y216654D01*
G03X-488836Y215971I283J-283D01*
G01X-484853D01*
X-434302Y266522D01*
X-414205D01*
G02Y261522I4039J-2500D01*
G01X-432230D01*
X-482098Y211654D01*
G03X-481816Y210971I283J-283D01*
G01X-473473D01*
X-437922Y246522D01*
X-414205D01*
G02Y241522I4039J-2500D01*
G01X-435851D01*
X-470719Y206654D01*
G03X-470436Y205971I283J-283D01*
G01X-457993D01*
X-437442Y226522D01*
X-414205D01*
G02Y221522I4039J-2500D01*
G01X-435370D01*
X-455238Y201654D01*
G03X-454955Y200971I283J-283D01*
G01X-431103D01*
X-425552Y206522D01*
X-414205D01*
G02Y201522I4039J-2500D01*
G01X-423481D01*
X-429032Y195971D01*
X-429363D01*
G03X-429646Y195288I0J-400D01*
G01X-420881Y186522D01*
X-414205D01*
G02Y181522I4039J-2500D01*
G01X-422952D01*
X-432401Y190971D01*
X-506976D01*
Y185771D01*
X-509526D01*
Y181862D01*
G02X-515526I-3000J0D01*
G01Y185771D01*
X-518076D01*
Y226171D01*
X-506976D01*
Y225971D01*
G37*
G36*
G01X-360186Y119582D02*
X-373392D01*
X-378776Y124967D01*
Y163097D01*
X-387182Y171502D01*
X-406139D01*
G02X-406127Y176522I-4027J2520D01*
G01X-404595D01*
X-404575Y176503D01*
X-385110D01*
X-373776Y165168D01*
Y127038D01*
X-371320Y124583D01*
X-360186D01*
G02Y119582I0J-2500D01*
G37*
G36*
G01X-596186Y123896D02*
Y181288D01*
X-577186Y200288D01*
G03X-577469Y200971I-283J283D01*
G01X-593562D01*
X-597231Y197301D01*
Y187101D01*
X-603866Y180466D01*
X-618694D01*
G02Y185466I0J2500D01*
G01X-605938D01*
X-602231Y189173D01*
Y199373D01*
X-595633Y205971D01*
X-557306D01*
G03X-557028Y206660I0J400D01*
G02X-557377Y209849I1732J1803D01*
G03X-557709Y210471I-333J222D01*
G01X-586290D01*
X-599722Y223903D01*
Y254184D01*
X-604557Y259019D01*
G02X-600314Y263262I2121J2122D01*
G01X-593722Y256670D01*
Y226388D01*
X-583805Y216471D01*
X-567714D01*
G03X-567431Y217154I0J400D01*
G01X-574518Y224241D01*
G02X-570275Y228484I2121J2121D01*
G01X-563262Y221471D01*
X-536976D01*
Y226171D01*
X-533926D01*
Y229242D01*
G02X-528926I2500J0D01*
G01Y226171D01*
X-525876D01*
Y196003D01*
X-523790D01*
X-520366Y192578D01*
Y173932D01*
G02X-525366I-2500J0D01*
G01Y190507D01*
X-525630Y190771D01*
X-536976D01*
Y195971D01*
X-574432D01*
X-591186Y179217D01*
Y121824D01*
X-601165Y111846D01*
X-619497D01*
G02Y116847I0J2500D01*
G01X-603236D01*
X-596186Y123896D01*
G37*
G36*
G01X2868Y54938D02*
G03X2788Y55566I-283J283D01*
G02X8101I2657J4526D01*
G03X8020Y54938I202J-345D01*
G01X10692Y52266D01*
Y47918D01*
X7618Y44844D01*
X3270D01*
X196Y47918D01*
Y52266D01*
X2868Y54938D01*
G37*
G54D25*
X-499950Y-960D03*
X50D03*
G54D26*
X-737400Y31597D03*
X-737930Y101393D03*
X-738978Y172414D03*
X-738625Y247286D03*
X-738978Y321628D03*
X-707400Y31597D03*
X-707930Y101393D03*
X-708978Y172414D03*
X-708625Y247286D03*
X-708978Y321628D03*
X-667243Y31597D03*
X-667772Y101393D03*
X-668821Y172414D03*
X-668468Y247286D03*
X-668821Y321628D03*
X-620378Y334574D03*
X-590378D03*
X-574544Y62908D03*
X-544544D03*
X-550221Y334574D03*
X-504386Y62908D03*
X-519968Y334564D03*
X-489968D03*
X-449810D03*
X-412922Y54863D03*
X-382922D03*
X-342765D03*
X-284514Y301505D03*
X-258112Y50845D03*
X-228112D03*
X-244356Y301505D03*
X-214356D03*
X-187954Y50845D03*
X-188826Y301505D03*
X-148669D03*
X-118669D03*
X-94198Y35974D03*
X-93492Y120989D03*
X-92620Y302906D03*
X-54040Y35974D03*
X-53335Y120989D03*
X-52462Y302906D03*
X-24040Y35974D03*
X-23334Y120989D03*
X-22462Y302906D03*
G54D27*
X-410166Y134022D03*
Y144022D03*
Y154022D03*
Y164022D03*
Y194022D03*
Y214022D03*
Y234022D03*
Y254022D03*
Y274022D03*
Y294022D03*
Y304022D03*
Y314022D03*
X-349143Y134022D03*
Y144022D03*
Y154022D03*
Y164022D03*
Y174022D03*
Y224022D03*
Y244022D03*
Y264022D03*
Y274022D03*
Y284022D03*
Y294022D03*
Y304022D03*
Y314022D03*
G54D30*
X4007Y223707D03*
Y213707D03*
Y203707D03*
G54D28*
X-410166Y324022D03*
X-349143D03*
G54D29*
X4007Y173707D03*
%LPD*%
G75*
G54D10*
X-769176Y15842D03*
X-768434Y87920D03*
X-766946Y157162D03*
X-768936Y229012D03*
X-767016Y308192D03*
X-594776Y367562D03*
X-562847Y-14151D03*
X-488026Y367692D03*
X-393076Y-14948D03*
X-330596Y364392D03*
X-340596D03*
X-320596D03*
X-238186Y-14448D03*
X-236470Y366050D03*
X-152922Y365243D03*
X5444Y60092D03*
X5984Y139292D03*
X5976Y243825D03*
X7157Y327998D03*
G54D20*
X4007Y193707D03*
Y183707D03*
Y223707D03*
Y213707D03*
Y203707D03*
G54D11*
X-769176Y25842D03*
X-768434Y97920D03*
X-766946Y167162D03*
X-768936Y239012D03*
X-767016Y318192D03*
X-584776Y367562D03*
X-552847Y-14151D03*
X-478026Y367692D03*
X-383076Y-14948D03*
X-228186Y-14448D03*
X-246470Y366050D03*
X-162922Y365243D03*
X5444Y50092D03*
X5984Y129292D03*
X5976Y253825D03*
X7157Y317998D03*
G54D21*
X5976Y270597D03*
Y280597D03*
G54D12*
X-755856Y353371D03*
X-499950Y-960D03*
X50D03*
Y353371D03*
G54D22*
G01X-753796Y371952D02*
X-6246D01*
G02X7684Y366182I0J-19700D01*
G01X8154Y365712D01*
G02X13444Y352941I-12771J-12771D01*
G01Y-2688D01*
G02X-5626Y-21758I-19070J0D01*
G01X-754446D01*
G02X-773956Y-2248I0J19510D01*
G01Y351792D01*
G02X-753796Y371952I20160J0D01*
G54D13*
X-737400Y31597D03*
X-737930Y101393D03*
X-738978Y172414D03*
X-738625Y247286D03*
X-738978Y321628D03*
X-707400Y31597D03*
X-707930Y101393D03*
X-708978Y172414D03*
X-708625Y247286D03*
X-708978Y321628D03*
X-667243Y1597D03*
Y31597D03*
X-667772Y71393D03*
Y101393D03*
X-668821Y142414D03*
Y172414D03*
X-668468Y217286D03*
Y247286D03*
X-668821Y291628D03*
Y321628D03*
X-620378Y334574D03*
X-590378D03*
X-574544Y62908D03*
X-544544D03*
X-550221Y304574D03*
Y334574D03*
X-504386Y32908D03*
Y62908D03*
X-519968Y334564D03*
X-489968D03*
X-449810Y304564D03*
Y334564D03*
X-412922Y54863D03*
X-382922D03*
X-342765Y24863D03*
Y54863D03*
X-284514Y301505D03*
Y331505D03*
X-258112Y50845D03*
X-228112D03*
X-244356Y301505D03*
X-214356D03*
X-187954Y20845D03*
Y50845D03*
X-188826Y301505D03*
Y331505D03*
X-148669Y301505D03*
X-118669D03*
X-94198Y35974D03*
Y65974D03*
X-93492Y120989D03*
Y150989D03*
X-92620Y302906D03*
Y332906D03*
X-54040Y35974D03*
X-53335Y120989D03*
X-52462Y302906D03*
X-24040Y35974D03*
X-23334Y120989D03*
X-22462Y302906D03*
G54D23*
G01X-619497Y114346D02*
X-602200D01*
X-593686Y122860D01*
Y180252D01*
X-575467Y198471D01*
X-531426D01*
G01X-618694Y182966D02*
X-604902D01*
X-599731Y188137D01*
Y198337D01*
X-594597Y203471D01*
X-531426D01*
G01Y193471D02*
X-531394Y193502D01*
X-524826D01*
X-522866Y191542D01*
Y173932D01*
G01X-531426Y229242D02*
Y223471D01*
G01X-555296Y208462D02*
X-552296D01*
X-552287Y208471D01*
X-531426D01*
G01X-410166Y204022D02*
X-424516D01*
X-430067Y198471D01*
X-512526D01*
G01X-410166Y184022D02*
X-421916D01*
X-431365Y193471D01*
X-512526D01*
G01X-430974Y289051D02*
X-496555Y223471D01*
X-512526D01*
G01X-410166Y284022D02*
X-425286D01*
X-490837Y218471D01*
X-512526D01*
G01X-410166Y264022D02*
X-433266D01*
X-483817Y213471D01*
X-512526D01*
G01X-410166Y244022D02*
X-436886D01*
X-472437Y208471D01*
X-512526D01*
G01X-410166Y224022D02*
X-436406D01*
X-456957Y203471D01*
X-512526D01*
G01X-410166Y174022D02*
X-405616D01*
X-405596Y174002D01*
X-386146D01*
X-376276Y164132D01*
Y126002D01*
X-372356Y122082D01*
X-360186D01*
G01X4007Y193707D02*
X-11571D01*
X-11886Y194022D01*
X-349143D01*
G01Y184022D02*
X-334816D01*
X-334501Y183707D01*
X4007D01*
G01X-53746Y251302D02*
Y221362D01*
X-61086Y214022D01*
X-349143D01*
G01X-62643Y208516D02*
X-65643D01*
X-65678Y208482D01*
X-170956D01*
X-170996Y208442D01*
X-259966D01*
X-264556Y203852D01*
X-344422D01*
X-344593Y204022D01*
X-349143D01*
G01X-253860Y228038D02*
X-312682D01*
X-318776Y234132D01*
X-344482D01*
X-344593Y234022D01*
X-349143D01*
G01X-255766Y233012D02*
X-265136D01*
X-265139Y233015D01*
X-304476D01*
X-325484Y254022D01*
X-349143D01*
G01X5976Y243825D02*
X-1879D01*
X-5646Y247592D01*
Y264762D01*
X189Y270597D01*
X5976D01*
G54D14*
X-638689Y-2515D03*
X-636761Y208332D03*
X-647123Y266384D03*
X-619778Y70466D03*
X-619497Y114346D03*
X-618445Y141035D03*
X-618694Y182966D03*
X-602435Y261141D03*
X-572396Y226362D03*
X-555296Y208462D03*
X-531426Y229242D03*
X-554782Y261547D03*
X-512526Y181862D03*
X-522866Y173932D03*
X-456660Y12034D03*
X-478276Y129416D03*
X-449316Y278422D03*
X-430974Y289051D03*
X-360186Y122082D03*
X-310526Y13224D03*
X-309621Y258985D03*
X-325139Y313275D03*
X-311944Y350340D03*
X-255766Y233012D03*
X-253860Y228038D03*
X-221822Y107064D03*
X-217650Y203038D03*
X-142686Y278042D03*
X-118208Y86083D03*
X-115160Y167894D03*
X-86034Y245490D03*
X-62643Y208516D03*
X-53746Y251302D03*
X-34930Y277054D03*
G54D24*
G01X-602435Y261141D02*
X-596722Y255427D01*
Y225145D01*
X-585048Y213471D01*
X-531426D01*
G01X-572396Y226362D02*
X-564505Y218471D01*
X-531426D01*
G01X-512526Y188471D02*
Y181862D01*
G01X-325139Y313275D02*
Y323855D01*
X-330596Y329312D01*
Y364392D01*
G01X-86034Y245490D02*
X-190974D01*
X-204468Y258985D01*
X-309621D01*
G54D15*
X-531426Y188471D03*
Y198471D03*
Y193471D03*
Y223471D03*
Y218471D03*
Y213471D03*
Y208471D03*
Y203471D03*
X-512526Y188471D03*
Y193471D03*
Y198471D03*
Y203471D03*
Y208471D03*
Y213471D03*
Y218471D03*
Y223471D03*
G54D16*
X-410166Y134022D03*
Y144022D03*
Y154022D03*
Y164022D03*
Y174022D03*
Y184022D03*
Y194022D03*
Y204022D03*
Y214022D03*
Y224022D03*
Y244022D03*
Y234022D03*
Y254022D03*
Y264022D03*
Y274022D03*
Y284022D03*
Y294022D03*
Y304022D03*
Y314022D03*
X-349143Y134022D03*
Y144022D03*
Y154022D03*
Y164022D03*
Y174022D03*
Y184022D03*
Y194022D03*
Y204022D03*
Y214022D03*
Y224022D03*
Y244022D03*
Y234022D03*
Y254022D03*
Y264022D03*
Y274022D03*
Y284022D03*
Y294022D03*
Y304022D03*
Y314022D03*
G54D17*
X-410166Y324022D03*
X-349143D03*
G54D18*
X-350596Y364392D03*
G54D19*
X4007Y173707D03*
M02*
