G04 ================== begin FILE IDENTIFICATION RECORD ==================*
G04 Layout Name:  D:/Sankar/Personal/Backup/relay/Relay.brd*
G04 Film Name:    SILK_TOP*
G04 File Format:  Gerber RS274X*
G04 File Origin:  Cadence Allegro 16.6-P004*
G04 Origin Date:  Tue Jun 29 11:59:57 2021*
G04 *
G04 Layer:  REF DES/SILKSCREEN_TOP*
G04 Layer:  PACKAGE GEOMETRY/SILKSCREEN_TOP*
G04 Layer:  MANUFACTURING/AUTOSILK_TOP*
G04 Layer:  DRAWING FORMAT/TITLE_BLOCK*
G04 Layer:  BOARD GEOMETRY/OUTLINE*
G04 Layer:  BOARD GEOMETRY/SILKSCREEN_TOP*
G04 *
G04 Offset:    (0.000 0.000)*
G04 Mirror:    No*
G04 Mode:      Positive*
G04 Rotation:  0*
G04 FullContactRelief:  No*
G04 UndefLineWidth:     0.000*
G04 ================== end FILE IDENTIFICATION RECORD ====================*
%FSLAX25Y25*MOIN*%
%IR0*IPPOS*OFA0.00000B0.00000*MIA0B0*SFA1.00000B1.00000*%
%ADD10C,.001*%
%ADD11C,.005*%
%ADD12C,.006*%
%ADD13C,.008*%
%ADD14C,.007874*%
%ADD15C,.012*%
G75*
%LPD*%
G75*
G54D10*
G01X-753796Y371952D02*
X-6246D01*
G02X7684Y366182I0J-19700D01*
G01X8154Y365712D01*
G02X13444Y352941I-12771J-12771D01*
G01Y-2688D01*
G02X-5626Y-21758I-19070J0D01*
G01X-754446D01*
G02X-773956Y-2248I0J19510D01*
G01Y351792D01*
G02X-753796Y371952I20160J0D01*
G54D11*
G01X-775475Y9897D02*
X-781381D01*
Y15803D01*
G01X-756971D02*
Y9897D01*
X-762680D01*
G01X-781381Y25842D02*
Y31748D01*
X-775475D01*
G01X-762877D02*
X-756971D01*
Y25842D01*
G01X-774733Y81975D02*
X-780639D01*
Y87880D01*
G01X-756229D02*
Y81975D01*
X-761938D01*
G01X-780639Y97920D02*
Y103825D01*
X-774733D01*
G01X-762135D02*
X-756229D01*
Y97920D01*
G01X-779151Y167162D02*
Y173068D01*
X-773245D01*
G01Y151217D02*
X-779151D01*
Y157123D01*
G01X-754741D02*
Y151217D01*
X-760450D01*
G01X-760647Y173068D02*
X-754741D01*
Y167162D01*
G01X-775235Y223067D02*
X-781141D01*
Y228973D01*
G01X-756732D02*
Y223067D01*
X-762440D01*
G01X-781141Y239012D02*
Y244918D01*
X-775235D01*
G01X-762637D02*
X-756732D01*
Y239012D01*
G01X-779221Y318192D02*
Y324098D01*
X-773315D01*
G01X-760717D02*
X-754811D01*
Y318192D01*
G01X-773315Y302247D02*
X-779221D01*
Y308153D01*
G01X-754811D02*
Y302247D01*
X-760520D01*
G01X-653958Y6009D02*
Y891D01*
G01X-643328Y6009D02*
Y891D01*
G01X-644332Y43282D02*
X-643515D01*
Y22829D01*
X-644332D01*
G01X-652954D02*
X-653770D01*
Y43282D01*
X-652954D01*
G01X-634416Y78989D02*
Y73871D01*
G01X-633354Y95741D02*
X-634170D01*
Y116194D01*
X-633354D01*
G01X-633740Y149559D02*
Y144441D01*
G01X-632805Y164282D02*
X-633622D01*
Y184735D01*
X-632805D01*
G01X-652233Y216856D02*
Y211738D01*
G01X-641603Y216856D02*
Y211738D01*
G01X-642607Y253659D02*
X-641790D01*
Y233206D01*
X-642607D01*
G01X-651229D02*
X-652046D01*
Y253659D01*
X-651229D01*
G01X-652439Y281849D02*
Y276731D01*
G01X-641809Y281849D02*
Y276731D01*
G01X-642812Y318417D02*
X-641996D01*
Y297964D01*
X-642812D01*
G01X-651434D02*
X-652252D01*
Y318417D01*
X-651434D01*
G01X-623786Y78989D02*
Y73871D01*
G01X-624732Y116194D02*
X-623915D01*
Y95741D01*
X-624732D01*
G01X-623110Y149559D02*
Y144441D01*
G01X-624183Y184735D02*
X-623366D01*
Y164282D01*
X-624183D01*
G01X-585353Y260498D02*
Y261315D01*
X-564900D01*
Y260498D01*
G01Y251876D02*
Y251059D01*
X-585353D01*
Y251876D01*
G01X-578870Y361263D02*
Y355358D01*
X-584776D01*
G01X-600721Y373861D02*
Y379767D01*
X-594815D01*
G01Y355358D02*
X-600721D01*
Y361066D01*
G01X-584776Y379767D02*
X-578870D01*
Y373861D01*
G01X-568792Y-7852D02*
Y-1946D01*
X-562887D01*
G01Y-26356D02*
X-568792D01*
Y-20647D01*
G01X-563305Y265117D02*
X-558187D01*
G01X-563305Y275747D02*
X-558187D01*
G01X-552847Y-1946D02*
X-546942D01*
Y-7852D01*
G01Y-20450D02*
Y-26356D01*
X-552847D01*
G01X-487322Y264042D02*
Y264859D01*
X-466869D01*
Y264042D01*
G01Y255420D02*
Y254603D01*
X-487322D01*
Y255420D01*
G01X-493971Y373991D02*
Y379897D01*
X-488065D01*
G01Y355487D02*
X-493971D01*
Y361196D01*
G01X-473355Y20557D02*
Y15439D01*
G01X-462725Y20557D02*
Y15439D01*
G01X-463729Y56178D02*
X-462912D01*
Y35725D01*
X-463729D01*
G01X-472351D02*
X-473168D01*
Y56178D01*
X-472351D01*
G01X-465265Y268127D02*
X-460147D01*
G01X-465265Y278757D02*
X-460147D01*
G01X-478026Y379897D02*
X-472121D01*
Y373991D01*
G01Y361393D02*
Y355487D01*
X-478026D01*
G01X-414772Y328223D02*
X-405560D01*
Y129821D01*
X-414772D01*
Y328223D01*
G01X-377170Y-21247D02*
Y-27152D01*
X-383076D01*
G01X-399021Y-8648D02*
Y-2743D01*
X-393115D01*
G01Y-27152D02*
X-399021D01*
Y-21444D01*
G01X-383076Y-2743D02*
X-377170D01*
Y-8648D01*
G01X-356502Y351597D02*
Y377187D01*
X-314691D01*
Y351597D01*
X-356502D01*
G01X-353749Y328223D02*
X-344536D01*
Y129821D01*
X-353749D01*
Y328223D01*
G01X-325687Y21748D02*
Y16630D01*
G01X-315057Y21748D02*
Y16630D01*
G01X-315992Y56522D02*
X-315175D01*
Y36069D01*
X-315992D01*
G01X-324614D02*
X-325431D01*
Y56522D01*
X-324614D01*
G01X-316187Y296641D02*
X-317004D01*
Y317094D01*
X-316187D01*
G01X-307564D02*
X-306748D01*
Y296641D01*
X-307564D01*
G01X-306628Y335002D02*
Y340120D01*
G01X-317259Y335002D02*
Y340120D01*
G01X-244131Y-8148D02*
Y-2243D01*
X-238226D01*
G01Y-26652D02*
X-244131D01*
Y-20944D01*
G01X-230345Y92607D02*
X-225227D01*
G01X-230345Y103237D02*
X-225227D01*
G01X-215060Y112201D02*
Y111384D01*
X-235513D01*
Y112201D01*
G01Y120823D02*
Y121640D01*
X-215060D01*
Y120823D01*
G01X-246470Y353845D02*
X-252376D01*
Y359750D01*
G01Y372349D02*
Y378254D01*
X-246470D01*
G01X-230525Y359750D02*
Y353845D01*
X-236431D01*
G01Y378254D02*
X-230525D01*
Y372546D01*
G01X-228186Y-2243D02*
X-222281D01*
Y-8148D01*
G01Y-20747D02*
Y-26652D01*
X-228186D01*
G01X-180932Y266843D02*
Y267660D01*
X-160480D01*
Y266843D01*
G01Y258221D02*
Y257404D01*
X-180932D01*
Y258221D01*
G01X-158925Y272727D02*
X-153807D01*
G01X-158925Y283357D02*
X-153807D01*
G01X-162922Y353038D02*
X-168828D01*
Y358944D01*
G01Y371542D02*
Y377447D01*
X-162922D01*
G01X-146977Y358944D02*
Y353038D01*
X-152883D01*
G01Y377447D02*
X-146977D01*
Y371739D01*
G01X-122450Y34325D02*
X-123267D01*
Y54778D01*
X-122450D01*
G01X-113828D02*
X-113011D01*
Y34325D01*
X-113828D01*
G01X-112892Y70863D02*
Y75981D01*
G01X-123522Y70863D02*
Y75981D01*
G01X-119471Y119300D02*
X-120288D01*
Y139753D01*
X-119471D01*
G01X-110849D02*
X-110032D01*
Y119300D01*
X-110849D01*
G01X-109845Y153330D02*
Y158448D01*
G01X-120475Y153330D02*
Y158448D01*
G01X-63326Y272742D02*
Y271926D01*
X-83778D01*
Y272742D01*
G01Y281365D02*
Y282182D01*
X-63326D01*
Y281365D01*
G01X-51308Y271739D02*
X-46190D01*
G01X-51308Y282369D02*
X-46190D01*
G01X-855Y44187D02*
X-6761D01*
Y50092D01*
G01Y60132D02*
Y66037D01*
X-1052D01*
G01X-315Y123387D02*
X-6221D01*
Y129292D01*
G01Y139332D02*
Y145237D01*
X-512D01*
G01X-324Y237880D02*
X-6229D01*
Y243786D01*
G01Y253825D02*
Y259731D01*
X-324D01*
G01X857Y312093D02*
X-5048D01*
Y317998D01*
G01Y328038D02*
Y333944D01*
X661D01*
G01X17649Y50092D02*
Y44187D01*
X11743D01*
G01Y66037D02*
X17649D01*
Y60132D01*
G01X18189Y129292D02*
Y123387D01*
X12283D01*
G01Y145237D02*
X18189D01*
Y139332D01*
G01X8606Y169507D02*
X-591D01*
Y227908D01*
X8606D01*
Y169507D01*
G01X18180Y243786D02*
Y237880D01*
X12472D01*
G01X12275Y259731D02*
X18180D01*
Y253825D01*
G01X19361Y317998D02*
Y312093D01*
X13456D01*
G01Y333944D02*
X19361D01*
Y328038D01*
G54D12*
G01X-463140Y92216D02*
X-454040D01*
G01Y131616D02*
X-463140D01*
G01X-239914Y200838D02*
X-230814D01*
G01Y240238D02*
X-239914D01*
G54D13*
G01X-769300Y773D02*
X-769208Y1307D01*
X-768842Y1773D01*
X-768292Y2173D01*
X-767650Y2440D01*
X-766917Y2573D01*
X-766183D01*
X-765450Y2440D01*
X-764808Y2173D01*
X-764258Y1773D01*
X-763892Y1307D01*
X-763800Y773D01*
X-763892Y240D01*
X-764258Y-227D01*
X-764808Y-627D01*
X-765450Y-894D01*
X-766183Y-1027D01*
X-766917D01*
X-767650Y-894D01*
X-768292Y-627D01*
X-768842Y-227D01*
X-769208Y240D01*
X-769300Y773D01*
G01X-763800Y-2260D02*
X-767742D01*
X-768567Y-2527D01*
X-769117Y-3060D01*
X-769300Y-3727D01*
X-769117Y-4394D01*
X-768567Y-4927D01*
X-767742Y-5194D01*
X-763800D01*
G01Y-8227D02*
X-769300D01*
G01X-763800Y-6694D02*
Y-9760D01*
G01X-764613Y51063D02*
Y49464D01*
G01Y50264D02*
X-770113D01*
G01Y51063D02*
Y49464D01*
G01Y47297D02*
X-764613D01*
X-770113Y44230D01*
X-764613D01*
G01X-761176Y43505D02*
X-761726Y43172D01*
X-762093Y42772D01*
X-762276Y42305D01*
X-762093Y41772D01*
X-761726Y41372D01*
X-761176Y40972D01*
X-760443Y40839D01*
X-756776D01*
G01X-762276Y37805D02*
X-761084Y37672D01*
X-760076Y37472D01*
X-759159Y37205D01*
X-758151Y36872D01*
X-756776Y36339D01*
Y39005D01*
G01X-768487Y70814D02*
X-768395Y71348D01*
X-768028Y71814D01*
X-767478Y72214D01*
X-766837Y72481D01*
X-766103Y72614D01*
X-765370D01*
X-764637Y72481D01*
X-763995Y72214D01*
X-763445Y71814D01*
X-763078Y71348D01*
X-762987Y70814D01*
X-763078Y70281D01*
X-763445Y69814D01*
X-763995Y69414D01*
X-764637Y69148D01*
X-765370Y69014D01*
X-766103D01*
X-766837Y69148D01*
X-767478Y69414D01*
X-768028Y69814D01*
X-768395Y70281D01*
X-768487Y70814D01*
G01X-762987Y67781D02*
X-766928D01*
X-767753Y67514D01*
X-768303Y66981D01*
X-768487Y66314D01*
X-768303Y65648D01*
X-767753Y65114D01*
X-766928Y64848D01*
X-762987D01*
G01Y61814D02*
X-768487D01*
G01X-762987Y63348D02*
Y60281D01*
G01X-765152Y120016D02*
Y118416D01*
G01Y119216D02*
X-770652D01*
G01Y120016D02*
Y118416D01*
G01Y116249D02*
X-765152D01*
X-770652Y113183D01*
X-765152D01*
G01X-759696Y117066D02*
X-760246Y116732D01*
X-760613Y116332D01*
X-760796Y115866D01*
X-760613Y115332D01*
X-760246Y114932D01*
X-759696Y114532D01*
X-758963Y114399D01*
X-755296D01*
G01X-758505Y112499D02*
X-757863Y112032D01*
X-757496Y111632D01*
X-757313Y111099D01*
X-757496Y110632D01*
X-757863Y110299D01*
X-758413Y110032D01*
X-759054Y109966D01*
X-759604Y110032D01*
X-760155Y110299D01*
X-760613Y110699D01*
X-760796Y111166D01*
X-760613Y111699D01*
X-760063Y112166D01*
X-759238Y112432D01*
X-758321Y112499D01*
X-757130Y112366D01*
X-756488Y112166D01*
X-755846Y111832D01*
X-755388Y111366D01*
X-755296Y110899D01*
X-755479Y110432D01*
X-755938Y110099D01*
G01X-767673Y143148D02*
X-767582Y143681D01*
X-767215Y144148D01*
X-766665Y144548D01*
X-766023Y144814D01*
X-765290Y144948D01*
X-764556D01*
X-763823Y144814D01*
X-763182Y144548D01*
X-762632Y144148D01*
X-762265Y143681D01*
X-762173Y143148D01*
X-762265Y142614D01*
X-762632Y142148D01*
X-763182Y141748D01*
X-763823Y141481D01*
X-764556Y141348D01*
X-765290D01*
X-766023Y141481D01*
X-766665Y141748D01*
X-767215Y142148D01*
X-767582Y142614D01*
X-767673Y143148D01*
G01X-762173Y140114D02*
X-766115D01*
X-766940Y139848D01*
X-767490Y139314D01*
X-767673Y138648D01*
X-767490Y137981D01*
X-766940Y137448D01*
X-766115Y137181D01*
X-762173D01*
G01Y134148D02*
X-767673D01*
G01X-762173Y135681D02*
Y132614D01*
G01X-762712Y190998D02*
Y189398D01*
G01Y190198D02*
X-768212D01*
G01Y190998D02*
Y189398D01*
G01Y187231D02*
X-762712D01*
X-768212Y184164D01*
X-762712D01*
G01X-759696Y187836D02*
X-760246Y187502D01*
X-760613Y187103D01*
X-760796Y186636D01*
X-760613Y186102D01*
X-760246Y185702D01*
X-759696Y185302D01*
X-758963Y185169D01*
X-755296D01*
G01X-759971Y183469D02*
X-760430Y183069D01*
X-760704Y182603D01*
X-760796Y182003D01*
X-760613Y181402D01*
X-760246Y180936D01*
X-759604Y180602D01*
X-758871Y180536D01*
X-758138Y180669D01*
X-757679Y181002D01*
X-757313Y181469D01*
X-757221Y181936D01*
X-757313Y182402D01*
X-757679Y183002D01*
X-755296Y182802D01*
Y181002D01*
G01X-767948Y213179D02*
X-767856Y213712D01*
X-767489Y214179D01*
X-766939Y214579D01*
X-766298Y214845D01*
X-765564Y214979D01*
X-764831D01*
X-764098Y214845D01*
X-763456Y214579D01*
X-762906Y214179D01*
X-762539Y213712D01*
X-762448Y213179D01*
X-762539Y212645D01*
X-762906Y212179D01*
X-763456Y211779D01*
X-764098Y211512D01*
X-764831Y211379D01*
X-765564D01*
X-766298Y211512D01*
X-766939Y211779D01*
X-767489Y212179D01*
X-767856Y212645D01*
X-767948Y213179D01*
G01X-762448Y210145D02*
X-766389D01*
X-767214Y209879D01*
X-767764Y209345D01*
X-767948Y208679D01*
X-767764Y208012D01*
X-767214Y207479D01*
X-766389Y207212D01*
X-762448D01*
G01Y204179D02*
X-767948D01*
G01X-762448Y205712D02*
Y202645D01*
G01X-765691Y263332D02*
Y261732D01*
G01Y262532D02*
X-771191D01*
G01Y263332D02*
Y261732D01*
G01Y259565D02*
X-765691D01*
X-771191Y256498D01*
X-765691D01*
G01X-758616Y258276D02*
X-759166Y257942D01*
X-759533Y257542D01*
X-759716Y257076D01*
X-759533Y256542D01*
X-759166Y256142D01*
X-758616Y255742D01*
X-757883Y255609D01*
X-754216D01*
G01X-759716Y251642D02*
X-754216D01*
X-758158Y254109D01*
Y250775D01*
G01X-766285Y289846D02*
X-766172Y290375D01*
X-765786Y290826D01*
X-765220Y291203D01*
X-764568Y291443D01*
X-763830Y291546D01*
X-763097Y291516D01*
X-762370Y291353D01*
X-761740Y291060D01*
X-761207Y290638D01*
X-760860Y290156D01*
X-760790Y289620D01*
X-760904Y289091D01*
X-761289Y288639D01*
X-761855Y288262D01*
X-762507Y288022D01*
X-763245Y287919D01*
X-763978Y287949D01*
X-764705Y288113D01*
X-765335Y288406D01*
X-765869Y288828D01*
X-766216Y289309D01*
X-766285Y289846D01*
G01X-760915Y286589D02*
X-764853Y286751D01*
X-765688Y286518D01*
X-766260Y286008D01*
X-766470Y285350D01*
X-766315Y284676D01*
X-765787Y284120D01*
X-764974Y283820D01*
X-761035Y283658D01*
G01X-761160Y280627D02*
X-766655Y280854D01*
G01X-761097Y282159D02*
X-761223Y279095D01*
G01X-763519Y338665D02*
X-763655Y337071D01*
G01X-763587Y337868D02*
X-769067Y338338D01*
G01X-768999Y339135D02*
X-769135Y337541D01*
G01X-769320Y335382D02*
X-763840Y334912D01*
X-769582Y332326D01*
X-764102Y331856D01*
G01X-757796Y338455D02*
X-758346Y338122D01*
X-758713Y337722D01*
X-758896Y337255D01*
X-758713Y336722D01*
X-758346Y336322D01*
X-757796Y335922D01*
X-757063Y335789D01*
X-753396D01*
G01X-757796Y334089D02*
X-758438Y333689D01*
X-758804Y333155D01*
X-758896Y332555D01*
X-758804Y332022D01*
X-758346Y331489D01*
X-757796Y331155D01*
X-757246Y331089D01*
X-756605Y331222D01*
X-756146Y331689D01*
X-755963Y332155D01*
Y332755D01*
G01Y332155D02*
X-755688Y331755D01*
X-755230Y331422D01*
X-754680Y331289D01*
X-754129Y331422D01*
X-753671Y331755D01*
X-753396Y332355D01*
X-753488Y332955D01*
X-753854Y333555D01*
G01X-655923Y191607D02*
Y190007D01*
G01X-654731Y190874D02*
X-657115D01*
G01X-658741Y198024D02*
Y192524D01*
X-660407D01*
X-660941Y192799D01*
X-661274Y193166D01*
X-661408Y193899D01*
X-661274Y194632D01*
X-660874Y195090D01*
X-660407Y195366D01*
X-658741D01*
G01X-660407D02*
X-661408Y198024D01*
G01X-663241Y192524D02*
Y198024D01*
X-665908D01*
G01X-669874D02*
Y192524D01*
X-667407Y196466D01*
X-670741D01*
G01X-659094Y272367D02*
Y266867D01*
X-660760D01*
X-661294Y267142D01*
X-661627Y267508D01*
X-661760Y268242D01*
X-661627Y268975D01*
X-661227Y269433D01*
X-660760Y269708D01*
X-659094D01*
G01X-660760D02*
X-661760Y272367D01*
G01X-663594Y266867D02*
Y272367D01*
X-666260D01*
G01X-667960Y271267D02*
X-668360Y271908D01*
X-668894Y272275D01*
X-669494Y272367D01*
X-670027Y272275D01*
X-670560Y271817D01*
X-670894Y271267D01*
X-670960Y270717D01*
X-670827Y270075D01*
X-670360Y269617D01*
X-669894Y269433D01*
X-669294D01*
G01X-669894D02*
X-670294Y269158D01*
X-670627Y268700D01*
X-670760Y268150D01*
X-670627Y267600D01*
X-670294Y267142D01*
X-669694Y266867D01*
X-669094Y266958D01*
X-668494Y267325D01*
G01X-640038Y-10310D02*
Y-15810D01*
X-641705D01*
X-642238Y-15535D01*
X-642572Y-15168D01*
X-642705Y-14435D01*
X-642572Y-13701D01*
X-642172Y-13243D01*
X-641705Y-12968D01*
X-640038D01*
G01X-641705D02*
X-642705Y-10310D01*
G01X-644538Y-15810D02*
Y-10310D01*
X-647205D01*
G01X-650238D02*
X-650372Y-11501D01*
X-650572Y-12510D01*
X-650838Y-13426D01*
X-651172Y-14435D01*
X-651705Y-15810D01*
X-649038D01*
G01X-630591Y-1727D02*
X-636091D01*
Y-60D01*
X-635816Y473D01*
X-635449Y806D01*
X-634716Y940D01*
X-633982Y806D01*
X-633524Y406D01*
X-633249Y-60D01*
Y-1727D01*
G01Y-60D02*
X-630591Y940D01*
G01Y4106D02*
X-636091D01*
X-634991Y3306D01*
G01X-630591D02*
Y4906D01*
G01X-636091Y8606D02*
X-635908Y8073D01*
X-635449Y7673D01*
X-634899Y7406D01*
X-634166Y7206D01*
X-633341Y7140D01*
X-632516Y7206D01*
X-631782Y7406D01*
X-631232Y7673D01*
X-630774Y8073D01*
X-630591Y8606D01*
X-630774Y9140D01*
X-631232Y9540D01*
X-631782Y9806D01*
X-632516Y10006D01*
X-633341Y10073D01*
X-634166Y10006D01*
X-634899Y9806D01*
X-635449Y9540D01*
X-635908Y9140D01*
X-636091Y8606D01*
G01X-630865Y33844D02*
X-636365D01*
Y35177D01*
X-636090Y35710D01*
X-635724Y36110D01*
X-635174Y36444D01*
X-634532Y36710D01*
X-633615Y36777D01*
X-632699Y36710D01*
X-632057Y36444D01*
X-631507Y36110D01*
X-631140Y35710D01*
X-630865Y35177D01*
Y33844D01*
G01Y39810D02*
X-636365D01*
X-635266Y39010D01*
G01X-630865D02*
Y40610D01*
G01X-631690Y42844D02*
X-631232Y43244D01*
X-630957Y43710D01*
X-630865Y44310D01*
X-631049Y44910D01*
X-631415Y45377D01*
X-632057Y45710D01*
X-632790Y45777D01*
X-633524Y45644D01*
X-633982Y45310D01*
X-634349Y44844D01*
X-634440Y44377D01*
X-634349Y43910D01*
X-633982Y43310D01*
X-636365Y43510D01*
Y45310D01*
G01X-651504Y65297D02*
X-646004D01*
Y63630D01*
X-646279Y63097D01*
X-646646Y62764D01*
X-647379Y62630D01*
X-648112Y62764D01*
X-648571Y63164D01*
X-648846Y63630D01*
Y65297D01*
G01Y63630D02*
X-651504Y62630D01*
G01X-646004Y60797D02*
X-651504D01*
Y58130D01*
G01X-649212Y56230D02*
X-648571Y55764D01*
X-648204Y55364D01*
X-648021Y54830D01*
X-648204Y54364D01*
X-648571Y54030D01*
X-649121Y53764D01*
X-649762Y53697D01*
X-650312Y53764D01*
X-650862Y54030D01*
X-651321Y54430D01*
X-651504Y54897D01*
X-651321Y55430D01*
X-650771Y55897D01*
X-649946Y56164D01*
X-649029Y56230D01*
X-647837Y56097D01*
X-647196Y55897D01*
X-646554Y55564D01*
X-646096Y55097D01*
X-646004Y54630D01*
X-646187Y54164D01*
X-646646Y53830D01*
G01X-654317Y136661D02*
X-648817D01*
Y134994D01*
X-649092Y134461D01*
X-649458Y134127D01*
X-650192Y133994D01*
X-650925Y134127D01*
X-651383Y134527D01*
X-651658Y134994D01*
Y136661D01*
G01Y134994D02*
X-654317Y133994D01*
G01X-648817Y132161D02*
X-654317D01*
Y129494D01*
G01X-653492Y127794D02*
X-653950Y127394D01*
X-654225Y126928D01*
X-654317Y126328D01*
X-654133Y125727D01*
X-653767Y125261D01*
X-653125Y124927D01*
X-652392Y124861D01*
X-651658Y124994D01*
X-651200Y125327D01*
X-650833Y125794D01*
X-650742Y126261D01*
X-650833Y126727D01*
X-651200Y127327D01*
X-648817Y127127D01*
Y125327D01*
G01X-629915Y210919D02*
X-635415D01*
Y212586D01*
X-635140Y213119D01*
X-634773Y213452D01*
X-634040Y213586D01*
X-633306Y213452D01*
X-632848Y213052D01*
X-632573Y212586D01*
Y210919D01*
G01Y212586D02*
X-629915Y213586D01*
G01Y216619D02*
X-631106Y216752D01*
X-632114Y216952D01*
X-633031Y217219D01*
X-634040Y217552D01*
X-635415Y218086D01*
Y215419D01*
G01X-630052Y236262D02*
X-635552D01*
Y237596D01*
X-635277Y238129D01*
X-634910Y238529D01*
X-634360Y238863D01*
X-633719Y239129D01*
X-632802Y239196D01*
X-631885Y239129D01*
X-631244Y238863D01*
X-630694Y238529D01*
X-630327Y238129D01*
X-630052Y237596D01*
Y236262D01*
G01Y242229D02*
X-635552D01*
X-634452Y241429D01*
G01X-630052D02*
Y243029D01*
G01X-634635Y245462D02*
X-635185Y245862D01*
X-635460Y246329D01*
X-635552Y246862D01*
X-635369Y247529D01*
X-634910Y247996D01*
X-634360Y248129D01*
X-633810Y248062D01*
X-633352Y247796D01*
X-632435Y246462D01*
X-631794Y245862D01*
X-630877Y245462D01*
X-630052Y245329D01*
Y248129D01*
G01X-632218Y276295D02*
X-637718D01*
Y277962D01*
X-637443Y278495D01*
X-637076Y278828D01*
X-636343Y278962D01*
X-635609Y278828D01*
X-635151Y278428D01*
X-634876Y277962D01*
Y276295D01*
G01Y277962D02*
X-632218Y278962D01*
G01X-633042Y280662D02*
X-632584Y281062D01*
X-632309Y281528D01*
X-632218Y282128D01*
X-632401Y282728D01*
X-632768Y283195D01*
X-633409Y283528D01*
X-634143Y283595D01*
X-634876Y283462D01*
X-635334Y283128D01*
X-635701Y282662D01*
X-635793Y282195D01*
X-635701Y281728D01*
X-635334Y281128D01*
X-637718Y281328D01*
Y283128D01*
G01X-632218Y304608D02*
X-637718D01*
Y305941D01*
X-637443Y306474D01*
X-637076Y306874D01*
X-636526Y307208D01*
X-635884Y307474D01*
X-634968Y307541D01*
X-634051Y307474D01*
X-633409Y307208D01*
X-632859Y306874D01*
X-632493Y306474D01*
X-632218Y305941D01*
Y304608D01*
G01Y310574D02*
X-637718D01*
X-636618Y309774D01*
G01X-632218D02*
Y311374D01*
G01Y315074D02*
X-637718D01*
X-636618Y314274D01*
G01X-632218D02*
Y315874D01*
G01X-610040Y74434D02*
X-615540D01*
Y76101D01*
X-615265Y76634D01*
X-614898Y76968D01*
X-614165Y77101D01*
X-613432Y76968D01*
X-612974Y76568D01*
X-612698Y76101D01*
Y74434D01*
G01Y76101D02*
X-610040Y77101D01*
G01X-610682Y79134D02*
X-610223Y79601D01*
X-610040Y80134D01*
X-610223Y80668D01*
X-610773Y81134D01*
X-611598Y81468D01*
X-612424Y81601D01*
X-613432D01*
X-614257Y81468D01*
X-614990Y81134D01*
X-615357Y80734D01*
X-615540Y80268D01*
X-615357Y79734D01*
X-614990Y79334D01*
X-614440Y79068D01*
X-613707Y78934D01*
X-613065Y79068D01*
X-612424Y79401D01*
X-612057Y79801D01*
X-611965Y80268D01*
X-612148Y80801D01*
X-612607Y81201D01*
X-613432Y81601D01*
G01X-610315Y100454D02*
X-615815D01*
Y101788D01*
X-615540Y102321D01*
X-615173Y102721D01*
X-614623Y103054D01*
X-613981Y103321D01*
X-613064Y103388D01*
X-612148Y103321D01*
X-611506Y103054D01*
X-610956Y102721D01*
X-610590Y102321D01*
X-610315Y101788D01*
Y100454D01*
G01Y106421D02*
X-615815D01*
X-614715Y105621D01*
G01X-610315D02*
Y107221D01*
G01Y111721D02*
X-615815D01*
X-611873Y109254D01*
Y112588D01*
G01X-611059Y142740D02*
X-616559D01*
Y144407D01*
X-616284Y144940D01*
X-615918Y145274D01*
X-615184Y145407D01*
X-614451Y145274D01*
X-613993Y144874D01*
X-613718Y144407D01*
Y142740D01*
G01Y144407D02*
X-611059Y145407D01*
G01Y148574D02*
X-611151Y149040D01*
X-611426Y149574D01*
X-611884Y149907D01*
X-612526Y150040D01*
X-613168Y149907D01*
X-613718Y149507D01*
X-613993Y148907D01*
Y148240D01*
X-614176Y147840D01*
X-614634Y147507D01*
X-615276Y147374D01*
X-615918Y147574D01*
X-616376Y148040D01*
X-616559Y148574D01*
X-616376Y149107D01*
X-615918Y149574D01*
X-615276Y149774D01*
X-614634Y149640D01*
X-614176Y149307D01*
X-613993Y148907D01*
Y148240D01*
X-613718Y147640D01*
X-613168Y147240D01*
X-612526Y147107D01*
X-611884Y147240D01*
X-611426Y147574D01*
X-611151Y148107D01*
X-611059Y148574D01*
G01X-610452Y175179D02*
X-615952D01*
Y176512D01*
X-615677Y177046D01*
X-615310Y177446D01*
X-614760Y177779D01*
X-614119Y178046D01*
X-613202Y178112D01*
X-612285Y178046D01*
X-611644Y177779D01*
X-611094Y177446D01*
X-610727Y177046D01*
X-610452Y176512D01*
Y175179D01*
G01Y181146D02*
X-615952D01*
X-614852Y180346D01*
G01X-610452D02*
Y181946D01*
G01X-611552Y184179D02*
X-610910Y184579D01*
X-610544Y185112D01*
X-610452Y185712D01*
X-610544Y186246D01*
X-611002Y186779D01*
X-611552Y187112D01*
X-612102Y187179D01*
X-612744Y187046D01*
X-613202Y186579D01*
X-613385Y186112D01*
Y185512D01*
G01Y186112D02*
X-613660Y186512D01*
X-614119Y186846D01*
X-614669Y186979D01*
X-615219Y186846D01*
X-615677Y186512D01*
X-615952Y185912D01*
X-615860Y185312D01*
X-615494Y184712D01*
G01X-603661Y280437D02*
Y274937D01*
X-605327D01*
X-605861Y275212D01*
X-606194Y275578D01*
X-606327Y276312D01*
X-606194Y277045D01*
X-605794Y277503D01*
X-605327Y277778D01*
X-603661D01*
G01X-605327D02*
X-606327Y280437D01*
G01X-608161Y274937D02*
Y280437D01*
X-610827D01*
G01X-612727Y275853D02*
X-613127Y275304D01*
X-613594Y275028D01*
X-614127Y274937D01*
X-614794Y275120D01*
X-615261Y275578D01*
X-615394Y276128D01*
X-615327Y276679D01*
X-615061Y277137D01*
X-613727Y278054D01*
X-613127Y278695D01*
X-612727Y279612D01*
X-612594Y280437D01*
X-615394D01*
G01X-613931Y361747D02*
X-613398Y361656D01*
X-612932Y361289D01*
X-612532Y360739D01*
X-612265Y360097D01*
X-612132Y359364D01*
Y358630D01*
X-612265Y357897D01*
X-612532Y357256D01*
X-612932Y356706D01*
X-613398Y356339D01*
X-613931Y356247D01*
X-614465Y356339D01*
X-614932Y356706D01*
X-615332Y357256D01*
X-615598Y357897D01*
X-615732Y358630D01*
Y359364D01*
X-615598Y360097D01*
X-615332Y360739D01*
X-614932Y361289D01*
X-614465Y361656D01*
X-613931Y361747D01*
G01X-616965Y356247D02*
Y360189D01*
X-617231Y361014D01*
X-617765Y361564D01*
X-618431Y361747D01*
X-619098Y361564D01*
X-619631Y361014D01*
X-619898Y360189D01*
Y356247D01*
G01X-622931D02*
Y361747D01*
G01X-621398Y356247D02*
X-624465D01*
G01X-584118Y-8555D02*
X-584652Y-8464D01*
X-585118Y-8097D01*
X-585518Y-7547D01*
X-585785Y-6905D01*
X-585918Y-6172D01*
Y-5439D01*
X-585785Y-4705D01*
X-585518Y-4064D01*
X-585118Y-3514D01*
X-584652Y-3147D01*
X-584118Y-3055D01*
X-583585Y-3147D01*
X-583118Y-3514D01*
X-582718Y-4064D01*
X-582452Y-4705D01*
X-582318Y-5439D01*
Y-6172D01*
X-582452Y-6905D01*
X-582718Y-7547D01*
X-583118Y-8097D01*
X-583585Y-8464D01*
X-584118Y-8555D01*
G01X-581085Y-3055D02*
Y-6997D01*
X-580818Y-7822D01*
X-580285Y-8372D01*
X-579618Y-8555D01*
X-578952Y-8372D01*
X-578418Y-7822D01*
X-578152Y-6997D01*
Y-3055D01*
G01X-575118D02*
Y-8555D01*
G01X-576652Y-3055D02*
X-573585D01*
G01X-581160Y11486D02*
Y5986D01*
X-582826D01*
X-583360Y6261D01*
X-583693Y6627D01*
X-583827Y7361D01*
X-583693Y8094D01*
X-583293Y8552D01*
X-582826Y8827D01*
X-581160D01*
G01X-582826D02*
X-583827Y11486D01*
G01X-585660Y5986D02*
Y11486D01*
X-588327D01*
G01X-591493D02*
Y5986D01*
X-590693Y7086D01*
G01Y11486D02*
X-592293D01*
G01X-594727Y9194D02*
X-595193Y8552D01*
X-595593Y8186D01*
X-596127Y8002D01*
X-596593Y8186D01*
X-596926Y8552D01*
X-597193Y9102D01*
X-597260Y9744D01*
X-597193Y10294D01*
X-596926Y10844D01*
X-596526Y11302D01*
X-596060Y11486D01*
X-595527Y11302D01*
X-595060Y10752D01*
X-594793Y9927D01*
X-594727Y9011D01*
X-594860Y7819D01*
X-595060Y7177D01*
X-595393Y6536D01*
X-595860Y6077D01*
X-596327Y5986D01*
X-596793Y6169D01*
X-597127Y6627D01*
G01X-593483Y241202D02*
Y235702D01*
X-595149D01*
X-595683Y235978D01*
X-596016Y236344D01*
X-596150Y237077D01*
X-596016Y237811D01*
X-595616Y238269D01*
X-595149Y238544D01*
X-593483D01*
G01X-595149D02*
X-596150Y241202D01*
G01X-600116D02*
Y235702D01*
X-597649Y239644D01*
X-600983D01*
G01X-598622Y264947D02*
Y259447D01*
X-600289D01*
X-600822Y259722D01*
X-601156Y260089D01*
X-601289Y260822D01*
X-601156Y261555D01*
X-600756Y262014D01*
X-600289Y262289D01*
X-598622D01*
G01X-600289D02*
X-601289Y264947D01*
G01X-603189Y262655D02*
X-603656Y262014D01*
X-604056Y261647D01*
X-604589Y261464D01*
X-605056Y261647D01*
X-605389Y262014D01*
X-605656Y262564D01*
X-605722Y263205D01*
X-605656Y263755D01*
X-605389Y264305D01*
X-604989Y264764D01*
X-604522Y264947D01*
X-603989Y264764D01*
X-603522Y264214D01*
X-603256Y263389D01*
X-603189Y262472D01*
X-603322Y261280D01*
X-603522Y260639D01*
X-603855Y259997D01*
X-604322Y259539D01*
X-604789Y259447D01*
X-605256Y259630D01*
X-605589Y260089D01*
G01X-575730Y149411D02*
X-576263Y149502D01*
X-576730Y149869D01*
X-577130Y150419D01*
X-577396Y151061D01*
X-577530Y151794D01*
Y152527D01*
X-577396Y153261D01*
X-577130Y153902D01*
X-576730Y154452D01*
X-576263Y154819D01*
X-575730Y154911D01*
X-575196Y154819D01*
X-574730Y154452D01*
X-574330Y153902D01*
X-574063Y153261D01*
X-573930Y152527D01*
Y151794D01*
X-574063Y151061D01*
X-574330Y150419D01*
X-574730Y149869D01*
X-575196Y149502D01*
X-575730Y149411D01*
G01X-572496Y154911D02*
X-569963D01*
X-572496Y149411D01*
X-569963D01*
G01X-566730D02*
X-567263Y149502D01*
X-567730Y149869D01*
X-568130Y150419D01*
X-568396Y151061D01*
X-568530Y151794D01*
Y152527D01*
X-568396Y153261D01*
X-568130Y153902D01*
X-567730Y154452D01*
X-567263Y154819D01*
X-566730Y154911D01*
X-566196Y154819D01*
X-565730Y154452D01*
X-565330Y153902D01*
X-565063Y153261D01*
X-564930Y152527D01*
Y151794D01*
X-565063Y151061D01*
X-565330Y150419D01*
X-565730Y149869D01*
X-566196Y149502D01*
X-566730Y149411D01*
G01X-563763D02*
Y154911D01*
X-560696Y149411D01*
Y154911D01*
G01X-556396Y149411D02*
X-559063D01*
Y154911D01*
X-556396D01*
G01X-557463Y152252D02*
X-559063D01*
G01X-555230Y147577D02*
X-551230D01*
G01X-550463Y149411D02*
Y154911D01*
X-548730Y150327D01*
X-546996Y154911D01*
Y149411D01*
G01X-544230D02*
X-544763Y149502D01*
X-545230Y149869D01*
X-545630Y150419D01*
X-545896Y151061D01*
X-546030Y151794D01*
Y152527D01*
X-545896Y153261D01*
X-545630Y153902D01*
X-545230Y154452D01*
X-544763Y154819D01*
X-544230Y154911D01*
X-543696Y154819D01*
X-543230Y154452D01*
X-542830Y153902D01*
X-542563Y153261D01*
X-542430Y152527D01*
Y151794D01*
X-542563Y151061D01*
X-542830Y150419D01*
X-543230Y149869D01*
X-543696Y149502D01*
X-544230Y149411D01*
G01X-539730Y154911D02*
Y149411D01*
G01X-541263Y154911D02*
X-538196D01*
G01X-535230Y149411D02*
X-535763Y149502D01*
X-536230Y149869D01*
X-536630Y150419D01*
X-536896Y151061D01*
X-537030Y151794D01*
Y152527D01*
X-536896Y153261D01*
X-536630Y153902D01*
X-536230Y154452D01*
X-535763Y154819D01*
X-535230Y154911D01*
X-534696Y154819D01*
X-534230Y154452D01*
X-533830Y153902D01*
X-533563Y153261D01*
X-533430Y152527D01*
Y151794D01*
X-533563Y151061D01*
X-533830Y150419D01*
X-534230Y149869D01*
X-534696Y149502D01*
X-535230Y149411D01*
G01X-532063D02*
Y154911D01*
X-530396D01*
X-529863Y154636D01*
X-529530Y154269D01*
X-529396Y153536D01*
X-529530Y152802D01*
X-529930Y152344D01*
X-530396Y152069D01*
X-532063D01*
G01X-530396D02*
X-529396Y149411D01*
G01X-527630Y150144D02*
X-527096Y149686D01*
X-526496Y149411D01*
X-525963D01*
X-525430Y149686D01*
X-525030Y150144D01*
X-524830Y150786D01*
X-524963Y151427D01*
X-525296Y151977D01*
X-525896Y152344D01*
X-526696Y152527D01*
X-527163Y152894D01*
X-527363Y153536D01*
X-527230Y154177D01*
X-526896Y154636D01*
X-526430Y154911D01*
X-525963D01*
X-525496Y154727D01*
X-525096Y154269D01*
G01X-523730Y147577D02*
X-519730D01*
G01X-518563Y149411D02*
Y154911D01*
X-516896D01*
X-516363Y154636D01*
X-516030Y154269D01*
X-515896Y153536D01*
X-516030Y152802D01*
X-516430Y152344D01*
X-516896Y152069D01*
X-518563D01*
G01X-516896D02*
X-515896Y149411D01*
G01X-511396D02*
X-514063D01*
Y154911D01*
X-511396D01*
G01X-512463Y152252D02*
X-514063D01*
G01X-509563Y154911D02*
Y149411D01*
X-506896D01*
G01X-505396D02*
X-503730Y154911D01*
X-502063Y149411D01*
G01X-502663Y151336D02*
X-504796D01*
G01X-499230Y149411D02*
Y151886D01*
X-500563Y154911D01*
G01X-497896D02*
X-499230Y151886D01*
G01X-496730Y147577D02*
X-492730D01*
G01X-491563Y149411D02*
Y154911D01*
X-489896D01*
X-489363Y154636D01*
X-489030Y154269D01*
X-488896Y153536D01*
X-489030Y152802D01*
X-489430Y152344D01*
X-489896Y152069D01*
X-491563D01*
G01X-489896D02*
X-488896Y149411D01*
G01X-484396D02*
X-487063D01*
Y154911D01*
X-484396D01*
G01X-485463Y152252D02*
X-487063D01*
G01X-482896Y154911D02*
X-481230Y149411D01*
X-479563Y154911D01*
G01X-476730D02*
X-477263Y154727D01*
X-477663Y154269D01*
X-477930Y153719D01*
X-478130Y152986D01*
X-478196Y152160D01*
X-478130Y151336D01*
X-477930Y150602D01*
X-477663Y150052D01*
X-477263Y149594D01*
X-476730Y149411D01*
X-476196Y149594D01*
X-475796Y150052D01*
X-475530Y150602D01*
X-475330Y151336D01*
X-475263Y152160D01*
X-475330Y152986D01*
X-475530Y153719D01*
X-475796Y154269D01*
X-476196Y154727D01*
X-476730Y154911D01*
G01X-472230D02*
X-472763Y154727D01*
X-473163Y154269D01*
X-473430Y153719D01*
X-473630Y152986D01*
X-473696Y152160D01*
X-473630Y151336D01*
X-473430Y150602D01*
X-473163Y150052D01*
X-472763Y149594D01*
X-472230Y149411D01*
X-471696Y149594D01*
X-471296Y150052D01*
X-471030Y150602D01*
X-470830Y151336D01*
X-470763Y152160D01*
X-470830Y152986D01*
X-471030Y153719D01*
X-471296Y154269D01*
X-471696Y154727D01*
X-472230Y154911D01*
G01X-467730Y149411D02*
Y154911D01*
X-468530Y153811D01*
G01Y149411D02*
X-466930D01*
G01X-554449Y356110D02*
X-556049D01*
G01X-555249D02*
Y361610D01*
G01X-554449D02*
X-556049D01*
G01X-558216D02*
Y356110D01*
X-561282Y361610D01*
Y356110D01*
G01X-564743Y365432D02*
X-565076Y365982D01*
X-565476Y366349D01*
X-565943Y366532D01*
X-566476Y366349D01*
X-566876Y365982D01*
X-567276Y365432D01*
X-567409Y364699D01*
Y361032D01*
G01X-569309Y361949D02*
X-569709Y361399D01*
X-570176Y361124D01*
X-570709Y361032D01*
X-571376Y361216D01*
X-571843Y361674D01*
X-571976Y362224D01*
X-571909Y362774D01*
X-571643Y363232D01*
X-570309Y364149D01*
X-569709Y364791D01*
X-569309Y365708D01*
X-569176Y366532D01*
X-571976D01*
G01X-542034Y-3408D02*
X-540434D01*
G01X-541234D02*
Y-8908D01*
G01X-542034D02*
X-540434D01*
G01X-538267D02*
Y-3408D01*
X-535200Y-8908D01*
Y-3408D01*
G01X-532424Y-13791D02*
X-532758Y-13241D01*
X-533157Y-12875D01*
X-533624Y-12691D01*
X-534158Y-12875D01*
X-534558Y-13241D01*
X-534958Y-13791D01*
X-535091Y-14525D01*
Y-18191D01*
G01X-538257Y-12691D02*
X-538724Y-12783D01*
X-539258Y-13058D01*
X-539591Y-13516D01*
X-539724Y-14158D01*
X-539591Y-14800D01*
X-539191Y-15350D01*
X-538591Y-15625D01*
X-537924D01*
X-537524Y-15808D01*
X-537191Y-16266D01*
X-537058Y-16908D01*
X-537258Y-17550D01*
X-537724Y-18008D01*
X-538257Y-18191D01*
X-538791Y-18008D01*
X-539258Y-17550D01*
X-539458Y-16908D01*
X-539324Y-16266D01*
X-538991Y-15808D01*
X-538591Y-15625D01*
X-537924D01*
X-537324Y-15350D01*
X-536924Y-14800D01*
X-536791Y-14158D01*
X-536924Y-13516D01*
X-537258Y-13058D01*
X-537791Y-12783D01*
X-538257Y-12691D01*
G01X-540483Y235252D02*
Y229752D01*
X-542149D01*
X-542683Y230028D01*
X-543016Y230394D01*
X-543150Y231127D01*
X-543016Y231861D01*
X-542616Y232319D01*
X-542149Y232594D01*
X-540483D01*
G01X-542149D02*
X-543150Y235252D01*
G01X-546316D02*
Y229752D01*
X-545516Y230852D01*
G01Y235252D02*
X-547116D01*
G01X-539393Y270542D02*
Y265042D01*
X-541059D01*
X-541593Y265317D01*
X-541926Y265684D01*
X-542059Y266417D01*
X-541926Y267150D01*
X-541526Y267609D01*
X-541059Y267884D01*
X-539393D01*
G01X-541059D02*
X-542059Y270542D01*
G01X-543759Y269442D02*
X-544159Y270084D01*
X-544693Y270450D01*
X-545293Y270542D01*
X-545826Y270450D01*
X-546359Y269992D01*
X-546693Y269442D01*
X-546759Y268892D01*
X-546626Y268251D01*
X-546159Y267792D01*
X-545693Y267609D01*
X-545093D01*
G01X-545693D02*
X-546093Y267334D01*
X-546426Y266876D01*
X-546559Y266326D01*
X-546426Y265775D01*
X-546093Y265317D01*
X-545493Y265042D01*
X-544893Y265134D01*
X-544293Y265500D01*
G01X-540809Y256202D02*
Y250702D01*
X-542143D01*
X-542676Y250978D01*
X-543076Y251344D01*
X-543409Y251894D01*
X-543676Y252536D01*
X-543743Y253453D01*
X-543676Y254369D01*
X-543409Y255011D01*
X-543076Y255561D01*
X-542676Y255928D01*
X-542143Y256202D01*
X-540809D01*
G01X-546776D02*
Y250702D01*
X-545976Y251802D01*
G01Y256202D02*
X-547576D01*
G01X-551276Y250702D02*
X-550743Y250886D01*
X-550343Y251344D01*
X-550076Y251894D01*
X-549876Y252628D01*
X-549809Y253453D01*
X-549876Y254278D01*
X-550076Y255011D01*
X-550343Y255561D01*
X-550743Y256019D01*
X-551276Y256202D01*
X-551809Y256019D01*
X-552209Y255561D01*
X-552476Y255011D01*
X-552676Y254278D01*
X-552743Y253453D01*
X-552676Y252628D01*
X-552476Y251894D01*
X-552209Y251344D01*
X-551809Y250886D01*
X-551276Y250702D01*
G01X-508052Y277448D02*
Y271948D01*
X-509719D01*
X-510252Y272223D01*
X-510585Y272590D01*
X-510719Y273323D01*
X-510585Y274056D01*
X-510185Y274514D01*
X-509719Y274790D01*
X-508052D01*
G01X-509719D02*
X-510719Y277448D01*
G01X-512552Y271948D02*
Y277448D01*
X-515219D01*
G01X-518385D02*
Y271948D01*
X-517585Y273048D01*
G01Y277448D02*
X-519185D01*
G01X-508209Y360120D02*
X-507676Y360029D01*
X-507209Y359662D01*
X-506809Y359112D01*
X-506542Y358470D01*
X-506409Y357737D01*
Y357004D01*
X-506542Y356270D01*
X-506809Y355629D01*
X-507209Y355079D01*
X-507676Y354712D01*
X-508209Y354620D01*
X-508742Y354712D01*
X-509209Y355079D01*
X-509609Y355629D01*
X-509876Y356270D01*
X-510009Y357004D01*
Y357737D01*
X-509876Y358470D01*
X-509609Y359112D01*
X-509209Y359662D01*
X-508742Y360029D01*
X-508209Y360120D01*
G01X-511242Y354620D02*
Y358562D01*
X-511509Y359387D01*
X-512042Y359937D01*
X-512709Y360120D01*
X-513376Y359937D01*
X-513909Y359387D01*
X-514176Y358562D01*
Y354620D01*
G01X-517209D02*
Y360120D01*
G01X-515676Y354620D02*
X-518742D01*
G01X-482743Y276212D02*
Y270712D01*
X-484409D01*
X-484943Y270987D01*
X-485276Y271354D01*
X-485409Y272087D01*
X-485276Y272821D01*
X-484876Y273279D01*
X-484409Y273554D01*
X-482743D01*
G01X-484409D02*
X-485409Y276212D01*
G01X-487309Y271629D02*
X-487709Y271079D01*
X-488176Y270804D01*
X-488709Y270712D01*
X-489376Y270896D01*
X-489843Y271354D01*
X-489976Y271904D01*
X-489909Y272454D01*
X-489643Y272912D01*
X-488309Y273829D01*
X-487709Y274471D01*
X-487309Y275387D01*
X-487176Y276212D01*
X-489976D01*
G01X-496459Y259722D02*
Y254222D01*
X-497793D01*
X-498326Y254497D01*
X-498726Y254864D01*
X-499059Y255414D01*
X-499326Y256055D01*
X-499393Y256972D01*
X-499326Y257889D01*
X-499059Y258530D01*
X-498726Y259080D01*
X-498326Y259447D01*
X-497793Y259722D01*
X-496459D01*
G01X-501293Y259080D02*
X-501759Y259539D01*
X-502293Y259722D01*
X-502826Y259539D01*
X-503293Y258989D01*
X-503626Y258164D01*
X-503759Y257339D01*
Y256330D01*
X-503626Y255505D01*
X-503293Y254772D01*
X-502893Y254405D01*
X-502426Y254222D01*
X-501893Y254405D01*
X-501493Y254772D01*
X-501226Y255322D01*
X-501093Y256055D01*
X-501226Y256697D01*
X-501559Y257339D01*
X-501959Y257705D01*
X-502426Y257797D01*
X-502959Y257614D01*
X-503359Y257155D01*
X-503759Y256330D01*
G01X-468076Y-6541D02*
X-473576D01*
Y-4875D01*
X-473301Y-4341D01*
X-472934Y-4008D01*
X-472201Y-3874D01*
X-471468Y-4008D01*
X-471009Y-4408D01*
X-470734Y-4875D01*
Y-6541D01*
G01Y-4875D02*
X-468076Y-3874D01*
G01X-472659Y-1975D02*
X-473209Y-1575D01*
X-473484Y-1108D01*
X-473576Y-574D01*
X-473393Y92D01*
X-472934Y559D01*
X-472384Y692D01*
X-471834Y626D01*
X-471376Y359D01*
X-470459Y-975D01*
X-469818Y-1575D01*
X-468901Y-1975D01*
X-468076Y-2108D01*
Y692D01*
G01X-470368Y2525D02*
X-471009Y2992D01*
X-471376Y3392D01*
X-471559Y3926D01*
X-471376Y4392D01*
X-471009Y4725D01*
X-470459Y4992D01*
X-469818Y5059D01*
X-469268Y4992D01*
X-468718Y4725D01*
X-468259Y4325D01*
X-468076Y3859D01*
X-468259Y3326D01*
X-468809Y2859D01*
X-469634Y2592D01*
X-470551Y2525D01*
X-471743Y2659D01*
X-472384Y2859D01*
X-473026Y3192D01*
X-473484Y3659D01*
X-473576Y4125D01*
X-473393Y4592D01*
X-472934Y4926D01*
G01X-454016Y40925D02*
X-459516D01*
Y42259D01*
X-459241Y42792D01*
X-458874Y43192D01*
X-458324Y43526D01*
X-457683Y43792D01*
X-456766Y43859D01*
X-455849Y43792D01*
X-455208Y43526D01*
X-454658Y43192D01*
X-454291Y42792D01*
X-454016Y42259D01*
Y40925D01*
G01Y46892D02*
X-459516D01*
X-458416Y46092D01*
G01X-454016D02*
Y47692D01*
G01X-456308Y50125D02*
X-456950Y50592D01*
X-457316Y50992D01*
X-457499Y51526D01*
X-457316Y51992D01*
X-456950Y52325D01*
X-456399Y52592D01*
X-455758Y52659D01*
X-455208Y52592D01*
X-454658Y52325D01*
X-454199Y51925D01*
X-454016Y51459D01*
X-454199Y50926D01*
X-454749Y50459D01*
X-455574Y50192D01*
X-456491Y50125D01*
X-457683Y50259D01*
X-458324Y50459D01*
X-458966Y50792D01*
X-459424Y51259D01*
X-459516Y51725D01*
X-459333Y52192D01*
X-458874Y52526D01*
G01X-459272Y351789D02*
X-460872D01*
G01X-460072D02*
Y357289D01*
G01X-459272D02*
X-460872D01*
G01X-463038D02*
Y351789D01*
X-466105Y357289D01*
Y351789D01*
G01X-459683Y366552D02*
X-460016Y367102D01*
X-460416Y367469D01*
X-460883Y367652D01*
X-461416Y367469D01*
X-461816Y367102D01*
X-462216Y366552D01*
X-462350Y365819D01*
Y362152D01*
G01X-465516Y367652D02*
Y362152D01*
X-464716Y363252D01*
G01Y367652D02*
X-466316D01*
G01X-445569Y81402D02*
Y85344D01*
X-445836Y86169D01*
X-446369Y86719D01*
X-447036Y86902D01*
X-447703Y86719D01*
X-448236Y86169D01*
X-448503Y85344D01*
Y81402D01*
G01X-452336Y86902D02*
Y81402D01*
X-449869Y85344D01*
X-453203D01*
G01X-454980Y153692D02*
Y159192D01*
X-453313D01*
X-452779Y158917D01*
X-452446Y158550D01*
X-452313Y157817D01*
X-452446Y157084D01*
X-452846Y156626D01*
X-453313Y156350D01*
X-454980D01*
G01X-453313D02*
X-452313Y153692D01*
G01X-450413Y158276D02*
X-450013Y158825D01*
X-449546Y159101D01*
X-449013Y159192D01*
X-448346Y159009D01*
X-447879Y158550D01*
X-447746Y158000D01*
X-447813Y157450D01*
X-448080Y156992D01*
X-449413Y156075D01*
X-450013Y155434D01*
X-450413Y154517D01*
X-450546Y153692D01*
X-447746D01*
G01X-444646D02*
Y159192D01*
X-445446Y158092D01*
G01Y153692D02*
X-443846D01*
G01X-433070Y325312D02*
X-432736Y324762D01*
X-432336Y324396D01*
X-431870Y324212D01*
X-431336Y324396D01*
X-430936Y324762D01*
X-430536Y325312D01*
X-430403Y326046D01*
Y329712D01*
G01X-427236Y324212D02*
Y329712D01*
X-428036Y328612D01*
G01Y324212D02*
X-426436D01*
G01X-424003Y326504D02*
X-423536Y327146D01*
X-423136Y327512D01*
X-422603Y327696D01*
X-422136Y327512D01*
X-421803Y327146D01*
X-421536Y326596D01*
X-421470Y325954D01*
X-421536Y325404D01*
X-421803Y324854D01*
X-422203Y324396D01*
X-422669Y324212D01*
X-423203Y324396D01*
X-423670Y324945D01*
X-423936Y325770D01*
X-424003Y326687D01*
X-423870Y327879D01*
X-423670Y328521D01*
X-423336Y329162D01*
X-422870Y329621D01*
X-422403Y329712D01*
X-421936Y329529D01*
X-421603Y329070D01*
G01X-409688Y-5331D02*
X-410222Y-5240D01*
X-410688Y-4873D01*
X-411088Y-4323D01*
X-411355Y-3681D01*
X-411488Y-2948D01*
Y-2214D01*
X-411355Y-1481D01*
X-411088Y-839D01*
X-410688Y-290D01*
X-410222Y77D01*
X-409688Y169D01*
X-409155Y77D01*
X-408688Y-290D01*
X-408288Y-839D01*
X-408022Y-1481D01*
X-407888Y-2214D01*
Y-2948D01*
X-408022Y-3681D01*
X-408288Y-4323D01*
X-408688Y-4873D01*
X-409155Y-5240D01*
X-409688Y-5331D01*
G01X-406655Y169D02*
Y-3773D01*
X-406388Y-4598D01*
X-405855Y-5148D01*
X-405188Y-5331D01*
X-404522Y-5148D01*
X-403988Y-4598D01*
X-403722Y-3773D01*
Y169D01*
G01X-400688D02*
Y-5331D01*
G01X-402222Y169D02*
X-399155D01*
G01X-368436Y-909D02*
X-366836D01*
G01X-367636D02*
Y-6409D01*
G01X-368436D02*
X-366836D01*
G01X-364670D02*
Y-909D01*
X-361603Y-6409D01*
Y-909D01*
G01X-359503Y-13918D02*
X-359836Y-13368D01*
X-360236Y-13001D01*
X-360703Y-12818D01*
X-361236Y-13001D01*
X-361636Y-13368D01*
X-362036Y-13918D01*
X-362170Y-14651D01*
Y-18318D01*
G01X-365336Y-12818D02*
Y-18318D01*
X-364536Y-17218D01*
G01Y-12818D02*
X-366136D01*
G01X-368370Y-13643D02*
X-368770Y-13184D01*
X-369236Y-12909D01*
X-369836Y-12818D01*
X-370436Y-13001D01*
X-370903Y-13368D01*
X-371236Y-14009D01*
X-371303Y-14743D01*
X-371170Y-15476D01*
X-370836Y-15934D01*
X-370370Y-16301D01*
X-369903Y-16393D01*
X-369436Y-16301D01*
X-368836Y-15934D01*
X-369036Y-18318D01*
X-370836D01*
G01X-370200Y325182D02*
X-369866Y324632D01*
X-369466Y324266D01*
X-369000Y324082D01*
X-368466Y324266D01*
X-368066Y324632D01*
X-367666Y325182D01*
X-367533Y325916D01*
Y329582D01*
G01X-364366Y324082D02*
Y329582D01*
X-365166Y328482D01*
G01Y324082D02*
X-363566D01*
G01X-360000D02*
X-359866Y325274D01*
X-359666Y326282D01*
X-359400Y327199D01*
X-359066Y328207D01*
X-358533Y329582D01*
X-361200D01*
G01X-371959Y360872D02*
X-371626Y360322D01*
X-371226Y359955D01*
X-370759Y359772D01*
X-370226Y359955D01*
X-369826Y360322D01*
X-369426Y360872D01*
X-369293Y361605D01*
Y365272D01*
G01X-367393Y364355D02*
X-366993Y364905D01*
X-366526Y365180D01*
X-365993Y365272D01*
X-365326Y365089D01*
X-364859Y364630D01*
X-364726Y364080D01*
X-364793Y363530D01*
X-365059Y363072D01*
X-366393Y362155D01*
X-366993Y361514D01*
X-367393Y360597D01*
X-367526Y359772D01*
X-364726D01*
G01X-361626D02*
Y365272D01*
X-362426Y364172D01*
G01Y359772D02*
X-360826D01*
G01X-333171Y-3989D02*
Y-9489D01*
X-334838D01*
X-335371Y-9214D01*
X-335704Y-8847D01*
X-335838Y-8114D01*
X-335704Y-7380D01*
X-335304Y-6922D01*
X-334838Y-6647D01*
X-333171D01*
G01X-334838D02*
X-335838Y-3989D01*
G01X-337671Y-9489D02*
Y-3989D01*
X-340338D01*
G01X-343504D02*
Y-9489D01*
X-342704Y-8389D01*
G01Y-3989D02*
X-344304D01*
G01X-346538Y-4813D02*
X-346938Y-4355D01*
X-347404Y-4080D01*
X-348004Y-3989D01*
X-348604Y-4172D01*
X-349071Y-4538D01*
X-349404Y-5180D01*
X-349471Y-5914D01*
X-349338Y-6647D01*
X-349004Y-7105D01*
X-348538Y-7472D01*
X-348071Y-7564D01*
X-347604Y-7472D01*
X-347004Y-7105D01*
X-347204Y-9489D01*
X-349004D01*
G01X-335192Y293059D02*
Y298559D01*
X-333525D01*
X-332992Y298284D01*
X-332658Y297917D01*
X-332525Y297184D01*
X-332658Y296451D01*
X-333058Y295992D01*
X-333525Y295717D01*
X-335192D01*
G01X-333525D02*
X-332525Y293059D01*
G01X-330625Y297643D02*
X-330225Y298192D01*
X-329758Y298468D01*
X-329225Y298559D01*
X-328558Y298376D01*
X-328092Y297917D01*
X-327958Y297368D01*
X-328025Y296817D01*
X-328292Y296359D01*
X-329625Y295442D01*
X-330225Y294801D01*
X-330625Y293884D01*
X-330758Y293059D01*
X-327958D01*
G01X-326125Y297643D02*
X-325725Y298192D01*
X-325258Y298468D01*
X-324725Y298559D01*
X-324058Y298376D01*
X-323592Y297917D01*
X-323458Y297368D01*
X-323525Y296817D01*
X-323792Y296359D01*
X-325125Y295442D01*
X-325725Y294801D01*
X-326125Y293884D01*
X-326258Y293059D01*
X-323458D01*
G01X-335466Y331994D02*
Y337495D01*
X-333799D01*
X-333266Y337219D01*
X-332933Y336853D01*
X-332799Y336120D01*
X-332933Y335386D01*
X-333333Y334928D01*
X-333799Y334653D01*
X-335466D01*
G01X-333799D02*
X-332799Y331994D01*
G01X-330899Y336578D02*
X-330499Y337128D01*
X-330033Y337403D01*
X-329499Y337495D01*
X-328833Y337311D01*
X-328366Y336853D01*
X-328233Y336303D01*
X-328299Y335753D01*
X-328566Y335294D01*
X-329899Y334378D01*
X-330499Y333736D01*
X-330899Y332819D01*
X-331033Y331994D01*
X-328233D01*
G01X-326599Y333094D02*
X-326199Y332453D01*
X-325666Y332086D01*
X-325066Y331994D01*
X-324533Y332086D01*
X-323999Y332544D01*
X-323666Y333094D01*
X-323599Y333645D01*
X-323733Y334286D01*
X-324199Y334744D01*
X-324666Y334928D01*
X-325266D01*
G01X-324666D02*
X-324266Y335203D01*
X-323933Y335661D01*
X-323799Y336211D01*
X-323933Y336761D01*
X-324266Y337219D01*
X-324866Y337495D01*
X-325466Y337403D01*
X-326066Y337036D01*
G01X-302046Y12218D02*
X-307546D01*
Y13885D01*
X-307271Y14418D01*
X-306904Y14752D01*
X-306171Y14885D01*
X-305437Y14752D01*
X-304979Y14352D01*
X-304704Y13885D01*
Y12218D01*
G01Y13885D02*
X-302046Y14885D01*
G01X-306629Y16785D02*
X-307179Y17185D01*
X-307454Y17652D01*
X-307546Y18185D01*
X-307362Y18852D01*
X-306904Y19318D01*
X-306354Y19452D01*
X-305804Y19385D01*
X-305346Y19118D01*
X-304429Y17785D01*
X-303787Y17185D01*
X-302870Y16785D01*
X-302046Y16652D01*
Y19452D01*
G01X-307546Y22552D02*
X-307362Y22018D01*
X-306904Y21618D01*
X-306354Y21352D01*
X-305621Y21152D01*
X-304796Y21085D01*
X-303971Y21152D01*
X-303237Y21352D01*
X-302687Y21618D01*
X-302229Y22018D01*
X-302046Y22552D01*
X-302229Y23085D01*
X-302687Y23485D01*
X-303237Y23752D01*
X-303971Y23952D01*
X-304796Y24018D01*
X-305621Y23952D01*
X-306354Y23752D01*
X-306904Y23485D01*
X-307362Y23085D01*
X-307546Y22552D01*
G01X-302320Y46779D02*
X-307820D01*
Y48113D01*
X-307545Y48646D01*
X-307178Y49046D01*
X-306628Y49380D01*
X-305987Y49646D01*
X-305070Y49713D01*
X-304153Y49646D01*
X-303512Y49380D01*
X-302962Y49046D01*
X-302595Y48646D01*
X-302320Y48113D01*
Y46779D01*
G01X-306904Y51479D02*
X-307453Y51879D01*
X-307728Y52346D01*
X-307820Y52880D01*
X-307637Y53546D01*
X-307178Y54013D01*
X-306628Y54146D01*
X-306078Y54080D01*
X-305620Y53813D01*
X-304703Y52479D01*
X-304062Y51879D01*
X-303145Y51479D01*
X-302320Y51346D01*
Y54146D01*
G01X-306904Y55979D02*
X-307453Y56379D01*
X-307728Y56846D01*
X-307820Y57379D01*
X-307637Y58046D01*
X-307178Y58513D01*
X-306628Y58646D01*
X-306078Y58579D01*
X-305620Y58313D01*
X-304703Y56979D01*
X-304062Y56379D01*
X-303145Y55979D01*
X-302320Y55846D01*
Y58646D01*
G01X-311915Y273855D02*
X-317415D01*
Y275189D01*
X-317140Y275722D01*
X-316773Y276122D01*
X-316223Y276455D01*
X-315581Y276722D01*
X-314664Y276789D01*
X-313748Y276722D01*
X-313106Y276455D01*
X-312556Y276122D01*
X-312190Y275722D01*
X-311915Y275189D01*
Y273855D01*
G01X-316498Y278555D02*
X-317048Y278955D01*
X-317323Y279422D01*
X-317415Y279955D01*
X-317231Y280622D01*
X-316773Y281089D01*
X-316223Y281222D01*
X-315673Y281155D01*
X-315215Y280889D01*
X-314298Y279555D01*
X-313656Y278955D01*
X-312739Y278555D01*
X-311915Y278422D01*
Y281222D01*
G01X-313014Y282855D02*
X-312373Y283255D01*
X-312006Y283789D01*
X-311915Y284389D01*
X-312006Y284922D01*
X-312464Y285455D01*
X-313014Y285789D01*
X-313565Y285855D01*
X-314206Y285722D01*
X-314664Y285255D01*
X-314848Y284789D01*
Y284189D01*
G01Y284789D02*
X-315123Y285189D01*
X-315581Y285522D01*
X-316131Y285655D01*
X-316681Y285522D01*
X-317140Y285189D01*
X-317415Y284589D01*
X-317323Y283989D01*
X-316956Y283389D01*
G01X-305966Y352396D02*
X-311466D01*
Y354062D01*
X-311191Y354596D01*
X-310824Y354929D01*
X-310091Y355062D01*
X-309357Y354929D01*
X-308899Y354529D01*
X-308624Y354062D01*
Y352396D01*
G01Y354062D02*
X-305966Y355062D01*
G01Y358229D02*
X-311466D01*
X-310366Y357429D01*
G01X-305966D02*
Y359029D01*
G01X-310549Y361462D02*
X-311099Y361862D01*
X-311374Y362329D01*
X-311466Y362862D01*
X-311282Y363529D01*
X-310824Y363996D01*
X-310274Y364129D01*
X-309724Y364062D01*
X-309266Y363796D01*
X-308349Y362462D01*
X-307707Y361862D01*
X-306790Y361462D01*
X-305966Y361329D01*
Y364129D01*
G01X-294241Y350766D02*
Y356266D01*
X-292574D01*
X-292041Y355991D01*
X-291707Y355625D01*
X-291574Y354891D01*
X-291707Y354158D01*
X-292107Y353700D01*
X-292574Y353425D01*
X-294241D01*
G01X-292574D02*
X-291574Y350766D01*
G01X-289741Y356266D02*
Y350766D01*
X-287074D01*
G01X-283907D02*
X-283441Y350858D01*
X-282907Y351133D01*
X-282574Y351591D01*
X-282441Y352233D01*
X-282574Y352875D01*
X-282974Y353425D01*
X-283574Y353700D01*
X-284241D01*
X-284641Y353883D01*
X-284974Y354341D01*
X-285107Y354983D01*
X-284907Y355625D01*
X-284441Y356083D01*
X-283907Y356266D01*
X-283374Y356083D01*
X-282907Y355625D01*
X-282707Y354983D01*
X-282841Y354341D01*
X-283174Y353883D01*
X-283574Y353700D01*
X-284241D01*
X-284841Y353425D01*
X-285241Y352875D01*
X-285374Y352233D01*
X-285241Y351591D01*
X-284907Y351133D01*
X-284374Y350858D01*
X-283907Y350766D01*
G01X-271611Y352318D02*
X-273211D01*
G01X-272411D02*
Y357818D01*
G01X-271611D02*
X-273211D01*
G01X-275378D02*
Y352318D01*
X-278445Y357818D01*
Y352318D01*
G01X-264746Y-7350D02*
X-265280Y-7258D01*
X-265746Y-6892D01*
X-266146Y-6342D01*
X-266413Y-5700D01*
X-266546Y-4967D01*
Y-4233D01*
X-266413Y-3500D01*
X-266146Y-2858D01*
X-265746Y-2308D01*
X-265280Y-1942D01*
X-264746Y-1850D01*
X-264213Y-1942D01*
X-263746Y-2308D01*
X-263346Y-2858D01*
X-263079Y-3500D01*
X-262946Y-4233D01*
Y-4967D01*
X-263079Y-5700D01*
X-263346Y-6342D01*
X-263746Y-6892D01*
X-264213Y-7258D01*
X-264746Y-7350D01*
G01X-261713Y-1850D02*
Y-5792D01*
X-261446Y-6617D01*
X-260913Y-7167D01*
X-260246Y-7350D01*
X-259579Y-7167D01*
X-259046Y-6617D01*
X-258779Y-5792D01*
Y-1850D01*
G01X-255746D02*
Y-7350D01*
G01X-257279Y-1850D02*
X-254213D01*
G01X-257989Y97722D02*
Y103222D01*
X-256323D01*
X-255789Y102947D01*
X-255456Y102580D01*
X-255322Y101847D01*
X-255456Y101114D01*
X-255856Y100655D01*
X-256323Y100380D01*
X-257989D01*
G01X-256323D02*
X-255322Y97722D01*
G01X-252156D02*
Y103222D01*
X-252956Y102122D01*
G01Y97722D02*
X-251356D01*
G01X-248789Y98364D02*
X-248323Y97905D01*
X-247789Y97722D01*
X-247256Y97905D01*
X-246789Y98455D01*
X-246456Y99280D01*
X-246322Y100105D01*
Y101114D01*
X-246456Y101939D01*
X-246789Y102672D01*
X-247189Y103039D01*
X-247656Y103222D01*
X-248189Y103039D01*
X-248589Y102672D01*
X-248856Y102122D01*
X-248989Y101389D01*
X-248856Y100747D01*
X-248523Y100105D01*
X-248122Y99739D01*
X-247656Y99647D01*
X-247123Y99830D01*
X-246723Y100289D01*
X-246322Y101114D01*
G01X-256763Y116652D02*
Y122152D01*
X-255430D01*
X-254896Y121877D01*
X-254496Y121511D01*
X-254163Y120961D01*
X-253896Y120319D01*
X-253829Y119402D01*
X-253896Y118486D01*
X-254163Y117844D01*
X-254496Y117294D01*
X-254896Y116927D01*
X-255430Y116652D01*
X-256763D01*
G01X-252063Y121236D02*
X-251663Y121786D01*
X-251196Y122061D01*
X-250663Y122152D01*
X-249996Y121969D01*
X-249529Y121511D01*
X-249396Y120961D01*
X-249463Y120411D01*
X-249730Y119952D01*
X-251063Y119036D01*
X-251663Y118394D01*
X-252063Y117477D01*
X-252196Y116652D01*
X-249396D01*
G01X-246296D02*
Y122152D01*
X-247096Y121053D01*
G01Y116652D02*
X-245496D01*
G01X-257873Y249700D02*
Y245758D01*
X-257607Y244933D01*
X-257073Y244383D01*
X-256407Y244200D01*
X-255740Y244383D01*
X-255207Y244933D01*
X-254940Y245758D01*
Y249700D01*
G01X-253173Y248783D02*
X-252773Y249333D01*
X-252307Y249608D01*
X-251773Y249700D01*
X-251107Y249517D01*
X-250640Y249058D01*
X-250507Y248508D01*
X-250573Y247958D01*
X-250840Y247500D01*
X-252173Y246583D01*
X-252773Y245942D01*
X-253173Y245025D01*
X-253307Y244200D01*
X-250507D01*
G01X-217590Y357132D02*
X-217057Y357040D01*
X-216590Y356673D01*
X-216190Y356123D01*
X-215924Y355482D01*
X-215790Y354748D01*
Y354015D01*
X-215924Y353282D01*
X-216190Y352640D01*
X-216590Y352090D01*
X-217057Y351723D01*
X-217590Y351632D01*
X-218124Y351723D01*
X-218590Y352090D01*
X-218990Y352640D01*
X-219257Y353282D01*
X-219390Y354015D01*
Y354748D01*
X-219257Y355482D01*
X-218990Y356123D01*
X-218590Y356673D01*
X-218124Y357040D01*
X-217590Y357132D01*
G01X-220624Y351632D02*
Y355573D01*
X-220890Y356398D01*
X-221424Y356948D01*
X-222090Y357132D01*
X-222757Y356948D01*
X-223290Y356398D01*
X-223557Y355573D01*
Y351632D01*
G01X-226590D02*
Y357132D01*
G01X-225057Y351632D02*
X-228124D01*
G01X-215253Y-1850D02*
X-213653D01*
G01X-214453D02*
Y-7350D01*
G01X-215253D02*
X-213653D01*
G01X-211486D02*
Y-1850D01*
X-208420Y-7350D01*
Y-1850D01*
G01X-207663Y-13778D02*
X-207996Y-13228D01*
X-208396Y-12861D01*
X-208863Y-12678D01*
X-209396Y-12861D01*
X-209796Y-13228D01*
X-210196Y-13778D01*
X-210330Y-14511D01*
Y-18178D01*
G01X-213496Y-12678D02*
Y-18178D01*
X-212696Y-17078D01*
G01Y-12678D02*
X-214296D01*
G01X-218796D02*
Y-18178D01*
X-216329Y-14236D01*
X-219663D01*
G01X-213203Y251182D02*
Y245682D01*
X-214870D01*
X-215403Y245957D01*
X-215736Y246324D01*
X-215870Y247057D01*
X-215736Y247791D01*
X-215336Y248249D01*
X-214870Y248524D01*
X-213203D01*
G01X-214870D02*
X-215870Y251182D01*
G01X-219036D02*
Y245682D01*
X-218236Y246782D01*
G01Y251182D02*
X-219836D01*
G01X-223536D02*
Y245682D01*
X-222736Y246782D01*
G01Y251182D02*
X-224336D01*
G01X-224743Y361129D02*
X-224410Y360579D01*
X-224010Y360213D01*
X-223543Y360030D01*
X-223010Y360213D01*
X-222610Y360579D01*
X-222210Y361129D01*
X-222076Y361863D01*
Y365530D01*
G01X-220043Y360671D02*
X-219576Y360213D01*
X-219043Y360030D01*
X-218510Y360213D01*
X-218043Y360763D01*
X-217710Y361588D01*
X-217576Y362413D01*
Y363421D01*
X-217710Y364246D01*
X-218043Y364979D01*
X-218443Y365346D01*
X-218910Y365530D01*
X-219443Y365346D01*
X-219843Y364979D01*
X-220110Y364430D01*
X-220243Y363696D01*
X-220110Y363054D01*
X-219776Y362413D01*
X-219376Y362046D01*
X-218910Y361954D01*
X-218376Y362138D01*
X-217976Y362596D01*
X-217576Y363421D01*
G01X-178507Y-6625D02*
Y-12125D01*
X-180174D01*
X-180707Y-11850D01*
X-181041Y-11483D01*
X-181174Y-10750D01*
X-181041Y-10016D01*
X-180641Y-9558D01*
X-180174Y-9283D01*
X-178507D01*
G01X-180174D02*
X-181174Y-6625D01*
G01X-183007Y-12125D02*
Y-6625D01*
X-185674D01*
G01X-188840D02*
Y-12125D01*
X-188041Y-11025D01*
G01Y-6625D02*
X-189640D01*
G01X-191874Y-7725D02*
X-192274Y-7083D01*
X-192807Y-6716D01*
X-193407Y-6625D01*
X-193941Y-6716D01*
X-194474Y-7175D01*
X-194807Y-7725D01*
X-194874Y-8275D01*
X-194741Y-8916D01*
X-194274Y-9375D01*
X-193807Y-9558D01*
X-193207D01*
G01X-193807D02*
X-194207Y-9833D01*
X-194541Y-10291D01*
X-194674Y-10841D01*
X-194541Y-11392D01*
X-194207Y-11850D01*
X-193607Y-12125D01*
X-193007Y-12033D01*
X-192407Y-11666D01*
G01X-198554Y350766D02*
Y356266D01*
X-196887D01*
X-196353Y355991D01*
X-196020Y355625D01*
X-195887Y354891D01*
X-196020Y354158D01*
X-196420Y353700D01*
X-196887Y353425D01*
X-198554D01*
G01X-196887D02*
X-195887Y350766D01*
G01X-194054Y356266D02*
Y350766D01*
X-191387D01*
G01X-189354Y351408D02*
X-188887Y350950D01*
X-188354Y350766D01*
X-187820Y350950D01*
X-187353Y351500D01*
X-187020Y352325D01*
X-186887Y353150D01*
Y354158D01*
X-187020Y354983D01*
X-187353Y355716D01*
X-187754Y356083D01*
X-188220Y356266D01*
X-188754Y356083D01*
X-189153Y355716D01*
X-189420Y355166D01*
X-189554Y354433D01*
X-189420Y353791D01*
X-189087Y353150D01*
X-188687Y352783D01*
X-188220Y352691D01*
X-187687Y352875D01*
X-187287Y353333D01*
X-186887Y354158D01*
G01X-174794Y359170D02*
X-174260Y359078D01*
X-173794Y358712D01*
X-173394Y358162D01*
X-173127Y357520D01*
X-172994Y356787D01*
Y356053D01*
X-173127Y355320D01*
X-173394Y354678D01*
X-173794Y354128D01*
X-174260Y353762D01*
X-174794Y353670D01*
X-175327Y353762D01*
X-175794Y354128D01*
X-176194Y354678D01*
X-176460Y355320D01*
X-176594Y356053D01*
Y356787D01*
X-176460Y357520D01*
X-176194Y358162D01*
X-175794Y358712D01*
X-175327Y359078D01*
X-174794Y359170D01*
G01X-177827Y353670D02*
Y357612D01*
X-178094Y358437D01*
X-178627Y358987D01*
X-179294Y359170D01*
X-179960Y358987D01*
X-180494Y358437D01*
X-180760Y357612D01*
Y353670D01*
G01X-183794D02*
Y359170D01*
G01X-182260Y353670D02*
X-185327D01*
G01X-157363Y248272D02*
Y242772D01*
X-159029D01*
X-159563Y243047D01*
X-159896Y243414D01*
X-160030Y244147D01*
X-159896Y244880D01*
X-159496Y245339D01*
X-159029Y245614D01*
X-157363D01*
G01X-159029D02*
X-160030Y248272D01*
G01X-163196D02*
Y242772D01*
X-162396Y243872D01*
G01Y248272D02*
X-163996D01*
G01X-168496D02*
Y242772D01*
X-166029Y246714D01*
X-169363D01*
G01X-128713Y67921D02*
X-134213D01*
Y69588D01*
X-133938Y70121D01*
X-133572Y70455D01*
X-132838Y70588D01*
X-132105Y70455D01*
X-131647Y70055D01*
X-131372Y69588D01*
Y67921D01*
G01Y69588D02*
X-128713Y70588D01*
G01Y73755D02*
X-134213D01*
X-133114Y72955D01*
G01X-128713D02*
Y74555D01*
G01Y78255D02*
X-128805Y78721D01*
X-129080Y79255D01*
X-129538Y79588D01*
X-130180Y79721D01*
X-130822Y79588D01*
X-131372Y79188D01*
X-131647Y78588D01*
Y77921D01*
X-131830Y77521D01*
X-132288Y77188D01*
X-132930Y77055D01*
X-133572Y77255D01*
X-134030Y77721D01*
X-134213Y78255D01*
X-134030Y78788D01*
X-133572Y79255D01*
X-132930Y79455D01*
X-132288Y79321D01*
X-131830Y78988D01*
X-131647Y78588D01*
Y77921D01*
X-131372Y77321D01*
X-130822Y76921D01*
X-130180Y76788D01*
X-129538Y76921D01*
X-129080Y77255D01*
X-128805Y77788D01*
X-128713Y78255D01*
G01X-128988Y123778D02*
X-134488D01*
Y125112D01*
X-134213Y125645D01*
X-133846Y126045D01*
X-133296Y126378D01*
X-132654Y126645D01*
X-131738Y126712D01*
X-130821Y126645D01*
X-130179Y126378D01*
X-129629Y126045D01*
X-129263Y125645D01*
X-128988Y125112D01*
Y123778D01*
G01Y129745D02*
X-134488D01*
X-133388Y128945D01*
G01X-128988D02*
Y130545D01*
G01X-129629Y133112D02*
X-129171Y133578D01*
X-128988Y134112D01*
X-129171Y134645D01*
X-129721Y135112D01*
X-130546Y135445D01*
X-131371Y135578D01*
X-132379D01*
X-133204Y135445D01*
X-133938Y135112D01*
X-134304Y134712D01*
X-134488Y134245D01*
X-134304Y133712D01*
X-133938Y133312D01*
X-133388Y133045D01*
X-132654Y132912D01*
X-132013Y133045D01*
X-131371Y133378D01*
X-131004Y133778D01*
X-130913Y134245D01*
X-131096Y134778D01*
X-131554Y135178D01*
X-132379Y135578D01*
G01X-131403Y277812D02*
Y272312D01*
X-133070D01*
X-133603Y272587D01*
X-133936Y272954D01*
X-134070Y273687D01*
X-133936Y274421D01*
X-133536Y274879D01*
X-133070Y275154D01*
X-131403D01*
G01X-133070D02*
X-134070Y277812D01*
G01X-137236D02*
Y272312D01*
X-136436Y273412D01*
G01Y277812D02*
X-138036D01*
G01X-140270Y276712D02*
X-140670Y277354D01*
X-141203Y277721D01*
X-141803Y277812D01*
X-142336Y277721D01*
X-142870Y277262D01*
X-143203Y276712D01*
X-143270Y276162D01*
X-143136Y275521D01*
X-142670Y275062D01*
X-142203Y274879D01*
X-141603D01*
G01X-142203D02*
X-142603Y274604D01*
X-142936Y274146D01*
X-143070Y273596D01*
X-142936Y273046D01*
X-142603Y272587D01*
X-142003Y272312D01*
X-141403Y272404D01*
X-140803Y272771D01*
G01X-139125Y263042D02*
Y257542D01*
X-140458D01*
X-140992Y257817D01*
X-141392Y258183D01*
X-141725Y258733D01*
X-141992Y259375D01*
X-142058Y260292D01*
X-141992Y261208D01*
X-141725Y261850D01*
X-141392Y262400D01*
X-140992Y262767D01*
X-140458Y263042D01*
X-139125D01*
G01X-145092D02*
Y257542D01*
X-144292Y258642D01*
G01Y263042D02*
X-145892D01*
G01X-149458D02*
X-149592Y261850D01*
X-149792Y260842D01*
X-150058Y259925D01*
X-150392Y258917D01*
X-150925Y257542D01*
X-148258D01*
G01X-127757Y353807D02*
X-129357D01*
G01X-128557D02*
Y359307D01*
G01X-127757D02*
X-129357D01*
G01X-131524D02*
Y353807D01*
X-134590Y359307D01*
Y353807D01*
G01X-139809Y364252D02*
X-139476Y363702D01*
X-139076Y363336D01*
X-138609Y363152D01*
X-138076Y363336D01*
X-137676Y363702D01*
X-137276Y364252D01*
X-137143Y364986D01*
Y368652D01*
G01X-133976Y363152D02*
Y368652D01*
X-134776Y367553D01*
G01Y363152D02*
X-133176D01*
G01X-129476Y368652D02*
X-130009Y368469D01*
X-130409Y368011D01*
X-130676Y367461D01*
X-130876Y366727D01*
X-130943Y365902D01*
X-130876Y365077D01*
X-130676Y364344D01*
X-130409Y363794D01*
X-130009Y363336D01*
X-129476Y363152D01*
X-128943Y363336D01*
X-128543Y363794D01*
X-128276Y364344D01*
X-128076Y365077D01*
X-128009Y365902D01*
X-128076Y366727D01*
X-128276Y367461D01*
X-128543Y368011D01*
X-128943Y368469D01*
X-129476Y368652D01*
G01X-118168Y11832D02*
X-123668D01*
Y13166D01*
X-123393Y13699D01*
X-123027Y14099D01*
X-122477Y14433D01*
X-121835Y14699D01*
X-120918Y14766D01*
X-120002Y14699D01*
X-119360Y14433D01*
X-118810Y14099D01*
X-118443Y13699D01*
X-118168Y13166D01*
Y11832D01*
G01X-122752Y16532D02*
X-123302Y16932D01*
X-123577Y17399D01*
X-123668Y17933D01*
X-123485Y18599D01*
X-123027Y19066D01*
X-122477Y19199D01*
X-121927Y19133D01*
X-121468Y18866D01*
X-120552Y17532D01*
X-119910Y16932D01*
X-118993Y16532D01*
X-118168Y16399D01*
Y19199D01*
G01X-123668Y22299D02*
X-123485Y21766D01*
X-123027Y21366D01*
X-122477Y21099D01*
X-121743Y20899D01*
X-120918Y20832D01*
X-120093Y20899D01*
X-119360Y21099D01*
X-118810Y21366D01*
X-118352Y21766D01*
X-118168Y22299D01*
X-118352Y22832D01*
X-118810Y23232D01*
X-119360Y23499D01*
X-120093Y23699D01*
X-120918Y23766D01*
X-121743Y23699D01*
X-122477Y23499D01*
X-123027Y23232D01*
X-123485Y22832D01*
X-123668Y22299D01*
G01X-112632Y170008D02*
X-118132D01*
Y171675D01*
X-117856Y172208D01*
X-117490Y172541D01*
X-116757Y172675D01*
X-116023Y172541D01*
X-115565Y172141D01*
X-115290Y171675D01*
Y170008D01*
G01Y171675D02*
X-112632Y172675D01*
G01Y175841D02*
X-118132D01*
X-117032Y175041D01*
G01X-112632D02*
Y176641D01*
G01Y180208D02*
X-113823Y180341D01*
X-114831Y180541D01*
X-115748Y180808D01*
X-116757Y181141D01*
X-118132Y181675D01*
Y179008D01*
G01X-103219Y170250D02*
Y175750D01*
X-101552D01*
X-101019Y175475D01*
X-100686Y175109D01*
X-100552Y174375D01*
X-100686Y173642D01*
X-101086Y173184D01*
X-101552Y172909D01*
X-103219D01*
G01X-101552D02*
X-100552Y170250D01*
G01X-98719Y175750D02*
Y170250D01*
X-96052D01*
G01X-92886D02*
Y175750D01*
X-93686Y174651D01*
G01Y170250D02*
X-92086D01*
G01X-88386D02*
Y175750D01*
X-89186Y174651D01*
G01Y170250D02*
X-87586D01*
G01X-102463Y264292D02*
Y258792D01*
X-104129D01*
X-104663Y259067D01*
X-104996Y259434D01*
X-105130Y260167D01*
X-104996Y260901D01*
X-104596Y261359D01*
X-104129Y261634D01*
X-102463D01*
G01X-104129D02*
X-105130Y264292D01*
G01X-108296D02*
Y258792D01*
X-107496Y259892D01*
G01Y264292D02*
X-109096D01*
G01X-111529Y262001D02*
X-111996Y261359D01*
X-112396Y260992D01*
X-112930Y260809D01*
X-113396Y260992D01*
X-113729Y261359D01*
X-113996Y261909D01*
X-114063Y262550D01*
X-113996Y263100D01*
X-113729Y263651D01*
X-113329Y264109D01*
X-112863Y264292D01*
X-112330Y264109D01*
X-111863Y263559D01*
X-111596Y262734D01*
X-111529Y261817D01*
X-111663Y260626D01*
X-111863Y259984D01*
X-112196Y259342D01*
X-112663Y258884D01*
X-113129Y258792D01*
X-113596Y258975D01*
X-113930Y259434D01*
G01X-101129Y277272D02*
Y271772D01*
X-102463D01*
X-102996Y272047D01*
X-103396Y272414D01*
X-103730Y272964D01*
X-103996Y273605D01*
X-104063Y274522D01*
X-103996Y275439D01*
X-103730Y276080D01*
X-103396Y276630D01*
X-102996Y276997D01*
X-102463Y277272D01*
X-101129D01*
G01X-107096D02*
Y271772D01*
X-106296Y272872D01*
G01Y277272D02*
X-107896D01*
G01X-111596D02*
X-112063Y277180D01*
X-112596Y276905D01*
X-112930Y276447D01*
X-113063Y275805D01*
X-112930Y275164D01*
X-112529Y274614D01*
X-111929Y274339D01*
X-111263D01*
X-110863Y274155D01*
X-110529Y273697D01*
X-110396Y273055D01*
X-110596Y272414D01*
X-111063Y271955D01*
X-111596Y271772D01*
X-112129Y271955D01*
X-112596Y272414D01*
X-112796Y273055D01*
X-112663Y273697D01*
X-112330Y274155D01*
X-111929Y274339D01*
X-111263D01*
X-110663Y274614D01*
X-110263Y275164D01*
X-110129Y275805D01*
X-110263Y276447D01*
X-110596Y276905D01*
X-111130Y277180D01*
X-111596Y277272D01*
G01X-102347Y352168D02*
Y357668D01*
X-100680D01*
X-100147Y357393D01*
X-99814Y357026D01*
X-99680Y356293D01*
X-99814Y355559D01*
X-100214Y355101D01*
X-100680Y354826D01*
X-102347D01*
G01X-100680D02*
X-99680Y352168D01*
G01X-97847Y357668D02*
Y352168D01*
X-95180D01*
G01X-92014D02*
Y357668D01*
X-92814Y356568D01*
G01Y352168D02*
X-91214D01*
G01X-87514Y357668D02*
X-88047Y357484D01*
X-88447Y357026D01*
X-88714Y356476D01*
X-88914Y355743D01*
X-88980Y354918D01*
X-88914Y354093D01*
X-88714Y353359D01*
X-88447Y352809D01*
X-88047Y352351D01*
X-87514Y352168D01*
X-86980Y352351D01*
X-86580Y352809D01*
X-86314Y353359D01*
X-86114Y354093D01*
X-86047Y354918D01*
X-86114Y355743D01*
X-86314Y356476D01*
X-86580Y357026D01*
X-86980Y357484D01*
X-87514Y357668D01*
G01X-93511Y91454D02*
Y96954D01*
X-91845D01*
X-91311Y96678D01*
X-90978Y96312D01*
X-90845Y95579D01*
X-90978Y94845D01*
X-91378Y94387D01*
X-91845Y94112D01*
X-93511D01*
G01X-91845D02*
X-90845Y91454D01*
G01X-89011Y96954D02*
Y91454D01*
X-86345D01*
G01X-83178D02*
Y96954D01*
X-83978Y95854D01*
G01Y91454D02*
X-82378D01*
G01X-79945Y96037D02*
X-79545Y96587D01*
X-79078Y96862D01*
X-78545Y96954D01*
X-77878Y96770D01*
X-77411Y96312D01*
X-77278Y95762D01*
X-77345Y95212D01*
X-77611Y94754D01*
X-78945Y93837D01*
X-79545Y93195D01*
X-79945Y92278D01*
X-80078Y91454D01*
X-77278D01*
G01X-76526Y220329D02*
X-82026D01*
Y221996D01*
X-81751Y222529D01*
X-81384Y222862D01*
X-80651Y222996D01*
X-79918Y222862D01*
X-79459Y222462D01*
X-79184Y221996D01*
Y220329D01*
G01Y221996D02*
X-76526Y222996D01*
G01X-81109Y224896D02*
X-81659Y225296D01*
X-81934Y225762D01*
X-82026Y226296D01*
X-81843Y226962D01*
X-81384Y227429D01*
X-80834Y227562D01*
X-80284Y227496D01*
X-79826Y227229D01*
X-78909Y225895D01*
X-78268Y225296D01*
X-77351Y224896D01*
X-76526Y224762D01*
Y227562D01*
G01Y231462D02*
X-82026D01*
X-78084Y228996D01*
Y232329D01*
G01X-64773Y231662D02*
Y227720D01*
X-64506Y226895D01*
X-63973Y226346D01*
X-63306Y226162D01*
X-62639Y226346D01*
X-62106Y226895D01*
X-61839Y227720D01*
Y231662D01*
G01X-60273Y227262D02*
X-59873Y226620D01*
X-59339Y226254D01*
X-58739Y226162D01*
X-58206Y226254D01*
X-57673Y226712D01*
X-57339Y227262D01*
X-57273Y227812D01*
X-57406Y228454D01*
X-57873Y228912D01*
X-58339Y229096D01*
X-58939D01*
G01X-58339D02*
X-57939Y229370D01*
X-57606Y229829D01*
X-57473Y230379D01*
X-57606Y230929D01*
X-57939Y231387D01*
X-58539Y231662D01*
X-59139Y231571D01*
X-59739Y231204D01*
G01X-24053Y277272D02*
Y271772D01*
X-25720D01*
X-26253Y272047D01*
X-26586Y272414D01*
X-26720Y273147D01*
X-26586Y273880D01*
X-26186Y274339D01*
X-25720Y274614D01*
X-24053D01*
G01X-25720D02*
X-26720Y277272D01*
G01X-29886D02*
Y271772D01*
X-29086Y272872D01*
G01Y277272D02*
X-30686D01*
G01X-32920Y276447D02*
X-33320Y276905D01*
X-33786Y277180D01*
X-34386Y277272D01*
X-34986Y277089D01*
X-35453Y276722D01*
X-35786Y276080D01*
X-35853Y275347D01*
X-35720Y274614D01*
X-35386Y274155D01*
X-34920Y273789D01*
X-34453Y273697D01*
X-33986Y273789D01*
X-33386Y274155D01*
X-33586Y271772D01*
X-35386D01*
G01X-2656Y24829D02*
X-2106Y25162D01*
X-1739Y25562D01*
X-1556Y26029D01*
X-1739Y26562D01*
X-2106Y26962D01*
X-2656Y27362D01*
X-3389Y27496D01*
X-7056D01*
G01X-1556Y30662D02*
X-7056D01*
X-5956Y29862D01*
G01X-1556D02*
Y31462D01*
G01X-2656Y33696D02*
X-2014Y34096D01*
X-1648Y34629D01*
X-1556Y35229D01*
X-1648Y35762D01*
X-2106Y36296D01*
X-2656Y36629D01*
X-3206Y36696D01*
X-3847Y36562D01*
X-4306Y36096D01*
X-4489Y35629D01*
Y35029D01*
G01Y35629D02*
X-4764Y36029D01*
X-5222Y36362D01*
X-5773Y36496D01*
X-6323Y36362D01*
X-6781Y36029D01*
X-7056Y35429D01*
X-6964Y34829D01*
X-6597Y34229D01*
G01X-2926Y102299D02*
X-2376Y102632D01*
X-2009Y103032D01*
X-1826Y103499D01*
X-2009Y104032D01*
X-2376Y104432D01*
X-2926Y104832D01*
X-3659Y104966D01*
X-7326D01*
G01X-1826Y108132D02*
X-7326D01*
X-6226Y107332D01*
G01X-1826D02*
Y108932D01*
G01X-6409Y111366D02*
X-6959Y111766D01*
X-7234Y112232D01*
X-7326Y112766D01*
X-7143Y113432D01*
X-6684Y113899D01*
X-6134Y114032D01*
X-5584Y113966D01*
X-5126Y113699D01*
X-4209Y112366D01*
X-3568Y111766D01*
X-2651Y111366D01*
X-1826Y111232D01*
Y114032D01*
G01X-15636Y174229D02*
X-15086Y174562D01*
X-14720Y174962D01*
X-14536Y175429D01*
X-14720Y175962D01*
X-15086Y176362D01*
X-15636Y176762D01*
X-16370Y176896D01*
X-20036D01*
G01X-19120Y178796D02*
X-19669Y179196D01*
X-19945Y179662D01*
X-20036Y180196D01*
X-19853Y180862D01*
X-19394Y181329D01*
X-18845Y181462D01*
X-18294Y181396D01*
X-17836Y181129D01*
X-16920Y179796D01*
X-16278Y179196D01*
X-15361Y178796D01*
X-14536Y178662D01*
Y181462D01*
G01X-20036Y184562D02*
X-19853Y184029D01*
X-19394Y183629D01*
X-18845Y183362D01*
X-18111Y183162D01*
X-17286Y183096D01*
X-16461Y183162D01*
X-15728Y183362D01*
X-15178Y183629D01*
X-14720Y184029D01*
X-14536Y184562D01*
X-14720Y185096D01*
X-15178Y185496D01*
X-15728Y185762D01*
X-16461Y185962D01*
X-17286Y186029D01*
X-18111Y185962D01*
X-18845Y185762D01*
X-19394Y185496D01*
X-19853Y185096D01*
X-20036Y184562D01*
G01X-18306Y242126D02*
X-18856Y241792D01*
X-19223Y241392D01*
X-19406Y240926D01*
X-19223Y240392D01*
X-18856Y239992D01*
X-18306Y239592D01*
X-17573Y239459D01*
X-13906D01*
G01X-19406Y236292D02*
X-13906D01*
X-15006Y237092D01*
G01X-19406D02*
Y235492D01*
G01X-18764Y232926D02*
X-19223Y232459D01*
X-19406Y231926D01*
X-19223Y231392D01*
X-18673Y230925D01*
X-17848Y230592D01*
X-17023Y230459D01*
X-16014D01*
X-15189Y230592D01*
X-14456Y230925D01*
X-14089Y231326D01*
X-13906Y231792D01*
X-14089Y232326D01*
X-14456Y232725D01*
X-15006Y232992D01*
X-15739Y233126D01*
X-16381Y232992D01*
X-17023Y232659D01*
X-17389Y232259D01*
X-17481Y231792D01*
X-17298Y231259D01*
X-16839Y230859D01*
X-16014Y230459D01*
G01X-12382Y268932D02*
X-17882D01*
Y270599D01*
X-17607Y271132D01*
X-17241Y271466D01*
X-16507Y271599D01*
X-15774Y271466D01*
X-15316Y271066D01*
X-15041Y270599D01*
Y268932D01*
G01Y270599D02*
X-12382Y271599D01*
G01X-16966Y273499D02*
X-17516Y273899D01*
X-17791Y274366D01*
X-17882Y274899D01*
X-17699Y275566D01*
X-17241Y276032D01*
X-16691Y276166D01*
X-16140Y276099D01*
X-15682Y275832D01*
X-14766Y274499D01*
X-14124Y273899D01*
X-13207Y273499D01*
X-12382Y273366D01*
Y276166D01*
G01X-13207Y277799D02*
X-12749Y278199D01*
X-12474Y278666D01*
X-12382Y279266D01*
X-12566Y279866D01*
X-12932Y280332D01*
X-13574Y280666D01*
X-14307Y280732D01*
X-15041Y280599D01*
X-15499Y280266D01*
X-15866Y279799D01*
X-15957Y279332D01*
X-15866Y278866D01*
X-15499Y278266D01*
X-17882Y278466D01*
Y280266D01*
G01X-7127Y291839D02*
Y293438D01*
G01Y292638D02*
X-1627D01*
G01Y291839D02*
Y293438D01*
G01Y295605D02*
X-7127D01*
X-1627Y298672D01*
X-7127D01*
G01X-10454Y345332D02*
X-11004Y344999D01*
X-11371Y344599D01*
X-11554Y344132D01*
X-11371Y343599D01*
X-11004Y343199D01*
X-10454Y342799D01*
X-9721Y342665D01*
X-6054D01*
G01X-11554Y339499D02*
X-6054D01*
X-7154Y340299D01*
G01X-11554D02*
Y338699D01*
G01Y334999D02*
X-6054D01*
X-7154Y335799D01*
G01X-11554D02*
Y334199D01*
G01X4241Y23044D02*
Y24644D01*
G01Y23844D02*
X9741D01*
G01Y23044D02*
Y24644D01*
G01Y26811D02*
X4241D01*
X9741Y29877D01*
X4241D01*
G01X9732Y74285D02*
X9640Y73751D01*
X9273Y73285D01*
X8723Y72885D01*
X8082Y72618D01*
X7348Y72485D01*
X6615D01*
X5882Y72618D01*
X5240Y72885D01*
X4690Y73285D01*
X4323Y73751D01*
X4232Y74285D01*
X4323Y74818D01*
X4690Y75285D01*
X5240Y75685D01*
X5882Y75951D01*
X6615Y76085D01*
X7348D01*
X8082Y75951D01*
X8723Y75685D01*
X9273Y75285D01*
X9640Y74818D01*
X9732Y74285D01*
G01X4232Y77318D02*
X8173D01*
X8998Y77585D01*
X9548Y78118D01*
X9732Y78784D01*
X9548Y79451D01*
X8998Y79985D01*
X8173Y80251D01*
X4232D01*
G01Y83284D02*
X9732D01*
G01X4232Y81751D02*
Y84818D01*
G01X3634Y110392D02*
Y111992D01*
G01Y111192D02*
X9134D01*
G01Y110392D02*
Y111992D01*
G01Y114158D02*
X3634D01*
X9134Y117225D01*
X3634D01*
G01X9663Y151009D02*
X9571Y150476D01*
X9205Y150009D01*
X8655Y149609D01*
X8013Y149342D01*
X7280Y149209D01*
X6546D01*
X5813Y149342D01*
X5171Y149609D01*
X4621Y150009D01*
X4255Y150476D01*
X4163Y151009D01*
X4255Y151542D01*
X4621Y152009D01*
X5171Y152409D01*
X5813Y152676D01*
X6546Y152809D01*
X7280D01*
X8013Y152676D01*
X8655Y152409D01*
X9205Y152009D01*
X9571Y151542D01*
X9663Y151009D01*
G01X4163Y154042D02*
X8105D01*
X8930Y154309D01*
X9480Y154842D01*
X9663Y155509D01*
X9480Y156176D01*
X8930Y156709D01*
X8105Y156976D01*
X4163D01*
G01Y160009D02*
X9663D01*
G01X4163Y158476D02*
Y161542D01*
G01X4684Y303516D02*
X4134Y303182D01*
X3767Y302782D01*
X3584Y302316D01*
X3767Y301782D01*
X4134Y301382D01*
X4684Y300982D01*
X5417Y300849D01*
X9084D01*
G01X3584Y297682D02*
X9084D01*
X7984Y298482D01*
G01X3584D02*
Y296882D01*
G01Y293182D02*
X3676Y292716D01*
X3951Y292182D01*
X4409Y291849D01*
X5051Y291716D01*
X5692Y291849D01*
X6242Y292249D01*
X6517Y292849D01*
Y293516D01*
X6701Y293916D01*
X7159Y294249D01*
X7800Y294382D01*
X8442Y294182D01*
X8901Y293716D01*
X9084Y293182D01*
X8901Y292649D01*
X8442Y292182D01*
X7800Y291982D01*
X7159Y292116D01*
X6701Y292449D01*
X6517Y292849D01*
Y293516D01*
X6242Y294116D01*
X5692Y294516D01*
X5051Y294649D01*
X4409Y294516D01*
X3951Y294182D01*
X3676Y293649D01*
X3584Y293182D01*
G01X11211Y338473D02*
X11119Y337940D01*
X10753Y337473D01*
X10203Y337073D01*
X9561Y336806D01*
X8828Y336673D01*
X8094D01*
X7361Y336806D01*
X6719Y337073D01*
X6169Y337473D01*
X5803Y337940D01*
X5711Y338473D01*
X5803Y339007D01*
X6169Y339473D01*
X6719Y339873D01*
X7361Y340140D01*
X8094Y340273D01*
X8828D01*
X9561Y340140D01*
X10203Y339873D01*
X10753Y339473D01*
X11119Y339007D01*
X11211Y338473D01*
G01X5711Y341506D02*
X9653D01*
X10478Y341773D01*
X11028Y342306D01*
X11211Y342973D01*
X11028Y343640D01*
X10478Y344173D01*
X9653Y344440D01*
X5711D01*
G01Y347473D02*
X11211D01*
G01X5711Y345940D02*
Y349006D01*
G54D14*
G01X-648249Y17307D02*
G03I-394J0D01*
G01X-646524Y227684D02*
G03I-394J0D01*
G01X-646730Y292442D02*
G03I-394J0D01*
G01X-628649Y90219D02*
G03I-394J0D01*
G01X-628100Y158760D02*
G03I-394J0D01*
G01X-558985Y256188D02*
G03I-394J0D01*
G01X-467647Y30203D02*
G03I-394J0D01*
G01X-460954Y259731D02*
G03I-394J0D01*
G01X-401229Y324022D02*
G03I-394J0D01*
G01X-340206D02*
G03I-394J0D01*
G01X-350202Y379550D02*
G03I-394J0D01*
G01X-319910Y30547D02*
G03I-394J0D01*
G01X-311482Y322615D02*
G03I-394J0D01*
G01X-240641Y116512D02*
G03I-393J0D01*
G01X-154564Y262532D02*
G03I-394J0D01*
G01X-117746Y60299D02*
G03I-393J0D01*
G01X-114766Y145274D02*
G03I-394J0D01*
G01X-57410Y277054D02*
G03I-394J0D01*
G01X-4135Y173707D02*
G03I-394J0D01*
G54D15*
G01X-58261Y255920D02*
X-50261D01*
M02*
