G04 ================== begin FILE IDENTIFICATION RECORD ==================*
G04 Layout Name:  D:/Sankar/Personal/Final_Design_file/relay/Relay.brd*
G04 Film Name:    TOP*
G04 File Format:  Gerber RS274X*
G04 File Origin:  Cadence Allegro 16.6-P004*
G04 Origin Date:  Mon Jun 21 11:32:24 2021*
G04 *
G04 Layer:  DRAWING FORMAT/TITLE_BLOCK*
G04 Layer:  BOARD GEOMETRY/OUTLINE*
G04 Layer:  ETCH/TOP*
G04 Layer:  PIN/TOP*
G04 Layer:  VIA CLASS/TOP*
G04 *
G04 Offset:    (0.000 0.000)*
G04 Mirror:    No*
G04 Mode:      Positive*
G04 Rotation:  0*
G04 FullContactRelief:  No*
G04 UndefLineWidth:     0.000*
G04 ================== end FILE IDENTIFICATION RECORD ====================*
%FSLAX25Y25*MOIN*%
%IR0*IPPOS*OFA0.00000B0.00000*MIA0B0*SFA1.00000B1.00000*%
%ADD17R,.062992X.070866*%
%ADD13C,.13*%
%ADD14R,.107087X.042913*%
%ADD18R,.042913X.107087*%
%ADD20R,.081X.024*%
%ADD29C,.06*%
%ADD15C,.024*%
%ADD11P,.070313X8X22.5*%
%ADD21C,.055*%
%ADD23R,.055X.055*%
%ADD16R,.061024X.091732*%
%ADD27C,.055039*%
%ADD19R,.091732X.061024*%
%ADD25R,.03937X.043307*%
%ADD22R,.043307X.03937*%
%ADD10C,.064961*%
%ADD28R,.055039X.055039*%
%ADD12C,.076772*%
%ADD24R,.064961X.064961*%
%ADD26R,.068898X.023622*%
%ADD30C,.001*%
%ADD31C,.02*%
%ADD32C,.03*%
%ADD33C,.200006*%
%ADD34C,.095004*%
%ADD36C,.095044*%
%ADD35R,.095004X.095004*%
%ADD37R,.095042X.095042*%
G75*
%LPD*%
G75*
G36*
G01X-749798Y18120D02*
X-743957Y23961D01*
X-731109D01*
X-726317Y19169D01*
Y-13691D01*
X-729698Y-17072D01*
X-759304D01*
X-773092Y-3283D01*
Y17209D01*
X-770594Y19708D01*
X-758491D01*
X-756903Y18120D01*
X-749798D01*
G37*
G36*
G01X-766556Y22530D02*
X-766576Y22550D01*
X-771780D01*
X-773161Y23932D01*
Y38935D01*
X-771133Y40964D01*
X-700720D01*
X-696133Y36378D01*
Y15621D01*
X-705130Y6625D01*
X-714989D01*
X-717154Y8791D01*
Y29851D01*
X-718203Y30899D01*
X-756285D01*
X-761587Y25598D01*
Y23393D01*
X-762450Y22530D01*
X-766556D01*
G37*
G36*
G01X-156178Y225538D02*
X-120155Y261561D01*
X-97494D01*
Y259018D01*
X-88194D01*
Y269105D01*
X-97494D01*
Y266562D01*
X-122226D01*
X-158249Y230538D01*
X-215566D01*
G02X-215849Y231221I0J400D01*
G01X-201257Y245813D01*
X-194737D01*
Y243270D01*
X-185438D01*
Y253357D01*
X-194737D01*
Y250814D01*
X-203328D01*
X-218604Y235538D01*
X-220364D01*
Y240738D01*
X-223414D01*
Y245412D01*
X-227564Y249562D01*
Y256113D01*
X-236863D01*
Y246026D01*
X-231099D01*
X-228414Y243341D01*
Y240738D01*
X-231464D01*
Y200338D01*
X-227222D01*
G03X-225914Y200038I1308J2700D01*
G01X-217650D01*
G03X-215291Y204891I0J3000D01*
G02X-214976Y205538I315J247D01*
G01X-213425D01*
X-210652Y202765D01*
Y144880D01*
X-213039Y142493D01*
X-253601D01*
X-286975Y109120D01*
Y67538D01*
X-297270Y57243D01*
X-315752D01*
Y60788D01*
X-324854D01*
Y57201D01*
X-337293D01*
X-337416Y57323D01*
X-338811D01*
G03X-342987Y60557I-5276J-2500D01*
G01X-343150Y60588D01*
Y62762D01*
X-351262Y70874D01*
X-423731D01*
X-434547Y60058D01*
Y-11194D01*
X-442524Y-19171D01*
X-508774D01*
X-519185Y-8760D01*
Y29908D01*
X-515564Y33528D01*
G02X-514916Y33408I283J-283D01*
G03X-508267Y30091I5335J2372D01*
G01X-508159Y30116D01*
X-487077Y9034D01*
X-474895D01*
Y8388D01*
X-461186D01*
Y9034D01*
X-456448D01*
G03Y15034I0J3000D01*
G01X-461186D01*
Y15680D01*
X-474895D01*
Y15034D01*
X-484592D01*
X-503916Y34358D01*
X-503891Y34467D01*
G03X-504063Y37692I-5689J1313D01*
G02X-503686Y38223I378J131D01*
G01X-498972D01*
Y51282D01*
X-472592D01*
Y48270D01*
X-463489D01*
Y60443D01*
X-465040D01*
Y91716D01*
X-462490D01*
Y132116D01*
X-466732D01*
G03X-468040Y132416I-1308J-2700D01*
G01X-478276D01*
G03Y126415I0J-3000D01*
G01X-473590D01*
Y91716D01*
X-471040D01*
Y60443D01*
X-472592D01*
Y57282D01*
X-496840D01*
X-503916Y64359D01*
X-503891Y64466D01*
G03X-513756Y69861I-5689J1313D01*
G01X-574280D01*
X-587935Y56205D01*
Y-5042D01*
X-599563Y-16670D01*
X-694476D01*
X-701776Y-9368D01*
Y4152D01*
X-695828Y10101D01*
X-677515D01*
X-677476Y9952D01*
G03X-669982Y5898I5647J1485D01*
G01X-669865Y5937D01*
X-658913Y-5015D01*
X-655497D01*
Y-6161D01*
X-641788D01*
Y-5015D01*
X-638689D01*
G03Y-15I0J2500D01*
G01X-641788D01*
Y1131D01*
X-655497D01*
Y-15D01*
X-656842D01*
X-666329Y9472D01*
X-666290Y9590D01*
G03X-666182Y9952I-5539J1847D01*
G01X-666143Y10101D01*
X-656348D01*
X-656180Y10269D01*
G02X-655497Y9986I283J-283D01*
G01Y5768D01*
X-641788D01*
Y13060D01*
X-646142D01*
Y18563D01*
X-644091D01*
Y30737D01*
X-649858D01*
Y33626D01*
X-650923Y34691D01*
G02X-650640Y35374I283J283D01*
G01X-644091D01*
Y38961D01*
X-609586D01*
X-609575Y38960D01*
G03X-609296Y38944I279J2485D01*
G01X-606839D01*
X-590636Y55147D01*
Y102627D01*
X-521098Y172164D01*
G03X-524634Y175700I-1768J1768D01*
G01X-595636Y104698D01*
Y57218D01*
X-608893Y43961D01*
X-644091D01*
Y47548D01*
X-653194D01*
Y43961D01*
X-660193D01*
X-661486Y45254D01*
X-667411D01*
G03X-676247I-4418J-3817D01*
G01X-746394D01*
X-750991Y49851D01*
Y55529D01*
X-744771Y61749D01*
X-689744D01*
X-686904Y64588D01*
Y79122D01*
X-682984Y83043D01*
X-676470D01*
X-676435Y82888D01*
G03X-673242Y78906I5694J1294D01*
G01Y74693D01*
X-666514Y67966D01*
X-635956D01*
Y66820D01*
X-622247D01*
Y67966D01*
X-619778D01*
G03Y72966I0J2500D01*
G01X-622247D01*
Y74112D01*
X-635956D01*
Y72966D01*
X-664443D01*
X-668241Y76764D01*
Y78906D01*
G03X-665048Y82888I-2500J5276D01*
G01X-665012Y83043D01*
X-663041D01*
X-658208Y87877D01*
Y108191D01*
X-660912Y110895D01*
X-665210D01*
G02X-665565Y111480I0J400D01*
G03X-665465Y111682I-5176J2702D01*
G01X-633594D01*
Y108286D01*
X-624491D01*
Y111846D01*
X-619497D01*
G03Y116847I0J2500D01*
G01X-623240D01*
X-623267Y116873D01*
X-624491D01*
Y120460D01*
X-633594D01*
Y116873D01*
X-634829D01*
X-635020Y116682D01*
X-665465D01*
G03X-675918Y111480I-5276J-2500D01*
G02X-676272Y110895I-355J-185D01*
G01X-762991D01*
X-763125Y110760D01*
X-769074Y116709D01*
Y131311D01*
X-764976Y135410D01*
X-721111D01*
X-710432Y135505D01*
X-700083Y135573D01*
X-686294Y155918D01*
X-676148Y155856D01*
G02X-675786Y155289I-3J-400D01*
G03X-668630Y147321I5310J-2429D01*
G01X-668513Y147360D01*
X-659688Y138535D01*
X-635279D01*
Y137390D01*
X-621570D01*
Y138535D01*
X-618445D01*
G03Y143536I0J2500D01*
G01X-621570D01*
Y144681D01*
X-635279D01*
Y143536D01*
X-657616D01*
X-664977Y150896D01*
X-664938Y151013D01*
G03X-665138Y155224I-5539J1847D01*
G02X-664770Y155786I366J162D01*
G01X-660337Y155758D01*
X-654659Y161437D01*
Y178608D01*
X-655728Y179677D01*
G02X-655446Y180360I283J283D01*
G01X-633045D01*
Y176827D01*
X-623942D01*
Y180414D01*
X-622707D01*
X-622655Y180466D01*
X-618694D01*
G03Y185466I0J2500D01*
G01X-623942D01*
Y189001D01*
X-633045D01*
Y185414D01*
X-634287D01*
X-634341Y185360D01*
X-661411D01*
X-661689Y185638D01*
X-665341D01*
G03X-675612I-5136J-2778D01*
G01X-740918D01*
X-743892Y188613D01*
Y194561D01*
X-739161Y199294D01*
X-704549D01*
X-697248Y206595D01*
Y223630D01*
X-695355Y225523D01*
X-675683D01*
G02X-675349Y224903I0J-400D01*
G03X-668630Y216147I4873J-3217D01*
G01X-668513Y216186D01*
X-658158Y205832D01*
X-653772D01*
Y204686D01*
X-640063D01*
Y205832D01*
X-636761D01*
G03Y210832I0J2500D01*
G01X-640063D01*
Y211978D01*
X-653772D01*
Y210832D01*
X-656087D01*
X-664977Y219722D01*
X-664938Y219839D01*
G03X-665604Y224903I-5539J1847D01*
G02X-665270Y225523I334J220D01*
G01X-664258D01*
X-652630Y237151D01*
Y247426D01*
X-653207Y248003D01*
G02X-652924Y248686I283J283D01*
G01X-651469D01*
Y245751D01*
X-645902D01*
X-606113Y205962D01*
X-555296D01*
G03Y210962I0J2500D01*
G01X-604042D01*
X-642366Y249286D01*
Y257924D01*
X-651469D01*
Y254838D01*
X-653412D01*
X-653563Y254686D01*
X-659890D01*
X-665204Y260000D01*
X-764579D01*
X-768230Y263651D01*
Y273656D01*
X-763903Y277982D01*
X-708740D01*
X-680077Y306646D01*
X-677085D01*
X-670802Y300362D01*
G02X-670959Y299700I-283J-283D01*
G03X-672125Y289148I1835J-5543D01*
G01Y281732D01*
X-660718Y270325D01*
X-653978D01*
Y269680D01*
X-650123D01*
Y266384D01*
G03X-644123I3000J0D01*
G01Y269680D01*
X-640269D01*
Y276971D01*
X-653978D01*
Y276326D01*
X-658232D01*
X-666124Y284218D01*
Y289148D01*
G03X-663581Y292322I-3000J5009D01*
G02X-662919Y292479I380J-126D01*
G01X-653978Y283538D01*
Y281609D01*
X-652049D01*
X-651008Y280568D01*
Y280572D01*
X-637070D01*
Y278861D01*
X-632272Y274063D01*
Y269938D01*
X-633922D01*
Y259851D01*
X-624622D01*
Y269938D01*
X-626272D01*
Y276549D01*
X-629613Y279890D01*
G02X-629330Y280572I283J283D01*
G01X-586532D01*
Y260739D01*
X-589619D01*
Y251636D01*
X-586532D01*
Y249694D01*
X-586395Y249556D01*
Y246270D01*
X-588044D01*
Y236183D01*
X-578745D01*
Y246270D01*
X-580394D01*
Y251636D01*
X-577446D01*
Y260739D01*
X-580532D01*
Y278184D01*
X-578143Y280572D01*
X-557782D01*
Y277287D01*
X-558427D01*
Y263578D01*
X-557782D01*
Y261547D01*
G03X-551781I3000J0D01*
G01Y263578D01*
X-551136D01*
Y277287D01*
X-551781D01*
Y280572D01*
X-499580D01*
X-476219Y303933D01*
G02X-475536Y303650I283J-283D01*
G01Y294831D01*
X-488501Y281867D01*
Y264282D01*
X-491588D01*
Y255179D01*
X-488501D01*
Y245600D01*
X-495780Y238322D01*
X-515753D01*
Y240365D01*
X-525052D01*
Y230278D01*
X-515753D01*
Y232321D01*
X-493294D01*
X-482501Y243115D01*
Y255179D01*
X-479414D01*
Y264282D01*
X-482501D01*
Y279381D01*
X-469536Y292346D01*
Y305720D01*
X-462358D01*
X-462328Y305556D01*
G03X-459582Y301584I5746J1037D01*
G01Y282399D01*
X-459742Y282239D01*
Y280297D01*
X-460387D01*
Y266588D01*
X-453095D01*
Y270442D01*
X-451153D01*
X-446316Y275279D01*
Y278422D01*
G03X-452316I-3000J0D01*
G01Y277765D01*
X-452413Y277668D01*
G02X-453095Y277951I-283J283D01*
G01Y280297D01*
X-453582D01*
Y301584D01*
G03X-450836Y305556I-3000J5009D01*
G01X-450806Y305720D01*
X-450231D01*
X-441996Y313956D01*
G02X-441313Y313673I283J-283D01*
G01Y157461D01*
X-441978D01*
Y150523D01*
X-427954D01*
Y150936D01*
X-413983D01*
X-413953Y150966D01*
X-413808D01*
X-413773Y150931D01*
X-413768Y150926D01*
G03X-413802Y157078I3602J3096D01*
G01X-416479D01*
X-416509Y157048D01*
X-427954D01*
Y157461D01*
X-435312D01*
Y320639D01*
X-423596Y332356D01*
Y333380D01*
X-413344Y343632D01*
X-348073D01*
X-340596Y351109D01*
X-327000Y337513D01*
Y327541D01*
X-334358D01*
Y326572D01*
X-337530D01*
X-337580Y326522D01*
X-344392D01*
Y328772D01*
X-353893D01*
Y319272D01*
X-344392D01*
Y321522D01*
X-335509D01*
X-335458Y321572D01*
X-334358D01*
Y320603D01*
X-320334D01*
Y327541D01*
X-320999D01*
Y339998D01*
X-337596Y356595D01*
Y360086D01*
G03X-335950Y361951I-3000J4306D01*
G02X-335242I354J-186D01*
G03X-326308Y367418I4646J2441D01*
G02X-325982Y368049I327J231D01*
G01X-304887D01*
X-300560Y363723D01*
Y346026D01*
X-305089D01*
Y347171D01*
X-308944D01*
Y350340D01*
G03X-314944I-3000J0D01*
G01Y347171D01*
X-318798D01*
Y339880D01*
X-305089D01*
Y341025D01*
X-300560D01*
Y304098D01*
X-298107Y301645D01*
G02X-298390Y300962I-283J-283D01*
G01X-307324D01*
Y304549D01*
X-316427D01*
Y292375D01*
X-314375D01*
Y271561D01*
X-291383Y248569D01*
X-247887D01*
Y246026D01*
X-238587D01*
Y256113D01*
X-247887D01*
Y253570D01*
X-289312D01*
X-309375Y273632D01*
Y292375D01*
X-307324D01*
Y295962D01*
X-298298D01*
X-298234Y295898D01*
X-296836D01*
G03X-285929Y299942I5276J2500D01*
G02X-285543Y300448I386J106D01*
G01X-284336D01*
X-273526Y311258D01*
X-260709D01*
X-243598Y311189D01*
X-228056Y303212D01*
X-213993Y303349D01*
X-214030Y335804D01*
Y366292D01*
X-212273Y368050D01*
X-185396Y367970D01*
X-182153Y363580D01*
X-182221Y337689D01*
X-187366Y333965D01*
X-189494Y333948D01*
X-189554Y334038D01*
G03X-199818Y328591I-4858J-3239D01*
G01X-199767Y328468D01*
X-202166Y326069D01*
Y305181D01*
X-199868Y302882D01*
X-199911Y302763D01*
G03X-197412Y295790I5498J-1964D01*
G01Y288036D01*
X-182112Y272735D01*
Y267084D01*
X-185198D01*
Y257981D01*
X-181612D01*
Y256752D01*
X-181564Y256704D01*
Y253357D01*
X-183714D01*
Y243270D01*
X-174414D01*
Y253357D01*
X-176564D01*
Y257981D01*
X-173025D01*
Y267084D01*
X-176111D01*
Y275220D01*
X-191412Y290521D01*
Y295790D01*
G03X-188670Y299744I-3000J5009D01*
G01X-188639Y299908D01*
X-157944D01*
X-153402Y295365D01*
Y284897D01*
X-154047D01*
Y271188D01*
X-146756D01*
Y275042D01*
X-142686D01*
G03Y281042I0J3000D01*
G01X-146756D01*
Y284897D01*
X-147401D01*
Y297851D01*
X-148776Y299225D01*
G02X-148493Y299908I283J283D01*
G01X-128591D01*
X-123215Y299821D01*
X-120266Y299909D01*
X-111945Y299978D01*
X-101714Y299302D01*
X-101710Y299300D01*
X-101282D01*
G03X-98217Y295787I5566J1764D01*
G01Y280920D01*
X-91850Y274553D01*
X-88044D01*
Y272502D01*
X-84458D01*
Y271267D01*
X-84320Y271129D01*
Y269105D01*
X-86470D01*
Y259018D01*
X-77170D01*
Y269105D01*
X-79320D01*
Y272502D01*
X-75871D01*
Y281605D01*
X-88044D01*
Y279554D01*
X-89779D01*
X-93216Y282992D01*
Y295787D01*
G03X-90151Y299300I-2500J5276D01*
G01X-79848D01*
X-72998Y292450D01*
X-53428D01*
X-45785Y284806D01*
Y283908D01*
X-46430D01*
Y270199D01*
X-39138D01*
Y274053D01*
X-34930D01*
G03Y280054I0J3000D01*
G01X-39138D01*
Y283908D01*
X-39784D01*
Y287292D01*
X-50943Y298451D01*
X-70513D01*
X-70679Y298617D01*
G02X-70396Y299300I283J283D01*
G01X369D01*
X11252Y288416D01*
Y282917D01*
G02X10491Y282745I-400J0D01*
G03X1658Y283119I-4515J-2148D01*
G01X-6407D01*
Y284284D01*
X-13345D01*
Y270260D01*
X-12376D01*
Y268642D01*
X-402Y256667D01*
G02X-543Y256325I-141J-141D01*
G01X-608D01*
X-4014Y252920D01*
X-38292D01*
Y253101D01*
X-48182D01*
Y237738D01*
X-38292D01*
Y242920D01*
X-1702D01*
X-108Y241325D01*
X1361D01*
G03X10507Y241177I4615J2500D01*
G02X11252Y240975I345J-202D01*
G01Y162913D01*
X8920Y160581D01*
X-1896D01*
X-7719Y166404D01*
X-64190D01*
X-70785Y158466D01*
X-70913Y144736D01*
X-77342Y139944D01*
X-105935Y139895D01*
X-109926Y135904D01*
G02X-110608Y136187I-283J283D01*
G01Y144019D01*
X-112660D01*
Y146278D01*
X-108305D01*
Y153570D01*
X-122014D01*
Y146278D01*
X-117660D01*
Y144019D01*
X-119711D01*
Y131846D01*
X-112289D01*
Y127208D01*
X-119711D01*
Y123648D01*
X-166692D01*
X-172386Y129342D01*
Y217358D01*
X-179883Y224855D01*
G02X-179600Y225538I283J283D01*
G01X-156178D01*
G37*
G36*
G01X-773161Y73216D02*
Y88474D01*
X-770319Y91316D01*
X-737676D01*
X-733344Y86985D01*
Y74548D01*
X-738342Y69551D01*
X-769496D01*
X-773161Y73216D01*
G37*
G36*
G01X-716076Y70834D02*
X-718144D01*
X-719418Y72108D01*
Y84055D01*
X-733344Y97980D01*
X-753091D01*
X-757138Y93933D01*
X-771133D01*
X-772220Y95021D01*
Y103665D01*
X-769447Y106438D01*
X-701170D01*
X-695624Y100891D01*
Y74392D01*
X-699142Y70874D01*
X-716037D01*
X-716076Y70834D01*
G37*
G36*
G01X-773034Y141826D02*
Y158290D01*
X-769721Y161602D01*
X-737607D01*
X-731384Y155379D01*
Y147539D01*
X-739430Y139493D01*
X-770702D01*
X-773034Y141826D01*
G37*
G36*
G01X-722191Y148490D02*
Y163092D01*
X-727728Y168629D01*
X-754708D01*
X-759568Y163768D01*
X-770525D01*
X-771682Y164924D01*
Y176537D01*
X-768977Y179242D01*
X-698534D01*
Y148891D01*
X-704816Y142609D01*
X-716311D01*
X-722191Y148490D01*
G37*
G36*
G01X-768291Y207789D02*
X-772896Y212395D01*
Y230908D01*
X-771064Y232740D01*
X-770776D01*
X-770746Y232710D01*
X-763399D01*
X-759980Y229291D01*
X-740615D01*
X-735402Y224077D01*
Y222088D01*
X-735372Y222058D01*
Y210837D01*
X-738420Y207789D01*
X-768291D01*
G37*
G36*
G01X-711470Y217472D02*
X-713910D01*
X-719389Y222950D01*
Y228321D01*
X-725778Y234710D01*
X-769917D01*
X-772858Y237650D01*
Y249586D01*
X-770055Y252389D01*
X-709285D01*
X-703434Y246539D01*
Y219059D01*
X-704992Y217501D01*
X-711441D01*
X-711470Y217472D01*
G37*
G36*
G01X-770216Y310192D02*
X-768706Y311702D01*
X-760876D01*
X-752846Y303672D01*
X-729120Y303722D01*
X-725034Y297430D01*
Y290266D01*
X-729626Y285742D01*
X-767456D01*
X-770216Y288502D01*
Y310192D01*
G37*
G36*
G01X-771613Y317834D02*
Y330289D01*
X-761617Y340285D01*
X-708873D01*
X-701915Y333328D01*
Y290266D01*
X-705159Y287022D01*
X-718536D01*
X-720026Y288512D01*
Y310004D01*
X-724896Y314874D01*
X-768653D01*
X-771613Y317834D01*
G37*
G36*
G01X-602782Y369347D02*
X-600492Y371637D01*
X-594002D01*
X-592382Y370017D01*
Y360447D01*
X-606332Y346497D01*
Y300987D01*
X-615182Y292137D01*
X-624182D01*
X-628242Y296197D01*
Y338257D01*
X-602782Y363717D01*
Y369347D01*
G37*
G36*
G01X-599966Y298283D02*
Y326115D01*
X-589088Y336992D01*
Y368186D01*
X-586275Y370998D01*
X-580532D01*
X-573878Y364344D01*
Y303966D01*
X-584492Y293353D01*
X-595036D01*
X-599966Y298283D01*
G37*
G36*
G01X-584972Y-18091D02*
X-586354D01*
X-587393Y-17052D01*
Y-12397D01*
X-583913Y-8918D01*
Y13063D01*
X-584590Y13740D01*
Y43816D01*
X-582022Y46384D01*
X-571173D01*
X-568606Y43816D01*
Y4753D01*
X-559139Y-4714D01*
Y-15944D01*
X-561295Y-18101D01*
X-584962D01*
X-584972Y-18091D01*
G37*
G36*
G01X-530004Y-14524D02*
X-534228Y-18747D01*
X-553935D01*
X-557139Y-15544D01*
Y-12465D01*
X-555827Y-11152D01*
Y3459D01*
X-559208Y6841D01*
Y45100D01*
X-555150Y49157D01*
X-532708D01*
X-530004Y46452D01*
Y-14524D01*
G37*
G36*
G01X-505288Y301262D02*
Y330887D01*
X-482033Y354142D01*
Y354407D01*
X-482101Y354476D01*
Y367451D01*
X-479122Y370430D01*
X-468587D01*
X-462364Y364207D01*
Y354878D01*
X-464226Y353016D01*
X-467333D01*
X-481258Y339090D01*
Y304819D01*
X-489235Y296842D01*
X-500868D01*
X-505288Y301262D01*
G37*
G36*
G01X-494626Y369752D02*
X-493906Y371022D01*
X-486766Y371042D01*
X-485346Y369682D01*
X-485336Y362192D01*
X-510257Y335336D01*
X-510129Y298802D01*
X-516411Y291707D01*
X-528377Y291736D01*
X-532032Y297959D01*
Y337639D01*
X-494666Y367832D01*
X-494626Y369752D01*
G37*
G36*
G01X-424116Y32942D02*
X-421886Y35172D01*
X-413736D01*
X-410566Y32002D01*
Y-2958D01*
X-402666Y-10858D01*
X-390966D01*
X-388896Y-12928D01*
Y-16638D01*
X-390956Y-18698D01*
X-416516D01*
X-424116Y-11098D01*
Y32942D01*
G37*
G36*
G01X-415829Y349632D02*
X-422913Y342548D01*
G02X-423596Y342831I-283J283D01*
G01Y345876D01*
X-401422Y368049D01*
X-355844D01*
Y359144D01*
X-345348D01*
Y360791D01*
G02X-344640Y361046I400J0D01*
G03X-343596Y360086I4043J3346D01*
G01Y356595D01*
X-350559Y349632D01*
X-415829D01*
G37*
G36*
G01X-377126Y-16398D02*
X-380236Y-19508D01*
X-384976D01*
X-386957Y-17527D01*
X-386896Y-17466D01*
Y-12100D01*
X-387106Y-11890D01*
Y15842D01*
X-386986Y58412D01*
X-382556Y62402D01*
X-355736Y62472D01*
X-352426Y60342D01*
X-352396Y52532D01*
X-355076Y50172D01*
X-373976Y50132D01*
X-377086Y46512D01*
X-377126Y11692D01*
Y-16398D01*
G37*
G36*
G01X-257025Y69049D02*
X-274466Y51608D01*
Y-10856D01*
X-283119Y-19509D01*
X-361807D01*
X-367486Y-13831D01*
Y35316D01*
X-361942Y40859D01*
X-346935D01*
X-343150Y44645D01*
Y49058D01*
X-342987Y49089D01*
G03X-338871Y52201I-1101J5734D01*
G01X-324854D01*
Y48614D01*
X-315752D01*
Y52201D01*
X-314518D01*
X-314476Y52243D01*
X-295199D01*
X-281974Y65467D01*
Y107049D01*
X-251530Y137493D01*
X-210968D01*
X-205652Y142809D01*
Y204836D01*
X-210670Y209855D01*
G02X-210387Y210538I283J283D01*
G01X-206168D01*
X-202336Y206706D01*
Y123798D01*
X-207122Y119012D01*
X-210794D01*
Y121064D01*
X-222968D01*
Y111961D01*
X-210794D01*
Y114012D01*
X-208132D01*
X-188671Y94551D01*
Y69049D01*
X-205122D01*
X-218822Y82748D01*
Y91067D01*
X-218176D01*
Y104777D01*
X-218822D01*
Y107064D01*
G03X-224822I-3000J0D01*
G01Y104777D01*
X-225467D01*
Y91067D01*
X-224822D01*
Y80262D01*
X-214291Y69732D01*
G02X-214574Y69049I-283J-283D01*
G01X-257025D01*
G37*
G36*
G01X-261086Y33562D02*
X-259326Y35322D01*
X-253046D01*
X-250536Y32812D01*
Y-3718D01*
X-244116Y-10138D01*
X-237456D01*
X-235396Y-12198D01*
Y-17128D01*
X-237426Y-19158D01*
X-255816D01*
X-261086Y-13888D01*
Y33562D01*
G37*
G36*
G01X-247886Y320691D02*
X-247969Y320774D01*
X-266491D01*
X-270960Y325242D01*
Y361208D01*
X-262180Y369989D01*
X-244520D01*
X-242903Y368372D01*
Y352820D01*
X-247499Y348223D01*
Y321078D01*
X-247886Y320691D01*
G37*
G36*
G01X-228146Y-18158D02*
X-229406D01*
X-231736Y-15828D01*
Y50552D01*
X-223966Y58322D01*
X-212846Y58359D01*
X-211768Y56330D01*
X-211729Y51078D01*
X-213620Y49745D01*
X-218086Y49692D01*
X-221986Y45792D01*
Y-14308D01*
X-225826Y-18148D01*
X-228136D01*
X-228146Y-18158D01*
G37*
G36*
G01X-216011Y318442D02*
X-220833Y313620D01*
X-230976D01*
X-234220Y316863D01*
Y354319D01*
X-238650Y358748D01*
Y368872D01*
X-237327Y370195D01*
X-235867D01*
X-235847Y370176D01*
X-222225D01*
X-216030Y363981D01*
Y335802D01*
X-216011Y318442D01*
G37*
G36*
G01X-189925Y116486D02*
X-169620Y96180D01*
Y54001D01*
X-149264Y33645D01*
X-122690D01*
Y30058D01*
X-113588D01*
Y33645D01*
X-101628D01*
X-92820Y24837D01*
X8042D01*
X11016Y21863D01*
Y-716D01*
X10754Y-7568D01*
X-5479Y-17211D01*
X-201523D01*
X-210176Y-8558D01*
Y30516D01*
X-207131Y33561D01*
G02X-206448Y33278I283J-283D01*
G01Y33146D01*
X-195939Y22636D01*
X-191180D01*
G03Y28637I5009J3000D01*
G01X-193454D01*
X-200448Y35631D01*
Y38087D01*
X-184488D01*
X-179148Y43427D01*
Y63641D01*
X-183670Y68163D01*
Y96622D01*
X-203055Y116007D01*
X-197336Y121727D01*
Y208778D01*
X-203413Y214855D01*
G02X-203130Y215538I283J283D01*
G01X-194025D01*
X-189925Y211438D01*
Y116486D01*
G37*
G36*
G01X-55774Y84191D02*
X-68619Y71347D01*
Y65668D01*
X-73621Y60666D01*
X-88789D01*
G02X-89017Y61395I0J400D01*
G03X-89835Y71475I-3319J4804D01*
G01Y76045D01*
X-95677Y81886D01*
X-111353D01*
Y83032D01*
X-115707D01*
Y86083D01*
G03X-120708I-2500J0D01*
G01Y83032D01*
X-125062D01*
Y75740D01*
X-111353D01*
Y76886D01*
X-97748D01*
X-94836Y73974D01*
Y71475D01*
G03X-95654Y61395I2500J-5276D01*
G02X-95881Y60666I-227J-329D01*
G01X-102555D01*
X-108098Y55122D01*
Y40115D01*
X-107311Y39328D01*
G02X-107594Y38646I-283J-283D01*
G01X-113588D01*
Y42232D01*
X-122690D01*
Y38646D01*
X-147192D01*
X-164619Y56072D01*
Y98252D01*
X-184925Y118557D01*
Y213509D01*
X-191270Y219855D01*
G02X-190987Y220538I283J283D01*
G01X-182637D01*
X-177386Y215286D01*
Y127271D01*
X-168763Y118647D01*
X-120970D01*
X-120944Y118621D01*
X-119711D01*
Y115034D01*
X-110608D01*
Y117576D01*
G02X-109926Y117859I400J0D01*
G01X-103096Y111029D01*
X1552D01*
X10205Y102376D01*
X10202Y86671D01*
X3440Y79302D01*
X-26372Y79370D01*
X-31167Y84191D01*
X-55774D01*
G37*
G36*
G01X-171833Y311170D02*
X-176155Y315491D01*
Y366941D01*
X-173519Y369578D01*
X-163650D01*
X-163641Y369587D01*
X-161955D01*
X-158144Y365777D01*
X-158152Y365684D01*
G03X-158040Y364078I5230J-442D01*
G01X-158035Y364056D01*
Y349164D01*
X-143306Y334435D01*
Y313600D01*
X-145736Y311170D01*
X-171833D01*
G37*
G36*
G01X-127528Y369568D02*
X-118335Y360376D01*
Y313659D01*
X-120226Y311767D01*
X-135779D01*
X-136024Y312012D01*
Y339962D01*
X-156034Y359972D01*
Y366496D01*
X-156291Y366752D01*
Y367784D01*
X-154507Y369568D01*
X-127528D01*
G37*
G36*
G01X-61495Y69678D02*
Y71452D01*
X-58241Y74705D01*
X-47834D01*
X-46883Y73755D01*
Y55841D01*
X-39455Y48412D01*
X-4126D01*
X970Y53508D01*
X7428D01*
X10378Y50558D01*
Y39857D01*
X1793Y31272D01*
X-53175D01*
X-61485Y39582D01*
Y69668D01*
X-61495Y69678D01*
G37*
G36*
G01X12368Y123666D02*
X9310Y120609D01*
X-59221D01*
X-63955Y125342D01*
Y155496D01*
X-58153Y161298D01*
X-42992D01*
X-39347Y157653D01*
Y142913D01*
X-30968Y134534D01*
X-18258D01*
X-16768Y133045D01*
X8781D01*
X12368Y129458D01*
Y123666D01*
G37*
G36*
G01X-62945Y344685D02*
X-48716D01*
X-41846Y337816D01*
Y324635D01*
X-35221Y318010D01*
X68D01*
X608Y318549D01*
Y318676D01*
X4038Y322106D01*
X9506D01*
X11221Y320391D01*
Y311944D01*
X1960Y302683D01*
X-63347D01*
X-70305Y309641D01*
Y337326D01*
X-62945Y344685D01*
G37*
G36*
G01X-6056Y54419D02*
X-31664D01*
X-38357Y61113D01*
Y72735D01*
X-36466Y74627D01*
X4439D01*
X10653Y68414D01*
Y59280D01*
X8085Y56713D01*
X-3763D01*
X-6056Y54419D01*
G37*
G36*
G01X-26852Y160563D02*
X-26832Y160544D01*
X-10545D01*
X-6213Y156212D01*
Y147020D01*
X-2773Y143580D01*
X10074D01*
X11839Y141816D01*
Y136279D01*
X10751Y135191D01*
X-9457D01*
X-16689Y142423D01*
X-27577D01*
X-33859Y148705D01*
Y155761D01*
X-29057Y160563D01*
X-26852D01*
G37*
G36*
G01X-21687Y345136D02*
X-21589Y345039D01*
X-12671D01*
X-3312Y335680D01*
X10486D01*
X11976Y334190D01*
Y326683D01*
X9408Y324115D01*
X-5811D01*
X-6958Y322969D01*
X-30890D01*
X-36564Y328643D01*
Y343078D01*
X-34506Y345136D01*
X-21687D01*
G37*
G36*
G01X10491Y272745D02*
G03X7865Y275226I-4515J-2148D01*
G02Y275967I151J370D01*
G03X10491Y278449I-1889J4630D01*
G02X11252Y278277I361J-172D01*
G01Y272917D01*
G02X10491Y272745I-400J0D01*
G37*
G36*
G01X10569Y256654D02*
X8150Y259073D01*
X4263D01*
X-6582Y269918D01*
G02X-6440Y270260I141J141D01*
G01X-6407D01*
Y278119D01*
X108D01*
X130Y278097D01*
X1645D01*
G03X4087Y275967I4330J2500D01*
G02Y275226I-151J-370D01*
G03X10491Y268449I1889J-4630D01*
G02X11252Y268277I361J-172D01*
G01Y256937D01*
G02X10569Y256654I-400J0D01*
G37*
G36*
G01X10507Y246474D02*
G03X8632Y248352I-4531J-2648D01*
G02X8552Y248979I202J345D01*
G01X10569Y250997D01*
G02X11252Y250714I283J-283D01*
G01Y246676D01*
G02X10507Y246474I-400J0D01*
G37*
G36*
G01X3319Y248352D02*
G03X1851Y247070I2657J-4526D01*
G02X1254Y247035I-314J247D01*
G01X369Y247920D01*
X-976D01*
G02X-1259Y248603I0J400D01*
G01X1258Y251120D01*
X3399Y248979D01*
G02X3319Y248352I-283J-283D01*
G37*
%LPC*%
G75*
G36*
G01X-309375Y327951D02*
Y321360D01*
X-307324D01*
Y309186D01*
X-316427D01*
Y321360D01*
X-314375D01*
Y326647D01*
X-314444Y326715D01*
Y327951D01*
X-318798D01*
Y335242D01*
X-305089D01*
Y327951D01*
X-309375D01*
G37*
G36*
G01X-58359Y280054D02*
Y283908D01*
X-51068D01*
Y270199D01*
X-58359D01*
Y274053D01*
X-59060D01*
Y272502D01*
X-71233D01*
Y281605D01*
X-59060D01*
Y280054D01*
X-58359D01*
G37*
G36*
G01X-429206Y290819D02*
X-414910Y276522D01*
X-414206D01*
X-414147Y276613D01*
G02X-414205Y271522I3981J-2591D01*
G01X-416981D01*
X-432742Y287283D01*
G02X-429206Y290819I1768J1768D01*
G37*
G36*
G01X-604557Y259019D02*
X-607432Y261894D01*
X-613599D01*
Y259851D01*
X-622898D01*
Y269938D01*
X-613599D01*
Y267894D01*
X-604946D01*
X-600314Y263262D01*
G02X-604557Y259019I-2121J-2122D01*
G37*
G36*
G01X-159800Y271188D02*
Y267084D01*
X-156214D01*
Y257981D01*
X-168387D01*
Y267084D01*
X-164801D01*
Y269912D01*
X-164831Y269942D01*
Y271188D01*
X-165977D01*
Y284897D01*
X-158685D01*
Y271188D01*
X-159800D01*
G37*
G36*
G01X-309621Y255984D02*
X-316950D01*
X-323303Y262338D01*
Y290601D01*
X-328140Y295438D01*
Y300544D01*
X-335498D01*
Y301512D01*
X-345110D01*
G02X-345104Y306522I-4033J2510D01*
G01X-343586D01*
X-343576Y306512D01*
X-335498D01*
Y307481D01*
X-328140D01*
Y310142D01*
X-328139Y310142D01*
Y313275D01*
G02X-322138I3000J0D01*
G01Y307481D01*
X-321474D01*
Y300544D01*
X-322140D01*
Y297923D01*
X-317303Y293087D01*
Y264823D01*
X-314464Y261985D01*
X-309621D01*
G02Y255984I0J-3000D01*
G37*
G36*
G01X-473190Y264282D02*
Y273423D01*
G02X-472316Y276088I4500J0D01*
G01Y280297D01*
X-465025D01*
Y276080D01*
G02X-464189Y273035I-3646J-2638D01*
G01X-464190Y273026D01*
Y264282D01*
X-462603D01*
Y255179D01*
X-474777D01*
Y264282D01*
X-473190D01*
G37*
G36*
G01X-563721Y261625D02*
Y260739D01*
X-560634D01*
Y251636D01*
X-572808D01*
Y260739D01*
X-569722D01*
Y263578D01*
X-570357D01*
Y277287D01*
X-563065D01*
Y263578D01*
X-563710D01*
Y261635D01*
X-563721Y261625D01*
G37*
G36*
G01X-55514Y249534D02*
X-58899Y252920D01*
X-60339D01*
Y252738D01*
X-70229D01*
Y258101D01*
X-60339D01*
Y257920D01*
X-56828D01*
X-51978Y253070D01*
G02X-55514Y249534I-1768J-1768D01*
G37*
G36*
G01X-533926Y229242D02*
Y230278D01*
X-536076D01*
Y240365D01*
X-526776D01*
Y230278D01*
X-528926D01*
Y229242D01*
G02X-533926I-2500J0D01*
G37*
G36*
G01X-575396Y226362D02*
Y234584D01*
X-575371Y234610D01*
Y236183D01*
X-577021D01*
Y246270D01*
X-567721D01*
Y236183D01*
X-569371D01*
Y232124D01*
X-569396Y232099D01*
Y226362D01*
G02X-575396I-3000J0D01*
G37*
G36*
G01X-644418Y228940D02*
Y223907D01*
X-640063D01*
Y216615D01*
X-653772D01*
Y223907D01*
X-649418D01*
Y228940D01*
X-651469D01*
Y241113D01*
X-642366D01*
Y228940D01*
X-644418D01*
G37*
G36*
G01X-625925Y157850D02*
Y156610D01*
X-621570D01*
Y149319D01*
X-635279D01*
Y156610D01*
X-630994D01*
Y160016D01*
X-633045D01*
Y172190D01*
X-623942D01*
Y160016D01*
X-625994D01*
Y157919D01*
X-625925Y157850D01*
G37*
G36*
G01X-94407Y156329D02*
X-94297Y156384D01*
Y157009D01*
X-96641Y159353D01*
X-108305D01*
Y158207D01*
X-122014D01*
Y165499D01*
X-117660D01*
Y167894D01*
G02X-112660I2500J0D01*
G01Y165499D01*
X-108305D01*
Y164353D01*
X-94570D01*
X-89296Y159080D01*
Y156383D01*
G02X-94407Y156329I-2500J-5276D01*
G37*
G36*
G01X-309726Y225512D02*
X-255834D01*
G03X-255561Y226205I0J400D01*
G02X-255208Y230144I1701J1832D01*
G01X-255116Y230203D01*
Y230512D01*
X-255766D01*
G02Y235512I0J2500D01*
G01X-251625D01*
X-251600Y235538D01*
X-250364D01*
Y240738D01*
X-239264D01*
Y240538D01*
X-237346D01*
X-232956Y236148D01*
Y180529D01*
X-293903Y119582D01*
X-360186D01*
G02Y124583I0J2500D01*
G01X-295974D01*
X-237956Y182601D01*
Y234076D01*
X-238581Y234701D01*
G03X-239264Y234419I-283J-283D01*
G01Y205338D01*
X-250364D01*
Y205538D01*
X-263115D01*
X-327130Y141522D01*
X-345104D01*
G02Y146522I-4039J2500D01*
G01X-329202D01*
X-265869Y209855D01*
G03X-266152Y210538I-283J283D01*
G01X-275965D01*
X-324980Y161522D01*
X-345104D01*
G02Y166522I-4039J2500D01*
G01X-327052D01*
X-278756Y214818D01*
G03X-279039Y215501I-283J283D01*
G01X-320378D01*
X-336582Y231705D01*
Y280312D01*
X-337792Y281522D01*
X-345104D01*
G02Y286522I-4039J2500D01*
G01X-335720D01*
X-331582Y282384D01*
Y233776D01*
X-318307Y220501D01*
X-312752D01*
G03X-312469Y221184I0J400D01*
G01X-330496Y239211D01*
Y283694D01*
X-338325Y291522D01*
X-345104D01*
G02Y296522I-4039J2500D01*
G01X-336253D01*
X-325496Y285765D01*
Y241282D01*
X-309726Y225512D01*
G37*
G36*
G01X-353182Y131522D02*
X-368980D01*
X-408587Y91916D01*
X-443590D01*
Y91716D01*
X-454690D01*
Y127116D01*
X-443590D01*
Y96916D01*
X-410658D01*
X-371052Y136522D01*
X-353182D01*
G02Y131522I4039J-2500D01*
G37*
G36*
G01X-626542Y91475D02*
Y86041D01*
X-622247D01*
Y78749D01*
X-635956D01*
Y86041D01*
X-631601D01*
Y87278D01*
X-631543Y87336D01*
Y91475D01*
X-633594D01*
Y103649D01*
X-624491D01*
Y91475D01*
X-626542D01*
G37*
G36*
G01X-465040Y31459D02*
Y27609D01*
X-461186D01*
Y20317D01*
X-474895D01*
Y27609D01*
X-471040D01*
Y31459D01*
X-472592D01*
Y43632D01*
X-463489D01*
Y31459D01*
X-465040D01*
G37*
G36*
G01X-57384Y206103D02*
X-1683D01*
X-1578Y206207D01*
X-34D01*
G02X32Y201102I4041J-2500D01*
G01X-68252D01*
X-78996Y211847D01*
Y235070D01*
X-79965D01*
Y242132D01*
X-86076D01*
G02Y248132I0J3000D01*
G01X-79965D01*
Y249094D01*
X-73027D01*
Y248429D01*
X-69665D01*
X-69657Y248420D01*
X-65284D01*
G02X-63938Y248101I0J-3000D01*
G01X-60339D01*
Y242920D01*
X-58688D01*
X-54186Y238418D01*
Y210267D01*
X-57667Y206785D01*
G03X-57384Y206103I283J-283D01*
G37*
G36*
G01X-230105Y104777D02*
Y91067D01*
X-237397D01*
Y104777D01*
X-236251D01*
Y106014D01*
X-236192Y106073D01*
Y111961D01*
X-239778D01*
Y121064D01*
X-227605D01*
Y111961D01*
X-231192D01*
Y104777D01*
X-230105D01*
G37*
G36*
G01X-313517Y28799D02*
Y21507D01*
X-327226D01*
Y28799D01*
X-322872D01*
Y30036D01*
X-322803Y30104D01*
Y31803D01*
X-324854D01*
Y43977D01*
X-315752D01*
Y31803D01*
X-317803D01*
Y28799D01*
X-313517D01*
G37*
G36*
G01X-338549Y22976D02*
X-338588Y22859D01*
X-331453Y15724D01*
X-327226D01*
Y16870D01*
X-313517D01*
Y15724D01*
X-310526D01*
G02Y10723I0J-2500D01*
G01X-313517D01*
Y9578D01*
X-327226D01*
Y10723D01*
X-333524D01*
X-342124Y19323D01*
X-342241Y19284D01*
G02X-338549Y22976I-1847J5539D01*
G37*
G36*
G01X-113588Y59043D02*
Y46870D01*
X-122690D01*
Y59043D01*
X-120639D01*
Y62511D01*
X-120708Y62580D01*
Y63811D01*
X-125062D01*
Y71103D01*
X-111353D01*
Y63811D01*
X-115639D01*
Y59043D01*
X-113588D01*
G37*
G54D33*
X-499950Y-960D03*
X50D03*
G54D34*
X-410166Y164022D03*
Y174022D03*
Y184022D03*
Y194022D03*
Y204022D03*
Y214022D03*
Y244022D03*
Y224022D03*
Y234022D03*
Y254022D03*
Y264022D03*
Y284022D03*
Y294022D03*
Y304022D03*
Y314022D03*
X-349143Y154022D03*
Y174022D03*
Y184022D03*
Y194022D03*
Y204022D03*
Y214022D03*
Y244022D03*
Y224022D03*
Y234022D03*
Y254022D03*
Y264022D03*
Y274022D03*
G54D36*
X4007Y183707D03*
Y213707D03*
Y193707D03*
G54D35*
X-410166Y324022D03*
G54D37*
X4007Y173707D03*
%LPD*%
G75*
G36*
G01X-66180Y206103D02*
X-73996Y213918D01*
Y235070D01*
X-73027D01*
Y242428D01*
X-72210D01*
X-72202Y242420D01*
X-70229D01*
Y237738D01*
X-60578D01*
X-59186Y236347D01*
Y212338D01*
X-60507Y211017D01*
X-62643D01*
G03X-64442Y206780I0J-2500D01*
G02X-64730Y206103I-288J-278D01*
G01X-66180D01*
G37*
G54D10*
X-769176Y15842D03*
X-768434Y87920D03*
X-766946Y157162D03*
X-768936Y229012D03*
X-767016Y308192D03*
X-594776Y367562D03*
X-562847Y-14151D03*
X-488026Y367692D03*
X-393076Y-14948D03*
X-320596Y364392D03*
X-330596D03*
X-340596D03*
X-238186Y-14448D03*
X-236470Y366050D03*
X-152922Y365243D03*
X5444Y60092D03*
X5984Y139292D03*
X5976Y243825D03*
X7157Y327998D03*
G54D11*
X-769176Y25842D03*
X-768434Y97920D03*
X-766946Y167162D03*
X-768936Y239012D03*
X-767016Y318192D03*
X-584776Y367562D03*
X-552847Y-14151D03*
X-478026Y367692D03*
X-383076Y-14948D03*
X-228186Y-14448D03*
X-246470Y366050D03*
X-162922Y365243D03*
X5444Y50092D03*
X5984Y129292D03*
X5976Y253825D03*
X7157Y317998D03*
G54D20*
X-468040Y94416D03*
Y99416D03*
Y104416D03*
Y109416D03*
Y114416D03*
Y119416D03*
Y129416D03*
Y124416D03*
X-449140Y119416D03*
Y114416D03*
Y109416D03*
Y104416D03*
Y99416D03*
Y94416D03*
Y129416D03*
Y124416D03*
X-225914Y203038D03*
X-244814D03*
Y208038D03*
Y213038D03*
X-225914D03*
Y208038D03*
X-244814Y218038D03*
Y223038D03*
Y228038D03*
Y233038D03*
X-225914Y238038D03*
Y233038D03*
Y228038D03*
Y223038D03*
Y218038D03*
X-244814Y238038D03*
G54D30*
G01X-753796Y371952D02*
X-6246D01*
G02X7684Y366182I0J-19700D01*
G01X8154Y365712D01*
G02X13444Y352941I-12771J-12771D01*
G01Y-2688D01*
G02X-5626Y-21758I-19070J0D01*
G01X-754446D01*
G02X-773956Y-2248I0J19510D01*
G01Y351792D01*
G02X-753796Y371952I20160J0D01*
G54D12*
X-741987Y11437D03*
X-740899Y84182D03*
X-711987Y11437D03*
X-710899Y84182D03*
X-740634Y152860D03*
X-710634D03*
X-740634Y221686D03*
X-710634D03*
X-739282Y294157D03*
X-709282D03*
X-671829Y11437D03*
Y41437D03*
X-670741Y84182D03*
Y114182D03*
X-670477Y152860D03*
Y182860D03*
Y221686D03*
Y251686D03*
X-669124Y294157D03*
Y324157D03*
X-620026Y307406D03*
X-590026D03*
X-579738Y35780D03*
X-549738D03*
X-549868Y307406D03*
Y337406D03*
X-509580Y35780D03*
Y65780D03*
X-526739Y306593D03*
X-496739D03*
X-456582D03*
Y336593D03*
X-414245Y24823D03*
X-384245D03*
X-344088D03*
Y54823D03*
X-291560Y298398D03*
Y328398D03*
X-256328Y25637D03*
X-226328D03*
X-251402Y328398D03*
X-221402D03*
X-186170Y25637D03*
Y55637D03*
X-194412Y300799D03*
Y330799D03*
X-154255D03*
X-124255D03*
X-92335Y36199D03*
Y66199D03*
X-91796Y121106D03*
Y151106D03*
X-95716Y301064D03*
Y331064D03*
X-52178Y66199D03*
X-51639Y151106D03*
X-55559Y331064D03*
X-22178Y66199D03*
X-21639Y151106D03*
X-25559Y331064D03*
G54D21*
X-410166Y134022D03*
Y144022D03*
Y154022D03*
Y164022D03*
Y174022D03*
Y184022D03*
Y194022D03*
Y204022D03*
Y214022D03*
Y244022D03*
Y224022D03*
Y234022D03*
Y254022D03*
Y264022D03*
Y274022D03*
Y284022D03*
Y294022D03*
Y304022D03*
Y314022D03*
X-349143Y134022D03*
Y144022D03*
Y154022D03*
Y164022D03*
Y174022D03*
Y184022D03*
Y194022D03*
Y204022D03*
Y214022D03*
Y244022D03*
Y224022D03*
Y234022D03*
Y254022D03*
Y264022D03*
Y274022D03*
Y284022D03*
Y294022D03*
Y304022D03*
Y314022D03*
G54D31*
G01X-648642Y-2515D02*
X-657878D01*
X-671829Y11437D01*
G01X-648642Y41461D02*
X-666166D01*
X-666191Y41437D01*
X-671829D01*
G01X-629101Y70466D02*
X-665479D01*
X-670741Y75728D01*
Y84182D01*
G01Y114182D02*
X-633985D01*
X-633794Y114373D01*
X-629042D01*
G01X-628425Y141035D02*
X-658652D01*
X-670477Y152860D01*
G01X-646918Y208332D02*
X-657123D01*
X-670477Y221686D01*
G01Y182860D02*
X-633298D01*
X-633245Y182914D01*
X-628494D01*
G01X-648642Y-2515D02*
X-638689D01*
G01X-648642Y24650D02*
Y9414D01*
G01Y41461D02*
X-609312D01*
X-609295Y41444D01*
X-607874D01*
X-593136Y56182D01*
Y103662D01*
X-522866Y173932D01*
G01X-629101Y70466D02*
X-619778D01*
G01X-629042Y97562D02*
Y86299D01*
X-629101Y86241D01*
Y82395D01*
G01X-619497Y114346D02*
X-624265D01*
X-624291Y114373D01*
X-629042D01*
G01X-628425Y141035D02*
X-618445D01*
G01X-628494Y166103D02*
Y156879D01*
X-628425Y156810D01*
Y152965D01*
G01X-618694Y182966D02*
X-623691D01*
X-623742Y182914D01*
X-628494D01*
G01X-646918Y208332D02*
X-636761D01*
G01X-646918Y235026D02*
Y220261D01*
G01Y251837D02*
Y250302D01*
X-605078Y208462D01*
X-555296D01*
G01X-531426Y235321D02*
Y229242D01*
G01X-449140Y94416D02*
X-409622D01*
X-370016Y134022D01*
X-349143D01*
G01X-410166Y274022D02*
X-415946D01*
X-430974Y289051D01*
G01X-360186Y122082D02*
X-294939D01*
X-235456Y181565D01*
Y235112D01*
X-238382Y238038D01*
X-244814D01*
G01X-320372Y13224D02*
X-310526Y13224D01*
G01X-320372Y13224D02*
X-332488Y13224D01*
X-344088Y24823D01*
G01X-320303Y37890D02*
Y29067D01*
X-320372Y28999D01*
Y25153D01*
G01X-320303Y54701D02*
X-338326D01*
X-338449Y54823D01*
X-344088D01*
G01X-320303Y54701D02*
X-315552D01*
X-315510Y54743D01*
X-296234D01*
X-284474Y66503D01*
Y108084D01*
X-252566Y139993D01*
X-212004D01*
X-208152Y143844D01*
Y203801D01*
X-212389Y208038D01*
X-225914D01*
G01X-349143Y144022D02*
X-328166D01*
X-264150Y208038D01*
X-244814D01*
G01X-349143Y164022D02*
X-326016D01*
X-277000Y213038D01*
X-244814D01*
G01Y223038D02*
X-250564D01*
X-250590Y223012D01*
X-310761D01*
X-327996Y240247D01*
Y284729D01*
X-337289Y294022D01*
X-349143D01*
G01X-244814Y218038D02*
X-268482D01*
X-268518Y218001D01*
X-319343D01*
X-334082Y232740D01*
Y281348D01*
X-336756Y284022D01*
X-349143D01*
G01X-331833Y304012D02*
X-344582D01*
X-344593Y304022D01*
X-349143D01*
G01X-330693Y324072D02*
X-336494D01*
X-336544Y324022D01*
X-349143D01*
G01X-311875Y298462D02*
Y272597D01*
X-290348Y251069D01*
X-243237D01*
G01X-311875Y298462D02*
X-297262D01*
X-297198Y298398D01*
X-291560D01*
G01Y328398D02*
Y337659D01*
X-297426Y343526D01*
X-311944D01*
G01X-311875Y315273D02*
Y327682D01*
X-311944Y327751D01*
Y331596D01*
G01X-233692Y116512D02*
Y105036D01*
X-233751Y104977D01*
Y97922D01*
G01X-255766Y233012D02*
X-250590D01*
X-250564Y233038D01*
X-244814D01*
G01Y228038D02*
X-253860D01*
G01X-225914Y238038D02*
Y244376D01*
X-232213Y250676D01*
Y251069D01*
G01X-207096Y116512D02*
X-186170Y95587D01*
Y55637D01*
G01X-216881Y116512D02*
X-207096D01*
G01D02*
X-206086D01*
X-199836Y122762D01*
Y207742D01*
X-205132Y213038D01*
X-225914D01*
G01X-118139Y36145D02*
X-148228D01*
X-167119Y55037D01*
Y97216D01*
X-187425Y117522D01*
Y212474D01*
X-192989Y218038D01*
X-225914D01*
G01X-190087Y248313D02*
X-202292D01*
X-217568Y233038D01*
X-225914D01*
G01X-92844Y264061D02*
X-121190D01*
X-157214Y228038D01*
X-225914D01*
G01X-115160Y121121D02*
X-119911D01*
X-119937Y121148D01*
X-167727D01*
X-174886Y128307D01*
Y216322D01*
X-181602Y223038D01*
X-225914D01*
G01X-179064Y248313D02*
Y257733D01*
X-179111Y257781D01*
Y262532D01*
G01X-162300D02*
Y270958D01*
X-162331Y270988D01*
Y278042D01*
G01X-118139Y36145D02*
X-98028D01*
X-97974Y36199D01*
X-92335D01*
G01X-118139Y52956D02*
Y63542D01*
X-118208Y63611D01*
Y67457D01*
G01Y79386D02*
Y86083D01*
G01X-92335Y66199D02*
Y75009D01*
X-96713Y79386D01*
X-118208D01*
G01X-115160Y121121D02*
X-97450D01*
X-97435Y121106D01*
X-91796D01*
G01X-115160Y137932D02*
Y149924D01*
G01X-91796Y151106D02*
Y158044D01*
X-95605Y161853D01*
X-115160D01*
G01Y161853D02*
Y167894D01*
G01X4007Y203707D02*
X-545D01*
X-650Y203602D01*
X-67216D01*
X-76496Y212882D01*
Y238736D01*
G01X-81820Y264061D02*
Y272165D01*
X-81958Y272302D01*
Y277054D01*
G01D02*
X-90814D01*
X-95716Y281956D01*
Y301064D01*
G01X-62643Y208516D02*
X-59472D01*
X-56686Y211302D01*
Y237382D01*
X-59724Y240420D01*
X-65284D01*
G01X-53746Y251302D02*
X-57864Y255420D01*
X-65284D01*
G01X-43237Y245420D02*
X-667D01*
X928Y243825D01*
X5976D01*
G01Y253825D02*
X428D01*
X-2978Y250420D01*
X-43237D01*
G01X5976Y253825D02*
X-9876Y269677D01*
Y273926D01*
G01Y280618D02*
Y280619D01*
X1154D01*
X1176Y280597D01*
X5976D01*
G54D22*
X-438313Y153992D03*
X-431620D03*
X-325140Y304012D03*
X-331833D03*
X-324000Y324072D03*
X-330693D03*
G54D13*
X-755856Y353371D03*
X-499950Y-960D03*
X50D03*
Y353371D03*
G54D32*
G01X-669124Y294157D02*
Y282975D01*
X-659475Y273326D01*
X-647123D01*
G01X-670477Y251686D02*
X-652320D01*
X-652169Y251837D01*
X-646918D01*
G01X-647123Y316596D02*
X-647218Y316501D01*
X-655238D01*
X-662894Y324157D01*
X-669124D01*
G01X-647123Y273326D02*
Y266384D01*
G01Y316596D02*
X-640682D01*
X-634070Y309984D01*
Y280104D01*
X-629272Y275306D01*
Y264894D01*
G01X-647123Y299785D02*
Y285255D01*
G01X-602435Y261141D02*
X-606189Y264894D01*
X-618248D01*
G01X-572396Y226362D02*
Y233342D01*
X-572371Y233367D01*
Y241227D01*
G01X-583394D02*
Y250798D01*
X-583532Y250936D01*
Y256188D01*
G01X-566721D02*
Y262867D01*
X-566711Y262878D01*
Y270432D01*
G01X-549868Y337406D02*
X-556007D01*
X-556015Y337414D01*
X-559070D01*
X-565558Y330926D01*
Y297401D01*
X-583532Y279426D01*
Y256188D01*
G01X-549868Y307406D02*
Y291864D01*
X-554782Y286950D01*
Y270432D01*
G01D02*
Y261547D01*
G01X-509580Y35780D02*
X-485835Y12034D01*
X-456448D01*
G01X-509580Y65780D02*
X-498083Y54282D01*
X-468115D01*
X-468040Y54357D01*
G01X-485501Y259731D02*
Y244358D01*
X-494537Y235321D01*
X-520402D01*
G01X-468040Y129416D02*
X-478276D01*
G01X-456582Y336593D02*
X-466008D01*
X-472536Y330064D01*
Y293589D01*
X-485501Y280624D01*
Y259731D01*
G01X-468040Y37546D02*
Y23963D01*
G01Y54357D02*
Y94416D01*
G01X-456741Y273442D02*
X-452396D01*
X-449316Y276522D01*
Y278422D01*
G01X-456582Y306593D02*
Y281156D01*
X-456741Y280996D01*
Y273442D01*
G01X-340596Y355352D02*
X-349316Y346632D01*
X-414586D01*
X-438313Y322906D01*
Y153992D01*
G01X-431620D02*
X-415246D01*
X-415216Y154022D01*
X-410166D01*
G01X-309621Y258985D02*
X-315707D01*
X-320303Y263581D01*
Y291844D01*
X-325140Y296680D01*
Y304012D01*
G01X-325139Y313275D02*
Y308900D01*
X-325139Y308899D01*
Y304012D01*
X-325140D01*
G01X-324000Y324072D02*
Y338756D01*
X-340596Y355352D01*
G01D02*
Y364392D01*
G01X-311944Y343526D02*
Y350340D01*
G01X-221822Y97922D02*
X-221822Y81505D01*
X-203448Y63132D01*
Y34388D01*
X-194696Y25637D01*
X-186170D01*
G01X-221822Y97922D02*
X-221822Y107064D01*
G01X-225914Y203038D02*
X-217650D01*
G01X-194412Y300799D02*
Y289279D01*
X-179111Y273978D01*
Y262532D01*
G01X-194412Y330799D02*
Y318314D01*
X-179281Y303183D01*
X-156976D01*
X-150402Y296608D01*
Y278042D01*
G01X-150402D02*
X-142686D01*
G01X-76496Y245429D02*
X-70938Y245429D01*
X-70929Y245420D01*
X-65284D01*
G01X-86076Y245132D02*
X-76792D01*
X-76496Y245429D01*
G01X-95716Y331064D02*
Y319411D01*
X-71756Y295450D01*
X-52186D01*
X-42784Y286049D01*
Y277054D01*
G01X-65147D02*
X-54713D01*
G01X-42784D02*
X-34930D01*
G54D23*
X-410166Y324022D03*
X-349143D03*
G54D14*
X-648642Y-2515D03*
Y9414D03*
X-629101Y70466D03*
Y82395D03*
X-628425Y141035D03*
Y152965D03*
X-646918Y208332D03*
Y220261D03*
X-647123Y273326D03*
Y285255D03*
X-468040Y12034D03*
Y23963D03*
X-320372Y13224D03*
Y25153D03*
X-311944Y331596D03*
Y343526D03*
X-118208Y79386D03*
Y67457D03*
X-115160Y149924D03*
Y161853D03*
G54D24*
X-350596Y364392D03*
G54D15*
X-638689Y-2515D03*
X-636761Y208332D03*
X-647123Y266384D03*
X-619778Y70466D03*
X-619497Y114346D03*
X-618445Y141035D03*
X-618694Y182966D03*
X-602435Y261141D03*
X-572396Y226362D03*
X-555296Y208462D03*
X-531426Y229242D03*
X-554782Y261547D03*
X-512526Y181862D03*
X-522866Y173932D03*
X-478276Y129416D03*
X-456448Y12034D03*
X-449316Y278422D03*
X-430974Y289051D03*
X-360186Y122082D03*
X-325139Y313275D03*
X-310526Y13224D03*
X-309621Y258985D03*
X-311944Y350340D03*
X-255766Y233012D03*
X-253860Y228038D03*
X-221822Y107064D03*
X-217650Y203038D03*
X-142686Y278042D03*
X-118208Y86083D03*
X-115160Y167894D03*
X-86076Y245132D03*
X-62643Y208516D03*
X-53746Y251302D03*
X-34930Y277054D03*
G54D25*
X-76496Y238736D03*
Y245429D03*
X-9876Y273926D03*
Y280618D03*
G54D16*
X-648642Y24650D03*
Y41461D03*
X-629042Y97562D03*
Y114373D03*
X-628494Y166103D03*
Y182914D03*
X-646918Y235026D03*
Y251837D03*
X-647123Y299785D03*
Y316596D03*
X-468040Y37546D03*
Y54357D03*
X-320303Y37890D03*
Y54701D03*
X-311875Y298462D03*
Y315273D03*
X-118139Y52956D03*
Y36145D03*
X-115160Y121121D03*
Y137932D03*
G54D26*
X-65284Y240420D03*
Y245420D03*
Y250420D03*
Y255420D03*
X-43237Y240420D03*
Y255420D03*
Y250420D03*
Y245420D03*
G54D17*
X-629272Y264894D03*
X-618248D03*
X-583394Y241227D03*
X-572371D03*
X-531426Y235321D03*
X-520402D03*
X-243237Y251069D03*
X-232213D03*
X-179064Y248313D03*
X-190087D03*
X-81820Y264061D03*
X-92844D03*
G54D27*
X4007Y183707D03*
Y213707D03*
Y203707D03*
Y193707D03*
Y223707D03*
G54D18*
X-566711Y270432D03*
X-554782D03*
X-456741Y273442D03*
X-468670D03*
X-233751Y97922D03*
X-221822D03*
X-150402Y278042D03*
X-162331D03*
X-54713Y277054D03*
X-42784D03*
G54D28*
X4007Y173707D03*
G54D19*
X-566721Y256188D03*
X-583532D03*
X-468690Y259731D03*
X-485501D03*
X-233692Y116512D03*
X-216881D03*
X-179111Y262532D03*
X-162300D03*
X-81958Y277054D03*
X-65147D03*
G54D29*
G01X-468690Y259731D02*
Y273423D01*
X-468670Y273442D01*
X5976Y270597D03*
Y280597D03*
M02*
