G04 ================== begin FILE IDENTIFICATION RECORD ==================*
G04 Layout Name:  D:/Sankar/Personal/Final_Design_file/relay/Relay.brd*
G04 Film Name:    PASTE_TOP*
G04 File Format:  Gerber RS274X*
G04 File Origin:  Cadence Allegro 16.6-P004*
G04 Origin Date:  Thu Jun 03 17:51:02 2021*
G04 *
G04 Layer:  PIN/PASTEMASK_TOP*
G04 Layer:  PACKAGE GEOMETRY/PASTEMASK_TOP*
G04 Layer:  DRAWING FORMAT/TITLE_BLOCK*
G04 Layer:  BOARD GEOMETRY/OUTLINE*
G04 *
G04 Offset:    (0.000 0.000)*
G04 Mirror:    No*
G04 Mode:      Positive*
G04 Rotation:  0*
G04 FullContactRelief:  No*
G04 UndefLineWidth:     0.000*
G04 ================== end FILE IDENTIFICATION RECORD ====================*
%FSLAX25Y25*MOIN*%
%IR0*IPPOS*OFA0.00000B0.00000*MIA0B0*SFA1.00000B1.00000*%
%ADD12R,.062992X.070866*%
%ADD10R,.107087X.042913*%
%ADD13R,.042913X.107087*%
%ADD15R,.081X.024*%
%ADD11R,.061024X.091732*%
%ADD14R,.091732X.061024*%
%ADD17R,.03937X.043307*%
%ADD16R,.043307X.03937*%
%ADD18R,.068898X.023622*%
%ADD19C,.001*%
G75*
%LPD*%
G75*
G54D10*
X-635546Y18938D03*
Y30867D03*
X-639246Y112397D03*
Y100468D03*
X-638096Y172597D03*
Y160668D03*
X-640616Y228817D03*
Y216888D03*
X-468040Y12034D03*
Y23963D03*
X-311616Y72717D03*
Y60788D03*
X-118466Y60507D03*
Y48578D03*
X-118066Y124438D03*
Y136367D03*
G54D11*
X-620009Y18924D03*
Y2113D03*
X-624339Y83609D03*
X-623158Y143845D03*
X-624339Y100420D03*
X-625914Y200144D03*
X-623158Y160656D03*
X-625914Y216956D03*
X-468040Y37546D03*
Y54357D03*
X-329086Y60738D03*
Y43927D03*
X-134576Y48570D03*
Y65381D03*
X-134182Y136365D03*
Y153176D03*
G54D12*
X-649142Y240439D03*
X-638119D03*
X-531426Y235321D03*
X-583394Y241227D03*
X-572371D03*
X-520402Y235321D03*
X-243237Y251069D03*
X-232213D03*
X-179064Y248313D03*
X-190087D03*
X-81820Y264061D03*
X-92844D03*
G54D13*
X-620511Y269082D03*
X-632441D03*
X-554782Y270432D03*
X-566711D03*
X-456741Y273442D03*
X-468670D03*
X-233751Y97922D03*
X-221822D03*
X-214441Y277052D03*
X-226370D03*
X-150402Y278042D03*
X-162331D03*
X-54713Y277054D03*
X-42784D03*
G54D14*
X-632469Y253825D03*
X-649280D03*
X-566721Y256188D03*
X-583532D03*
X-468690Y259731D03*
X-485501D03*
X-233692Y116512D03*
X-243222Y263922D03*
X-216881Y116512D03*
X-226411Y263922D03*
X-179111Y262532D03*
X-162300D03*
X-65147Y277054D03*
X-81958D03*
G54D15*
X-468040Y129416D03*
X-449140D03*
Y124416D03*
Y119416D03*
Y114416D03*
Y109416D03*
Y104416D03*
Y99416D03*
X-468040Y94416D03*
Y99416D03*
Y104416D03*
Y109416D03*
Y114416D03*
Y119416D03*
Y124416D03*
X-449140Y94416D03*
X-244814Y203038D03*
Y208038D03*
Y213038D03*
Y218038D03*
Y223038D03*
Y228038D03*
Y233038D03*
Y238038D03*
X-225914Y203038D03*
Y208038D03*
Y238038D03*
Y233038D03*
Y228038D03*
Y223038D03*
Y218038D03*
Y213038D03*
G54D16*
X-438313Y153992D03*
X-431620D03*
X-325140Y304012D03*
X-331833D03*
X-324000Y324072D03*
X-330693D03*
G54D17*
X-76496Y245429D03*
Y238736D03*
X-9876Y280618D03*
Y273926D03*
G54D18*
X-65284Y240420D03*
Y245420D03*
Y250420D03*
Y255420D03*
X-43237D03*
Y250420D03*
Y245420D03*
Y240420D03*
G54D19*
G01X-753796Y371952D02*
X-6246D01*
G02X7684Y366182I0J-19700D01*
G01X8154Y365712D01*
G02X13444Y352941I-12771J-12771D01*
G01Y-2688D01*
G02X-5626Y-21758I-19070J0D01*
G01X-754446D01*
G02X-773956Y-2248I0J19510D01*
G01Y351792D01*
G02X-753796Y371952I20160J0D01*
M02*
