G04 ================== begin FILE IDENTIFICATION RECORD ==================*
G04 Layout Name:  D:/Sankar/ozone_alice_relay/Relay.brd*
G04 Film Name:    SILK_TOP*
G04 File Format:  Gerber RS274X*
G04 File Origin:  Cadence Allegro 16.6-P004*
G04 Origin Date:  Mon May 24 19:58:36 2021*
G04 *
G04 Layer:  REF DES/SILKSCREEN_TOP*
G04 Layer:  PACKAGE GEOMETRY/SILKSCREEN_TOP*
G04 Layer:  MANUFACTURING/AUTOSILK_TOP*
G04 Layer:  DRAWING FORMAT/TITLE_BLOCK*
G04 Layer:  BOARD GEOMETRY/OUTLINE*
G04 Layer:  BOARD GEOMETRY/SILKSCREEN_TOP*
G04 *
G04 Offset:    (0.000 0.000)*
G04 Mirror:    No*
G04 Mode:      Positive*
G04 Rotation:  0*
G04 FullContactRelief:  No*
G04 UndefLineWidth:     0.000*
G04 ================== end FILE IDENTIFICATION RECORD ====================*
%FSLAX25Y25*MOIN*%
%IR0*IPPOS*OFA0.00000B0.00000*MIA0B0*SFA1.00000B1.00000*%
%ADD10C,.001*%
%ADD11C,.005*%
%ADD12C,.006*%
%ADD13C,.008*%
%ADD14C,.007874*%
%ADD15C,.012*%
G75*
%LPD*%
G75*
G54D10*
G01X-753796Y371952D02*
X-6246D01*
G02X7684Y366182I0J-19700D01*
G01X8154Y365712D01*
G02X13444Y352941I-12771J-12771D01*
G01Y-2688D01*
G02X-5626Y-21758I-19070J0D01*
G01X-754446D01*
G02X-773956Y-2248I0J19510D01*
G01Y351792D01*
G02X-753796Y371952I20160J0D01*
G54D11*
G01X-781381Y25842D02*
Y31748D01*
X-775475D01*
G01Y9897D02*
X-781381D01*
Y15803D01*
G01X-774733Y81975D02*
X-780639D01*
Y87880D01*
G01Y97920D02*
Y103825D01*
X-774733D01*
G01X-779151Y167162D02*
Y173068D01*
X-773245D01*
G01Y151217D02*
X-779151D01*
Y157123D01*
G01X-781141Y239012D02*
Y244918D01*
X-775235D01*
G01Y223067D02*
X-781141D01*
Y228973D01*
G01X-779221Y318192D02*
Y324098D01*
X-773315D01*
G01Y302247D02*
X-779221D01*
Y308153D01*
G01X-762877Y31748D02*
X-756971D01*
Y25842D01*
G01Y15803D02*
Y9897D01*
X-762680D01*
G01X-756229Y87880D02*
Y81975D01*
X-761938D01*
G01X-762135Y103825D02*
X-756229D01*
Y97920D01*
G01X-760647Y173068D02*
X-754741D01*
Y167162D01*
G01Y157123D02*
Y151217D01*
X-760450D01*
G01X-762637Y244918D02*
X-756732D01*
Y239012D01*
G01Y228973D02*
Y223067D01*
X-762440D01*
G01X-760717Y324098D02*
X-754811D01*
Y318192D01*
G01Y308153D02*
Y302247D01*
X-760520D01*
G01X-630231Y22343D02*
Y27461D01*
G01X-640861Y22343D02*
Y27461D01*
G01X-624320Y292D02*
X-625137D01*
Y20744D01*
X-624320D01*
G01X-615698D02*
X-614881D01*
Y292D01*
X-615698D01*
G01X-628650Y81788D02*
X-629467D01*
Y102241D01*
X-628650D01*
G01X-620028D02*
X-619211D01*
Y81788D01*
X-620028D01*
G01X-633931Y103873D02*
Y108991D01*
G01X-644561Y103873D02*
Y108991D01*
G01X-627469Y142024D02*
X-628286D01*
Y162477D01*
X-627469D01*
G01X-618847D02*
X-618030D01*
Y142024D01*
X-618847D01*
G01X-632781Y164073D02*
Y169191D01*
G01X-643411Y164073D02*
Y169191D01*
G01X-630225Y198323D02*
X-631042D01*
Y218776D01*
X-630225D01*
G01X-621603D02*
X-620786D01*
Y198323D01*
X-621603D01*
G01X-629035Y263767D02*
X-623917D01*
G01X-635301Y220293D02*
Y225411D01*
G01X-645931Y220293D02*
Y225411D01*
G01X-651101Y258136D02*
Y258953D01*
X-630648D01*
Y258136D01*
G01Y249514D02*
Y248697D01*
X-651101D01*
Y249514D01*
G01X-629035Y274397D02*
X-623917D01*
G01X-600721Y373861D02*
Y379767D01*
X-594815D01*
G01Y355358D02*
X-600721D01*
Y361066D01*
G01X-537436Y-2613D02*
X-531531D01*
Y-8519D01*
G01Y-21117D02*
Y-27022D01*
X-537436D01*
G01X-553381Y-8519D02*
Y-2613D01*
X-547476D01*
G01Y-27022D02*
X-553381D01*
Y-21314D01*
G01X-563305Y265117D02*
X-558187D01*
G01X-585353Y260498D02*
Y261315D01*
X-564900D01*
Y260498D01*
G01Y251876D02*
Y251059D01*
X-585353D01*
Y251876D01*
G01X-563305Y275747D02*
X-558187D01*
G01X-584776Y379767D02*
X-578870D01*
Y373861D01*
G01Y361263D02*
Y355358D01*
X-584776D01*
G01X-473355Y20557D02*
Y15439D01*
G01X-472351Y35725D02*
X-473168D01*
Y56178D01*
X-472351D01*
G01X-487322Y264042D02*
Y264859D01*
X-466869D01*
Y264042D01*
G01Y255420D02*
Y254603D01*
X-487322D01*
Y255420D01*
G01X-478026Y379897D02*
X-472121D01*
Y373991D01*
G01Y361393D02*
Y355487D01*
X-478026D01*
G01X-493971Y373991D02*
Y379897D01*
X-488065D01*
G01Y355487D02*
X-493971D01*
Y361196D01*
G01X-462725Y20557D02*
Y15439D01*
G01X-463729Y56178D02*
X-462912D01*
Y35725D01*
X-463729D01*
G01X-414772Y328223D02*
X-405560D01*
Y129821D01*
X-414772D01*
Y328223D01*
G01X-465265Y268127D02*
X-460147D01*
G01X-465265Y278757D02*
X-460147D01*
G01X-383076Y-2743D02*
X-377170D01*
Y-8648D01*
G01Y-21247D02*
Y-27152D01*
X-383076D01*
G01X-399021Y-8648D02*
Y-2743D01*
X-393115D01*
G01Y-27152D02*
X-399021D01*
Y-21444D01*
G01X-353749Y328223D02*
X-344536D01*
Y129821D01*
X-353749D01*
Y328223D01*
G01X-356502Y351597D02*
Y377187D01*
X-314691D01*
Y351597D01*
X-356502D01*
G01X-306301Y64193D02*
Y69311D01*
G01X-316931Y64193D02*
Y69311D01*
G01X-333397Y42106D02*
X-334214D01*
Y62559D01*
X-333397D01*
G01X-324775D02*
X-323958D01*
Y42106D01*
X-324775D01*
G01X-244131Y-8148D02*
Y-2243D01*
X-238226D01*
G01Y-26652D02*
X-244131D01*
Y-20944D01*
G01X-215060Y112201D02*
Y111384D01*
X-235513D01*
Y112201D01*
G01Y120823D02*
Y121640D01*
X-215060D01*
Y120823D01*
G01X-224590Y259611D02*
Y258795D01*
X-245042D01*
Y259611D01*
G01Y268234D02*
Y269050D01*
X-224590D01*
Y268234D01*
G01X-261186Y354808D02*
X-267092D01*
Y360713D01*
G01Y373311D02*
Y379217D01*
X-261186D01*
G01X-245241Y360713D02*
Y354808D01*
X-251147D01*
G01Y379217D02*
X-245241D01*
Y373508D01*
G01X-228186Y-2243D02*
X-222281D01*
Y-8148D01*
G01Y-20747D02*
Y-26652D01*
X-228186D01*
G01X-230345Y92607D02*
X-225227D01*
G01X-230345Y103237D02*
X-225227D01*
G01X-180932Y266843D02*
Y267660D01*
X-160480D01*
Y266843D01*
G01Y258221D02*
Y257404D01*
X-180932D01*
Y258221D01*
G01X-222965Y271737D02*
X-217847D01*
G01X-222965Y282367D02*
X-217847D01*
G01X-113151Y51983D02*
Y57101D01*
G01X-123781Y51983D02*
Y57101D01*
G01X-130265Y67201D02*
X-129448D01*
Y46748D01*
X-130265D01*
G01X-138887D02*
X-139704D01*
Y67201D01*
X-138887D01*
G01X-123381Y132961D02*
Y127843D01*
G01X-112751Y132961D02*
Y127843D01*
G01X-129871Y154996D02*
X-129054D01*
Y134544D01*
X-129871D01*
G01X-138493D02*
X-139310D01*
Y154996D01*
X-138493D01*
G01X-158925Y272727D02*
X-153807D01*
G01X-158925Y283357D02*
X-153807D01*
G01X-162922Y353038D02*
X-168828D01*
Y358944D01*
G01Y371542D02*
Y377447D01*
X-162922D01*
G01X-146977Y358944D02*
Y353038D01*
X-152883D01*
G01Y377447D02*
X-146977D01*
Y371739D01*
G01X-51308Y271739D02*
X-46190D01*
G01X-51308Y282369D02*
X-46190D01*
G01X-83778Y281365D02*
Y282182D01*
X-63326D01*
Y281365D01*
G01Y272742D02*
Y271926D01*
X-83778D01*
Y272742D01*
G01X-855Y44187D02*
X-6761D01*
Y50092D01*
G01Y60132D02*
Y66037D01*
X-1052D01*
G01X-315Y123387D02*
X-6221D01*
Y129292D01*
G01Y139332D02*
Y145237D01*
X-512D01*
G01X8606Y169507D02*
X-591D01*
Y227908D01*
X8606D01*
Y169507D01*
G01X-6229Y253825D02*
Y259731D01*
X-324D01*
G01Y237880D02*
X-6229D01*
Y243786D01*
G01X857Y312093D02*
X-5048D01*
Y317998D01*
G01Y328038D02*
Y333944D01*
X661D01*
G01X17649Y50092D02*
Y44187D01*
X11743D01*
G01Y66037D02*
X17649D01*
Y60132D01*
G01X18189Y129292D02*
Y123387D01*
X12283D01*
G01Y145237D02*
X18189D01*
Y139332D01*
G01X12275Y259731D02*
X18180D01*
Y253825D01*
G01Y243786D02*
Y237880D01*
X12472D01*
G01X19361Y317998D02*
Y312093D01*
X13456D01*
G01Y333944D02*
X19361D01*
Y328038D01*
G54D12*
G01X-463140Y92216D02*
X-454040D01*
G01Y131616D02*
X-463140D01*
G01X-239914Y200838D02*
X-230814D01*
G01Y240238D02*
X-239914D01*
G54D13*
G01X-761176Y43505D02*
X-761726Y43172D01*
X-762093Y42772D01*
X-762276Y42305D01*
X-762093Y41772D01*
X-761726Y41372D01*
X-761176Y40972D01*
X-760443Y40839D01*
X-756776D01*
G01X-762276Y37805D02*
X-761084Y37672D01*
X-760076Y37472D01*
X-759159Y37205D01*
X-758151Y36872D01*
X-756776Y36339D01*
Y39005D01*
G01X-759696Y117066D02*
X-760246Y116732D01*
X-760613Y116332D01*
X-760796Y115866D01*
X-760613Y115332D01*
X-760246Y114932D01*
X-759696Y114532D01*
X-758963Y114399D01*
X-755296D01*
G01X-758505Y112499D02*
X-757863Y112032D01*
X-757496Y111632D01*
X-757313Y111099D01*
X-757496Y110632D01*
X-757863Y110299D01*
X-758413Y110032D01*
X-759054Y109966D01*
X-759604Y110032D01*
X-760155Y110299D01*
X-760613Y110699D01*
X-760796Y111166D01*
X-760613Y111699D01*
X-760063Y112166D01*
X-759238Y112432D01*
X-758321Y112499D01*
X-757130Y112366D01*
X-756488Y112166D01*
X-755846Y111832D01*
X-755388Y111366D01*
X-755296Y110899D01*
X-755479Y110432D01*
X-755938Y110099D01*
G01X-759696Y187836D02*
X-760246Y187502D01*
X-760613Y187103D01*
X-760796Y186636D01*
X-760613Y186102D01*
X-760246Y185702D01*
X-759696Y185302D01*
X-758963Y185169D01*
X-755296D01*
G01X-759971Y183469D02*
X-760430Y183069D01*
X-760704Y182603D01*
X-760796Y182003D01*
X-760613Y181402D01*
X-760246Y180936D01*
X-759604Y180602D01*
X-758871Y180536D01*
X-758138Y180669D01*
X-757679Y181002D01*
X-757313Y181469D01*
X-757221Y181936D01*
X-757313Y182402D01*
X-757679Y183002D01*
X-755296Y182802D01*
Y181002D01*
G01X-758616Y258276D02*
X-759166Y257942D01*
X-759533Y257542D01*
X-759716Y257076D01*
X-759533Y256542D01*
X-759166Y256142D01*
X-758616Y255742D01*
X-757883Y255609D01*
X-754216D01*
G01X-759716Y251642D02*
X-754216D01*
X-758158Y254109D01*
Y250775D01*
G01X-757796Y338455D02*
X-758346Y338122D01*
X-758713Y337722D01*
X-758896Y337255D01*
X-758713Y336722D01*
X-758346Y336322D01*
X-757796Y335922D01*
X-757063Y335789D01*
X-753396D01*
G01X-757796Y334089D02*
X-758438Y333689D01*
X-758804Y333155D01*
X-758896Y332555D01*
X-758804Y332022D01*
X-758346Y331489D01*
X-757796Y331155D01*
X-757246Y331089D01*
X-756605Y331222D01*
X-756146Y331689D01*
X-755963Y332155D01*
Y332755D01*
G01Y332155D02*
X-755688Y331755D01*
X-755230Y331422D01*
X-754680Y331289D01*
X-754129Y331422D01*
X-753671Y331755D01*
X-753396Y332355D01*
X-753488Y332955D01*
X-753854Y333555D01*
G01X-653716Y14289D02*
X-659216D01*
Y15955D01*
X-658941Y16489D01*
X-658574Y16822D01*
X-657841Y16955D01*
X-657108Y16822D01*
X-656650Y16422D01*
X-656374Y15955D01*
Y14289D01*
G01Y15955D02*
X-653716Y16955D01*
G01X-659216Y18789D02*
X-653716D01*
Y21455D01*
G01Y24489D02*
X-654908Y24622D01*
X-655916Y24822D01*
X-656833Y25089D01*
X-657841Y25422D01*
X-659216Y25955D01*
Y23289D01*
G01X-653306Y91629D02*
X-658806D01*
Y93296D01*
X-658531Y93829D01*
X-658164Y94162D01*
X-657431Y94296D01*
X-656698Y94162D01*
X-656239Y93762D01*
X-655964Y93296D01*
Y91629D01*
G01Y93296D02*
X-653306Y94296D01*
G01X-658806Y96129D02*
X-653306D01*
Y98796D01*
G01X-655597Y100696D02*
X-656239Y101162D01*
X-656606Y101562D01*
X-656789Y102096D01*
X-656606Y102562D01*
X-656239Y102895D01*
X-655689Y103162D01*
X-655048Y103229D01*
X-654498Y103162D01*
X-653947Y102895D01*
X-653489Y102495D01*
X-653306Y102029D01*
X-653489Y101496D01*
X-654039Y101029D01*
X-654864Y100762D01*
X-655781Y100696D01*
X-656973Y100829D01*
X-657614Y101029D01*
X-658256Y101362D01*
X-658714Y101829D01*
X-658806Y102296D01*
X-658623Y102762D01*
X-658164Y103096D01*
G01X-658846Y167226D02*
X-653346D01*
Y165559D01*
X-653621Y165025D01*
X-653988Y164692D01*
X-654721Y164559D01*
X-655454Y164692D01*
X-655913Y165092D01*
X-656188Y165559D01*
Y167226D01*
G01Y165559D02*
X-658846Y164559D01*
G01X-653346Y162726D02*
X-658846D01*
Y160059D01*
G01X-658021Y158359D02*
X-658480Y157959D01*
X-658754Y157492D01*
X-658846Y156892D01*
X-658663Y156292D01*
X-658296Y155826D01*
X-657654Y155492D01*
X-656921Y155425D01*
X-656188Y155559D01*
X-655729Y155892D01*
X-655363Y156359D01*
X-655271Y156825D01*
X-655363Y157292D01*
X-655729Y157892D01*
X-653346Y157692D01*
Y155892D01*
G01X-659936Y235976D02*
X-654436D01*
Y234309D01*
X-654711Y233775D01*
X-655078Y233442D01*
X-655811Y233309D01*
X-656545Y233442D01*
X-657003Y233842D01*
X-657278Y234309D01*
Y235976D01*
G01Y234309D02*
X-659936Y233309D01*
G01X-654436Y231476D02*
X-659936D01*
Y228809D01*
G01Y224842D02*
X-654436D01*
X-658378Y227309D01*
Y223975D01*
G01X-662289Y279563D02*
Y274063D01*
X-663956D01*
X-664490Y274339D01*
X-664823Y274705D01*
X-664956Y275438D01*
X-664823Y276172D01*
X-664423Y276630D01*
X-663956Y276905D01*
X-662289D01*
G01X-663956D02*
X-664956Y279563D01*
G01X-666789Y274063D02*
Y279563D01*
X-669456D01*
G01X-671156Y278464D02*
X-671556Y279105D01*
X-672089Y279472D01*
X-672690Y279563D01*
X-673223Y279472D01*
X-673756Y279014D01*
X-674090Y278464D01*
X-674156Y277913D01*
X-674023Y277272D01*
X-673556Y276814D01*
X-673089Y276630D01*
X-672489D01*
G01X-673089D02*
X-673490Y276355D01*
X-673823Y275897D01*
X-673956Y275347D01*
X-673823Y274797D01*
X-673490Y274339D01*
X-672890Y274063D01*
X-672290Y274155D01*
X-671690Y274522D01*
G01X-635596Y-591D02*
X-641096D01*
Y1075D01*
X-640821Y1609D01*
X-640454Y1942D01*
X-639721Y2076D01*
X-638988Y1942D01*
X-638530Y1542D01*
X-638254Y1075D01*
Y-591D01*
G01Y1075D02*
X-635596Y2076D01*
G01Y5242D02*
X-641096D01*
X-639996Y4442D01*
G01X-635596D02*
Y6042D01*
G01X-641096Y9742D02*
X-640913Y9209D01*
X-640454Y8809D01*
X-639904Y8542D01*
X-639171Y8342D01*
X-638346Y8275D01*
X-637521Y8342D01*
X-636788Y8542D01*
X-636238Y8809D01*
X-635779Y9209D01*
X-635596Y9742D01*
X-635779Y10275D01*
X-636238Y10675D01*
X-636788Y10942D01*
X-637521Y11142D01*
X-638346Y11209D01*
X-639171Y11142D01*
X-639904Y10942D01*
X-640454Y10675D01*
X-640913Y10275D01*
X-641096Y9742D01*
G01X-604906Y4425D02*
X-610406D01*
Y5759D01*
X-610131Y6292D01*
X-609764Y6692D01*
X-609214Y7026D01*
X-608572Y7292D01*
X-607656Y7359D01*
X-606739Y7292D01*
X-606098Y7026D01*
X-605547Y6692D01*
X-605181Y6292D01*
X-604906Y5759D01*
Y4425D01*
G01Y10392D02*
X-610406D01*
X-609306Y9592D01*
G01X-604906D02*
Y11192D01*
G01X-605731Y13425D02*
X-605272Y13825D01*
X-604998Y14292D01*
X-604906Y14892D01*
X-605089Y15492D01*
X-605456Y15959D01*
X-606098Y16292D01*
X-606831Y16359D01*
X-607564Y16226D01*
X-608023Y15892D01*
X-608389Y15425D01*
X-608481Y14959D01*
X-608389Y14492D01*
X-608023Y13892D01*
X-610406Y14092D01*
Y15892D01*
G01X-639246Y85219D02*
X-644746D01*
Y86886D01*
X-644471Y87419D01*
X-644104Y87752D01*
X-643371Y87886D01*
X-642638Y87752D01*
X-642180Y87352D01*
X-641904Y86886D01*
Y85219D01*
G01Y86886D02*
X-639246Y87886D01*
G01X-639888Y89919D02*
X-639429Y90386D01*
X-639246Y90919D01*
X-639429Y91452D01*
X-639979Y91919D01*
X-640804Y92252D01*
X-641629Y92386D01*
X-642638D01*
X-643463Y92252D01*
X-644196Y91919D01*
X-644563Y91519D01*
X-644746Y91052D01*
X-644563Y90519D01*
X-644196Y90119D01*
X-643646Y89852D01*
X-642913Y89719D01*
X-642271Y89852D01*
X-641629Y90186D01*
X-641263Y90586D01*
X-641171Y91052D01*
X-641354Y91586D01*
X-641813Y91986D01*
X-642638Y92386D01*
G01X-624506Y63646D02*
X-630006D01*
Y64979D01*
X-629731Y65512D01*
X-629364Y65912D01*
X-628814Y66246D01*
X-628173Y66512D01*
X-627256Y66579D01*
X-626339Y66512D01*
X-625698Y66246D01*
X-625147Y65912D01*
X-624781Y65512D01*
X-624506Y64979D01*
Y63646D01*
G01Y69612D02*
X-630006D01*
X-628906Y68812D01*
G01X-624506D02*
Y70412D01*
G01Y74912D02*
X-630006D01*
X-626064Y72446D01*
Y75779D01*
G01X-638026Y145379D02*
X-643526D01*
Y147046D01*
X-643251Y147579D01*
X-642884Y147912D01*
X-642151Y148046D01*
X-641418Y147912D01*
X-640959Y147512D01*
X-640684Y147046D01*
Y145379D01*
G01Y147046D02*
X-638026Y148046D01*
G01Y151212D02*
X-638118Y151679D01*
X-638393Y152212D01*
X-638851Y152546D01*
X-639493Y152679D01*
X-640134Y152546D01*
X-640684Y152146D01*
X-640959Y151546D01*
Y150879D01*
X-641143Y150479D01*
X-641601Y150146D01*
X-642243Y150012D01*
X-642884Y150212D01*
X-643343Y150679D01*
X-643526Y151212D01*
X-643343Y151746D01*
X-642884Y152212D01*
X-642243Y152412D01*
X-641601Y152279D01*
X-641143Y151946D01*
X-640959Y151546D01*
Y150879D01*
X-640684Y150279D01*
X-640134Y149879D01*
X-639493Y149746D01*
X-638851Y149879D01*
X-638393Y150212D01*
X-638118Y150746D01*
X-638026Y151212D01*
G01X-623156Y123536D02*
X-628656D01*
Y124869D01*
X-628381Y125402D01*
X-628014Y125802D01*
X-627464Y126136D01*
X-626822Y126402D01*
X-625906Y126469D01*
X-624989Y126402D01*
X-624348Y126136D01*
X-623797Y125802D01*
X-623431Y125402D01*
X-623156Y124869D01*
Y123536D01*
G01Y129502D02*
X-628656D01*
X-627556Y128702D01*
G01X-623156D02*
Y130302D01*
G01X-624256Y132536D02*
X-623614Y132936D01*
X-623248Y133469D01*
X-623156Y134069D01*
X-623248Y134602D01*
X-623706Y135136D01*
X-624256Y135469D01*
X-624806Y135536D01*
X-625447Y135402D01*
X-625906Y134936D01*
X-626089Y134469D01*
Y133869D01*
G01Y134469D02*
X-626364Y134869D01*
X-626822Y135202D01*
X-627373Y135336D01*
X-627923Y135202D01*
X-628381Y134869D01*
X-628656Y134269D01*
X-628564Y133669D01*
X-628198Y133069D01*
G01X-641546Y201689D02*
X-647046D01*
Y203355D01*
X-646771Y203889D01*
X-646404Y204222D01*
X-645671Y204355D01*
X-644938Y204222D01*
X-644480Y203822D01*
X-644204Y203355D01*
Y201689D01*
G01Y203355D02*
X-641546Y204355D01*
G01Y207389D02*
X-642738Y207522D01*
X-643746Y207722D01*
X-644663Y207989D01*
X-645671Y208322D01*
X-647046Y208855D01*
Y206189D01*
G01X-611326Y201955D02*
X-616826D01*
Y203289D01*
X-616551Y203822D01*
X-616184Y204222D01*
X-615634Y204555D01*
X-614993Y204822D01*
X-614076Y204889D01*
X-613159Y204822D01*
X-612518Y204555D01*
X-611968Y204222D01*
X-611601Y203822D01*
X-611326Y203289D01*
Y201955D01*
G01Y207922D02*
X-616826D01*
X-615726Y207122D01*
G01X-611326D02*
Y208722D01*
G01X-615909Y211155D02*
X-616459Y211555D01*
X-616734Y212022D01*
X-616826Y212555D01*
X-616643Y213222D01*
X-616184Y213689D01*
X-615634Y213822D01*
X-615084Y213755D01*
X-614626Y213489D01*
X-613709Y212155D01*
X-613068Y211555D01*
X-612151Y211155D01*
X-611326Y211022D01*
Y213822D01*
G01X-593483Y241202D02*
Y235702D01*
X-595149D01*
X-595683Y235978D01*
X-596016Y236344D01*
X-596150Y237077D01*
X-596016Y237811D01*
X-595616Y238269D01*
X-595149Y238544D01*
X-593483D01*
G01X-595149D02*
X-596150Y241202D01*
G01X-600116D02*
Y235702D01*
X-597649Y239644D01*
X-600983D01*
G01X-618493Y240492D02*
Y234992D01*
X-620159D01*
X-620693Y235267D01*
X-621026Y235634D01*
X-621159Y236367D01*
X-621026Y237101D01*
X-620626Y237559D01*
X-620159Y237834D01*
X-618493D01*
G01X-620159D02*
X-621159Y240492D01*
G01X-623059Y238201D02*
X-623526Y237559D01*
X-623926Y237192D01*
X-624459Y237009D01*
X-624926Y237192D01*
X-625259Y237559D01*
X-625526Y238109D01*
X-625593Y238750D01*
X-625526Y239300D01*
X-625259Y239851D01*
X-624859Y240309D01*
X-624393Y240492D01*
X-623859Y240309D01*
X-623393Y239759D01*
X-623126Y238934D01*
X-623059Y238017D01*
X-623193Y236826D01*
X-623393Y236184D01*
X-623726Y235542D01*
X-624193Y235084D01*
X-624659Y234992D01*
X-625126Y235175D01*
X-625459Y235634D01*
G01X-641203Y272292D02*
Y266792D01*
X-642870D01*
X-643403Y267067D01*
X-643736Y267434D01*
X-643870Y268167D01*
X-643736Y268901D01*
X-643336Y269359D01*
X-642870Y269634D01*
X-641203D01*
G01X-642870D02*
X-643870Y272292D01*
G01X-645570Y271467D02*
X-645970Y271926D01*
X-646436Y272200D01*
X-647036Y272292D01*
X-647636Y272109D01*
X-648103Y271742D01*
X-648436Y271100D01*
X-648503Y270367D01*
X-648370Y269634D01*
X-648036Y269175D01*
X-647570Y268809D01*
X-647103Y268717D01*
X-646636Y268809D01*
X-646036Y269175D01*
X-646236Y266792D01*
X-648036D01*
G01X-613549Y254012D02*
Y248512D01*
X-614883D01*
X-615416Y248787D01*
X-615816Y249154D01*
X-616150Y249704D01*
X-616416Y250346D01*
X-616483Y251262D01*
X-616416Y252179D01*
X-616150Y252821D01*
X-615816Y253371D01*
X-615416Y253737D01*
X-614883Y254012D01*
X-613549D01*
G01X-619516D02*
Y248512D01*
X-618716Y249612D01*
G01Y254012D02*
X-620316D01*
G01X-624016D02*
Y248512D01*
X-623216Y249612D01*
G01Y254012D02*
X-624816D01*
G01X-597053Y275942D02*
Y270442D01*
X-598720D01*
X-599253Y270717D01*
X-599586Y271084D01*
X-599720Y271817D01*
X-599586Y272550D01*
X-599186Y273009D01*
X-598720Y273284D01*
X-597053D01*
G01X-598720D02*
X-599720Y275942D01*
G01X-601553Y270442D02*
Y275942D01*
X-604220D01*
G01X-606120Y271359D02*
X-606520Y270809D01*
X-606986Y270534D01*
X-607520Y270442D01*
X-608186Y270625D01*
X-608653Y271084D01*
X-608786Y271634D01*
X-608720Y272184D01*
X-608453Y272642D01*
X-607120Y273559D01*
X-606520Y274200D01*
X-606120Y275117D01*
X-605986Y275942D01*
X-608786D01*
G01X-575730Y149411D02*
X-576263Y149502D01*
X-576730Y149869D01*
X-577130Y150419D01*
X-577396Y151061D01*
X-577530Y151794D01*
Y152528D01*
X-577396Y153261D01*
X-577130Y153902D01*
X-576730Y154452D01*
X-576263Y154819D01*
X-575730Y154911D01*
X-575196Y154819D01*
X-574730Y154452D01*
X-574330Y153902D01*
X-574063Y153261D01*
X-573930Y152528D01*
Y151794D01*
X-574063Y151061D01*
X-574330Y150419D01*
X-574730Y149869D01*
X-575196Y149502D01*
X-575730Y149411D01*
G01X-572496Y154911D02*
X-569963D01*
X-572496Y149411D01*
X-569963D01*
G01X-565396D02*
X-568063D01*
Y154911D01*
X-565396D01*
G01X-566463Y152252D02*
X-568063D01*
G01X-563763Y149411D02*
Y154911D01*
X-560696Y149411D01*
Y154911D01*
G01X-559730Y147578D02*
X-555730D01*
G01X-554963Y149411D02*
Y154911D01*
X-553230Y150327D01*
X-551496Y154911D01*
Y149411D01*
G01X-548730D02*
X-549263Y149502D01*
X-549730Y149869D01*
X-550130Y150419D01*
X-550396Y151061D01*
X-550530Y151794D01*
Y152528D01*
X-550396Y153261D01*
X-550130Y153902D01*
X-549730Y154452D01*
X-549263Y154819D01*
X-548730Y154911D01*
X-548196Y154819D01*
X-547730Y154452D01*
X-547330Y153902D01*
X-547063Y153261D01*
X-546930Y152528D01*
Y151794D01*
X-547063Y151061D01*
X-547330Y150419D01*
X-547730Y149869D01*
X-548196Y149502D01*
X-548730Y149411D01*
G01X-544230Y154911D02*
Y149411D01*
G01X-545763Y154911D02*
X-542696D01*
G01X-539730Y149411D02*
X-540263Y149502D01*
X-540730Y149869D01*
X-541130Y150419D01*
X-541396Y151061D01*
X-541530Y151794D01*
Y152528D01*
X-541396Y153261D01*
X-541130Y153902D01*
X-540730Y154452D01*
X-540263Y154819D01*
X-539730Y154911D01*
X-539196Y154819D01*
X-538730Y154452D01*
X-538330Y153902D01*
X-538063Y153261D01*
X-537930Y152528D01*
Y151794D01*
X-538063Y151061D01*
X-538330Y150419D01*
X-538730Y149869D01*
X-539196Y149502D01*
X-539730Y149411D01*
G01X-536563D02*
Y154911D01*
X-534896D01*
X-534363Y154636D01*
X-534030Y154269D01*
X-533896Y153536D01*
X-534030Y152802D01*
X-534430Y152344D01*
X-534896Y152069D01*
X-536563D01*
G01X-534896D02*
X-533896Y149411D01*
G01X-532130Y150144D02*
X-531596Y149686D01*
X-530996Y149411D01*
X-530463D01*
X-529930Y149686D01*
X-529530Y150144D01*
X-529330Y150786D01*
X-529463Y151427D01*
X-529796Y151977D01*
X-530396Y152344D01*
X-531196Y152528D01*
X-531663Y152894D01*
X-531863Y153536D01*
X-531730Y154178D01*
X-531396Y154636D01*
X-530930Y154911D01*
X-530463D01*
X-529996Y154728D01*
X-529596Y154269D01*
G01X-528230Y147578D02*
X-524230D01*
G01X-523063Y149411D02*
Y154911D01*
X-521396D01*
X-520863Y154636D01*
X-520530Y154269D01*
X-520396Y153536D01*
X-520530Y152802D01*
X-520930Y152344D01*
X-521396Y152069D01*
X-523063D01*
G01X-521396D02*
X-520396Y149411D01*
G01X-515896D02*
X-518563D01*
Y154911D01*
X-515896D01*
G01X-516963Y152252D02*
X-518563D01*
G01X-514063Y154911D02*
Y149411D01*
X-511396D01*
G01X-509896D02*
X-508230Y154911D01*
X-506563Y149411D01*
G01X-507163Y151336D02*
X-509296D01*
G01X-503730Y149411D02*
Y151886D01*
X-505063Y154911D01*
G01X-502396D02*
X-503730Y151886D01*
G01X-501230Y147578D02*
X-497230D01*
G01X-496063Y149411D02*
Y154911D01*
X-494396D01*
X-493863Y154636D01*
X-493530Y154269D01*
X-493396Y153536D01*
X-493530Y152802D01*
X-493930Y152344D01*
X-494396Y152069D01*
X-496063D01*
G01X-494396D02*
X-493396Y149411D01*
G01X-488896D02*
X-491563D01*
Y154911D01*
X-488896D01*
G01X-489963Y152252D02*
X-491563D01*
G01X-487396Y154911D02*
X-485730Y149411D01*
X-484063Y154911D01*
G01X-481230D02*
X-481763Y154728D01*
X-482163Y154269D01*
X-482430Y153719D01*
X-482630Y152986D01*
X-482696Y152161D01*
X-482630Y151336D01*
X-482430Y150602D01*
X-482163Y150052D01*
X-481763Y149594D01*
X-481230Y149411D01*
X-480696Y149594D01*
X-480296Y150052D01*
X-480030Y150602D01*
X-479830Y151336D01*
X-479763Y152161D01*
X-479830Y152986D01*
X-480030Y153719D01*
X-480296Y154269D01*
X-480696Y154728D01*
X-481230Y154911D01*
G01X-476730D02*
X-477263Y154728D01*
X-477663Y154269D01*
X-477930Y153719D01*
X-478130Y152986D01*
X-478196Y152161D01*
X-478130Y151336D01*
X-477930Y150602D01*
X-477663Y150052D01*
X-477263Y149594D01*
X-476730Y149411D01*
X-476196Y149594D01*
X-475796Y150052D01*
X-475530Y150602D01*
X-475330Y151336D01*
X-475263Y152161D01*
X-475330Y152986D01*
X-475530Y153719D01*
X-475796Y154269D01*
X-476196Y154728D01*
X-476730Y154911D01*
G01X-472230D02*
X-472763Y154728D01*
X-473163Y154269D01*
X-473430Y153719D01*
X-473630Y152986D01*
X-473696Y152161D01*
X-473630Y151336D01*
X-473430Y150602D01*
X-473163Y150052D01*
X-472763Y149594D01*
X-472230Y149411D01*
X-471696Y149594D01*
X-471296Y150052D01*
X-471030Y150602D01*
X-470830Y151336D01*
X-470763Y152161D01*
X-470830Y152986D01*
X-471030Y153719D01*
X-471296Y154269D01*
X-471696Y154728D01*
X-472230Y154911D01*
G01X-540483Y235252D02*
Y229752D01*
X-542149D01*
X-542683Y230028D01*
X-543016Y230394D01*
X-543150Y231127D01*
X-543016Y231861D01*
X-542616Y232319D01*
X-542149Y232594D01*
X-540483D01*
G01X-542149D02*
X-543150Y235252D01*
G01X-546316D02*
Y229752D01*
X-545516Y230852D01*
G01Y235252D02*
X-547116D01*
G01X-539393Y270542D02*
Y265042D01*
X-541059D01*
X-541593Y265317D01*
X-541926Y265684D01*
X-542059Y266417D01*
X-541926Y267150D01*
X-541526Y267609D01*
X-541059Y267884D01*
X-539393D01*
G01X-541059D02*
X-542059Y270542D01*
G01X-543759Y269442D02*
X-544159Y270084D01*
X-544693Y270450D01*
X-545293Y270542D01*
X-545826Y270450D01*
X-546359Y269992D01*
X-546693Y269442D01*
X-546759Y268892D01*
X-546626Y268251D01*
X-546159Y267792D01*
X-545693Y267609D01*
X-545093D01*
G01X-545693D02*
X-546093Y267334D01*
X-546426Y266876D01*
X-546559Y266326D01*
X-546426Y265775D01*
X-546093Y265317D01*
X-545493Y265042D01*
X-544893Y265134D01*
X-544293Y265500D01*
G01X-540809Y256202D02*
Y250702D01*
X-542143D01*
X-542676Y250978D01*
X-543076Y251344D01*
X-543409Y251894D01*
X-543676Y252536D01*
X-543743Y253453D01*
X-543676Y254369D01*
X-543409Y255011D01*
X-543076Y255561D01*
X-542676Y255928D01*
X-542143Y256202D01*
X-540809D01*
G01X-546776D02*
Y250702D01*
X-545976Y251802D01*
G01Y256202D02*
X-547576D01*
G01X-551276Y250702D02*
X-550743Y250886D01*
X-550343Y251344D01*
X-550076Y251894D01*
X-549876Y252628D01*
X-549809Y253453D01*
X-549876Y254278D01*
X-550076Y255011D01*
X-550343Y255561D01*
X-550743Y256019D01*
X-551276Y256202D01*
X-551809Y256019D01*
X-552209Y255561D01*
X-552476Y255011D01*
X-552676Y254278D01*
X-552743Y253453D01*
X-552676Y252628D01*
X-552476Y251894D01*
X-552209Y251344D01*
X-551809Y250886D01*
X-551276Y250702D01*
G01X-564743Y365432D02*
X-565076Y365982D01*
X-565476Y366349D01*
X-565943Y366532D01*
X-566476Y366349D01*
X-566876Y365982D01*
X-567276Y365432D01*
X-567409Y364699D01*
Y361032D01*
G01X-569309Y361949D02*
X-569709Y361399D01*
X-570176Y361124D01*
X-570709Y361032D01*
X-571376Y361216D01*
X-571843Y361674D01*
X-571976Y362224D01*
X-571909Y362774D01*
X-571643Y363232D01*
X-570309Y364149D01*
X-569709Y364791D01*
X-569309Y365708D01*
X-569176Y366532D01*
X-571976D01*
G01X-517013Y-14458D02*
X-517346Y-13908D01*
X-517746Y-13541D01*
X-518213Y-13358D01*
X-518746Y-13541D01*
X-519146Y-13908D01*
X-519546Y-14458D01*
X-519680Y-15191D01*
Y-18858D01*
G01X-522846Y-13358D02*
X-523313Y-13450D01*
X-523846Y-13724D01*
X-524180Y-14183D01*
X-524313Y-14825D01*
X-524180Y-15466D01*
X-523779Y-16016D01*
X-523179Y-16291D01*
X-522513D01*
X-522113Y-16475D01*
X-521779Y-16933D01*
X-521646Y-17574D01*
X-521846Y-18216D01*
X-522313Y-18675D01*
X-522846Y-18858D01*
X-523379Y-18675D01*
X-523846Y-18216D01*
X-524046Y-17574D01*
X-523913Y-16933D01*
X-523580Y-16475D01*
X-523179Y-16291D01*
X-522513D01*
X-521913Y-16016D01*
X-521513Y-15466D01*
X-521379Y-14825D01*
X-521513Y-14183D01*
X-521846Y-13724D01*
X-522380Y-13450D01*
X-522846Y-13358D01*
G01X-468076Y-6541D02*
X-473576D01*
Y-4875D01*
X-473301Y-4341D01*
X-472934Y-4008D01*
X-472201Y-3874D01*
X-471468Y-4008D01*
X-471009Y-4408D01*
X-470734Y-4875D01*
Y-6541D01*
G01Y-4875D02*
X-468076Y-3874D01*
G01X-472659Y-1975D02*
X-473209Y-1575D01*
X-473484Y-1108D01*
X-473576Y-574D01*
X-473393Y92D01*
X-472934Y559D01*
X-472384Y692D01*
X-471834Y626D01*
X-471376Y359D01*
X-470459Y-975D01*
X-469818Y-1575D01*
X-468901Y-1975D01*
X-468076Y-2108D01*
Y692D01*
G01X-470368Y2525D02*
X-471009Y2992D01*
X-471376Y3392D01*
X-471559Y3926D01*
X-471376Y4392D01*
X-471009Y4725D01*
X-470459Y4992D01*
X-469818Y5059D01*
X-469268Y4992D01*
X-468718Y4725D01*
X-468259Y4325D01*
X-468076Y3859D01*
X-468259Y3326D01*
X-468809Y2859D01*
X-469634Y2592D01*
X-470551Y2525D01*
X-471743Y2659D01*
X-472384Y2859D01*
X-473026Y3192D01*
X-473484Y3659D01*
X-473576Y4125D01*
X-473393Y4592D01*
X-472934Y4926D01*
G01X-506319Y14548D02*
Y9048D01*
X-507986D01*
X-508519Y9323D01*
X-508853Y9689D01*
X-508986Y10423D01*
X-508853Y11156D01*
X-508453Y11614D01*
X-507986Y11889D01*
X-506319D01*
G01X-507986D02*
X-508986Y14548D01*
G01X-510819Y9048D02*
Y14548D01*
X-513486D01*
G01X-516653D02*
Y9048D01*
X-515853Y10148D01*
G01Y14548D02*
X-517453D01*
G01X-519886Y12256D02*
X-520353Y11614D01*
X-520753Y11248D01*
X-521286Y11064D01*
X-521753Y11248D01*
X-522086Y11614D01*
X-522353Y12164D01*
X-522420Y12806D01*
X-522353Y13356D01*
X-522086Y13906D01*
X-521686Y14364D01*
X-521219Y14548D01*
X-520686Y14364D01*
X-520219Y13814D01*
X-519953Y12989D01*
X-519886Y12073D01*
X-520019Y10881D01*
X-520219Y10239D01*
X-520553Y9598D01*
X-521019Y9139D01*
X-521486Y9048D01*
X-521953Y9231D01*
X-522286Y9689D01*
G01X-496459Y259722D02*
Y254222D01*
X-497793D01*
X-498326Y254497D01*
X-498726Y254864D01*
X-499059Y255414D01*
X-499326Y256055D01*
X-499393Y256972D01*
X-499326Y257889D01*
X-499059Y258530D01*
X-498726Y259080D01*
X-498326Y259447D01*
X-497793Y259722D01*
X-496459D01*
G01X-501293Y259080D02*
X-501759Y259539D01*
X-502293Y259722D01*
X-502826Y259539D01*
X-503293Y258989D01*
X-503626Y258164D01*
X-503759Y257339D01*
Y256330D01*
X-503626Y255505D01*
X-503293Y254772D01*
X-502893Y254405D01*
X-502426Y254222D01*
X-501893Y254405D01*
X-501493Y254772D01*
X-501226Y255322D01*
X-501093Y256055D01*
X-501226Y256697D01*
X-501559Y257339D01*
X-501959Y257705D01*
X-502426Y257797D01*
X-502959Y257614D01*
X-503359Y257155D01*
X-503759Y256330D01*
G01X-482743Y276212D02*
Y270712D01*
X-484409D01*
X-484943Y270987D01*
X-485276Y271354D01*
X-485409Y272087D01*
X-485276Y272821D01*
X-484876Y273279D01*
X-484409Y273554D01*
X-482743D01*
G01X-484409D02*
X-485409Y276212D01*
G01X-487309Y271629D02*
X-487709Y271079D01*
X-488176Y270804D01*
X-488709Y270712D01*
X-489376Y270896D01*
X-489843Y271354D01*
X-489976Y271904D01*
X-489909Y272454D01*
X-489643Y272912D01*
X-488309Y273829D01*
X-487709Y274471D01*
X-487309Y275387D01*
X-487176Y276212D01*
X-489976D01*
G01X-513493Y278852D02*
Y273352D01*
X-515159D01*
X-515693Y273628D01*
X-516026Y273994D01*
X-516159Y274727D01*
X-516026Y275461D01*
X-515626Y275919D01*
X-515159Y276194D01*
X-513493D01*
G01X-515159D02*
X-516159Y278852D01*
G01X-517993Y273352D02*
Y278852D01*
X-520659D01*
G01X-523826D02*
Y273352D01*
X-523026Y274452D01*
G01Y278852D02*
X-524626D01*
G01X-445569Y81402D02*
Y85344D01*
X-445836Y86169D01*
X-446369Y86719D01*
X-447036Y86902D01*
X-447703Y86719D01*
X-448236Y86169D01*
X-448503Y85344D01*
Y81402D01*
G01X-452336Y86902D02*
Y81402D01*
X-449869Y85344D01*
X-453203D01*
G01X-454016Y40925D02*
X-459516D01*
Y42259D01*
X-459241Y42792D01*
X-458874Y43192D01*
X-458324Y43526D01*
X-457683Y43792D01*
X-456766Y43859D01*
X-455849Y43792D01*
X-455208Y43526D01*
X-454658Y43192D01*
X-454291Y42792D01*
X-454016Y42259D01*
Y40925D01*
G01Y46892D02*
X-459516D01*
X-458416Y46092D01*
G01X-454016D02*
Y47692D01*
G01X-456308Y50125D02*
X-456950Y50592D01*
X-457316Y50992D01*
X-457499Y51526D01*
X-457316Y51992D01*
X-456950Y52325D01*
X-456399Y52592D01*
X-455758Y52659D01*
X-455208Y52592D01*
X-454658Y52325D01*
X-454199Y51925D01*
X-454016Y51459D01*
X-454199Y50926D01*
X-454749Y50459D01*
X-455574Y50192D01*
X-456491Y50125D01*
X-457683Y50259D01*
X-458324Y50459D01*
X-458966Y50792D01*
X-459424Y51259D01*
X-459516Y51725D01*
X-459333Y52192D01*
X-458874Y52526D01*
G01X-454980Y153692D02*
Y159192D01*
X-453313D01*
X-452779Y158917D01*
X-452446Y158550D01*
X-452313Y157817D01*
X-452446Y157084D01*
X-452846Y156626D01*
X-453313Y156350D01*
X-454980D01*
G01X-453313D02*
X-452313Y153692D01*
G01X-450413Y158276D02*
X-450013Y158825D01*
X-449546Y159101D01*
X-449013Y159192D01*
X-448346Y159009D01*
X-447879Y158550D01*
X-447746Y158000D01*
X-447813Y157450D01*
X-448080Y156992D01*
X-449413Y156075D01*
X-450013Y155434D01*
X-450413Y154517D01*
X-450546Y153692D01*
X-447746D01*
G01X-444646D02*
Y159192D01*
X-445446Y158092D01*
G01Y153692D02*
X-443846D01*
G01X-433070Y325312D02*
X-432736Y324762D01*
X-432336Y324396D01*
X-431870Y324212D01*
X-431336Y324396D01*
X-430936Y324762D01*
X-430536Y325312D01*
X-430403Y326046D01*
Y329712D01*
G01X-427236Y324212D02*
Y329712D01*
X-428036Y328612D01*
G01Y324212D02*
X-426436D01*
G01X-424003Y326504D02*
X-423536Y327146D01*
X-423136Y327512D01*
X-422603Y327696D01*
X-422136Y327512D01*
X-421803Y327146D01*
X-421536Y326596D01*
X-421470Y325954D01*
X-421536Y325404D01*
X-421803Y324854D01*
X-422203Y324396D01*
X-422669Y324212D01*
X-423203Y324396D01*
X-423670Y324945D01*
X-423936Y325770D01*
X-424003Y326687D01*
X-423870Y327879D01*
X-423670Y328521D01*
X-423336Y329162D01*
X-422870Y329621D01*
X-422403Y329712D01*
X-421936Y329529D01*
X-421603Y329070D01*
G01X-459683Y366552D02*
X-460016Y367102D01*
X-460416Y367469D01*
X-460883Y367652D01*
X-461416Y367469D01*
X-461816Y367102D01*
X-462216Y366552D01*
X-462350Y365819D01*
Y362152D01*
G01X-465516Y367652D02*
Y362152D01*
X-464716Y363252D01*
G01Y367652D02*
X-466316D01*
G01X-359503Y-13918D02*
X-359836Y-13368D01*
X-360236Y-13001D01*
X-360703Y-12818D01*
X-361236Y-13001D01*
X-361636Y-13368D01*
X-362036Y-13918D01*
X-362170Y-14651D01*
Y-18318D01*
G01X-365336Y-12818D02*
Y-18318D01*
X-364536Y-17218D01*
G01Y-12818D02*
X-366136D01*
G01X-368370Y-13643D02*
X-368770Y-13184D01*
X-369236Y-12909D01*
X-369836Y-12818D01*
X-370436Y-13001D01*
X-370903Y-13368D01*
X-371236Y-14009D01*
X-371303Y-14743D01*
X-371170Y-15476D01*
X-370836Y-15934D01*
X-370370Y-16301D01*
X-369903Y-16393D01*
X-369436Y-16301D01*
X-368836Y-15934D01*
X-369036Y-18318D01*
X-370836D01*
G01X-350478Y14997D02*
Y9496D01*
X-352145D01*
X-352678Y9772D01*
X-353012Y10138D01*
X-353145Y10872D01*
X-353012Y11605D01*
X-352612Y12063D01*
X-352145Y12338D01*
X-350478D01*
G01X-352145D02*
X-353145Y14997D01*
G01X-354978Y9496D02*
Y14997D01*
X-357645D01*
G01X-360812D02*
Y9496D01*
X-360012Y10596D01*
G01Y14997D02*
X-361612D01*
G01X-363845Y14172D02*
X-364245Y14630D01*
X-364712Y14905D01*
X-365312Y14997D01*
X-365912Y14813D01*
X-366378Y14447D01*
X-366712Y13805D01*
X-366778Y13072D01*
X-366645Y12338D01*
X-366312Y11880D01*
X-365845Y11513D01*
X-365378Y11422D01*
X-364912Y11513D01*
X-364312Y11880D01*
X-364512Y9496D01*
X-366312D01*
G01X-370200Y325182D02*
X-369866Y324632D01*
X-369466Y324266D01*
X-369000Y324082D01*
X-368466Y324266D01*
X-368066Y324632D01*
X-367666Y325182D01*
X-367533Y325916D01*
Y329582D01*
G01X-364366Y324082D02*
Y329582D01*
X-365166Y328482D01*
G01Y324082D02*
X-363566D01*
G01X-360000D02*
X-359866Y325274D01*
X-359666Y326282D01*
X-359400Y327199D01*
X-359066Y328207D01*
X-358533Y329582D01*
X-361200D01*
G01X-371959Y360872D02*
X-371626Y360322D01*
X-371226Y359955D01*
X-370759Y359772D01*
X-370226Y359955D01*
X-369826Y360322D01*
X-369426Y360872D01*
X-369293Y361605D01*
Y365272D01*
G01X-367393Y364355D02*
X-366993Y364905D01*
X-366526Y365180D01*
X-365993Y365272D01*
X-365326Y365089D01*
X-364859Y364630D01*
X-364726Y364080D01*
X-364793Y363530D01*
X-365059Y363072D01*
X-366393Y362155D01*
X-366993Y361514D01*
X-367393Y360597D01*
X-367526Y359772D01*
X-364726D01*
G01X-361626D02*
Y365272D01*
X-362426Y364172D01*
G01Y359772D02*
X-360826D01*
G01X-329226Y23625D02*
X-334726D01*
Y24959D01*
X-334451Y25492D01*
X-334084Y25892D01*
X-333534Y26226D01*
X-332893Y26492D01*
X-331976Y26559D01*
X-331059Y26492D01*
X-330418Y26226D01*
X-329868Y25892D01*
X-329501Y25492D01*
X-329226Y24959D01*
Y23625D01*
G01X-333809Y28325D02*
X-334359Y28725D01*
X-334634Y29192D01*
X-334726Y29726D01*
X-334543Y30392D01*
X-334084Y30859D01*
X-333534Y30992D01*
X-332984Y30926D01*
X-332526Y30659D01*
X-331609Y29325D01*
X-330968Y28725D01*
X-330051Y28325D01*
X-329226Y28192D01*
Y30992D01*
G01X-333809Y32825D02*
X-334359Y33225D01*
X-334634Y33692D01*
X-334726Y34226D01*
X-334543Y34892D01*
X-334084Y35359D01*
X-333534Y35492D01*
X-332984Y35426D01*
X-332526Y35159D01*
X-331609Y33825D01*
X-330968Y33225D01*
X-330051Y32825D01*
X-329226Y32692D01*
Y35492D01*
G01X-294066Y59709D02*
X-299566D01*
Y61375D01*
X-299291Y61909D01*
X-298924Y62242D01*
X-298191Y62376D01*
X-297458Y62242D01*
X-297000Y61842D01*
X-296724Y61375D01*
Y59709D01*
G01Y61375D02*
X-294066Y62376D01*
G01X-298650Y64275D02*
X-299199Y64675D01*
X-299474Y65142D01*
X-299566Y65676D01*
X-299383Y66342D01*
X-298924Y66809D01*
X-298374Y66942D01*
X-297824Y66876D01*
X-297366Y66609D01*
X-296449Y65275D01*
X-295808Y64675D01*
X-294891Y64275D01*
X-294066Y64142D01*
Y66942D01*
G01X-299566Y70042D02*
X-299383Y69509D01*
X-298924Y69109D01*
X-298374Y68842D01*
X-297641Y68642D01*
X-296816Y68575D01*
X-295991Y68642D01*
X-295258Y68842D01*
X-294708Y69109D01*
X-294249Y69509D01*
X-294066Y70042D01*
X-294249Y70575D01*
X-294708Y70975D01*
X-295258Y71242D01*
X-295991Y71442D01*
X-296816Y71509D01*
X-297641Y71442D01*
X-298374Y71242D01*
X-298924Y70975D01*
X-299383Y70575D01*
X-299566Y70042D01*
G01X-317080Y304072D02*
Y309572D01*
X-315413D01*
X-314879Y309297D01*
X-314546Y308930D01*
X-314413Y308197D01*
X-314546Y307464D01*
X-314946Y307005D01*
X-315413Y306730D01*
X-317080D01*
G01X-315413D02*
X-314413Y304072D01*
G01X-312513Y308655D02*
X-312113Y309205D01*
X-311646Y309480D01*
X-311113Y309572D01*
X-310446Y309389D01*
X-309979Y308930D01*
X-309846Y308380D01*
X-309913Y307830D01*
X-310180Y307372D01*
X-311513Y306455D01*
X-312113Y305814D01*
X-312513Y304897D01*
X-312646Y304072D01*
X-309846D01*
G01X-308013Y308655D02*
X-307613Y309205D01*
X-307146Y309480D01*
X-306613Y309572D01*
X-305946Y309389D01*
X-305479Y308930D01*
X-305346Y308380D01*
X-305413Y307830D01*
X-305680Y307372D01*
X-307013Y306455D01*
X-307613Y305814D01*
X-308013Y304897D01*
X-308146Y304072D01*
X-305346D01*
G01X-318830Y324082D02*
Y329582D01*
X-317163D01*
X-316629Y329307D01*
X-316296Y328941D01*
X-316163Y328207D01*
X-316296Y327474D01*
X-316696Y327016D01*
X-317163Y326741D01*
X-318830D01*
G01X-317163D02*
X-316163Y324082D01*
G01X-314263Y328666D02*
X-313863Y329216D01*
X-313396Y329491D01*
X-312863Y329582D01*
X-312196Y329399D01*
X-311729Y328941D01*
X-311596Y328391D01*
X-311663Y327840D01*
X-311930Y327382D01*
X-313263Y326466D01*
X-313863Y325824D01*
X-314263Y324907D01*
X-314396Y324082D01*
X-311596D01*
G01X-309963Y325182D02*
X-309563Y324541D01*
X-309030Y324174D01*
X-308429Y324082D01*
X-307896Y324174D01*
X-307363Y324632D01*
X-307029Y325182D01*
X-306963Y325732D01*
X-307096Y326374D01*
X-307563Y326832D01*
X-308030Y327016D01*
X-308630D01*
G01X-308030D02*
X-307629Y327291D01*
X-307296Y327749D01*
X-307163Y328299D01*
X-307296Y328849D01*
X-307629Y329307D01*
X-308229Y329582D01*
X-308829Y329491D01*
X-309429Y329124D01*
G01X-296232Y356434D02*
Y361934D01*
X-294565D01*
X-294032Y361658D01*
X-293698Y361292D01*
X-293565Y360558D01*
X-293698Y359825D01*
X-294098Y359367D01*
X-294565Y359092D01*
X-296232D01*
G01X-294565D02*
X-293565Y356434D01*
G01X-291732Y361934D02*
Y356434D01*
X-289065D01*
G01X-285898D02*
X-285432Y356525D01*
X-284898Y356800D01*
X-284565Y357258D01*
X-284432Y357900D01*
X-284565Y358542D01*
X-284965Y359092D01*
X-285565Y359367D01*
X-286232D01*
X-286632Y359550D01*
X-286965Y360008D01*
X-287098Y360650D01*
X-286898Y361292D01*
X-286432Y361750D01*
X-285898Y361934D01*
X-285365Y361750D01*
X-284898Y361292D01*
X-284698Y360650D01*
X-284832Y360008D01*
X-285165Y359550D01*
X-285565Y359367D01*
X-286232D01*
X-286832Y359092D01*
X-287232Y358542D01*
X-287365Y357900D01*
X-287232Y357258D01*
X-286898Y356800D01*
X-286365Y356525D01*
X-285898Y356434D01*
G01X-257989Y97722D02*
Y103222D01*
X-256323D01*
X-255789Y102947D01*
X-255456Y102580D01*
X-255322Y101847D01*
X-255456Y101114D01*
X-255856Y100655D01*
X-256323Y100380D01*
X-257989D01*
G01X-256323D02*
X-255322Y97722D01*
G01X-252156D02*
Y103222D01*
X-252956Y102122D01*
G01Y97722D02*
X-251356D01*
G01X-248789Y98364D02*
X-248323Y97905D01*
X-247789Y97722D01*
X-247256Y97905D01*
X-246789Y98455D01*
X-246456Y99280D01*
X-246322Y100105D01*
Y101114D01*
X-246456Y101939D01*
X-246789Y102672D01*
X-247189Y103039D01*
X-247656Y103222D01*
X-248189Y103039D01*
X-248589Y102672D01*
X-248856Y102122D01*
X-248989Y101389D01*
X-248856Y100747D01*
X-248523Y100105D01*
X-248122Y99739D01*
X-247656Y99647D01*
X-247123Y99830D01*
X-246723Y100289D01*
X-246322Y101114D01*
G01X-256763Y116652D02*
Y122152D01*
X-255430D01*
X-254896Y121877D01*
X-254496Y121511D01*
X-254163Y120961D01*
X-253896Y120319D01*
X-253829Y119402D01*
X-253896Y118486D01*
X-254163Y117844D01*
X-254496Y117294D01*
X-254896Y116927D01*
X-255430Y116652D01*
X-256763D01*
G01X-252063Y121236D02*
X-251663Y121786D01*
X-251196Y122061D01*
X-250663Y122152D01*
X-249996Y121969D01*
X-249529Y121511D01*
X-249396Y120961D01*
X-249463Y120411D01*
X-249730Y119952D01*
X-251063Y119036D01*
X-251663Y118394D01*
X-252063Y117477D01*
X-252196Y116652D01*
X-249396D01*
G01X-246296D02*
Y122152D01*
X-247096Y121053D01*
G01Y116652D02*
X-245496D01*
G01X-257873Y249700D02*
Y245758D01*
X-257607Y244933D01*
X-257073Y244383D01*
X-256407Y244200D01*
X-255740Y244383D01*
X-255207Y244933D01*
X-254940Y245758D01*
Y249700D01*
G01X-253173Y248783D02*
X-252773Y249333D01*
X-252307Y249608D01*
X-251773Y249700D01*
X-251107Y249517D01*
X-250640Y249058D01*
X-250507Y248508D01*
X-250573Y247958D01*
X-250840Y247500D01*
X-252173Y246583D01*
X-252773Y245942D01*
X-253173Y245025D01*
X-253307Y244200D01*
X-250507D01*
G01X-253639Y264022D02*
Y258522D01*
X-254972D01*
X-255506Y258797D01*
X-255906Y259164D01*
X-256239Y259714D01*
X-256506Y260355D01*
X-256573Y261272D01*
X-256506Y262189D01*
X-256239Y262830D01*
X-255906Y263380D01*
X-255506Y263747D01*
X-254972Y264022D01*
X-253639D01*
G01X-258339Y259439D02*
X-258739Y258889D01*
X-259206Y258614D01*
X-259739Y258522D01*
X-260406Y258705D01*
X-260873Y259164D01*
X-261006Y259714D01*
X-260939Y260264D01*
X-260672Y260722D01*
X-259339Y261639D01*
X-258739Y262280D01*
X-258339Y263197D01*
X-258206Y264022D01*
X-261006D01*
G01X-262639Y262922D02*
X-263039Y263564D01*
X-263572Y263930D01*
X-264173Y264022D01*
X-264706Y263930D01*
X-265239Y263472D01*
X-265573Y262922D01*
X-265639Y262372D01*
X-265506Y261730D01*
X-265039Y261272D01*
X-264572Y261089D01*
X-263972D01*
G01X-264572D02*
X-264973Y260814D01*
X-265306Y260355D01*
X-265439Y259805D01*
X-265306Y259255D01*
X-264973Y258797D01*
X-264373Y258522D01*
X-263773Y258614D01*
X-263173Y258980D01*
G01X-239459Y362092D02*
X-239126Y361542D01*
X-238726Y361175D01*
X-238259Y360992D01*
X-237726Y361175D01*
X-237326Y361542D01*
X-236926Y362092D01*
X-236793Y362825D01*
Y366492D01*
G01X-234759Y361634D02*
X-234293Y361175D01*
X-233759Y360992D01*
X-233226Y361175D01*
X-232759Y361725D01*
X-232426Y362550D01*
X-232293Y363375D01*
Y364384D01*
X-232426Y365209D01*
X-232759Y365942D01*
X-233159Y366309D01*
X-233626Y366492D01*
X-234159Y366309D01*
X-234559Y365942D01*
X-234826Y365392D01*
X-234959Y364659D01*
X-234826Y364017D01*
X-234493Y363375D01*
X-234093Y363009D01*
X-233626Y362917D01*
X-233093Y363100D01*
X-232693Y363559D01*
X-232293Y364384D01*
G01X-207663Y-13778D02*
X-207996Y-13228D01*
X-208396Y-12861D01*
X-208863Y-12678D01*
X-209396Y-12861D01*
X-209796Y-13228D01*
X-210196Y-13778D01*
X-210330Y-14511D01*
Y-18178D01*
G01X-213496Y-12678D02*
Y-18178D01*
X-212696Y-17078D01*
G01Y-12678D02*
X-214296D01*
G01X-218796D02*
Y-18178D01*
X-216329Y-14236D01*
X-219663D01*
G01X-167372Y78252D02*
Y72752D01*
X-169039D01*
X-169573Y73028D01*
X-169906Y73394D01*
X-170039Y74127D01*
X-169906Y74861D01*
X-169506Y75319D01*
X-169039Y75594D01*
X-167372D01*
G01X-169039D02*
X-170039Y78252D01*
G01X-171872Y72752D02*
Y78252D01*
X-174539D01*
G01X-177706D02*
Y72752D01*
X-176906Y73852D01*
G01Y78252D02*
X-178506D01*
G01X-180739Y77152D02*
X-181139Y77794D01*
X-181672Y78161D01*
X-182273Y78252D01*
X-182806Y78161D01*
X-183339Y77702D01*
X-183673Y77152D01*
X-183739Y76602D01*
X-183606Y75961D01*
X-183139Y75502D01*
X-182672Y75319D01*
X-182072D01*
G01X-182672D02*
X-183073Y75044D01*
X-183406Y74586D01*
X-183539Y74036D01*
X-183406Y73486D01*
X-183073Y73028D01*
X-182473Y72752D01*
X-181873Y72844D01*
X-181273Y73211D01*
G01X-213203Y251182D02*
Y245682D01*
X-214870D01*
X-215403Y245957D01*
X-215736Y246324D01*
X-215870Y247057D01*
X-215736Y247791D01*
X-215336Y248249D01*
X-214870Y248524D01*
X-213203D01*
G01X-214870D02*
X-215870Y251182D01*
G01X-219036D02*
Y245682D01*
X-218236Y246782D01*
G01Y251182D02*
X-219836D01*
G01X-223536D02*
Y245682D01*
X-222736Y246782D01*
G01Y251182D02*
X-224336D01*
G01X-193863Y277272D02*
Y271772D01*
X-195529D01*
X-196063Y272047D01*
X-196396Y272414D01*
X-196530Y273147D01*
X-196396Y273880D01*
X-195996Y274339D01*
X-195529Y274614D01*
X-193863D01*
G01X-195529D02*
X-196530Y277272D01*
G01X-199696D02*
Y271772D01*
X-198896Y272872D01*
G01Y277272D02*
X-200496D01*
G01X-202929Y272689D02*
X-203329Y272139D01*
X-203796Y271864D01*
X-204330Y271772D01*
X-204996Y271955D01*
X-205463Y272414D01*
X-205596Y272964D01*
X-205530Y273514D01*
X-205263Y273972D01*
X-203929Y274889D01*
X-203329Y275530D01*
X-202929Y276447D01*
X-202796Y277272D01*
X-205596D01*
G01X-198200Y356434D02*
Y361934D01*
X-196534D01*
X-196000Y361658D01*
X-195667Y361292D01*
X-195534Y360558D01*
X-195667Y359825D01*
X-196067Y359367D01*
X-196534Y359092D01*
X-198200D01*
G01X-196534D02*
X-195534Y356434D01*
G01X-193700Y361934D02*
Y356434D01*
X-191034D01*
G01X-189000Y357075D02*
X-188534Y356617D01*
X-188000Y356434D01*
X-187467Y356617D01*
X-187000Y357167D01*
X-186667Y357992D01*
X-186534Y358817D01*
Y359825D01*
X-186667Y360650D01*
X-187000Y361383D01*
X-187400Y361750D01*
X-187867Y361934D01*
X-188400Y361750D01*
X-188800Y361383D01*
X-189067Y360834D01*
X-189200Y360100D01*
X-189067Y359458D01*
X-188734Y358817D01*
X-188334Y358450D01*
X-187867Y358358D01*
X-187334Y358542D01*
X-186934Y359000D01*
X-186534Y359825D01*
G01X-119386Y27259D02*
X-124886D01*
Y28925D01*
X-124611Y29459D01*
X-124244Y29792D01*
X-123511Y29926D01*
X-122778Y29792D01*
X-122320Y29392D01*
X-122044Y28925D01*
Y27259D01*
G01Y28925D02*
X-119386Y29926D01*
G01Y33092D02*
X-124886D01*
X-123786Y32292D01*
G01X-119386D02*
Y33892D01*
G01Y37592D02*
X-119478Y38059D01*
X-119753Y38592D01*
X-120211Y38926D01*
X-120853Y39059D01*
X-121494Y38926D01*
X-122044Y38525D01*
X-122320Y37925D01*
Y37259D01*
X-122503Y36859D01*
X-122961Y36525D01*
X-123603Y36392D01*
X-124244Y36592D01*
X-124703Y37059D01*
X-124886Y37592D01*
X-124703Y38125D01*
X-124244Y38592D01*
X-123603Y38792D01*
X-122961Y38659D01*
X-122503Y38326D01*
X-122320Y37925D01*
Y37259D01*
X-122044Y36659D01*
X-121494Y36259D01*
X-120853Y36125D01*
X-120211Y36259D01*
X-119753Y36592D01*
X-119478Y37126D01*
X-119386Y37592D01*
G01X-134256Y77436D02*
X-139756D01*
Y78769D01*
X-139481Y79302D01*
X-139114Y79702D01*
X-138564Y80036D01*
X-137922Y80302D01*
X-137006Y80369D01*
X-136089Y80302D01*
X-135448Y80036D01*
X-134897Y79702D01*
X-134531Y79302D01*
X-134256Y78769D01*
Y77436D01*
G01X-138839Y82136D02*
X-139389Y82536D01*
X-139664Y83002D01*
X-139756Y83536D01*
X-139573Y84202D01*
X-139114Y84669D01*
X-138564Y84802D01*
X-138014Y84736D01*
X-137556Y84469D01*
X-136639Y83136D01*
X-135998Y82536D01*
X-135081Y82136D01*
X-134256Y82002D01*
Y84802D01*
G01X-139756Y87902D02*
X-139573Y87369D01*
X-139114Y86969D01*
X-138564Y86702D01*
X-137831Y86502D01*
X-137006Y86436D01*
X-136181Y86502D01*
X-135448Y86702D01*
X-134897Y86969D01*
X-134439Y87369D01*
X-134256Y87902D01*
X-134439Y88436D01*
X-134897Y88836D01*
X-135448Y89102D01*
X-136181Y89302D01*
X-137006Y89369D01*
X-137831Y89302D01*
X-138564Y89102D01*
X-139114Y88836D01*
X-139573Y88436D01*
X-139756Y87902D01*
G01X-118036Y101619D02*
X-123536D01*
Y103286D01*
X-123261Y103819D01*
X-122894Y104152D01*
X-122161Y104286D01*
X-121428Y104152D01*
X-120970Y103752D01*
X-120694Y103286D01*
Y101619D01*
G01Y103286D02*
X-118036Y104286D01*
G01Y107452D02*
X-123536D01*
X-122436Y106652D01*
G01X-118036D02*
Y108252D01*
G01Y111819D02*
X-119228Y111952D01*
X-120236Y112152D01*
X-121153Y112419D01*
X-122161Y112752D01*
X-123536Y113286D01*
Y110619D01*
G01X-134256Y115836D02*
X-139756D01*
Y117169D01*
X-139481Y117702D01*
X-139114Y118102D01*
X-138564Y118436D01*
X-137922Y118702D01*
X-137006Y118769D01*
X-136089Y118702D01*
X-135448Y118436D01*
X-134897Y118102D01*
X-134531Y117702D01*
X-134256Y117169D01*
Y115836D01*
G01Y121802D02*
X-139756D01*
X-138656Y121002D01*
G01X-134256D02*
Y122602D01*
G01X-134897Y125169D02*
X-134439Y125636D01*
X-134256Y126169D01*
X-134439Y126702D01*
X-134989Y127169D01*
X-135814Y127502D01*
X-136639Y127636D01*
X-137648D01*
X-138472Y127502D01*
X-139206Y127169D01*
X-139573Y126769D01*
X-139756Y126302D01*
X-139573Y125769D01*
X-139206Y125369D01*
X-138656Y125102D01*
X-137922Y124969D01*
X-137281Y125102D01*
X-136639Y125436D01*
X-136272Y125836D01*
X-136181Y126302D01*
X-136364Y126836D01*
X-136822Y127236D01*
X-137648Y127636D01*
G01X-157363Y248272D02*
Y242772D01*
X-159029D01*
X-159563Y243047D01*
X-159896Y243414D01*
X-160030Y244147D01*
X-159896Y244880D01*
X-159496Y245339D01*
X-159029Y245614D01*
X-157363D01*
G01X-159029D02*
X-160030Y248272D01*
G01X-163196D02*
Y242772D01*
X-162396Y243872D01*
G01Y248272D02*
X-163996D01*
G01X-168496D02*
Y242772D01*
X-166029Y246714D01*
X-169363D01*
G01X-102463Y264292D02*
Y258792D01*
X-104129D01*
X-104663Y259067D01*
X-104996Y259434D01*
X-105130Y260167D01*
X-104996Y260901D01*
X-104596Y261359D01*
X-104129Y261634D01*
X-102463D01*
G01X-104129D02*
X-105130Y264292D01*
G01X-108296D02*
Y258792D01*
X-107496Y259892D01*
G01Y264292D02*
X-109096D01*
G01X-111529Y262001D02*
X-111996Y261359D01*
X-112396Y260992D01*
X-112930Y260809D01*
X-113396Y260992D01*
X-113729Y261359D01*
X-113996Y261909D01*
X-114063Y262550D01*
X-113996Y263100D01*
X-113729Y263651D01*
X-113329Y264109D01*
X-112863Y264292D01*
X-112330Y264109D01*
X-111863Y263559D01*
X-111596Y262734D01*
X-111529Y261817D01*
X-111663Y260626D01*
X-111863Y259984D01*
X-112196Y259342D01*
X-112663Y258884D01*
X-113129Y258792D01*
X-113596Y258975D01*
X-113930Y259434D01*
G01X-137499Y262472D02*
Y256972D01*
X-138833D01*
X-139366Y257247D01*
X-139766Y257614D01*
X-140100Y258164D01*
X-140366Y258805D01*
X-140433Y259722D01*
X-140366Y260639D01*
X-140100Y261280D01*
X-139766Y261830D01*
X-139366Y262197D01*
X-138833Y262472D01*
X-137499D01*
G01X-143466D02*
Y256972D01*
X-142666Y258072D01*
G01Y262472D02*
X-144266D01*
G01X-147833D02*
X-147966Y261280D01*
X-148166Y260272D01*
X-148433Y259355D01*
X-148766Y258347D01*
X-149299Y256972D01*
X-146633D01*
G01X-131403Y277812D02*
Y272312D01*
X-133070D01*
X-133603Y272587D01*
X-133936Y272954D01*
X-134070Y273687D01*
X-133936Y274421D01*
X-133536Y274879D01*
X-133070Y275154D01*
X-131403D01*
G01X-133070D02*
X-134070Y277812D01*
G01X-137236D02*
Y272312D01*
X-136436Y273412D01*
G01Y277812D02*
X-138036D01*
G01X-140270Y276712D02*
X-140670Y277354D01*
X-141203Y277721D01*
X-141803Y277812D01*
X-142336Y277721D01*
X-142870Y277262D01*
X-143203Y276712D01*
X-143270Y276162D01*
X-143136Y275521D01*
X-142670Y275062D01*
X-142203Y274879D01*
X-141603D01*
G01X-142203D02*
X-142603Y274604D01*
X-142936Y274146D01*
X-143070Y273596D01*
X-142936Y273046D01*
X-142603Y272587D01*
X-142003Y272312D01*
X-141403Y272404D01*
X-140803Y272771D01*
G01X-101129Y277272D02*
Y271772D01*
X-102463D01*
X-102996Y272047D01*
X-103396Y272414D01*
X-103730Y272964D01*
X-103996Y273605D01*
X-104063Y274522D01*
X-103996Y275439D01*
X-103730Y276080D01*
X-103396Y276630D01*
X-102996Y276997D01*
X-102463Y277272D01*
X-101129D01*
G01X-107096D02*
Y271772D01*
X-106296Y272872D01*
G01Y277272D02*
X-107896D01*
G01X-111596D02*
X-112063Y277180D01*
X-112596Y276905D01*
X-112930Y276447D01*
X-113063Y275805D01*
X-112930Y275164D01*
X-112529Y274614D01*
X-111929Y274339D01*
X-111263D01*
X-110863Y274155D01*
X-110529Y273697D01*
X-110396Y273055D01*
X-110596Y272414D01*
X-111063Y271955D01*
X-111596Y271772D01*
X-112129Y271955D01*
X-112596Y272414D01*
X-112796Y273055D01*
X-112663Y273697D01*
X-112330Y274155D01*
X-111929Y274339D01*
X-111263D01*
X-110663Y274614D01*
X-110263Y275164D01*
X-110129Y275805D01*
X-110263Y276447D01*
X-110596Y276905D01*
X-111130Y277180D01*
X-111596Y277272D01*
G01X-139809Y364252D02*
X-139476Y363702D01*
X-139076Y363336D01*
X-138609Y363152D01*
X-138076Y363336D01*
X-137676Y363702D01*
X-137276Y364252D01*
X-137143Y364986D01*
Y368652D01*
G01X-133976Y363152D02*
Y368652D01*
X-134776Y367553D01*
G01Y363152D02*
X-133176D01*
G01X-129476Y368652D02*
X-130009Y368469D01*
X-130409Y368011D01*
X-130676Y367461D01*
X-130876Y366727D01*
X-130943Y365902D01*
X-130876Y365077D01*
X-130676Y364344D01*
X-130409Y363794D01*
X-130009Y363336D01*
X-129476Y363152D01*
X-128943Y363336D01*
X-128543Y363794D01*
X-128276Y364344D01*
X-128076Y365077D01*
X-128009Y365902D01*
X-128076Y366727D01*
X-128276Y367461D01*
X-128543Y368011D01*
X-128943Y368469D01*
X-129476Y368652D01*
G01X-73289Y4702D02*
Y10202D01*
X-71623D01*
X-71089Y9927D01*
X-70756Y9561D01*
X-70622Y8827D01*
X-70756Y8094D01*
X-71156Y7636D01*
X-71623Y7361D01*
X-73289D01*
G01X-71623D02*
X-70622Y4702D01*
G01X-68789Y10202D02*
Y4702D01*
X-66122D01*
G01X-62956D02*
Y10202D01*
X-63756Y9102D01*
G01Y4702D02*
X-62156D01*
G01X-59723Y9286D02*
X-59323Y9836D01*
X-58856Y10111D01*
X-58322Y10202D01*
X-57656Y10019D01*
X-57189Y9561D01*
X-57056Y9011D01*
X-57122Y8461D01*
X-57389Y8002D01*
X-58723Y7086D01*
X-59323Y6444D01*
X-59723Y5527D01*
X-59856Y4702D01*
X-57056D01*
G01X-102925Y168638D02*
Y174138D01*
X-101258D01*
X-100725Y173863D01*
X-100391Y173496D01*
X-100258Y172763D01*
X-100391Y172030D01*
X-100791Y171572D01*
X-101258Y171296D01*
X-102925D01*
G01X-101258D02*
X-100258Y168638D01*
G01X-98425Y174138D02*
Y168638D01*
X-95758D01*
G01X-92591D02*
Y174138D01*
X-93391Y173038D01*
G01Y168638D02*
X-91791D01*
G01X-88091D02*
Y174138D01*
X-88891Y173038D01*
G01Y168638D02*
X-87291D01*
G01X-76526Y220329D02*
X-82026D01*
Y221996D01*
X-81751Y222529D01*
X-81384Y222862D01*
X-80651Y222996D01*
X-79918Y222862D01*
X-79459Y222462D01*
X-79184Y221996D01*
Y220329D01*
G01Y221996D02*
X-76526Y222996D01*
G01X-81109Y224896D02*
X-81659Y225296D01*
X-81934Y225762D01*
X-82026Y226296D01*
X-81843Y226962D01*
X-81384Y227429D01*
X-80834Y227562D01*
X-80284Y227496D01*
X-79826Y227229D01*
X-78909Y225895D01*
X-78268Y225296D01*
X-77351Y224896D01*
X-76526Y224762D01*
Y227562D01*
G01Y231462D02*
X-82026D01*
X-78084Y228996D01*
Y232329D01*
G01X-64773Y231662D02*
Y227720D01*
X-64506Y226895D01*
X-63973Y226346D01*
X-63306Y226162D01*
X-62639Y226346D01*
X-62106Y226895D01*
X-61839Y227720D01*
Y231662D01*
G01X-60273Y227262D02*
X-59873Y226620D01*
X-59339Y226254D01*
X-58739Y226162D01*
X-58206Y226254D01*
X-57673Y226712D01*
X-57339Y227262D01*
X-57273Y227812D01*
X-57406Y228454D01*
X-57873Y228912D01*
X-58339Y229096D01*
X-58939D01*
G01X-58339D02*
X-57939Y229370D01*
X-57606Y229829D01*
X-57473Y230379D01*
X-57606Y230929D01*
X-57939Y231387D01*
X-58539Y231662D01*
X-59139Y231571D01*
X-59739Y231204D01*
G01X-81680Y358552D02*
Y364052D01*
X-80013D01*
X-79479Y363777D01*
X-79146Y363411D01*
X-79013Y362677D01*
X-79146Y361944D01*
X-79546Y361486D01*
X-80013Y361211D01*
X-81680D01*
G01X-80013D02*
X-79013Y358552D01*
G01X-77180Y364052D02*
Y358552D01*
X-74513D01*
G01X-71346D02*
Y364052D01*
X-72146Y362952D01*
G01Y358552D02*
X-70546D01*
G01X-66846Y364052D02*
X-67379Y363869D01*
X-67779Y363411D01*
X-68046Y362861D01*
X-68246Y362127D01*
X-68313Y361302D01*
X-68246Y360477D01*
X-68046Y359744D01*
X-67779Y359194D01*
X-67379Y358736D01*
X-66846Y358552D01*
X-66313Y358736D01*
X-65913Y359194D01*
X-65646Y359744D01*
X-65446Y360477D01*
X-65379Y361302D01*
X-65446Y362127D01*
X-65646Y362861D01*
X-65913Y363411D01*
X-66313Y363869D01*
X-66846Y364052D01*
G01X-2656Y24829D02*
X-2106Y25162D01*
X-1739Y25562D01*
X-1556Y26029D01*
X-1739Y26562D01*
X-2106Y26962D01*
X-2656Y27362D01*
X-3389Y27496D01*
X-7056D01*
G01X-1556Y30662D02*
X-7056D01*
X-5956Y29862D01*
G01X-1556D02*
Y31462D01*
G01X-2656Y33696D02*
X-2014Y34096D01*
X-1648Y34629D01*
X-1556Y35229D01*
X-1648Y35762D01*
X-2106Y36296D01*
X-2656Y36629D01*
X-3206Y36696D01*
X-3847Y36562D01*
X-4306Y36096D01*
X-4489Y35629D01*
Y35029D01*
G01Y35629D02*
X-4764Y36029D01*
X-5222Y36362D01*
X-5773Y36496D01*
X-6323Y36362D01*
X-6781Y36029D01*
X-7056Y35429D01*
X-6964Y34829D01*
X-6597Y34229D01*
G01X-2926Y102299D02*
X-2376Y102632D01*
X-2009Y103032D01*
X-1826Y103499D01*
X-2009Y104032D01*
X-2376Y104432D01*
X-2926Y104832D01*
X-3659Y104966D01*
X-7326D01*
G01X-1826Y108132D02*
X-7326D01*
X-6226Y107332D01*
G01X-1826D02*
Y108932D01*
G01X-6409Y111366D02*
X-6959Y111766D01*
X-7234Y112232D01*
X-7326Y112766D01*
X-7143Y113432D01*
X-6684Y113899D01*
X-6134Y114032D01*
X-5584Y113966D01*
X-5126Y113699D01*
X-4209Y112366D01*
X-3568Y111766D01*
X-2651Y111366D01*
X-1826Y111232D01*
Y114032D01*
G01X-15636Y174229D02*
X-15086Y174562D01*
X-14720Y174962D01*
X-14536Y175429D01*
X-14720Y175962D01*
X-15086Y176362D01*
X-15636Y176762D01*
X-16370Y176896D01*
X-20036D01*
G01X-19120Y178796D02*
X-19669Y179196D01*
X-19945Y179662D01*
X-20036Y180196D01*
X-19853Y180862D01*
X-19394Y181329D01*
X-18845Y181462D01*
X-18294Y181396D01*
X-17836Y181129D01*
X-16920Y179796D01*
X-16278Y179196D01*
X-15361Y178796D01*
X-14536Y178662D01*
Y181462D01*
G01X-20036Y184562D02*
X-19853Y184029D01*
X-19394Y183629D01*
X-18845Y183362D01*
X-18111Y183162D01*
X-17286Y183096D01*
X-16461Y183162D01*
X-15728Y183362D01*
X-15178Y183629D01*
X-14720Y184029D01*
X-14536Y184562D01*
X-14720Y185096D01*
X-15178Y185496D01*
X-15728Y185762D01*
X-16461Y185962D01*
X-17286Y186029D01*
X-18111Y185962D01*
X-18845Y185762D01*
X-19394Y185496D01*
X-19853Y185096D01*
X-20036Y184562D01*
G01X-18306Y242126D02*
X-18856Y241792D01*
X-19223Y241392D01*
X-19406Y240926D01*
X-19223Y240392D01*
X-18856Y239992D01*
X-18306Y239592D01*
X-17573Y239459D01*
X-13906D01*
G01X-19406Y236292D02*
X-13906D01*
X-15006Y237092D01*
G01X-19406D02*
Y235492D01*
G01X-18764Y232926D02*
X-19223Y232459D01*
X-19406Y231926D01*
X-19223Y231392D01*
X-18673Y230925D01*
X-17848Y230592D01*
X-17023Y230459D01*
X-16014D01*
X-15189Y230592D01*
X-14456Y230925D01*
X-14089Y231326D01*
X-13906Y231792D01*
X-14089Y232326D01*
X-14456Y232725D01*
X-15006Y232992D01*
X-15739Y233126D01*
X-16381Y232992D01*
X-17023Y232659D01*
X-17389Y232259D01*
X-17481Y231792D01*
X-17298Y231259D01*
X-16839Y230859D01*
X-16014Y230459D01*
G01X-12382Y268932D02*
X-17882D01*
Y270599D01*
X-17607Y271132D01*
X-17241Y271466D01*
X-16507Y271599D01*
X-15774Y271466D01*
X-15316Y271066D01*
X-15041Y270599D01*
Y268932D01*
G01Y270599D02*
X-12382Y271599D01*
G01X-16966Y273499D02*
X-17516Y273899D01*
X-17791Y274366D01*
X-17882Y274899D01*
X-17699Y275566D01*
X-17241Y276032D01*
X-16691Y276166D01*
X-16140Y276099D01*
X-15682Y275832D01*
X-14766Y274499D01*
X-14124Y273899D01*
X-13207Y273499D01*
X-12382Y273366D01*
Y276166D01*
G01X-13207Y277799D02*
X-12749Y278199D01*
X-12474Y278666D01*
X-12382Y279266D01*
X-12566Y279866D01*
X-12932Y280332D01*
X-13574Y280666D01*
X-14307Y280732D01*
X-15041Y280599D01*
X-15499Y280266D01*
X-15866Y279799D01*
X-15957Y279332D01*
X-15866Y278866D01*
X-15499Y278266D01*
X-17882Y278466D01*
Y280266D01*
G01X4684Y303516D02*
X4134Y303182D01*
X3767Y302782D01*
X3584Y302316D01*
X3767Y301782D01*
X4134Y301382D01*
X4684Y300982D01*
X5417Y300849D01*
X9084D01*
G01X3584Y297682D02*
X9084D01*
X7984Y298482D01*
G01X3584D02*
Y296882D01*
G01Y293182D02*
X3676Y292716D01*
X3951Y292182D01*
X4409Y291849D01*
X5051Y291716D01*
X5692Y291849D01*
X6242Y292249D01*
X6517Y292849D01*
Y293516D01*
X6701Y293916D01*
X7159Y294249D01*
X7800Y294382D01*
X8442Y294182D01*
X8901Y293716D01*
X9084Y293182D01*
X8901Y292649D01*
X8442Y292182D01*
X7800Y291982D01*
X7159Y292116D01*
X6701Y292449D01*
X6517Y292849D01*
Y293516D01*
X6242Y294116D01*
X5692Y294516D01*
X5051Y294649D01*
X4409Y294516D01*
X3951Y294182D01*
X3676Y293649D01*
X3584Y293182D01*
G01X-24053Y277272D02*
Y271772D01*
X-25720D01*
X-26253Y272047D01*
X-26586Y272414D01*
X-26720Y273147D01*
X-26586Y273880D01*
X-26186Y274339D01*
X-25720Y274614D01*
X-24053D01*
G01X-25720D02*
X-26720Y277272D01*
G01X-29886D02*
Y271772D01*
X-29086Y272872D01*
G01Y277272D02*
X-30686D01*
G01X-32920Y276447D02*
X-33320Y276905D01*
X-33786Y277180D01*
X-34386Y277272D01*
X-34986Y277089D01*
X-35453Y276722D01*
X-35786Y276080D01*
X-35853Y275347D01*
X-35720Y274614D01*
X-35386Y274155D01*
X-34920Y273789D01*
X-34453Y273697D01*
X-33986Y273789D01*
X-33386Y274155D01*
X-33586Y271772D01*
X-35386D01*
G01X-10454Y345332D02*
X-11004Y344999D01*
X-11371Y344599D01*
X-11554Y344132D01*
X-11371Y343599D01*
X-11004Y343199D01*
X-10454Y342799D01*
X-9721Y342665D01*
X-6054D01*
G01X-11554Y339499D02*
X-6054D01*
X-7154Y340299D01*
G01X-11554D02*
Y338699D01*
G01Y334999D02*
X-6054D01*
X-7154Y335799D01*
G01X-11554D02*
Y334199D01*
G54D14*
G01X-619615Y26266D02*
G03I-394J0D01*
G01X-623946Y107763D02*
G03I-394J0D01*
G01X-622765Y167998D02*
G03I-394J0D01*
G01X-624733Y253825D02*
G03I-394J0D01*
G01X-625520Y224298D02*
G03I-394J0D01*
G01X-558985Y256188D02*
G03I-394J0D01*
G01X-467647Y30203D02*
G03I-394J0D01*
G01X-460954Y259731D02*
G03I-394J0D01*
G01X-401229Y324022D02*
G03I-394J0D01*
G01X-328692Y68080D02*
G03I-394J0D01*
G01X-340206Y324022D02*
G03I-394J0D01*
G01X-350202Y379550D02*
G03I-394J0D01*
G01X-240641Y116512D02*
G03I-393J0D01*
G01X-218674Y263922D02*
G03I-394J0D01*
G01X-134182Y41227D02*
G03I-394J0D01*
G01X-133788Y129022D02*
G03I-394J0D01*
G01X-154564Y262532D02*
G03I-394J0D01*
G01X-57410Y277054D02*
G03I-394J0D01*
G01X-4135Y173707D02*
G03I-394J0D01*
G54D15*
G01X-58261Y255920D02*
X-50261D01*
M02*
