G04 ================== begin FILE IDENTIFICATION RECORD ==================*
G04 Layout Name:  D:/Sankar/Personal/Final_Design_file/relay/Relay.brd*
G04 Film Name:    SOLDER_TOP*
G04 File Format:  Gerber RS274X*
G04 File Origin:  Cadence Allegro 16.6-P004*
G04 Origin Date:  Thu Jun 03 17:51:02 2021*
G04 *
G04 Layer:  VIA CLASS/SOLDERMASK_TOP*
G04 Layer:  PIN/SOLDERMASK_TOP*
G04 Layer:  PACKAGE GEOMETRY/SOLDERMASK_TOP*
G04 Layer:  DRAWING FORMAT/TITLE_BLOCK*
G04 Layer:  BOARD GEOMETRY/OUTLINE*
G04 Layer:  BOARD GEOMETRY/SOLDERMASK_BOTTOM*
G04 *
G04 Offset:    (0.000 0.000)*
G04 Mirror:    No*
G04 Mode:      Positive*
G04 Rotation:  0*
G04 FullContactRelief:  No*
G04 UndefLineWidth:     0.000*
G04 ================== end FILE IDENTIFICATION RECORD ====================*
%FSLAX25Y25*MOIN*%
%IR0*IPPOS*OFA0.00000B0.00000*MIA0B0*SFA1.00000B1.00000*%
%ADD16R,.062992X.070866*%
%ADD13C,.14*%
%ADD14R,.107087X.042913*%
%ADD17R,.042913X.107087*%
%ADD20R,.081X.024*%
%ADD11P,.070313X8X22.5*%
%ADD19C,.055*%
%ADD28C,.075*%
%ADD22R,.055X.055*%
%ADD15R,.061024X.091732*%
%ADD26C,.055039*%
%ADD18R,.091732X.061024*%
%ADD24R,.03937X.043307*%
%ADD21R,.043307X.03937*%
%ADD10C,.064961*%
%ADD27R,.055039X.055039*%
%ADD12C,.076772*%
%ADD23R,.064961X.064961*%
%ADD25R,.068898X.023622*%
%ADD29C,.001*%
G75*
%LPD*%
G75*
G54D10*
X-769176Y15842D03*
X-768434Y87920D03*
X-766946Y157162D03*
X-768936Y229012D03*
X-767016Y308192D03*
X-594776Y367562D03*
X-547436Y-14818D03*
X-488026Y367692D03*
X-393076Y-14948D03*
X-320596Y364392D03*
X-330596D03*
X-340596D03*
X-238186Y-14448D03*
X-251186Y367012D03*
X-152922Y365243D03*
X5444Y60092D03*
X5984Y139292D03*
X5976Y243825D03*
X7157Y327998D03*
G54D11*
X-769176Y25842D03*
X-768434Y97920D03*
X-766946Y167162D03*
X-768936Y239012D03*
X-767016Y318192D03*
X-537436Y-14818D03*
X-584776Y367562D03*
X-478026Y367692D03*
X-383076Y-14948D03*
X-261186Y367012D03*
X-228186Y-14448D03*
X-162922Y365243D03*
X5444Y50092D03*
X5984Y129292D03*
X5976Y253825D03*
X7157Y317998D03*
G54D20*
X-468040Y129416D03*
X-449140D03*
Y124416D03*
Y119416D03*
Y114416D03*
Y109416D03*
Y104416D03*
Y99416D03*
X-468040Y94416D03*
Y99416D03*
Y104416D03*
Y109416D03*
Y114416D03*
Y119416D03*
Y124416D03*
X-449140Y94416D03*
X-244814Y203038D03*
Y208038D03*
Y213038D03*
Y218038D03*
Y223038D03*
Y228038D03*
Y233038D03*
Y238038D03*
X-225914Y203038D03*
Y208038D03*
Y238038D03*
Y233038D03*
Y228038D03*
Y223038D03*
Y218038D03*
Y213038D03*
G54D12*
X-731032Y2250D03*
Y74298D03*
Y143983D03*
X-733001Y215242D03*
X-726308Y295164D03*
X-683001Y2250D03*
X-675127Y25873D03*
X-683001Y74298D03*
Y49494D03*
Y143983D03*
X-675127Y97920D03*
X-683001Y121542D03*
X-675127Y167605D03*
X-683001Y191227D03*
X-684969Y215242D03*
X-677095Y238865D03*
X-684969Y262487D03*
X-678276Y295164D03*
X-670402Y318786D03*
X-678276Y342408D03*
X-620009Y295951D03*
X-570337Y30148D03*
X-571977Y295951D03*
X-564103Y319573D03*
X-571977Y343195D03*
X-522306Y30148D03*
X-514432Y53770D03*
X-522306Y77392D03*
X-514103Y296345D03*
X-414497Y30597D03*
X-466072Y296345D03*
X-458198Y319967D03*
X-466072Y343589D03*
X-366465Y30597D03*
X-358591Y54219D03*
X-366465Y77841D03*
X-256628Y31138D03*
X-288119Y317211D03*
X-280245Y293589D03*
X-232213Y340833D03*
X-280245D03*
X-208596Y31138D03*
X-200722Y54760D03*
X-208596Y78382D03*
X-190087Y317211D03*
X-182213Y293589D03*
Y340833D03*
X-134182D03*
X-86544Y26660D03*
Y73904D03*
X-94418Y50282D03*
X-94812Y129416D03*
X-86938Y105794D03*
Y153038D03*
X-90481Y317998D03*
X-82607Y294376D03*
Y341620D03*
X-38513Y73904D03*
X-38906Y153038D03*
X-34576Y341620D03*
G54D21*
X-438313Y153992D03*
X-431620D03*
X-325140Y304012D03*
X-331833D03*
X-324000Y324072D03*
X-330693D03*
G54D22*
X-410166Y324022D03*
X-349143D03*
G54D13*
X-755856Y353371D03*
X-499950Y-960D03*
X50D03*
Y353371D03*
G54D23*
X-350596Y364392D03*
G54D14*
X-635546Y18938D03*
Y30867D03*
X-639246Y112397D03*
Y100468D03*
X-638096Y172597D03*
Y160668D03*
X-640616Y228817D03*
Y216888D03*
X-468040Y12034D03*
Y23963D03*
X-311616Y72717D03*
Y60788D03*
X-118466Y60507D03*
Y48578D03*
X-118066Y124438D03*
Y136367D03*
G54D24*
X-76496Y245429D03*
Y238736D03*
X-9876Y280618D03*
Y273926D03*
G54D15*
X-620009Y18924D03*
Y2113D03*
X-624339Y83609D03*
X-623158Y143845D03*
X-624339Y100420D03*
X-625914Y200144D03*
X-623158Y160656D03*
X-625914Y216956D03*
X-468040Y37546D03*
Y54357D03*
X-329086Y60738D03*
Y43927D03*
X-134576Y48570D03*
Y65381D03*
X-134182Y136365D03*
Y153176D03*
G54D25*
X-65284Y240420D03*
Y245420D03*
Y250420D03*
Y255420D03*
X-43237D03*
Y250420D03*
Y245420D03*
Y240420D03*
G54D16*
X-649142Y240439D03*
X-638119D03*
X-531426Y235321D03*
X-583394Y241227D03*
X-572371D03*
X-520402Y235321D03*
X-243237Y251069D03*
X-232213D03*
X-179064Y248313D03*
X-190087D03*
X-81820Y264061D03*
X-92844D03*
G54D26*
X4007Y203707D03*
Y193707D03*
Y183707D03*
Y223707D03*
Y213707D03*
G54D17*
X-620511Y269082D03*
X-632441D03*
X-554782Y270432D03*
X-566711D03*
X-456741Y273442D03*
X-468670D03*
X-233751Y97922D03*
X-221822D03*
X-214441Y277052D03*
X-226370D03*
X-150402Y278042D03*
X-162331D03*
X-54713Y277054D03*
X-42784D03*
G54D27*
X4007Y173707D03*
G54D18*
X-632469Y253825D03*
X-649280D03*
X-566721Y256188D03*
X-583532D03*
X-468690Y259731D03*
X-485501D03*
X-233692Y116512D03*
X-243222Y263922D03*
X-216881Y116512D03*
X-226411Y263922D03*
X-179111Y262532D03*
X-162300D03*
X-65147Y277054D03*
X-81958D03*
G54D28*
X5976Y270597D03*
Y280597D03*
G54D19*
X-410166Y134022D03*
Y144022D03*
Y154022D03*
Y164022D03*
Y174022D03*
Y184022D03*
Y194022D03*
Y204022D03*
Y244022D03*
Y254022D03*
Y264022D03*
Y214022D03*
Y224022D03*
Y234022D03*
Y274022D03*
Y284022D03*
Y294022D03*
Y304022D03*
Y314022D03*
X-349143Y134022D03*
Y144022D03*
Y154022D03*
Y164022D03*
Y174022D03*
Y184022D03*
Y194022D03*
Y204022D03*
Y244022D03*
Y254022D03*
Y264022D03*
Y214022D03*
Y224022D03*
Y234022D03*
Y274022D03*
Y284022D03*
Y294022D03*
Y304022D03*
Y314022D03*
G54D29*
G01X-753796Y371952D02*
X-6246D01*
G02X7684Y366182I0J-19700D01*
G01X8154Y365712D01*
G02X13444Y352941I-12771J-12771D01*
G01Y-2688D01*
G02X-5626Y-21758I-19070J0D01*
G01X-754446D01*
G02X-773956Y-2248I0J19510D01*
G01Y351792D01*
G02X-753796Y371952I20160J0D01*
M02*
