G04 ================== begin FILE IDENTIFICATION RECORD ==================*
G04 Layout Name:  D:/Sankar/ozone_alice_relay/Relay.brd*
G04 Film Name:    TOP*
G04 File Format:  Gerber RS274X*
G04 File Origin:  Cadence Allegro 16.6-P004*
G04 Origin Date:  Mon May 24 19:58:36 2021*
G04 *
G04 Layer:  DRAWING FORMAT/TITLE_BLOCK*
G04 Layer:  BOARD GEOMETRY/OUTLINE*
G04 Layer:  ETCH/TOP*
G04 Layer:  PIN/TOP*
G04 Layer:  VIA CLASS/TOP*
G04 *
G04 Offset:    (0.000 0.000)*
G04 Mirror:    No*
G04 Mode:      Positive*
G04 Rotation:  0*
G04 FullContactRelief:  No*
G04 UndefLineWidth:     0.000*
G04 ================== end FILE IDENTIFICATION RECORD ====================*
%FSLAX25Y25*MOIN*%
%IR0*IPPOS*OFA0.00000B0.00000*MIA0B0*SFA1.00000B1.00000*%
%ADD17R,.062992X.070866*%
%ADD13C,.13*%
%ADD14R,.107087X.042913*%
%ADD18R,.042913X.107087*%
%ADD21R,.081X.024*%
%ADD29C,.06*%
%ADD16C,.024*%
%ADD11P,.070313X8X22.5*%
%ADD20C,.055*%
%ADD23R,.055X.055*%
%ADD15R,.061024X.091732*%
%ADD27C,.055039*%
%ADD19R,.091732X.061024*%
%ADD25R,.03937X.043307*%
%ADD22R,.043307X.03937*%
%ADD10C,.064961*%
%ADD28R,.055039X.055039*%
%ADD12C,.076772*%
%ADD24R,.064961X.064961*%
%ADD26R,.068898X.023622*%
%ADD30C,.001*%
%ADD31C,.02*%
%ADD32C,.03*%
%ADD33C,.04*%
%ADD34C,.200006*%
%ADD35C,.095004*%
%ADD37C,.095044*%
%ADD36R,.095004X.095004*%
%ADD38R,.095042X.095042*%
G75*
%LPD*%
G75*
G36*
G01X-773386Y23772D02*
Y31982D01*
X-768716Y36652D01*
X-670536D01*
X-667356Y33472D01*
Y23542D01*
X-670196Y20702D01*
X-678716D01*
X-689266Y31252D01*
X-762676D01*
X-764806Y29122D01*
Y24822D01*
X-767036Y22592D01*
X-772206D01*
X-773386Y23772D01*
G37*
G36*
G01X-728751Y6652D02*
X-728671Y6732D01*
X-726691Y4752D01*
Y222D01*
X-729121Y-2208D01*
X-767731D01*
X-773001Y3062D01*
Y17262D01*
X-770971Y19292D01*
X-766241D01*
X-764411Y17462D01*
Y8542D01*
X-762521Y6652D01*
X-728751D01*
G37*
G36*
G01X-441313Y157461D02*
X-441978D01*
Y150523D01*
X-427954D01*
Y150936D01*
X-413983D01*
X-413953Y150966D01*
X-413808D01*
X-413773Y150931D01*
X-413768Y150926D01*
G03X-413802Y157078I3602J3096D01*
G01X-416479D01*
X-416509Y157048D01*
X-427954D01*
Y157461D01*
X-435312D01*
Y320639D01*
X-423596Y332356D01*
Y333380D01*
X-413344Y343632D01*
X-348073D01*
X-340596Y351109D01*
X-327000Y337513D01*
Y327541D01*
X-334358D01*
Y326572D01*
X-337530D01*
X-337580Y326522D01*
X-344392D01*
Y328772D01*
X-353893D01*
Y319272D01*
X-344392D01*
Y321522D01*
X-335509D01*
X-335458Y321572D01*
X-334358D01*
Y320603D01*
X-320334D01*
Y327541D01*
X-320999D01*
Y339998D01*
X-337596Y356595D01*
Y360086D01*
G03X-335950Y361951I-3000J4306D01*
G02X-335242I354J-186D01*
G03X-326308Y367418I4646J2441D01*
G02X-325982Y368049I327J231D01*
G01X-304887D01*
X-300560Y363723D01*
Y307012D01*
X-321474D01*
Y307481D01*
X-322138D01*
Y313275D01*
G03X-328139I-3000J0D01*
G01Y310142D01*
X-328140Y310142D01*
Y307481D01*
X-335498D01*
Y306512D01*
X-343576D01*
X-343586Y306522D01*
X-345104D01*
G03X-345110Y301512I-4039J-2500D01*
G01X-335498D01*
Y300544D01*
X-321474D01*
Y301012D01*
X-297474D01*
X-296910Y300448D01*
X-284336D01*
X-283771Y301012D01*
X-222469D01*
X-204186Y282729D01*
Y268942D01*
G03X-198186I3000J0D01*
G01Y285215D01*
X-219983Y307012D01*
X-276805D01*
G02X-277088Y307695I0J400D01*
G01X-273520Y311264D01*
Y334924D01*
X-270611Y337833D01*
X-267290D01*
X-246222Y316765D01*
Y314409D01*
X-246216Y314404D01*
Y312162D01*
G03X-240216I3000J0D01*
G01Y316921D01*
X-240222Y316926D01*
Y319251D01*
X-263730Y342759D01*
G02X-263448Y343442I283J283D01*
G01X-250805D01*
X-235933Y328570D01*
X-221264D01*
X-214030Y335804D01*
Y366292D01*
X-212273Y368050D01*
X-176815D01*
X-174720Y365954D01*
Y338508D01*
X-179317Y333911D01*
X-194325D01*
X-202166Y326069D01*
Y305181D01*
X-196893Y299908D01*
X-128683D01*
X-121923Y306668D01*
Y343849D01*
X-104955Y360817D01*
X-51415D01*
X-44384Y353787D01*
Y334588D01*
X-48981Y329991D01*
X-97113D01*
X-97384Y330261D01*
X-104228Y323417D01*
G02X-104910Y323700I-283J283D01*
G01Y332317D01*
X-98107Y339120D01*
X-87884D01*
G03Y344121I5276J2500D01*
G01X-100178D01*
X-109911Y334388D01*
Y284286D01*
X-100178Y274553D01*
X-88044D01*
Y272502D01*
X-84958D01*
Y269105D01*
X-86470D01*
Y259018D01*
X-77170D01*
Y269105D01*
X-78820D01*
Y271050D01*
X-78957Y271187D01*
Y272502D01*
X-75871D01*
Y281605D01*
X-88044D01*
Y279554D01*
X-98107D01*
X-104910Y286357D01*
Y301534D01*
G02X-104228Y301817I400J0D01*
G01X-101710Y299300D01*
X-86904D01*
G02X-86628Y298610I0J-400D01*
G03X-77598Y291376I4021J-4233D01*
G01X-52354D01*
X-45785Y284806D01*
Y283908D01*
X-46430D01*
Y270199D01*
X-39138D01*
Y274053D01*
X-35364D01*
G03Y280054I0J3000D01*
G01X-39138D01*
Y283908D01*
X-39784D01*
Y287292D01*
X-49869Y297377D01*
X-77598D01*
G03X-78586Y298610I-5009J-3000D01*
G02X-78310Y299300I275J290D01*
G01X369D01*
X11252Y288416D01*
Y282917D01*
G02X10491Y282745I-400J0D01*
G03X1658Y283119I-4515J-2148D01*
G01X-6407D01*
Y284284D01*
X-13345D01*
Y270260D01*
X-12376D01*
Y268642D01*
X-402Y256667D01*
G02X-543Y256325I-141J-141D01*
G01X-608D01*
X-4014Y252920D01*
X-38292D01*
Y253101D01*
X-48182D01*
Y237738D01*
X-38292D01*
Y242920D01*
X-1702D01*
X-108Y241325D01*
X1361D01*
G03X10507Y241177I4615J2500D01*
G02X11252Y240975I345J-202D01*
G01Y162913D01*
X8920Y160581D01*
X-1896D01*
X-7710Y166395D01*
X-49082D01*
X-52597Y162880D01*
Y147196D01*
X-59898Y139895D01*
X-105935D01*
X-110529Y135301D01*
G02X-111212Y135584I-283J283D01*
G01Y140013D01*
X-124921D01*
Y138867D01*
X-126298D01*
X-126300Y138865D01*
X-129630D01*
Y142451D01*
X-138733D01*
Y130278D01*
X-129630D01*
Y133864D01*
X-124921D01*
Y132721D01*
X-112289D01*
Y128084D01*
X-124921D01*
Y127438D01*
X-127961D01*
G03Y121438I0J-3000D01*
G01X-124921D01*
Y120792D01*
X-112289D01*
Y120223D01*
X-107076Y115010D01*
Y109319D01*
X-100551Y102794D01*
X-91947D01*
G03X-83248Y110319I5009J3000D01*
G02X-82995Y111029I253J310D01*
G01X1552D01*
X10205Y102376D01*
Y74457D01*
X4188Y68440D01*
X-15416D01*
X-31167Y84191D01*
X-55774D01*
X-68619Y71347D01*
Y65668D01*
X-73621Y60666D01*
X-102555D01*
X-103441Y59780D01*
X-107168Y63507D01*
X-111612D01*
Y64153D01*
X-124837D01*
G02X-125120Y64835I0J400D01*
G01X-119063Y70892D01*
X-91546D01*
G03X-91553Y76904I5002J3012D01*
G01X-93925D01*
X-93937Y76892D01*
X-121549D01*
X-129341Y69100D01*
G02X-130024Y69382I-283J283D01*
G01Y71468D01*
X-139127D01*
Y67880D01*
X-142569D01*
X-181586Y106898D01*
Y211818D01*
X-189623Y219855D01*
G02X-189340Y220538I283J283D01*
G01X-182637D01*
X-177386Y215286D01*
Y161236D01*
X-166802Y150652D01*
X-138733D01*
Y147089D01*
X-129630D01*
Y150675D01*
X-93748D01*
X-93610Y150538D01*
X-92214D01*
G03X-92147Y155676I5276J2500D01*
G01X-129630D01*
Y159262D01*
X-138733D01*
Y155676D01*
X-139969D01*
X-139992Y155653D01*
X-164730D01*
X-172386Y163308D01*
Y217358D01*
X-179883Y224855D01*
G02X-179600Y225538I283J283D01*
G01X-156178D01*
X-120155Y261561D01*
X-97494D01*
Y259018D01*
X-88194D01*
Y269105D01*
X-97494D01*
Y266562D01*
X-122226D01*
X-158249Y230538D01*
X-215566D01*
G02X-215849Y231221I0J400D01*
G01X-201257Y245813D01*
X-194737D01*
Y243270D01*
X-185438D01*
Y253357D01*
X-194737D01*
Y250814D01*
X-203328D01*
X-218604Y235538D01*
X-220364D01*
Y240738D01*
X-223414D01*
Y245412D01*
X-227564Y249562D01*
Y256113D01*
X-236863D01*
Y246026D01*
X-231099D01*
X-228414Y243341D01*
Y240738D01*
X-231464D01*
Y200338D01*
X-227222D01*
G03X-225914Y200038I1308J2700D01*
G01X-217650D01*
G03X-215291Y204891I0J3000D01*
G02X-214976Y205538I315J247D01*
G01X-212327D01*
X-210176Y203386D01*
Y165438D01*
X-292176Y83438D01*
Y55458D01*
X-301207Y46427D01*
X-324535D01*
Y50014D01*
X-333638D01*
Y46927D01*
X-343150D01*
Y62762D01*
X-351262Y70874D01*
X-423731D01*
X-434547Y60058D01*
Y-11194D01*
X-442524Y-19171D01*
X-508774D01*
X-519185Y-8760D01*
Y25214D01*
G03X-516810Y32120I-3121J4934D01*
G01X-516853Y32239D01*
X-510869Y38223D01*
X-498972D01*
Y57016D01*
X-511816Y69861D01*
X-574280D01*
X-587935Y56205D01*
Y-5042D01*
X-599563Y-16670D01*
X-694476D01*
X-701776Y-9368D01*
Y4152D01*
X-695828Y10101D01*
X-656348D01*
X-649858Y16591D01*
Y30429D01*
G02X-649176Y30712I400J0D01*
G01X-645830Y27367D01*
X-642401D01*
Y27221D01*
X-628692D01*
Y27867D01*
X-625501D01*
G03Y33867I0J3000D01*
G01X-628692D01*
Y34513D01*
X-642401D01*
Y34367D01*
X-642931D01*
X-661558Y52995D01*
X-678328D01*
G03X-687602Y45900I-4673J-3500D01*
G02X-687917Y45254I-315J-246D01*
G01X-746394D01*
X-750991Y49851D01*
Y55529D01*
X-744771Y61749D01*
X-689744D01*
X-686904Y64588D01*
Y69135D01*
G02X-686280Y69466I400J0D01*
G03X-677992Y71297I3279J4831D01*
G01X-664668D01*
X-655357Y80608D01*
X-628891D01*
Y77522D01*
X-619788D01*
Y81108D01*
X-618514D01*
X-618507Y81102D01*
X-614516D01*
G03Y86103I0J2500D01*
G01X-616525D01*
X-616532Y86109D01*
X-619788D01*
Y89696D01*
X-628891D01*
Y86609D01*
X-657842D01*
X-667153Y77298D01*
X-677992D01*
G03X-685253Y79684I-5009J-3000D01*
G02X-685690Y80336I-154J369D01*
G01X-682984Y83043D01*
X-663041D01*
X-658208Y87877D01*
Y108191D01*
X-658730Y108714D01*
G02X-658447Y109397I283J283D01*
G01X-646101D01*
Y108751D01*
X-632392D01*
Y109397D01*
X-626761D01*
G03Y115397I0J3000D01*
G01X-632392D01*
Y116043D01*
X-646101D01*
Y115397D01*
X-672613D01*
X-677336Y120120D01*
X-677312Y120228D01*
G03X-681687Y115853I-5689J1313D01*
G01X-681579Y115878D01*
X-677280Y111578D01*
G02X-677562Y110895I-283J-283D01*
G01X-762991D01*
X-763125Y110760D01*
X-769074Y116709D01*
Y131311D01*
X-764976Y135410D01*
X-721111D01*
X-713878Y142643D01*
Y151364D01*
X-709484Y155758D01*
X-660337D01*
X-654659Y161437D01*
Y175146D01*
G02X-653976Y175429I400J0D01*
G01X-648144Y169597D01*
X-644951D01*
Y168951D01*
X-631242D01*
Y169597D01*
X-625672D01*
G03Y175597I0J3000D01*
G01X-631242D01*
Y176243D01*
X-644951D01*
Y175597D01*
X-645658D01*
X-664288Y194227D01*
X-677992D01*
G03X-686243Y186371I-5009J-3000D01*
G02X-686465Y185638I-222J-333D01*
G01X-740918D01*
X-743892Y188613D01*
Y194561D01*
X-739161Y199294D01*
X-704549D01*
X-697248Y206595D01*
Y223630D01*
X-695355Y225523D01*
X-664258D01*
X-658594Y231187D01*
X-653223Y225817D01*
X-647471D01*
Y225171D01*
X-633762D01*
Y225817D01*
X-631020D01*
G03Y231817I0J3000D01*
G01X-633762D01*
Y232463D01*
X-647471D01*
Y231817D01*
X-650738D01*
X-653634Y234713D01*
G02X-653351Y235396I283J283D01*
G01X-644493D01*
Y245483D01*
X-646142D01*
Y249274D01*
X-643194D01*
Y258377D01*
X-646280D01*
Y280572D01*
X-628690D01*
X-624127Y276009D01*
X-624157Y275937D01*
Y262228D01*
X-623512D01*
Y259888D01*
G03X-617511I3000J0D01*
G01Y262228D01*
X-616866D01*
Y275937D01*
X-617511D01*
Y277879D01*
X-619521Y279890D01*
G02X-619239Y280572I283J283D01*
G01X-586532D01*
Y260739D01*
X-589619D01*
Y251636D01*
X-586532D01*
Y249694D01*
X-586395Y249556D01*
Y246270D01*
X-588044D01*
Y236183D01*
X-578745D01*
Y246270D01*
X-580394D01*
Y251636D01*
X-577446D01*
Y260739D01*
X-580532D01*
Y280572D01*
X-557782D01*
Y277287D01*
X-558427D01*
Y263578D01*
X-557782D01*
Y261547D01*
G03X-551781I3000J0D01*
G01Y263578D01*
X-551136D01*
Y277287D01*
X-551781D01*
Y280572D01*
X-499580D01*
X-490684Y289469D01*
G02X-490001Y289186I283J-283D01*
G01Y264282D01*
X-491588D01*
Y255179D01*
X-488501D01*
Y245600D01*
X-495780Y238322D01*
X-515753D01*
Y240365D01*
X-525052D01*
Y230278D01*
X-515753D01*
Y232321D01*
X-493294D01*
X-482501Y243115D01*
Y255179D01*
X-479414D01*
Y264282D01*
X-481001D01*
Y287434D01*
X-476552Y291882D01*
X-469837D01*
G03X-469746Y300882I3765J4463D01*
G01X-478304D01*
G02X-478587Y301565I0J400D01*
G01X-474432Y305720D01*
X-452056D01*
Y300715D01*
X-459742Y293029D01*
Y280297D01*
X-460387D01*
Y266588D01*
X-453095D01*
Y270442D01*
X-451153D01*
X-446316Y275279D01*
Y278422D01*
G03X-452316I-3000J0D01*
G01Y277765D01*
X-452413Y277668D01*
G02X-453095Y277951I-283J283D01*
G01Y280297D01*
X-453741D01*
Y290544D01*
X-446056Y298229D01*
Y309896D01*
X-441996Y313956D01*
G02X-441313Y313673I283J-283D01*
G01Y157461D01*
G37*
G36*
G01X-728106Y78182D02*
X-728026Y78262D01*
X-726046Y76282D01*
Y71752D01*
X-728476Y69322D01*
X-767086D01*
X-772356Y74592D01*
Y88792D01*
X-770326Y90822D01*
X-765596D01*
X-763766Y88992D01*
Y80072D01*
X-761876Y78182D01*
X-728106D01*
G37*
G36*
G01X-739576Y146962D02*
X-768356D01*
X-771046Y149652D01*
Y159262D01*
X-769536Y160772D01*
X-764286D01*
X-763186Y159672D01*
Y155812D01*
X-758896Y151522D01*
X-725366D01*
X-722686Y148842D01*
Y142652D01*
X-725866Y139472D01*
X-732086D01*
X-739576Y146962D01*
G37*
G36*
G01X-673626Y103852D02*
X-670276Y100502D01*
Y94692D01*
X-673386Y91582D01*
X-746996D01*
X-752676Y97262D01*
X-762956D01*
X-765056Y95162D01*
X-771806D01*
X-773296Y96652D01*
Y101592D01*
X-771036Y103852D01*
X-673626D01*
G37*
G36*
G01X-771986Y231122D02*
X-771176Y231932D01*
X-764596D01*
X-755216Y222552D01*
X-723386D01*
X-717126Y216292D01*
Y210452D01*
X-720616Y206962D01*
X-762526D01*
X-771986Y216422D01*
Y231122D01*
G37*
G36*
G01X-689616Y170722D02*
X-757006D01*
X-763936Y163792D01*
X-769146Y163702D01*
X-771796Y166472D01*
X-771836Y174732D01*
X-768376Y178482D01*
X-671326Y178542D01*
X-667086Y174302D01*
Y166812D01*
X-670836Y163062D01*
X-681956D01*
X-689616Y170722D01*
G37*
G36*
G01X-656050Y255929D02*
X-665608Y265487D01*
X-679960D01*
G03X-690472Y260534I-5009J-3000D01*
G02X-690849Y260000I-377J-134D01*
G01X-764579D01*
X-768230Y263651D01*
Y273656D01*
X-763903Y277982D01*
X-708740D01*
X-680077Y306646D01*
X-677085D01*
X-669286Y298847D01*
G02X-669569Y298164I-283J-283D01*
G01X-673267D01*
G03Y292164I-5009J-3000D01*
G01X-662603D01*
X-652281Y281841D01*
Y258377D01*
X-655367D01*
Y256212D01*
G02X-656050Y255929I-400J0D01*
G37*
G36*
G01X-772006Y246702D02*
X-767368Y248812D01*
X-759936Y248787D01*
X-667996Y248672D01*
X-664026Y245102D01*
X-664016Y238352D01*
X-668746Y234702D01*
X-725676Y234622D01*
X-767786Y234532D01*
X-772006Y237492D01*
Y246702D01*
G37*
G36*
G01X-771076Y338592D02*
X-769566Y340102D01*
X-761736D01*
X-753706Y332072D01*
X-722646D01*
X-699896Y332062D01*
X-662496Y332022D01*
X-658076Y328902D01*
X-658036Y316912D01*
X-661316Y314142D01*
X-768316D01*
X-771076Y316902D01*
Y338592D01*
G37*
G36*
G01X-770216Y310192D02*
X-768706Y311702D01*
X-760876D01*
X-752846Y303672D01*
X-721786D01*
X-716756Y298642D01*
Y289472D01*
X-720486Y285742D01*
X-767456D01*
X-770216Y288502D01*
Y310192D01*
G37*
G36*
G01X-678400Y45900D02*
G03X-678328Y45994I-4603J3593D01*
G01X-664458D01*
X-664059Y45595D01*
G02X-664201Y45254I-141J-141D01*
G01X-678084D01*
G02X-678400Y45900I0J400D01*
G37*
G36*
G01X-679759Y186371D02*
G03X-677992Y188227I-3242J4856D01*
G01X-666773D01*
X-664868Y186321D01*
G02X-665151Y185638I-283J-283D01*
G01X-679537D01*
G02X-679759Y186371I0J400D01*
G37*
G36*
G01X-602782Y369347D02*
X-600492Y371637D01*
X-594002D01*
X-592382Y370017D01*
Y360447D01*
X-606332Y346497D01*
Y300987D01*
X-615182Y292137D01*
X-624182D01*
X-628242Y296197D01*
Y338257D01*
X-602782Y363717D01*
Y369347D01*
G37*
G36*
G01X-575616Y32322D02*
X-571456Y36482D01*
X-565976D01*
X-562936Y33442D01*
Y-6248D01*
X-558476Y-10708D01*
X-549076D01*
X-549006Y-10638D01*
X-546376D01*
X-543876Y-13138D01*
Y-16658D01*
X-545766Y-18548D01*
X-566246D01*
X-575616Y-9178D01*
Y32322D01*
G37*
G36*
G01X-544386Y52337D02*
X-539526Y57772D01*
X-510096Y57722D01*
X-507566Y54852D01*
Y51332D01*
X-509316Y48592D01*
X-529526Y48632D01*
X-531726Y45792D01*
X-531706Y13767D01*
X-531696Y11412D01*
X-529636Y7432D01*
Y5602D01*
X-529616Y2282D01*
Y-15228D01*
X-533056Y-19008D01*
X-537826D01*
X-541006Y-16888D01*
X-541066Y1712D01*
X-544386Y10837D01*
Y52337D01*
G37*
G36*
G01X-585536Y311592D02*
X-589756Y315812D01*
Y366031D01*
G03X-589543Y367957I-5020J1531D01*
G01X-589550Y368049D01*
X-586646Y370952D01*
X-581636D01*
X-580666Y369982D01*
Y361442D01*
X-584116Y357992D01*
Y329032D01*
X-579496Y324412D01*
X-564486D01*
X-560226Y320152D01*
Y314102D01*
X-562736Y311592D01*
X-585536D01*
G37*
G36*
G01X-481616Y369072D02*
X-479866Y370822D01*
X-475746D01*
X-474266Y369342D01*
Y335622D01*
X-463146Y324502D01*
X-456226D01*
X-453946Y322222D01*
Y315762D01*
X-455776Y313932D01*
X-473066D01*
X-481616Y322482D01*
Y369072D01*
G37*
G36*
G01X-494626Y369752D02*
X-493906Y371022D01*
X-486766Y371042D01*
X-485346Y369682D01*
X-485336Y362192D01*
X-499186Y348342D01*
Y301302D01*
X-508796Y291692D01*
X-521416D01*
X-525326Y295602D01*
Y338902D01*
X-494666Y367832D01*
X-494626Y369752D01*
G37*
G36*
G01X-424116Y32942D02*
X-421886Y35172D01*
X-413736D01*
X-410566Y32002D01*
Y-2958D01*
X-402666Y-10858D01*
X-390966D01*
X-388896Y-12928D01*
Y-16638D01*
X-390956Y-18698D01*
X-416516D01*
X-424116Y-11098D01*
Y32942D01*
G37*
G36*
G01X-415829Y349632D02*
X-422913Y342548D01*
G02X-423596Y342831I-283J283D01*
G01Y345876D01*
X-401422Y368049D01*
X-355844D01*
Y359144D01*
X-345348D01*
Y360791D01*
G02X-344640Y361046I400J0D01*
G03X-343596Y360086I4043J3346D01*
G01Y356595D01*
X-350559Y349632D01*
X-415829D01*
G37*
G36*
G01X-274466Y-10856D02*
X-283119Y-19509D01*
X-361807D01*
X-367486Y-13831D01*
Y24389D01*
G02X-367046Y24787I400J0D01*
G03X-360776Y31910I581J5810D01*
G01X-360801Y32018D01*
X-351960Y40859D01*
X-346935D01*
X-346868Y40927D01*
X-333638D01*
Y37840D01*
X-324535D01*
Y41427D01*
X-299136D01*
X-287176Y53386D01*
Y81367D01*
X-205176Y163367D01*
Y205458D01*
X-209573Y209855D01*
G02X-209290Y210538I283J283D01*
G01X-206168D01*
X-202336Y206706D01*
Y123798D01*
X-207122Y119012D01*
X-210794D01*
Y121064D01*
X-222968D01*
Y111961D01*
X-210794D01*
Y114012D01*
X-208132D01*
X-192026Y97907D01*
Y69049D01*
X-257025D01*
X-274466Y51608D01*
Y-10856D01*
G37*
G36*
G01X-377126Y-16398D02*
X-380236Y-19508D01*
X-384976D01*
X-386957Y-17527D01*
X-386896Y-17466D01*
Y-12100D01*
X-387106Y-11890D01*
Y15842D01*
X-386986Y58412D01*
X-382556Y62402D01*
X-355736Y62472D01*
X-352426Y60342D01*
X-352396Y52532D01*
X-355076Y50172D01*
X-373976Y50132D01*
X-377086Y46512D01*
X-377126Y11692D01*
Y-16398D01*
G37*
G36*
G01X-361129Y40176D02*
X-365044Y36261D01*
X-365152Y36286D01*
G03X-365542Y36362I-1314J-5689D01*
G02X-365762Y37040I63J395D01*
G01X-361942Y40859D01*
X-361412D01*
G02X-361129Y40176I0J-400D01*
G37*
G36*
G01X-270136Y356302D02*
X-266276Y360822D01*
X-266216Y369212D01*
X-264626Y370802D01*
X-259826D01*
X-258436Y369412D01*
Y356382D01*
X-258416Y353162D01*
X-262326Y349422D01*
X-283596D01*
X-287676Y346082D01*
X-287716Y335202D01*
X-287756Y327932D01*
X-282806Y325062D01*
X-282906Y315142D01*
X-284986Y311852D01*
X-293086D01*
X-295266Y315732D01*
X-295346Y321802D01*
X-295326Y328162D01*
X-295226Y341492D01*
X-295146Y349972D01*
X-289326Y356362D01*
X-270136Y356302D01*
G37*
G36*
G01X-228146Y-18158D02*
X-229406D01*
X-231736Y-15828D01*
Y50552D01*
X-223966Y58322D01*
X-197256D01*
X-195006Y56072D01*
Y52852D01*
X-198166Y49692D01*
X-218086D01*
X-221986Y45792D01*
Y-14308D01*
X-225826Y-18148D01*
X-228136D01*
X-228146Y-18158D01*
G37*
G36*
G01X-261086Y33562D02*
X-259326Y35322D01*
X-253046D01*
X-250536Y32812D01*
Y-3718D01*
X-244116Y-10138D01*
X-237456D01*
X-235396Y-12198D01*
Y-17128D01*
X-237426Y-19158D01*
X-255816D01*
X-261086Y-13888D01*
Y33562D01*
G37*
G36*
G01X-254606Y355442D02*
Y368372D01*
X-253016Y369962D01*
X-248216D01*
X-246826Y368572D01*
Y355542D01*
X-239986Y348702D01*
X-231996D01*
X-227926Y344632D01*
Y338682D01*
X-229146Y337462D01*
X-236626D01*
X-254606Y355442D01*
G37*
G36*
G01X-186586Y104827D02*
X-144640Y62880D01*
X-139127D01*
Y59294D01*
X-130024D01*
Y62380D01*
X-129676D01*
G02X-129315Y61807I0J-400D01*
G03X-126611Y57507I2704J-1300D01*
G01X-125321D01*
Y56861D01*
X-111612D01*
Y57507D01*
X-109653D01*
X-107684Y55537D01*
X-108098Y55122D01*
Y40115D01*
X-106746Y38763D01*
Y32699D01*
X-97706Y23660D01*
X-91553D01*
G03X-80997Y24837I5009J3000D01*
G01X8042D01*
X11016Y21863D01*
Y-716D01*
X10754Y-7568D01*
X-5479Y-17211D01*
X-201523D01*
X-210176Y-8558D01*
Y25012D01*
G02X-209701Y25405I400J0D01*
G03X-203320Y28638I1105J5733D01*
G01X-196525D01*
X-187075Y38087D01*
X-184488D01*
X-179148Y43427D01*
Y63641D01*
X-184556Y69049D01*
X-187026D01*
Y99978D01*
X-203055Y116007D01*
X-197336Y121727D01*
Y208778D01*
X-203413Y214855D01*
G02X-203130Y215538I283J283D01*
G01X-192377D01*
X-186586Y209747D01*
Y104827D01*
G37*
G36*
G01X-194830Y37404D02*
X-198596Y33638D01*
X-203320D01*
G03X-204655Y35446I-5276J-2500D01*
G02X-204668Y36024I270J295D01*
G01X-202605Y38087D01*
X-195113D01*
G02X-194830Y37404I0J-400D01*
G37*
G36*
G01X-167341Y366237D02*
X-164637Y368941D01*
X-161122D01*
X-159905Y367724D01*
Y317192D01*
X-165381Y311716D01*
X-194585D01*
X-197018Y314150D01*
Y319558D01*
X-194450Y322127D01*
X-171668D01*
X-167341Y326454D01*
Y366237D01*
G37*
G36*
G01X-155824Y367605D02*
X-154135Y369295D01*
X-150383D01*
X-148844Y367757D01*
Y346699D01*
X-146343Y344198D01*
X-131741D01*
X-129308Y341764D01*
Y337438D01*
X-131336Y335409D01*
X-150805D01*
X-155824Y340429D01*
Y367605D01*
G37*
G36*
G01X-97216Y53422D02*
X1344D01*
X1414Y53492D01*
X9734D01*
X11084Y52142D01*
Y48382D01*
X8584Y45882D01*
X-96436D01*
X-98636Y48082D01*
Y52002D01*
X-97216Y53422D01*
G37*
G36*
G01X-98065Y108794D02*
X-99617Y110346D01*
G02X-99334Y111029I283J283D01*
G01X-90881D01*
G02X-90628Y110319I0J-400D01*
G03X-91947Y108794I3690J-4525D01*
G01X-98065D01*
G37*
G36*
G01X-101746Y126482D02*
Y130692D01*
X-99606Y132832D01*
X8274D01*
X9864Y131242D01*
Y126542D01*
X7874Y124552D01*
X674D01*
X-2166Y127392D01*
X-90256D01*
X-93096Y124552D01*
X-99816D01*
X-101746Y126482D01*
G37*
G36*
G01X-91874Y321208D02*
Y321212D01*
X-91532Y320869D01*
X10272D01*
X11793Y319348D01*
Y312859D01*
X10678Y311743D01*
X-93834D01*
X-95457Y313366D01*
Y318774D01*
X-93023Y321208D01*
X-91874D01*
G37*
G36*
G01X-41356Y77922D02*
X-41346Y77912D01*
X-37046D01*
X-35026Y75892D01*
Y71452D01*
X-27866Y64292D01*
X7704D01*
X9274Y62722D01*
Y58292D01*
X7864Y56882D01*
X-34496D01*
X-45176Y67562D01*
Y75692D01*
X-42946Y77922D01*
X-41356D01*
G37*
G36*
G01X-44286Y154472D02*
X-41936Y156822D01*
X-36106D01*
X-34456Y155172D01*
Y148302D01*
X-29116Y142962D01*
X8804D01*
X11514Y140252D01*
Y137512D01*
X10104Y136102D01*
X-31276D01*
X-37356Y142182D01*
Y145362D01*
X-39146Y147152D01*
X-41516D01*
X-44286Y149922D01*
Y154472D01*
G37*
G36*
G01X10569Y256654D02*
X8150Y259073D01*
X4263D01*
X-6582Y269918D01*
G02X-6440Y270260I141J141D01*
G01X-6407D01*
Y278119D01*
X108D01*
X130Y278097D01*
X1645D01*
G03X4087Y275967I4330J2500D01*
G02Y275226I-151J-370D01*
G03X10491Y268449I1889J-4630D01*
G02X11252Y268277I361J-172D01*
G01Y256937D01*
G02X10569Y256654I-400J0D01*
G37*
G36*
G01X10507Y246474D02*
G03X8632Y248352I-4531J-2648D01*
G02X8552Y248979I202J345D01*
G01X10569Y250997D01*
G02X11252Y250714I283J-283D01*
G01Y246676D01*
G02X10507Y246474I-400J0D01*
G37*
G36*
G01X3319Y248352D02*
G03X1851Y247070I2657J-4526D01*
G02X1254Y247035I-314J247D01*
G01X369Y247920D01*
X-976D01*
G02X-1259Y248603I0J400D01*
G01X1258Y251120D01*
X3399Y248979D01*
G02X3319Y248352I-283J-283D01*
G37*
G36*
G01X10491Y272745D02*
G03X7865Y275226I-4515J-2148D01*
G02Y275967I151J370D01*
G03X10491Y278449I-1889J4630D01*
G02X11252Y278277I361J-172D01*
G01Y272917D01*
G02X10491Y272745I-400J0D01*
G37*
G36*
G01X-38962Y344116D02*
X-37238Y345840D01*
X-31999D01*
X-30579Y344420D01*
Y338268D01*
X-24360Y332049D01*
X9035D01*
X11402Y329683D01*
Y326472D01*
X9137Y324208D01*
X-23278D01*
X-33216Y334145D01*
X-37948D01*
X-38962Y335159D01*
Y344116D01*
G37*
%LPC*%
G75*
G36*
G01X-177204Y296589D02*
X-152311D01*
X-147401Y291681D01*
Y284897D01*
X-146756D01*
Y281042D01*
X-142686D01*
G02Y275042I0J-3000D01*
G01X-146756D01*
Y271188D01*
X-154047D01*
Y284897D01*
X-153402D01*
Y289195D01*
X-154796Y290589D01*
X-177204D01*
G02Y296589I-5009J3000D01*
G37*
G36*
G01X-58359Y280054D02*
Y283908D01*
X-51068D01*
Y270199D01*
X-58359D01*
Y274053D01*
X-59060D01*
Y272502D01*
X-71233D01*
Y281605D01*
X-59060D01*
Y280054D01*
X-58359D01*
G37*
G36*
G01X-275572Y297089D02*
X-221474D01*
X-210941Y286557D01*
Y283907D01*
X-210795D01*
Y280553D01*
X-208806D01*
G02Y273552I0J-3500D01*
G01X-210795D01*
Y270198D01*
X-218087D01*
Y283802D01*
X-224374Y290089D01*
X-275572D01*
G02Y297089I-4673J3500D01*
G37*
G36*
G01X-223370Y270198D02*
Y268473D01*
X-220324D01*
Y259371D01*
X-232497D01*
Y268473D01*
X-229411D01*
Y270198D01*
X-230016D01*
Y283907D01*
X-222725D01*
Y270198D01*
X-223370D01*
G37*
G36*
G01X-159800Y271188D02*
Y267084D01*
X-156214D01*
Y257981D01*
X-168387D01*
Y267084D01*
X-164801D01*
Y269912D01*
X-164831Y269942D01*
Y271188D01*
X-165977D01*
Y284897D01*
X-158685D01*
Y271188D01*
X-159800D01*
G37*
G36*
G01X-473190Y264282D02*
Y273423D01*
G02X-472316Y276088I4500J0D01*
G01Y280297D01*
X-465025D01*
Y276080D01*
G02X-464189Y273035I-3646J-2638D01*
G01X-464190Y273026D01*
Y264282D01*
X-462603D01*
Y255179D01*
X-474777D01*
Y264282D01*
X-473190D01*
G37*
G36*
G01X-563721Y261625D02*
Y260739D01*
X-560634D01*
Y251636D01*
X-572808D01*
Y260739D01*
X-569722D01*
Y263578D01*
X-570357D01*
Y277287D01*
X-563065D01*
Y263578D01*
X-563710D01*
Y261635D01*
X-563721Y261625D01*
G37*
G36*
G01X-629469Y260260D02*
Y258377D01*
X-626382D01*
Y249274D01*
X-638556D01*
Y258377D01*
X-635470D01*
Y262228D01*
X-636086D01*
Y275937D01*
X-628795D01*
Y262228D01*
X-629440D01*
Y260288D01*
X-629469Y260260D01*
G37*
G36*
G01X-55514Y249534D02*
X-58899Y252920D01*
X-60339D01*
Y252738D01*
X-70229D01*
Y258101D01*
X-60339D01*
Y257920D01*
X-56828D01*
X-51978Y253070D01*
G02X-55514Y249534I-1768J-1768D01*
G37*
G36*
G01X-240222Y278748D02*
Y268473D01*
X-237135D01*
Y259371D01*
X-240222D01*
Y257434D01*
X-240237Y257418D01*
Y256113D01*
X-238587D01*
Y246026D01*
X-247887D01*
Y256113D01*
X-246237D01*
Y259371D01*
X-249308D01*
Y268473D01*
X-246222D01*
Y278748D01*
G02X-240222I3000J0D01*
G37*
G36*
G01X-187222Y337833D02*
X-199912D01*
X-205926Y331820D01*
Y305035D01*
X-176111Y275220D01*
Y267084D01*
X-173025D01*
Y257981D01*
X-176564D01*
Y253357D01*
X-174414D01*
Y243270D01*
X-183714D01*
Y253357D01*
X-181564D01*
Y256704D01*
X-181612Y256752D01*
Y257981D01*
X-185198D01*
Y267084D01*
X-182112D01*
Y272735D01*
X-211926Y302549D01*
Y334305D01*
X-202398Y343833D01*
X-187222D01*
G02Y337833I5009J-3000D01*
G37*
G36*
G01X-622208Y232791D02*
X-626856Y237439D01*
X-633469D01*
Y235396D01*
X-642769D01*
Y245483D01*
X-633469D01*
Y243440D01*
X-624371D01*
X-617965Y237034D01*
G02X-622208Y232791I-2121J-2122D01*
G37*
G36*
G01X-533926Y229242D02*
Y230278D01*
X-536076D01*
Y240365D01*
X-526776D01*
Y230278D01*
X-528926D01*
Y229242D01*
G02X-533926I-2500J0D01*
G37*
G36*
G01X-575396Y226362D02*
Y234584D01*
X-575371Y234610D01*
Y236183D01*
X-577021D01*
Y246270D01*
X-567721D01*
Y236183D01*
X-569371D01*
Y232124D01*
X-569396Y232099D01*
Y226362D01*
G02X-575396I-3000J0D01*
G37*
G36*
G01X-630466Y219955D02*
Y223042D01*
X-621363D01*
Y210869D01*
X-630466D01*
Y213955D01*
X-631757D01*
X-631824Y213888D01*
X-633762D01*
Y213242D01*
X-647471D01*
Y220534D01*
X-633762D01*
Y219955D01*
X-630466D01*
G37*
G36*
G01X-679960Y218243D02*
X-665824D01*
X-650733Y203153D01*
X-630466D01*
Y206231D01*
X-621363D01*
Y202645D01*
X-610340D01*
X-602022Y210962D01*
X-555296D01*
G02Y205962I0J-2500D01*
G01X-599951D01*
X-608268Y197644D01*
X-621363D01*
Y194058D01*
X-630466D01*
Y197144D01*
X-632419D01*
X-632427Y197152D01*
X-653219D01*
X-668309Y212242D01*
X-679960D01*
G02Y218243I-5009J3000D01*
G37*
G36*
G01X-627710Y163156D02*
Y166743D01*
X-618607D01*
Y154569D01*
X-627710D01*
Y158156D01*
X-631242D01*
Y157022D01*
X-644951D01*
Y164314D01*
X-631242D01*
Y163168D01*
X-630006D01*
X-629994Y163156D01*
X-627710D01*
G37*
G36*
G01X-597231Y188137D02*
Y153132D01*
X-609018Y141345D01*
X-618607D01*
Y137758D01*
X-627710D01*
Y140845D01*
X-629652D01*
X-629790Y140982D01*
X-677992D01*
G02Y146983I-5009J3000D01*
G01X-627710D01*
Y149932D01*
X-618607D01*
Y146345D01*
X-611089D01*
X-602231Y155203D01*
Y188137D01*
G02X-597231I2500J0D01*
G37*
G36*
G01X-258290Y225512D02*
X-255834D01*
G03X-255561Y226205I0J400D01*
G02X-255208Y230144I1701J1832D01*
G01X-255116Y230203D01*
Y230512D01*
X-255766D01*
G02Y235512I0J2500D01*
G01X-251625D01*
X-251600Y235538D01*
X-250364D01*
Y240738D01*
X-239264D01*
Y240538D01*
X-237346D01*
X-232956Y236148D01*
Y180529D01*
X-293903Y119582D01*
X-360186D01*
G02Y124583I0J2500D01*
G01X-295974D01*
X-237956Y182601D01*
Y234076D01*
X-238581Y234701D01*
G03X-239264Y234419I-283J-283D01*
G01Y205338D01*
X-250364D01*
Y205538D01*
X-263115D01*
X-327130Y141522D01*
X-345104D01*
G02Y146522I-4039J2500D01*
G01X-329202D01*
X-265869Y209855D01*
G03X-266152Y210538I-283J283D01*
G01X-275965D01*
X-324980Y161522D01*
X-345104D01*
G02Y166522I-4039J2500D01*
G01X-327052D01*
X-278036Y215538D01*
X-270484D01*
G03X-270201Y216221I0J400D01*
G01X-335502Y281522D01*
X-345104D01*
G02Y286522I-4039J2500D01*
G01X-333430D01*
X-267446Y220538D01*
X-261353D01*
G03X-261070Y221221I0J400D01*
G01X-331372Y291522D01*
X-345104D01*
G02Y296522I-4039J2500D01*
G01X-329301D01*
X-258290Y225512D01*
G37*
G36*
G01X-628891Y103420D02*
Y106507D01*
X-619788D01*
Y94333D01*
X-628891D01*
Y97420D01*
X-632392D01*
Y96822D01*
X-646101D01*
Y104114D01*
X-632392D01*
Y103468D01*
X-630449D01*
X-630401Y103420D01*
X-628891D01*
G37*
G36*
G01X-353182Y131522D02*
X-368980D01*
X-408587Y91916D01*
X-443590D01*
Y91716D01*
X-454690D01*
Y127116D01*
X-443590D01*
Y96916D01*
X-410658D01*
X-371052Y136522D01*
X-353182D01*
G02Y131522I4039J-2500D01*
G37*
G36*
G01X-361456Y80841D02*
X-350832D01*
X-345708Y75717D01*
X-318471D01*
Y76363D01*
X-304762D01*
Y75717D01*
X-301761D01*
G02Y69717I0J-3000D01*
G01X-304762D01*
Y69071D01*
X-318471D01*
Y69717D01*
X-348194D01*
X-353318Y74841D01*
X-361456D01*
G02Y80841I-5009J3000D01*
G37*
G36*
G01X-318471Y57142D02*
Y58238D01*
X-324535D01*
Y54651D01*
X-333638D01*
Y66825D01*
X-324535D01*
Y63238D01*
X-319756D01*
X-319706Y63288D01*
X-318471D01*
Y64434D01*
X-304762D01*
Y57142D01*
X-318471D01*
G37*
G36*
G01X-476626Y57282D02*
X-472592D01*
Y60443D01*
X-471040D01*
Y91716D01*
X-473590D01*
Y126415D01*
X-478276D01*
G02Y132416I0J3000D01*
G01X-468040D01*
G02X-466732Y132116I0J-3000D01*
G01X-462490D01*
Y91716D01*
X-465040D01*
Y60443D01*
X-463489D01*
Y48270D01*
X-472592D01*
Y51282D01*
X-476626D01*
G02Y57282I0J3000D01*
G37*
G36*
G01X-465040Y31459D02*
Y27609D01*
X-461186D01*
Y20317D01*
X-474895D01*
Y27609D01*
X-471040D01*
Y31459D01*
X-472592D01*
Y43632D01*
X-463489D01*
Y31459D01*
X-465040D01*
G37*
G36*
G01X-624560Y22424D02*
Y25010D01*
X-615457D01*
Y12837D01*
X-624560D01*
Y15423D01*
X-628692D01*
Y15292D01*
X-642401D01*
Y22584D01*
X-628692D01*
Y22438D01*
X-626005D01*
X-625991Y22424D01*
X-624560D01*
G37*
G36*
G01X-517297Y80392D02*
X-499983D01*
X-485086Y65495D01*
Y22635D01*
X-477485Y15034D01*
X-474895D01*
Y15680D01*
X-461186D01*
Y15034D01*
X-456448D01*
G02Y9034I0J-3000D01*
G01X-461186D01*
Y8388D01*
X-474895D01*
Y9034D01*
X-479971D01*
X-491086Y20149D01*
Y63010D01*
X-502469Y74392D01*
X-517297D01*
G02Y80392I-5009J3000D01*
G37*
G36*
G01X-521098Y172164D02*
X-590100Y103162D01*
X-590101D01*
X-590636Y102627D01*
Y11636D01*
X-602660Y-387D01*
X-615457D01*
Y-3974D01*
X-624560D01*
Y-1387D01*
X-627207D01*
X-627344Y-1250D01*
X-678328D01*
G02Y5751I-4673J3500D01*
G01X-624560D01*
Y8199D01*
X-615457D01*
Y4613D01*
X-604731D01*
X-595636Y13708D01*
Y104698D01*
X-592172Y108162D01*
X-592171D01*
X-524634Y175700D01*
G02X-521098Y172164I1768J-1768D01*
G37*
G36*
G01X-57384Y206103D02*
X-1683D01*
X-1578Y206207D01*
X-34D01*
G02X32Y201102I4041J-2500D01*
G01X-68252D01*
X-78996Y211847D01*
Y235070D01*
X-79965D01*
Y242132D01*
X-86076D01*
G02Y248132I0J3000D01*
G01X-79965D01*
Y249094D01*
X-73027D01*
Y248429D01*
X-69665D01*
X-69657Y248420D01*
X-65284D01*
G02X-63938Y248101I0J-3000D01*
G01X-60339D01*
Y242920D01*
X-58688D01*
X-54186Y238418D01*
Y210267D01*
X-57667Y206785D01*
G03X-57384Y206103I283J-283D01*
G37*
G36*
G01X-230105Y104777D02*
Y91067D01*
X-237397D01*
Y104777D01*
X-236251D01*
Y106014D01*
X-236192Y106073D01*
Y111961D01*
X-239778D01*
Y121064D01*
X-227605D01*
Y111961D01*
X-231192D01*
Y104777D01*
X-230105D01*
G37*
G36*
G01X-213605Y75382D02*
X-218348D01*
X-224822Y81855D01*
Y91067D01*
X-225467D01*
Y104777D01*
X-224822D01*
Y106758D01*
G02X-218822I3000J0D01*
G01Y104777D01*
X-218176D01*
Y91067D01*
X-218822D01*
Y84340D01*
X-215863Y81382D01*
X-213605D01*
G02Y75382I5009J-3000D01*
G37*
G36*
G01X-130024Y45570D02*
Y42483D01*
X-139127D01*
Y54657D01*
X-130024D01*
Y51570D01*
X-127239D01*
X-127231Y51578D01*
X-125321D01*
Y52223D01*
X-111612D01*
Y44932D01*
X-125321D01*
Y45570D01*
X-130024D01*
G37*
G54D34*
X-499950Y-960D03*
X50D03*
G54D35*
X-410166Y164022D03*
Y174022D03*
Y184022D03*
Y194022D03*
Y204022D03*
Y244022D03*
Y254022D03*
Y264022D03*
Y214022D03*
Y224022D03*
Y234022D03*
Y274022D03*
Y284022D03*
Y294022D03*
Y304022D03*
Y314022D03*
X-349143Y154022D03*
Y174022D03*
Y184022D03*
Y194022D03*
Y204022D03*
Y244022D03*
Y254022D03*
Y264022D03*
Y214022D03*
Y224022D03*
Y234022D03*
Y274022D03*
G54D37*
X4007Y193707D03*
Y183707D03*
Y213707D03*
G54D36*
X-410166Y324022D03*
G54D38*
X4007Y173707D03*
%LPD*%
G75*
G36*
G01X-66180Y206103D02*
X-73996Y213918D01*
Y235070D01*
X-73027D01*
Y242428D01*
X-72210D01*
X-72202Y242420D01*
X-70229D01*
Y237738D01*
X-60578D01*
X-59186Y236347D01*
Y212338D01*
X-60507Y211017D01*
X-62643D01*
G03X-64442Y206780I0J-2500D01*
G02X-64730Y206103I-288J-278D01*
G01X-66180D01*
G37*
G54D10*
X-769176Y15842D03*
X-768434Y87920D03*
X-766946Y157162D03*
X-768936Y229012D03*
X-767016Y308192D03*
X-594776Y367562D03*
X-547436Y-14818D03*
X-488026Y367692D03*
X-393076Y-14948D03*
X-320596Y364392D03*
X-330596D03*
X-340596D03*
X-238186Y-14448D03*
X-251186Y367012D03*
X-152922Y365243D03*
X5444Y60092D03*
X5984Y139292D03*
X5976Y243825D03*
X7157Y327998D03*
G54D20*
X-410166Y134022D03*
Y144022D03*
Y154022D03*
Y164022D03*
Y174022D03*
Y184022D03*
Y194022D03*
Y204022D03*
Y244022D03*
Y254022D03*
Y264022D03*
Y214022D03*
Y224022D03*
Y234022D03*
Y274022D03*
Y284022D03*
Y294022D03*
Y304022D03*
Y314022D03*
X-349143Y134022D03*
Y144022D03*
Y154022D03*
Y164022D03*
Y174022D03*
Y184022D03*
Y194022D03*
Y204022D03*
Y244022D03*
Y254022D03*
Y264022D03*
Y214022D03*
Y224022D03*
Y234022D03*
Y274022D03*
Y284022D03*
Y294022D03*
Y304022D03*
Y314022D03*
G54D11*
X-769176Y25842D03*
X-768434Y97920D03*
X-766946Y167162D03*
X-768936Y239012D03*
X-767016Y318192D03*
X-537436Y-14818D03*
X-584776Y367562D03*
X-478026Y367692D03*
X-383076Y-14948D03*
X-261186Y367012D03*
X-228186Y-14448D03*
X-162922Y365243D03*
X5444Y50092D03*
X5984Y129292D03*
X5976Y253825D03*
X7157Y317998D03*
G54D30*
G01X-753796Y371952D02*
X-6246D01*
G02X7684Y366182I0J-19700D01*
G01X8154Y365712D01*
G02X13444Y352941I-12771J-12771D01*
G01Y-2688D01*
G02X-5626Y-21758I-19070J0D01*
G01X-754446D01*
G02X-773956Y-2248I0J19510D01*
G01Y351792D01*
G02X-753796Y371952I20160J0D01*
G54D12*
X-731032Y2250D03*
Y74298D03*
Y143983D03*
X-733001Y215242D03*
X-726308Y295164D03*
X-683001Y2250D03*
X-675127Y25873D03*
X-683001Y74298D03*
Y49494D03*
Y143983D03*
X-675127Y97920D03*
X-683001Y121542D03*
X-675127Y167605D03*
X-683001Y191227D03*
X-684969Y215242D03*
X-677095Y238865D03*
X-684969Y262487D03*
X-678276Y295164D03*
X-670402Y318786D03*
X-678276Y342408D03*
X-620009Y295951D03*
X-570337Y30148D03*
X-571977Y295951D03*
X-564103Y319573D03*
X-571977Y343195D03*
X-522306Y30148D03*
X-514432Y53770D03*
X-522306Y77392D03*
X-514103Y296345D03*
X-414497Y30597D03*
X-466072Y296345D03*
X-458198Y319967D03*
X-466072Y343589D03*
X-366465Y30597D03*
X-358591Y54219D03*
X-366465Y77841D03*
X-256628Y31138D03*
X-288119Y317211D03*
X-280245Y293589D03*
X-232213Y340833D03*
X-280245D03*
X-208596Y31138D03*
X-200722Y54760D03*
X-208596Y78382D03*
X-190087Y317211D03*
X-182213Y293589D03*
Y340833D03*
X-134182D03*
X-86544Y26660D03*
Y73904D03*
X-94418Y50282D03*
X-94812Y129416D03*
X-86938Y105794D03*
Y153038D03*
X-90481Y317998D03*
X-82607Y294376D03*
Y341620D03*
X-38513Y73904D03*
X-38906Y153038D03*
X-34576Y341620D03*
G54D21*
X-468040Y129416D03*
X-449140D03*
Y124416D03*
Y119416D03*
Y114416D03*
Y109416D03*
Y104416D03*
Y99416D03*
X-468040Y94416D03*
Y99416D03*
Y104416D03*
Y109416D03*
Y114416D03*
Y119416D03*
Y124416D03*
X-449140Y94416D03*
X-244814Y203038D03*
Y208038D03*
Y213038D03*
Y218038D03*
Y223038D03*
Y228038D03*
Y233038D03*
Y238038D03*
X-225914Y203038D03*
Y208038D03*
Y238038D03*
Y233038D03*
Y228038D03*
Y223038D03*
Y218038D03*
Y213038D03*
G54D31*
G01X-522866Y173932D02*
X-591136Y105662D01*
X-593136Y103662D01*
Y12672D01*
X-603695Y2113D01*
X-620009D01*
G01X-614516Y83602D02*
X-617516D01*
X-617523Y83609D01*
X-624339D01*
G01X-623158Y143845D02*
X-610053D01*
X-599731Y154167D01*
Y188137D01*
G01X-623158Y160656D02*
X-631030D01*
X-631042Y160668D01*
X-638096D01*
G01X-555296Y208462D02*
X-600986D01*
X-609304Y200144D01*
X-625914D01*
G01X-531426Y235321D02*
Y229242D01*
G01X-449140Y94416D02*
X-409622D01*
X-370016Y134022D01*
X-349143D01*
G01X-360186Y122082D02*
X-294939D01*
X-235456Y181565D01*
Y235112D01*
X-238382Y238038D01*
X-244814D01*
G01X-329086Y60738D02*
X-318720D01*
X-318670Y60788D01*
X-311616D01*
G01X-329086Y43927D02*
X-300172D01*
X-289676Y54422D01*
Y82402D01*
X-207676Y164402D01*
Y204422D01*
X-211292Y208038D01*
X-225914D01*
G01X-349143Y144022D02*
X-328166D01*
X-264150Y208038D01*
X-244814D01*
G01X-349143Y164022D02*
X-326016D01*
X-277000Y213038D01*
X-244814D01*
G01Y223038D02*
X-250564D01*
X-250590Y223012D01*
X-259326D01*
X-330336Y294022D01*
X-349143D01*
G01X-244814Y218038D02*
X-268482D01*
X-334466Y284022D01*
X-349143D01*
G01X-330693Y324072D02*
X-336494D01*
X-336544Y324022D01*
X-349143D01*
G01X-331833Y304012D02*
X-344582D01*
X-344593Y304022D01*
X-349143D01*
G01X-233692Y116512D02*
Y105036D01*
X-233751Y104977D01*
Y97922D01*
G01X-225914Y238038D02*
Y244376D01*
X-232213Y250676D01*
Y251069D01*
G01X-255766Y233012D02*
X-250590D01*
X-250564Y233038D01*
X-244814D01*
G01Y228038D02*
X-253860D01*
G01X-208596Y31138D02*
X-197560D01*
X-189526Y39172D01*
Y98942D01*
X-207096Y116512D01*
G01X-134576Y65381D02*
Y65380D01*
X-143604D01*
X-184086Y105862D01*
Y210782D01*
X-191342Y218038D01*
X-225914D01*
G01X-216881Y116512D02*
X-207096D01*
G01D02*
X-206086D01*
X-199836Y122762D01*
Y207742D01*
X-205132Y213038D01*
X-225914D01*
G01Y223038D02*
X-181602D01*
X-174886Y216322D01*
Y162272D01*
X-165766Y153152D01*
X-138956D01*
X-138933Y153176D01*
X-134182D01*
G01X-190087Y248313D02*
X-202292D01*
X-217568Y233038D01*
X-225914D01*
G01X-179064Y248313D02*
Y257733D01*
X-179111Y257781D01*
Y262532D01*
G01X-92844Y264061D02*
X-121190D01*
X-157214Y228038D01*
X-225914D01*
G01X-134182Y136365D02*
X-125122D01*
X-125120Y136367D01*
X-118066D01*
G01X-134182Y153176D02*
X-92714D01*
X-92576Y153038D01*
X-86938D01*
G01X-162300Y262532D02*
Y270958D01*
X-162331Y270988D01*
Y278042D01*
G01X-62643Y208516D02*
X-59472D01*
X-56686Y211302D01*
Y237382D01*
X-59724Y240420D01*
X-65284D01*
G01X4007Y203707D02*
X-545D01*
X-650Y203602D01*
X-67216D01*
X-76496Y212882D01*
Y238736D01*
G01X-53746Y251302D02*
X-57864Y255420D01*
X-65284D01*
G01X-81958Y277054D02*
X-99143D01*
X-107411Y285321D01*
Y333353D01*
X-99143Y341620D01*
X-82607D01*
G01X-43237Y245420D02*
X-667D01*
X928Y243825D01*
X5976D01*
G01Y253825D02*
X-9876Y269677D01*
Y273926D01*
G01X5976Y253825D02*
X428D01*
X-2978Y250420D01*
X-43237D01*
G01X-9876Y280618D02*
Y280619D01*
X1154D01*
X1176Y280597D01*
X5976D01*
G54D22*
X-438313Y153992D03*
X-431620D03*
X-325140Y304012D03*
X-331833D03*
X-324000Y324072D03*
X-330693D03*
G54D13*
X-755856Y353371D03*
X-499950Y-960D03*
X50D03*
Y353371D03*
G54D32*
G01X-624339Y83609D02*
X-656600D01*
X-665911Y74298D01*
X-683001D01*
G01X-639246Y112397D02*
X-673856D01*
X-683001Y121542D01*
G01Y143983D02*
X-628547D01*
X-628409Y143845D01*
X-623158D01*
G01X-683001Y191227D02*
X-665531D01*
X-646901Y172597D01*
X-638096D01*
G01X-625914Y200144D02*
X-631165D01*
X-631173Y200152D01*
X-651976D01*
X-667066Y215242D01*
X-684969D01*
G01X-640616Y228817D02*
X-651981Y228817D01*
X-658516Y235352D01*
Y254152D01*
X-666851Y262487D01*
X-684969D01*
G01X-678276Y295164D02*
X-660568D01*
X-649280Y283876D01*
Y253825D01*
G01X-678276Y342408D02*
X-651672D01*
X-636326Y327062D01*
Y292451D01*
X-620511Y276637D01*
Y269082D01*
G01X-635546Y30867D02*
X-625501Y30867D01*
G01X-639246Y112397D02*
X-626761D01*
G01X-624339Y100420D02*
X-631644D01*
X-631692Y100468D01*
X-639246D01*
G01X-638096Y172597D02*
X-625672D01*
G01X-632469Y253825D02*
Y261499D01*
X-632441Y261528D01*
Y269082D01*
G01X-640616Y228817D02*
X-631020Y228817D01*
G01X-620511Y269082D02*
Y259888D01*
G01X-625914Y216956D02*
Y216955D01*
X-632994D01*
X-633062Y216888D01*
X-640616D01*
G01X-620086Y234912D02*
X-625613Y240439D01*
X-638119D01*
G01X-649142D02*
Y248436D01*
X-649280Y248574D01*
Y253825D01*
G01X-554782Y270432D02*
Y261547D01*
G01X-566721Y256188D02*
Y262867D01*
X-566711Y262878D01*
Y270432D01*
G01X-572396Y226362D02*
Y233342D01*
X-572371Y233367D01*
Y241227D01*
G01X-571977Y295951D02*
X-572038Y296012D01*
X-579056D01*
X-583532Y291536D01*
Y256188D01*
G01X-583394Y241227D02*
Y250798D01*
X-583532Y250936D01*
Y256188D01*
G01X-554782Y270432D02*
Y337778D01*
X-560199Y343195D01*
X-571977D01*
G01X-522306Y77392D02*
X-501226D01*
X-488086Y64252D01*
Y21392D01*
X-478728Y12034D01*
X-468040D01*
G01X-476626Y54282D02*
X-468115D01*
X-468040Y54357D01*
G01Y129416D02*
X-478276D01*
G01X-485501Y259731D02*
Y244358D01*
X-494537Y235321D01*
X-520402D01*
G01X-468040Y12034D02*
X-456448Y12034D01*
G01X-468040Y37546D02*
Y23963D01*
G01Y54357D02*
Y94416D01*
G01X-449140Y129416D02*
X-440087D01*
G01X-340596Y355352D02*
X-349316Y346632D01*
X-414586D01*
X-438313Y322906D01*
Y153992D01*
G01X-431620D02*
X-415246D01*
X-415216Y154022D01*
X-410166D01*
G01X-466072Y343589D02*
X-449056Y326574D01*
Y299472D01*
X-456741Y291787D01*
Y273442D01*
G01D02*
X-452396D01*
X-449316Y276522D01*
Y278422D01*
G01X-366465Y77841D02*
X-352075D01*
X-346951Y72717D01*
X-311616D01*
G01X-329086Y43927D02*
X-347541D01*
X-347546Y43932D01*
X-353130D01*
X-366465Y30597D01*
G01X-311616Y72717D02*
X-301761Y72717D01*
G01X-324000Y324072D02*
Y338756D01*
X-340596Y355352D01*
G01X-325139Y313275D02*
Y308900D01*
X-325139Y308899D01*
Y304012D01*
X-325140D01*
G01X-201186Y268942D02*
Y283972D01*
X-221226Y304012D01*
X-325140D01*
G01X-340596Y355352D02*
Y364392D01*
G01X-243237Y251069D02*
Y258655D01*
X-243222Y258671D01*
Y263922D01*
G01Y278748D02*
Y263922D01*
G01X-243216Y312162D02*
Y315662D01*
X-243222Y315668D01*
Y318008D01*
X-266047Y340833D01*
X-280245D01*
G01X-208596Y78382D02*
X-217106D01*
X-221822Y83098D01*
Y97922D01*
G01X-221822D02*
X-221822Y106758D01*
G01X-225914Y203038D02*
X-217650D01*
G01X-182213Y340833D02*
X-201155D01*
X-208926Y333062D01*
Y303792D01*
X-179111Y273978D01*
Y262532D01*
G01X-226411Y263922D02*
Y269458D01*
X-226370Y269498D01*
Y277052D01*
G01X-150402Y278042D02*
X-150402Y290438D01*
X-153553Y293589D01*
X-182213D01*
G01X-86544Y26660D02*
X-96464D01*
X-103746Y33942D01*
Y55842D01*
X-108411Y60507D01*
X-118466D01*
G01D02*
X-126611D01*
G01X-86544Y73904D02*
X-92683D01*
X-92694Y73892D01*
X-120306D01*
X-128818Y65380D01*
X-134576D01*
Y65381D01*
G01Y48570D02*
X-126029D01*
X-126020Y48578D01*
X-118466D01*
G01X-118066Y124438D02*
X-109772D01*
X-104076Y118742D01*
Y110562D01*
X-99308Y105794D01*
X-86938D01*
G01X-118066Y124438D02*
X-127961D01*
G01X-150402Y278042D02*
X-142686D01*
G01X-76496Y245429D02*
X-70938Y245429D01*
X-70929Y245420D01*
X-65284D01*
G01X-86076Y245132D02*
X-76792D01*
X-76496Y245429D01*
G01X-81958Y277054D02*
Y269942D01*
X-81820Y269805D01*
Y264061D01*
G01X-42784Y277054D02*
X-42784Y286049D01*
X-51112Y294376D01*
X-82607D01*
G01X-54713Y277054D02*
X-65147D01*
G01X-42784D02*
X-35364D01*
G54D23*
X-410166Y324022D03*
X-349143D03*
G54D14*
X-635546Y18938D03*
Y30867D03*
X-639246Y112397D03*
Y100468D03*
X-638096Y172597D03*
Y160668D03*
X-640616Y228817D03*
Y216888D03*
X-468040Y12034D03*
Y23963D03*
X-311616Y72717D03*
Y60788D03*
X-118466Y60507D03*
Y48578D03*
X-118066Y124438D03*
Y136367D03*
G54D33*
G01X-683001Y2250D02*
X-625898D01*
X-625760Y2113D01*
X-620009D01*
G01X-683001Y49494D02*
X-663008D01*
X-644381Y30867D01*
X-635546D01*
G01X-620009Y18924D02*
X-627478D01*
X-627492Y18938D01*
X-635546D01*
G01X-280245Y293589D02*
X-222924D01*
X-214441Y285107D01*
Y277052D01*
G01D02*
X-208806D01*
G54D24*
X-350596Y364392D03*
G54D15*
X-620009Y18924D03*
Y2113D03*
X-624339Y83609D03*
X-623158Y143845D03*
X-624339Y100420D03*
X-625914Y200144D03*
X-623158Y160656D03*
X-625914Y216956D03*
X-468040Y37546D03*
Y54357D03*
X-329086Y60738D03*
Y43927D03*
X-134576Y48570D03*
Y65381D03*
X-134182Y136365D03*
Y153176D03*
G54D25*
X-76496Y245429D03*
Y238736D03*
X-9876Y280618D03*
Y273926D03*
G54D16*
X-625501Y30867D03*
X-614516Y83602D03*
X-626761Y112397D03*
X-625672Y172597D03*
X-599731Y188137D03*
X-620511Y259888D03*
X-631020Y228817D03*
X-620086Y234912D03*
X-555296Y208462D03*
X-554782Y261547D03*
X-572396Y226362D03*
X-476626Y54282D03*
X-478276Y129416D03*
X-512526Y181862D03*
X-522866Y173932D03*
X-531426Y229242D03*
X-456448Y12034D03*
X-440087Y129416D03*
X-449316Y278422D03*
X-360186Y122082D03*
X-301761Y72717D03*
X-325139Y313275D03*
X-255766Y233012D03*
X-253860Y228038D03*
X-243222Y278748D03*
X-243216Y312162D03*
X-221822Y106758D03*
X-217650Y203038D03*
X-201186Y268942D03*
X-208806Y277052D03*
X-126611Y60507D03*
X-127961Y124438D03*
X-142686Y278042D03*
X-53746Y251302D03*
X-62643Y208516D03*
X-86076Y245132D03*
X-35364Y277054D03*
G54D26*
X-65284Y240420D03*
Y245420D03*
Y250420D03*
Y255420D03*
X-43237D03*
Y250420D03*
Y245420D03*
Y240420D03*
G54D17*
X-649142Y240439D03*
X-638119D03*
X-531426Y235321D03*
X-583394Y241227D03*
X-572371D03*
X-520402Y235321D03*
X-243237Y251069D03*
X-232213D03*
X-179064Y248313D03*
X-190087D03*
X-81820Y264061D03*
X-92844D03*
G54D27*
X4007Y203707D03*
Y193707D03*
Y183707D03*
Y223707D03*
Y213707D03*
G54D18*
X-620511Y269082D03*
X-632441D03*
X-554782Y270432D03*
X-566711D03*
X-456741Y273442D03*
X-468670D03*
X-233751Y97922D03*
X-221822D03*
X-214441Y277052D03*
X-226370D03*
X-150402Y278042D03*
X-162331D03*
X-54713Y277054D03*
X-42784D03*
G54D28*
X4007Y173707D03*
G54D19*
X-632469Y253825D03*
X-649280D03*
X-566721Y256188D03*
X-583532D03*
X-468690Y259731D03*
X-485501D03*
X-233692Y116512D03*
X-243222Y263922D03*
X-216881Y116512D03*
X-226411Y263922D03*
X-179111Y262532D03*
X-162300D03*
X-65147Y277054D03*
X-81958D03*
G54D29*
G01X-466072Y296345D02*
X-466109Y296382D01*
X-478416D01*
X-485501Y289298D01*
Y259731D01*
G01X-468690D02*
Y273423D01*
X-468670Y273442D01*
X5976Y270597D03*
Y280597D03*
M02*
