G04 ================== begin FILE IDENTIFICATION RECORD ==================*
G04 Layout Name:  D:/Sankar/Personal/Power_Board/POWER.brd*
G04 Film Name:    ASSY_TOP*
G04 File Format:  Gerber RS274X*
G04 File Origin:  Cadence Allegro 16.6-P004*
G04 Origin Date:  Wed May 26 20:43:45 2021*
G04 *
G04 Layer:  REF DES/ASSEMBLY_TOP*
G04 Layer:  PIN/TOP*
G04 Layer:  PACKAGE GEOMETRY/ASSEMBLY_TOP*
G04 Layer:  BOARD GEOMETRY/OUTLINE*
G04 *
G04 Offset:    (0.000 0.000)*
G04 Mirror:    No*
G04 Mode:      Positive*
G04 Rotation:  0*
G04 FullContactRelief:  No*
G04 UndefLineWidth:     0.000*
G04 ================== end FILE IDENTIFICATION RECORD ====================*
%FSLAX25Y25*MOIN*%
%IR0*IPPOS*OFA0.00000B0.00000*MIA0B0*SFA1.00000B1.00000*%
%ADD13C,.13*%
%AMMACRO26*
4,1,44,.016339,.009256,
.016339,-.009256,
.016208,-.010759,
.015817,-.012217,
.015179,-.013584,
.014314,-.01482,
.013247,-.015887,
.012011,-.016753,
.010644,-.017391,
.009186,-.017781,
.007683,-.017913,
.007677,-.017913,
-.007677,-.017913,
-.00918,-.017782,
-.010638,-.017393,
-.012006,-.016756,
-.013243,-.015891,
-.01431,-.014825,
-.015177,-.013589,
-.015815,-.012222,
-.016207,-.010765,
-.016339,-.009262,
-.016339,-.009256,
-.016339,.009256,
-.016208,.010759,
-.015817,.012217,
-.015179,.013584,
-.014314,.01482,
-.013247,.015887,
-.012011,.016753,
-.010644,.017391,
-.009186,.017781,
-.007683,.017913,
-.007677,.017913,
.007677,.017913,
.00918,.017782,
.010638,.017393,
.012006,.016756,
.013243,.015891,
.01431,.014825,
.015177,.013589,
.015815,.012222,
.016207,.010765,
.016339,.009262,
.016339,.009256,
0.0*
%
%ADD26MACRO26*%
%ADD25P,.070313X8X22.5*%
%ADD21R,.078X.022*%
%ADD12C,.06*%
%ADD14R,.06X.06*%
%ADD20R,.079X.098*%
%ADD22R,.091732X.061024*%
%ADD23R,.03937X.043307*%
%ADD17R,.043307X.03937*%
%ADD10C,.064961*%
%ADD15R,.151575X.216535*%
%AMMACRO19*
4,1,40,-.047835,-.034697,
-.047835,.034697,
-.047652,.036774,
-.047111,.038788,
-.046229,.040678,
-.045032,.042385,
-.043557,.043859,
-.041848,.045054,
-.039957,.045935,
-.037943,.046473,
-.035878,.046654,
.035878,.046654,
.037955,.046471,
.039969,.04593,
.041859,.045048,
.043566,.043851,
.04504,.042376,
.046235,.040667,
.047116,.038776,
.047654,.036762,
.047835,.034697,
.047835,-.034697,
.047652,-.036774,
.047111,-.038788,
.046229,-.040678,
.045032,-.042385,
.043557,-.043859,
.041848,-.045054,
.039957,-.045935,
.037943,-.046473,
.035878,-.046654,
-.035878,-.046654,
-.037955,-.046471,
-.039969,-.04593,
-.041859,-.045048,
-.043566,-.043851,
-.04504,-.042376,
-.046235,-.040667,
-.047116,-.038776,
-.047654,-.036762,
-.047835,-.034697,
0.0*
%
%ADD19MACRO19*%
%ADD11R,.064961X.064961*%
%ADD16R,.067717X.041339*%
%ADD18R,.041339X.067717*%
%AMMACRO27*
4,1,44,-.016339,-.009256,
-.016339,.009256,
-.016208,.010759,
-.015817,.012217,
-.015179,.013584,
-.014314,.01482,
-.013247,.015887,
-.012011,.016753,
-.010644,.017391,
-.009186,.017781,
-.007683,.017913,
-.007677,.017913,
.007677,.017913,
.00918,.017782,
.010638,.017393,
.012006,.016756,
.013243,.015891,
.01431,.014825,
.015177,.013589,
.015815,.012222,
.016207,.010765,
.016339,.009262,
.016339,.009256,
.016339,-.009256,
.016208,-.010759,
.015817,-.012217,
.015179,-.013584,
.014314,-.01482,
.013247,-.015887,
.012011,-.016753,
.010644,-.017391,
.009186,-.017781,
.007683,-.017913,
.007677,-.017913,
-.007677,-.017913,
-.00918,-.017782,
-.010638,-.017393,
-.012006,-.016756,
-.013243,-.015891,
-.01431,-.014825,
-.015177,-.013589,
-.015815,-.012222,
-.016207,-.010765,
-.016339,-.009262,
-.016339,-.009256,
0.0*
%
%ADD27MACRO27*%
%ADD24R,.057087X.045276*%
%ADD28C,.004*%
%ADD29C,.005*%
%ADD30C,.008*%
%ADD31C,.007874*%
%ADD32C,.019685*%
G75*
%LPD*%
G75*
G36*
G01X-126965Y3337D02*
Y-410D01*
X-125001D01*
Y3337D01*
X-126965D01*
G37*
G36*
G01X-131580D02*
Y-408D01*
X-129601D01*
Y3337D01*
X-131580D01*
G37*
G36*
G01X-109125Y102617D02*
Y98870D01*
X-107161D01*
Y102617D01*
X-109125D01*
G37*
G36*
G01X-113739D02*
Y98872D01*
X-111761D01*
Y102617D01*
X-113739D01*
G37*
G36*
G01X-96405Y137077D02*
Y133330D01*
X-94441D01*
Y137077D01*
X-96405D01*
G37*
G36*
G01X-101019D02*
Y133332D01*
X-99041D01*
Y137077D01*
X-101019D01*
G37*
G36*
G01X-111736Y104237D02*
Y107985D01*
X-113699D01*
Y104237D01*
X-111736D01*
G37*
G36*
G01X-107121D02*
Y107982D01*
X-109099D01*
Y104237D01*
X-107121D01*
G37*
G36*
G01X-70876Y10607D02*
Y14355D01*
X-72839D01*
Y10607D01*
X-70876D01*
G37*
G36*
G01X-66261D02*
Y14352D01*
X-68239D01*
Y10607D01*
X-66261D01*
G37*
G36*
G01X-76960Y13322D02*
X-80708D01*
Y11358D01*
X-76960D01*
Y13322D01*
G37*
G36*
G01X-68295Y25577D02*
Y21830D01*
X-66332D01*
Y25577D01*
X-68295D01*
G37*
G36*
G01X-72909D02*
Y21832D01*
X-70932D01*
Y25577D01*
X-72909D01*
G37*
G36*
G01X-68295Y19867D02*
Y16120D01*
X-66332D01*
Y19867D01*
X-68295D01*
G37*
G36*
G01X-72909D02*
Y16122D01*
X-70932D01*
Y19867D01*
X-72909D01*
G37*
G36*
G01X-76960Y17936D02*
X-80706D01*
Y15958D01*
X-76960D01*
Y17936D01*
G37*
G36*
G01X-91546Y16117D02*
Y19865D01*
X-93509D01*
Y16117D01*
X-91546D01*
G37*
G36*
G01X-86931D02*
Y19862D01*
X-88909D01*
Y16117D01*
X-86931D01*
G37*
G36*
G01X-91526Y21937D02*
Y25685D01*
X-93489D01*
Y21937D01*
X-91526D01*
G37*
G36*
G01X-86911D02*
Y25682D01*
X-88889D01*
Y21937D01*
X-86911D01*
G37*
G36*
G01X-66839Y60047D02*
Y56302D01*
X-64861D01*
Y60047D01*
X-66839D01*
G37*
G36*
G01X-66490Y117422D02*
X-70238D01*
Y115458D01*
X-66490D01*
Y117422D01*
G37*
G36*
G01Y122036D02*
X-70235D01*
Y120058D01*
X-66490D01*
Y122036D01*
G37*
G36*
G01X-72190Y117422D02*
X-75938D01*
Y115458D01*
X-72190D01*
Y117422D01*
G37*
G36*
G01Y122036D02*
X-75935D01*
Y120058D01*
X-72190D01*
Y122036D01*
G37*
G36*
G01X-32360Y39982D02*
X-36108D01*
Y38018D01*
X-32360D01*
Y39982D01*
G37*
G36*
G01Y44596D02*
X-36106D01*
Y42618D01*
X-32360D01*
Y44596D01*
G37*
G36*
G01X-37720Y39942D02*
X-41468D01*
Y37978D01*
X-37720D01*
Y39942D01*
G37*
G36*
G01Y44556D02*
X-41465D01*
Y42578D01*
X-37720D01*
Y44556D01*
G37*
G36*
G01X-62225Y60047D02*
Y56300D01*
X-60261D01*
Y60047D01*
X-62225D01*
G37*
G36*
G01X-46511Y116618D02*
X-51629D01*
Y114650D01*
X-46511D01*
Y116618D01*
G37*
G36*
G01Y122524D02*
X-51629D01*
Y120556D01*
X-46511D01*
Y122524D01*
G37*
G36*
G01X-58101Y116659D02*
X-63219D01*
Y114690D01*
X-58101D01*
Y116659D01*
G37*
G36*
G01Y122564D02*
X-63219D01*
Y120596D01*
X-58101D01*
Y122564D01*
G37*
G36*
G01X-12651Y39429D02*
X-17769D01*
Y37460D01*
X-12651D01*
Y39429D01*
G37*
G36*
G01Y45334D02*
X-17769D01*
Y43366D01*
X-12651D01*
Y45334D01*
G37*
G36*
G01X-23181Y39389D02*
X-28299D01*
Y37420D01*
X-23181D01*
Y39389D01*
G37*
G36*
G01Y45294D02*
X-28299D01*
Y43326D01*
X-23181D01*
Y45294D01*
G37*
G36*
G01X7770Y157542D02*
X11517D01*
Y159506D01*
X7770D01*
Y157542D01*
G37*
G36*
G01Y152928D02*
X11515D01*
Y154906D01*
X7770D01*
Y152928D01*
G37*
G36*
G01X7270Y141983D02*
X11017D01*
Y143946D01*
X7270D01*
Y141983D01*
G37*
G36*
G01Y137368D02*
X11015D01*
Y139346D01*
X7270D01*
Y137368D01*
G37*
G36*
G01X7989Y173033D02*
X11737D01*
Y174996D01*
X7989D01*
Y173033D01*
G37*
G36*
G01Y168418D02*
X11735D01*
Y170396D01*
X7989D01*
Y168418D01*
G37*
G54D10*
X-185230Y16977D03*
Y6977D03*
Y26977D03*
X-184450Y72407D03*
Y62407D03*
Y82407D03*
Y127297D03*
Y117297D03*
Y137297D03*
X12740Y122097D03*
G54D11*
X-185230Y-3023D03*
X-184450Y52407D03*
Y107297D03*
G54D20*
X-97410Y119857D03*
X-63240Y43427D03*
G54D30*
G01X-202963Y-12232D02*
X-202462Y-11915D01*
X-202129Y-11536D01*
X-201963Y-11092D01*
X-202129Y-10585D01*
X-202462Y-10205D01*
X-202963Y-9825D01*
X-203629Y-9699D01*
X-206963D01*
G01X-201963Y-6666D02*
X-206963D01*
X-205963Y-7425D01*
G01X-201963D02*
Y-5906D01*
G01X-206963Y-2366D02*
X-206796Y-2872D01*
X-206379Y-3252D01*
X-205879Y-3505D01*
X-205213Y-3695D01*
X-204462Y-3759D01*
X-203712Y-3695D01*
X-203046Y-3505D01*
X-202546Y-3252D01*
X-202129Y-2872D01*
X-201963Y-2366D01*
X-202129Y-1859D01*
X-202546Y-1479D01*
X-203046Y-1225D01*
X-203712Y-1035D01*
X-204462Y-972D01*
X-205213Y-1035D01*
X-205879Y-1225D01*
X-206379Y-1479D01*
X-206796Y-1859D01*
X-206963Y-2366D01*
G01X-202183Y43198D02*
X-201683Y43515D01*
X-201349Y43894D01*
X-201183Y44338D01*
X-201349Y44845D01*
X-201683Y45225D01*
X-202183Y45605D01*
X-202849Y45731D01*
X-206183D01*
G01X-201766Y47688D02*
X-201349Y48131D01*
X-201183Y48638D01*
X-201349Y49145D01*
X-201849Y49588D01*
X-202599Y49905D01*
X-203349Y50031D01*
X-204266D01*
X-205016Y49905D01*
X-205683Y49588D01*
X-206016Y49208D01*
X-206183Y48764D01*
X-206016Y48258D01*
X-205683Y47878D01*
X-205183Y47625D01*
X-204516Y47498D01*
X-203933Y47625D01*
X-203349Y47941D01*
X-203016Y48321D01*
X-202933Y48764D01*
X-203099Y49271D01*
X-203516Y49651D01*
X-204266Y50031D01*
G01X-202183Y98088D02*
X-201683Y98405D01*
X-201349Y98785D01*
X-201183Y99228D01*
X-201349Y99735D01*
X-201683Y100115D01*
X-202183Y100495D01*
X-202849Y100621D01*
X-206183D01*
G01X-201933Y102261D02*
X-201516Y102641D01*
X-201266Y103085D01*
X-201183Y103655D01*
X-201349Y104225D01*
X-201683Y104668D01*
X-202266Y104985D01*
X-202933Y105048D01*
X-203599Y104921D01*
X-204016Y104605D01*
X-204349Y104161D01*
X-204433Y103718D01*
X-204349Y103275D01*
X-204016Y102705D01*
X-206183Y102895D01*
Y104605D01*
G01X-180319Y180693D02*
X-180869Y180360D01*
X-181236Y179960D01*
X-181419Y179493D01*
X-181236Y178960D01*
X-180869Y178560D01*
X-180319Y178160D01*
X-179586Y178026D01*
X-175919D01*
G01X-176836Y176126D02*
X-176286Y175726D01*
X-176010Y175260D01*
X-175919Y174726D01*
X-176102Y174060D01*
X-176561Y173593D01*
X-177111Y173460D01*
X-177661Y173526D01*
X-178119Y173793D01*
X-179036Y175126D01*
X-179677Y175726D01*
X-180594Y176126D01*
X-181419Y176260D01*
Y173460D01*
G01X-153652Y178473D02*
X-153402Y178853D01*
X-153236Y179296D01*
Y179803D01*
X-153486Y180373D01*
X-153902Y180816D01*
X-154403Y181133D01*
X-155236Y181386D01*
X-155986Y181450D01*
X-156736Y181323D01*
X-157236Y181133D01*
X-157736Y180753D01*
X-158069Y180309D01*
X-158236Y179866D01*
Y179423D01*
X-158069Y178979D01*
X-157819Y178599D01*
X-157486Y178283D01*
G01X-156153Y176770D02*
X-155569Y176326D01*
X-155236Y175946D01*
X-155069Y175439D01*
X-155236Y174996D01*
X-155569Y174679D01*
X-156069Y174426D01*
X-156653Y174363D01*
X-157152Y174426D01*
X-157653Y174679D01*
X-158069Y175060D01*
X-158236Y175503D01*
X-158069Y176009D01*
X-157569Y176453D01*
X-156819Y176706D01*
X-155986Y176770D01*
X-154903Y176643D01*
X-154319Y176453D01*
X-153736Y176136D01*
X-153319Y175693D01*
X-153236Y175249D01*
X-153402Y174806D01*
X-153819Y174489D01*
G01X-164062Y178492D02*
X-163812Y178872D01*
X-163646Y179316D01*
Y179822D01*
X-163896Y180392D01*
X-164312Y180836D01*
X-164812Y181152D01*
X-165646Y181406D01*
X-166396Y181469D01*
X-167146Y181342D01*
X-167646Y181152D01*
X-168146Y180772D01*
X-168479Y180329D01*
X-168646Y179886D01*
Y179442D01*
X-168479Y178999D01*
X-168229Y178619D01*
X-167896Y178302D01*
G01X-168646Y175712D02*
X-167562Y175586D01*
X-166646Y175396D01*
X-165812Y175142D01*
X-164896Y174826D01*
X-163646Y174319D01*
Y176852D01*
G01X-139436Y-432D02*
X-139103Y-982D01*
X-138703Y-1348D01*
X-138236Y-1532D01*
X-137703Y-1348D01*
X-137303Y-982D01*
X-136903Y-432D01*
X-136770Y302D01*
Y3969D01*
G01X-132803Y-1532D02*
Y3969D01*
X-135270Y27D01*
X-131936D01*
G01X-134193Y3954D02*
Y8954D01*
X-132610D01*
X-132103Y8703D01*
X-131786Y8370D01*
X-131660Y7703D01*
X-131786Y7037D01*
X-132166Y6620D01*
X-132610Y6370D01*
X-134193D01*
G01X-132610D02*
X-131660Y3954D01*
G01X-129830Y6037D02*
X-129386Y6620D01*
X-129006Y6954D01*
X-128500Y7120D01*
X-128056Y6954D01*
X-127740Y6620D01*
X-127486Y6120D01*
X-127423Y5537D01*
X-127486Y5037D01*
X-127740Y4537D01*
X-128120Y4120D01*
X-128563Y3954D01*
X-129070Y4120D01*
X-129513Y4620D01*
X-129766Y5370D01*
X-129830Y6204D01*
X-129703Y7287D01*
X-129513Y7870D01*
X-129196Y8454D01*
X-128753Y8870D01*
X-128310Y8954D01*
X-127866Y8787D01*
X-127550Y8370D01*
G01X-140066Y19745D02*
X-140446Y19995D01*
X-140889Y20161D01*
X-141396D01*
X-141966Y19911D01*
X-142409Y19495D01*
X-142726Y18995D01*
X-142979Y18161D01*
X-143042Y17411D01*
X-142916Y16661D01*
X-142726Y16161D01*
X-142346Y15661D01*
X-141902Y15328D01*
X-141459Y15161D01*
X-141016D01*
X-140572Y15328D01*
X-140192Y15578D01*
X-139876Y15911D01*
G01X-137159Y15161D02*
Y20161D01*
X-137919Y19162D01*
G01Y15161D02*
X-136399D01*
G01X-134252Y16161D02*
X-133872Y15578D01*
X-133366Y15245D01*
X-132796Y15161D01*
X-132289Y15245D01*
X-131782Y15661D01*
X-131466Y16161D01*
X-131403Y16661D01*
X-131529Y17245D01*
X-131972Y17661D01*
X-132416Y17828D01*
X-132986D01*
G01X-132416D02*
X-132036Y18078D01*
X-131719Y18495D01*
X-131592Y18995D01*
X-131719Y19495D01*
X-132036Y19911D01*
X-132606Y20161D01*
X-133176Y20078D01*
X-133746Y19745D01*
G01X-140136Y43285D02*
X-140516Y43535D01*
X-140959Y43702D01*
X-141466D01*
X-142036Y43452D01*
X-142479Y43035D01*
X-142796Y42535D01*
X-143049Y41702D01*
X-143112Y40952D01*
X-142986Y40202D01*
X-142796Y39702D01*
X-142416Y39202D01*
X-141972Y38868D01*
X-141529Y38702D01*
X-141086D01*
X-140642Y38868D01*
X-140262Y39118D01*
X-139946Y39451D01*
G01X-137229Y38702D02*
Y43702D01*
X-137989Y42702D01*
G01Y38702D02*
X-136469D01*
G01X-132929D02*
Y43702D01*
X-133689Y42702D01*
G01Y38702D02*
X-132169D01*
G01X-140176Y31745D02*
X-140556Y31995D01*
X-140999Y32161D01*
X-141506D01*
X-142076Y31911D01*
X-142519Y31495D01*
X-142836Y30995D01*
X-143089Y30161D01*
X-143153Y29411D01*
X-143026Y28661D01*
X-142836Y28161D01*
X-142456Y27661D01*
X-142013Y27328D01*
X-141569Y27161D01*
X-141126D01*
X-140683Y27328D01*
X-140303Y27578D01*
X-139986Y27911D01*
G01X-137269Y27161D02*
Y32161D01*
X-138029Y31162D01*
G01Y27161D02*
X-136509D01*
G01X-134173Y31328D02*
X-133793Y31828D01*
X-133349Y32078D01*
X-132843Y32161D01*
X-132209Y31995D01*
X-131766Y31578D01*
X-131639Y31078D01*
X-131703Y30578D01*
X-131956Y30161D01*
X-133223Y29328D01*
X-133793Y28745D01*
X-134173Y27911D01*
X-134299Y27161D01*
X-131639D01*
G01X-127184Y183826D02*
X-126934Y184206D01*
X-126767Y184650D01*
Y185156D01*
X-127017Y185726D01*
X-127434Y186170D01*
X-127934Y186486D01*
X-128767Y186740D01*
X-129517Y186803D01*
X-130267Y186676D01*
X-130767Y186486D01*
X-131267Y186106D01*
X-131601Y185663D01*
X-131767Y185220D01*
Y184776D01*
X-131601Y184333D01*
X-131351Y183953D01*
X-131018Y183636D01*
G01Y182313D02*
X-131434Y181933D01*
X-131684Y181490D01*
X-131767Y180920D01*
X-131601Y180350D01*
X-131267Y179906D01*
X-130684Y179590D01*
X-130017Y179526D01*
X-129351Y179653D01*
X-128934Y179970D01*
X-128601Y180413D01*
X-128517Y180856D01*
X-128601Y181300D01*
X-128934Y181870D01*
X-126767Y181680D01*
Y179970D01*
G01X-98814Y38423D02*
Y43423D01*
X-101347D01*
G01X-103177Y39256D02*
X-103557Y38757D01*
X-104000Y38506D01*
X-104507Y38423D01*
X-105140Y38590D01*
X-105584Y39007D01*
X-105710Y39506D01*
X-105647Y40007D01*
X-105394Y40423D01*
X-104127Y41256D01*
X-103557Y41840D01*
X-103177Y42673D01*
X-103050Y43423D01*
X-105710D01*
G01X-116353Y103234D02*
Y108234D01*
X-114770D01*
X-114263Y107983D01*
X-113947Y107650D01*
X-113820Y106984D01*
X-113947Y106317D01*
X-114327Y105900D01*
X-114770Y105650D01*
X-116353D01*
G01X-114770D02*
X-113820Y103234D01*
G01X-111990Y107400D02*
X-111610Y107900D01*
X-111167Y108150D01*
X-110660Y108234D01*
X-110027Y108067D01*
X-109583Y107650D01*
X-109457Y107150D01*
X-109520Y106650D01*
X-109773Y106234D01*
X-111040Y105400D01*
X-111610Y104817D01*
X-111990Y103983D01*
X-112117Y103234D01*
X-109457D01*
G01X-104507Y103621D02*
Y98621D01*
X-106091D01*
X-106597Y98871D01*
X-106914Y99204D01*
X-107041Y99871D01*
X-106914Y100538D01*
X-106534Y100954D01*
X-106091Y101204D01*
X-104507D01*
G01X-106091D02*
X-107041Y103621D01*
G01X-108681Y102621D02*
X-109061Y103204D01*
X-109567Y103538D01*
X-110137Y103621D01*
X-110644Y103538D01*
X-111151Y103121D01*
X-111467Y102621D01*
X-111531Y102121D01*
X-111404Y101538D01*
X-110961Y101121D01*
X-110517Y100954D01*
X-109947D01*
G01X-110517D02*
X-110897Y100704D01*
X-111214Y100288D01*
X-111341Y99788D01*
X-111214Y99288D01*
X-110897Y98871D01*
X-110327Y98621D01*
X-109757Y98704D01*
X-109187Y99038D01*
G01X-114580Y142392D02*
Y138808D01*
X-114327Y138058D01*
X-113820Y137558D01*
X-113187Y137392D01*
X-112554Y137558D01*
X-112047Y138058D01*
X-111794Y138808D01*
Y142392D01*
G01X-108887Y137392D02*
Y142392D01*
X-109647Y141392D01*
G01Y137392D02*
X-108127D01*
G01X-100973Y142277D02*
X-101353Y142527D01*
X-101796Y142693D01*
X-102303D01*
X-102873Y142443D01*
X-103316Y142027D01*
X-103633Y141527D01*
X-103887Y140693D01*
X-103950Y139943D01*
X-103823Y139193D01*
X-103633Y138693D01*
X-103253Y138193D01*
X-102810Y137860D01*
X-102367Y137693D01*
X-101923D01*
X-101480Y137860D01*
X-101100Y138110D01*
X-100783Y138443D01*
G01X-97306Y137693D02*
Y142693D01*
X-99650Y139110D01*
X-96483D01*
G01X-63647Y9991D02*
Y4991D01*
X-65230D01*
X-65737Y5241D01*
X-66054Y5574D01*
X-66180Y6241D01*
X-66054Y6908D01*
X-65674Y7324D01*
X-65230Y7574D01*
X-63647D01*
G01X-65230D02*
X-66180Y9991D01*
G01X-69087D02*
X-69214Y8908D01*
X-69404Y7991D01*
X-69657Y7158D01*
X-69974Y6241D01*
X-70480Y4991D01*
X-67947D01*
G01X-76344Y20550D02*
X-71344D01*
Y18967D01*
X-71594Y18460D01*
X-71928Y18144D01*
X-72594Y18017D01*
X-73261Y18144D01*
X-73677Y18524D01*
X-73928Y18967D01*
Y20550D01*
G01Y18967D02*
X-76344Y18017D01*
G01Y14984D02*
X-76261Y14540D01*
X-76011Y14034D01*
X-75594Y13717D01*
X-75011Y13590D01*
X-74428Y13717D01*
X-73928Y14097D01*
X-73677Y14667D01*
Y15300D01*
X-73511Y15680D01*
X-73094Y15997D01*
X-72511Y16124D01*
X-71928Y15934D01*
X-71511Y15490D01*
X-71344Y14984D01*
X-71511Y14477D01*
X-71928Y14034D01*
X-72511Y13844D01*
X-73094Y13970D01*
X-73511Y14287D01*
X-73677Y14667D01*
Y15300D01*
X-73928Y15870D01*
X-74428Y16250D01*
X-75011Y16377D01*
X-75594Y16250D01*
X-76011Y15934D01*
X-76261Y15427D01*
X-76344Y14984D01*
G01X-84317Y15501D02*
Y10501D01*
X-85901D01*
X-86407Y10751D01*
X-86724Y11084D01*
X-86851Y11751D01*
X-86724Y12418D01*
X-86344Y12834D01*
X-85901Y13084D01*
X-84317D01*
G01X-85901D02*
X-86851Y15501D01*
G01X-88807Y14918D02*
X-89250Y15334D01*
X-89757Y15501D01*
X-90264Y15334D01*
X-90707Y14834D01*
X-91024Y14084D01*
X-91151Y13334D01*
Y12418D01*
X-91024Y11668D01*
X-90707Y11001D01*
X-90327Y10667D01*
X-89884Y10501D01*
X-89377Y10667D01*
X-88997Y11001D01*
X-88744Y11501D01*
X-88617Y12168D01*
X-88744Y12751D01*
X-89061Y13334D01*
X-89441Y13668D01*
X-89884Y13751D01*
X-90390Y13584D01*
X-90771Y13168D01*
X-91151Y12418D01*
G01X-75013Y30777D02*
X-75393Y31027D01*
X-75837Y31193D01*
X-76343D01*
X-76913Y30943D01*
X-77357Y30527D01*
X-77673Y30027D01*
X-77927Y29193D01*
X-77990Y28443D01*
X-77863Y27693D01*
X-77673Y27193D01*
X-77293Y26693D01*
X-76850Y26360D01*
X-76407Y26193D01*
X-75963D01*
X-75520Y26360D01*
X-75140Y26610D01*
X-74823Y26943D01*
G01X-72107Y26193D02*
Y31193D01*
X-72867Y30193D01*
G01Y26193D02*
X-71347D01*
G01X-67047D02*
Y31193D01*
X-69390Y27610D01*
X-66223D01*
G01X-75013Y25067D02*
X-75393Y25317D01*
X-75837Y25484D01*
X-76343D01*
X-76913Y25233D01*
X-77357Y24817D01*
X-77673Y24317D01*
X-77927Y23484D01*
X-77990Y22734D01*
X-77863Y21984D01*
X-77673Y21483D01*
X-77293Y20983D01*
X-76850Y20650D01*
X-76407Y20484D01*
X-75963D01*
X-75520Y20650D01*
X-75140Y20900D01*
X-74823Y21233D01*
G01X-72107Y20484D02*
Y25484D01*
X-72867Y24484D01*
G01Y20484D02*
X-71347D01*
G01X-69200Y21233D02*
X-68820Y20817D01*
X-68377Y20567D01*
X-67807Y20484D01*
X-67237Y20650D01*
X-66793Y20983D01*
X-66477Y21567D01*
X-66413Y22233D01*
X-66540Y22900D01*
X-66857Y23317D01*
X-67300Y23650D01*
X-67743Y23733D01*
X-68187Y23650D01*
X-68757Y23317D01*
X-68567Y25484D01*
X-66857D01*
G01X-84807Y16738D02*
X-84427Y16488D01*
X-83984Y16321D01*
X-83477D01*
X-82907Y16571D01*
X-82464Y16988D01*
X-82147Y17488D01*
X-81894Y18321D01*
X-81830Y19071D01*
X-81957Y19821D01*
X-82147Y20321D01*
X-82527Y20821D01*
X-82970Y21154D01*
X-83414Y21321D01*
X-83857D01*
X-84300Y21154D01*
X-84680Y20904D01*
X-84997Y20571D01*
G01X-87714Y21321D02*
Y16321D01*
X-86954Y17321D01*
G01Y21321D02*
X-88474D01*
G01X-90810Y19238D02*
X-91254Y18654D01*
X-91634Y18321D01*
X-92140Y18154D01*
X-92584Y18321D01*
X-92900Y18654D01*
X-93154Y19154D01*
X-93217Y19738D01*
X-93154Y20238D01*
X-92900Y20738D01*
X-92520Y21154D01*
X-92077Y21321D01*
X-91571Y21154D01*
X-91127Y20654D01*
X-90874Y19904D01*
X-90810Y19071D01*
X-90937Y17988D01*
X-91127Y17404D01*
X-91444Y16821D01*
X-91887Y16404D01*
X-92330Y16321D01*
X-92774Y16488D01*
X-93090Y16904D01*
G01X-80410Y65962D02*
Y62378D01*
X-80157Y61628D01*
X-79650Y61128D01*
X-79017Y60962D01*
X-78384Y61128D01*
X-77877Y61628D01*
X-77624Y62378D01*
Y65962D01*
G01X-75920Y65128D02*
X-75540Y65628D01*
X-75097Y65878D01*
X-74590Y65962D01*
X-73957Y65795D01*
X-73514Y65378D01*
X-73387Y64878D01*
X-73450Y64378D01*
X-73704Y63962D01*
X-74970Y63128D01*
X-75540Y62545D01*
X-75920Y61712D01*
X-76047Y60962D01*
X-73387D01*
G01X-68943Y65247D02*
X-69323Y65497D01*
X-69766Y65663D01*
X-70273D01*
X-70843Y65413D01*
X-71287Y64997D01*
X-71603Y64497D01*
X-71857Y63663D01*
X-71920Y62913D01*
X-71793Y62163D01*
X-71603Y61663D01*
X-71223Y61163D01*
X-70780Y60830D01*
X-70337Y60663D01*
X-69893D01*
X-69450Y60830D01*
X-69070Y61080D01*
X-68753Y61413D01*
G01X-66037Y60663D02*
Y65663D01*
X-66797Y64663D01*
G01Y60663D02*
X-65277D01*
G01X-61863D02*
X-61737Y61747D01*
X-61547Y62663D01*
X-61293Y63497D01*
X-60977Y64413D01*
X-60470Y65663D01*
X-63003D01*
G01X-61291Y121990D02*
X-61041Y122370D01*
X-60874Y122813D01*
Y123320D01*
X-61124Y123890D01*
X-61541Y124334D01*
X-62041Y124650D01*
X-62874Y124904D01*
X-63624Y124967D01*
X-64374Y124840D01*
X-64874Y124650D01*
X-65374Y124270D01*
X-65707Y123827D01*
X-65874Y123384D01*
Y122940D01*
X-65707Y122497D01*
X-65457Y122117D01*
X-65124Y121800D01*
G01X-64874Y120477D02*
X-65457Y120097D01*
X-65791Y119590D01*
X-65874Y119020D01*
X-65791Y118513D01*
X-65374Y118007D01*
X-64874Y117690D01*
X-64374Y117627D01*
X-63791Y117754D01*
X-63374Y118197D01*
X-63207Y118640D01*
Y119210D01*
G01Y118640D02*
X-62957Y118260D01*
X-62541Y117944D01*
X-62041Y117817D01*
X-61541Y117944D01*
X-61124Y118260D01*
X-60874Y118830D01*
X-60957Y119400D01*
X-61291Y119970D01*
G01X-71574Y124650D02*
X-66574D01*
Y123067D01*
X-66824Y122560D01*
X-67157Y122244D01*
X-67824Y122117D01*
X-68491Y122244D01*
X-68907Y122624D01*
X-69157Y123067D01*
Y124650D01*
G01Y123067D02*
X-71574Y122117D01*
G01Y119084D02*
X-66574D01*
X-67574Y119843D01*
G01X-71574D02*
Y118324D01*
G01X-81979Y138223D02*
Y133223D01*
X-83245D01*
X-83752Y133473D01*
X-84132Y133807D01*
X-84449Y134307D01*
X-84702Y134890D01*
X-84765Y135723D01*
X-84702Y136557D01*
X-84449Y137140D01*
X-84132Y137640D01*
X-83752Y137973D01*
X-83245Y138223D01*
X-81979D01*
G01X-87672D02*
Y133223D01*
X-86912Y134223D01*
G01Y138223D02*
X-88432D01*
G01X-63984Y151083D02*
Y156083D01*
X-66517D01*
G01X-69550D02*
Y151083D01*
X-68790Y152083D01*
G01Y156083D02*
X-70310D01*
G01X-37104Y47170D02*
X-32104D01*
Y45587D01*
X-32354Y45080D01*
X-32687Y44764D01*
X-33354Y44637D01*
X-34021Y44764D01*
X-34437Y45144D01*
X-34687Y45587D01*
Y47170D01*
G01Y45587D02*
X-37104Y44637D01*
G01X-36354Y42997D02*
X-36771Y42617D01*
X-37021Y42174D01*
X-37104Y41604D01*
X-36937Y41033D01*
X-36604Y40590D01*
X-36021Y40274D01*
X-35354Y40210D01*
X-34687Y40337D01*
X-34271Y40654D01*
X-33937Y41097D01*
X-33854Y41540D01*
X-33937Y41984D01*
X-34271Y42554D01*
X-32104Y42364D01*
Y40654D01*
G01X-47749Y61033D02*
Y56033D01*
X-49015D01*
X-49522Y56283D01*
X-49902Y56616D01*
X-50219Y57116D01*
X-50472Y57700D01*
X-50535Y58533D01*
X-50472Y59366D01*
X-50219Y59950D01*
X-49902Y60450D01*
X-49522Y60783D01*
X-49015Y61033D01*
X-47749D01*
G01X-52239Y56866D02*
X-52619Y56366D01*
X-53062Y56116D01*
X-53569Y56033D01*
X-54202Y56200D01*
X-54646Y56616D01*
X-54772Y57116D01*
X-54709Y57617D01*
X-54455Y58033D01*
X-53189Y58866D01*
X-52619Y59450D01*
X-52239Y60283D01*
X-52112Y61033D01*
X-54772D01*
G01X-40062Y106271D02*
X-39512Y106604D01*
X-39145Y107004D01*
X-38962Y107471D01*
X-39145Y108004D01*
X-39512Y108404D01*
X-40062Y108804D01*
X-40795Y108938D01*
X-44462D01*
G01X-38962Y112104D02*
X-44462D01*
X-43362Y111304D01*
G01X-38962D02*
Y112904D01*
G01X-40550Y126430D02*
X-40300Y126810D01*
X-40133Y127254D01*
Y127760D01*
X-40383Y128330D01*
X-40800Y128774D01*
X-41300Y129090D01*
X-42133Y129344D01*
X-42883Y129407D01*
X-43633Y129280D01*
X-44133Y129090D01*
X-44633Y128710D01*
X-44967Y128267D01*
X-45133Y127824D01*
Y127380D01*
X-44967Y126937D01*
X-44716Y126557D01*
X-44383Y126240D01*
G01X-45133Y123524D02*
X-40133D01*
X-41133Y124284D01*
G01X-45133D02*
Y122764D01*
G01X-52140Y126470D02*
X-51890Y126851D01*
X-51723Y127294D01*
Y127800D01*
X-51973Y128370D01*
X-52390Y128814D01*
X-52890Y129131D01*
X-53723Y129384D01*
X-54473Y129447D01*
X-55223Y129320D01*
X-55723Y129131D01*
X-56223Y128751D01*
X-56557Y128307D01*
X-56723Y127864D01*
Y127420D01*
X-56557Y126977D01*
X-56307Y126597D01*
X-55973Y126280D01*
G01X-52557Y124767D02*
X-52057Y124387D01*
X-51807Y123944D01*
X-51723Y123437D01*
X-51890Y122804D01*
X-52307Y122360D01*
X-52807Y122234D01*
X-53307Y122297D01*
X-53723Y122550D01*
X-54557Y123817D01*
X-55140Y124387D01*
X-55973Y124767D01*
X-56723Y124894D01*
Y122234D01*
G01X-6690Y49241D02*
X-6440Y49621D01*
X-6273Y50064D01*
Y50570D01*
X-6523Y51141D01*
X-6940Y51584D01*
X-7440Y51901D01*
X-8273Y52154D01*
X-9023Y52217D01*
X-9773Y52090D01*
X-10273Y51901D01*
X-10773Y51521D01*
X-11107Y51077D01*
X-11273Y50634D01*
Y50191D01*
X-11107Y49747D01*
X-10857Y49367D01*
X-10523Y49050D01*
G01X-11273Y46334D02*
X-11190Y45891D01*
X-10940Y45384D01*
X-10523Y45067D01*
X-9940Y44941D01*
X-9357Y45067D01*
X-8857Y45447D01*
X-8606Y46017D01*
Y46651D01*
X-8440Y47031D01*
X-8023Y47347D01*
X-7440Y47474D01*
X-6857Y47284D01*
X-6440Y46841D01*
X-6273Y46334D01*
X-6440Y45827D01*
X-6857Y45384D01*
X-7440Y45194D01*
X-8023Y45321D01*
X-8440Y45637D01*
X-8606Y46017D01*
Y46651D01*
X-8857Y47221D01*
X-9357Y47601D01*
X-9940Y47727D01*
X-10523Y47601D01*
X-10940Y47284D01*
X-11190Y46777D01*
X-11273Y46334D01*
G01X-17220Y49200D02*
X-16970Y49580D01*
X-16803Y50024D01*
Y50530D01*
X-17053Y51100D01*
X-17470Y51544D01*
X-17970Y51860D01*
X-18803Y52114D01*
X-19553Y52177D01*
X-20303Y52050D01*
X-20803Y51860D01*
X-21303Y51480D01*
X-21636Y51037D01*
X-21803Y50594D01*
Y50150D01*
X-21636Y49707D01*
X-21387Y49327D01*
X-21053Y49010D01*
G01X-21220Y47370D02*
X-21636Y46927D01*
X-21803Y46420D01*
X-21636Y45914D01*
X-21137Y45470D01*
X-20386Y45154D01*
X-19636Y45027D01*
X-18720D01*
X-17970Y45154D01*
X-17303Y45470D01*
X-16970Y45850D01*
X-16803Y46294D01*
X-16970Y46800D01*
X-17303Y47180D01*
X-17803Y47434D01*
X-18470Y47560D01*
X-19053Y47434D01*
X-19636Y47117D01*
X-19970Y46737D01*
X-20053Y46294D01*
X-19886Y45787D01*
X-19470Y45407D01*
X-18720Y45027D01*
G01X-27161Y46700D02*
X-26911Y47080D01*
X-26744Y47523D01*
Y48030D01*
X-26994Y48600D01*
X-27411Y49043D01*
X-27911Y49360D01*
X-28744Y49613D01*
X-29494Y49677D01*
X-30244Y49550D01*
X-30744Y49360D01*
X-31244Y48980D01*
X-31577Y48537D01*
X-31744Y48093D01*
Y47650D01*
X-31577Y47207D01*
X-31327Y46827D01*
X-30994Y46510D01*
G01X-31744Y43793D02*
X-26744D01*
X-27744Y44553D01*
G01X-31744D02*
Y43033D01*
G01X-26744Y39493D02*
X-26911Y40000D01*
X-27328Y40380D01*
X-27827Y40633D01*
X-28494Y40823D01*
X-29244Y40887D01*
X-29994Y40823D01*
X-30661Y40633D01*
X-31161Y40380D01*
X-31577Y40000D01*
X-31744Y39493D01*
X-31577Y38987D01*
X-31161Y38607D01*
X-30661Y38353D01*
X-29994Y38163D01*
X-29244Y38100D01*
X-28494Y38163D01*
X-27827Y38353D01*
X-27328Y38607D01*
X-26911Y38987D01*
X-26744Y39493D01*
G01X-2010Y107731D02*
X-1510Y108047D01*
X-1177Y108427D01*
X-1010Y108870D01*
X-1177Y109377D01*
X-1510Y109757D01*
X-2010Y110137D01*
X-2677Y110264D01*
X-6010D01*
G01X-1010Y113297D02*
X-1094Y113740D01*
X-1344Y114247D01*
X-1760Y114564D01*
X-2344Y114690D01*
X-2927Y114564D01*
X-3427Y114184D01*
X-3677Y113614D01*
Y112981D01*
X-3844Y112601D01*
X-4260Y112284D01*
X-4844Y112157D01*
X-5427Y112347D01*
X-5844Y112790D01*
X-6010Y113297D01*
X-5844Y113804D01*
X-5427Y114247D01*
X-4844Y114437D01*
X-4260Y114310D01*
X-3844Y113994D01*
X-3677Y113614D01*
Y112981D01*
X-3427Y112411D01*
X-2927Y112031D01*
X-2344Y111904D01*
X-1760Y112031D01*
X-1344Y112347D01*
X-1094Y112854D01*
X-1010Y113297D01*
G01X4119Y29021D02*
X4669Y29354D01*
X5035Y29754D01*
X5218Y30221D01*
X5035Y30754D01*
X4669Y31154D01*
X4119Y31554D01*
X3385Y31688D01*
X-282D01*
G01X4119Y33388D02*
X4760Y33788D01*
X5127Y34321D01*
X5218Y34921D01*
X5127Y35454D01*
X4669Y35988D01*
X4119Y36321D01*
X3568Y36388D01*
X2927Y36254D01*
X2469Y35788D01*
X2285Y35321D01*
Y34721D01*
G01Y35321D02*
X2010Y35721D01*
X1552Y36054D01*
X1002Y36188D01*
X452Y36054D01*
X-6Y35721D01*
X-282Y35121D01*
X-190Y34521D01*
X177Y33921D01*
G01X6654Y132604D02*
X1654D01*
Y134188D01*
X1904Y134694D01*
X2237Y135011D01*
X2904Y135138D01*
X3570Y135011D01*
X3987Y134631D01*
X4237Y134188D01*
Y132604D01*
G01Y134188D02*
X6654Y135138D01*
G01Y138171D02*
X1654D01*
X2653Y137411D01*
G01X6654D02*
Y138931D01*
G01X2487Y141268D02*
X1987Y141648D01*
X1737Y142091D01*
X1654Y142598D01*
X1820Y143231D01*
X2237Y143674D01*
X2737Y143801D01*
X3237Y143738D01*
X3654Y143484D01*
X4487Y142218D01*
X5070Y141648D01*
X5904Y141268D01*
X6654Y141141D01*
Y143801D01*
G01X7374Y163654D02*
X2374D01*
Y165238D01*
X2624Y165744D01*
X2957Y166061D01*
X3624Y166188D01*
X4290Y166061D01*
X4707Y165681D01*
X4957Y165238D01*
Y163654D01*
G01Y165238D02*
X7374Y166188D01*
G01Y169221D02*
X2374D01*
X3374Y168461D01*
G01X7374D02*
Y169981D01*
G01X2374Y173521D02*
X2540Y173014D01*
X2957Y172634D01*
X3457Y172381D01*
X4124Y172191D01*
X4874Y172128D01*
X5624Y172191D01*
X6290Y172381D01*
X6790Y172634D01*
X7207Y173014D01*
X7374Y173521D01*
X7207Y174028D01*
X6790Y174408D01*
X6290Y174661D01*
X5624Y174851D01*
X4874Y174914D01*
X4124Y174851D01*
X3457Y174661D01*
X2957Y174408D01*
X2540Y174028D01*
X2374Y173521D01*
G01X7154Y148164D02*
X2154D01*
Y149747D01*
X2404Y150254D01*
X2737Y150571D01*
X3403Y150697D01*
X4070Y150571D01*
X4487Y150191D01*
X4737Y149747D01*
Y148164D01*
G01Y149747D02*
X7154Y150697D01*
G01Y153731D02*
X2154D01*
X3153Y152971D01*
G01X7154D02*
Y154491D01*
G01Y158031D02*
X2154D01*
X3153Y157271D01*
G01X7154D02*
Y158791D01*
G01X10920Y161114D02*
X5920D01*
Y162380D01*
X6170Y162887D01*
X6503Y163267D01*
X7003Y163584D01*
X7586Y163837D01*
X8420Y163900D01*
X9253Y163837D01*
X9836Y163584D01*
X10336Y163267D01*
X10670Y162887D01*
X10920Y162380D01*
Y161114D01*
G01X9920Y165414D02*
X10503Y165794D01*
X10836Y166300D01*
X10920Y166870D01*
X10836Y167377D01*
X10420Y167884D01*
X9920Y168200D01*
X9420Y168264D01*
X8836Y168137D01*
X8420Y167694D01*
X8253Y167250D01*
Y166680D01*
G01Y167250D02*
X8003Y167630D01*
X7586Y167947D01*
X7086Y168074D01*
X6586Y167947D01*
X6170Y167630D01*
X5920Y167060D01*
X6003Y166490D01*
X6336Y165920D01*
G01X11030Y145554D02*
X6030D01*
Y146820D01*
X6280Y147327D01*
X6613Y147707D01*
X7113Y148024D01*
X7697Y148277D01*
X8530Y148340D01*
X9363Y148277D01*
X9947Y148024D01*
X10447Y147707D01*
X10780Y147327D01*
X11030Y146820D01*
Y145554D01*
G01Y152007D02*
X6030D01*
X9613Y149664D01*
Y152831D01*
G01X20410Y152150D02*
X25410D01*
Y150884D01*
X25160Y150377D01*
X24826Y149997D01*
X24326Y149680D01*
X23743Y149427D01*
X22910Y149364D01*
X22076Y149427D01*
X21493Y149680D01*
X20993Y149997D01*
X20660Y150377D01*
X20410Y150884D01*
Y152150D01*
G01X21160Y147850D02*
X20743Y147470D01*
X20493Y147027D01*
X20410Y146457D01*
X20576Y145887D01*
X20910Y145444D01*
X21493Y145127D01*
X22160Y145064D01*
X22826Y145190D01*
X23243Y145507D01*
X23576Y145950D01*
X23660Y146394D01*
X23576Y146837D01*
X23243Y147407D01*
X25410Y147217D01*
Y145507D01*
G54D12*
X-190080Y164824D03*
X-123568Y-10193D03*
X-30300Y122140D03*
X13880Y44890D03*
G54D21*
X-107110Y112357D03*
Y117357D03*
Y122357D03*
Y127357D03*
X-72940Y35927D03*
Y40927D03*
Y45927D03*
Y50927D03*
X-87710Y127357D03*
Y122357D03*
Y117357D03*
Y112357D03*
X-53540Y40927D03*
Y35927D03*
Y50927D03*
Y45927D03*
G54D31*
G01X-199994Y-3023D02*
G03I-394J0D01*
G01X-199214Y52407D02*
G03I-394J0D01*
G01Y107297D02*
G03I-394J0D01*
G01X-144090Y190392D02*
G03I-394J0D01*
G01X-81078Y146097D02*
G03I-394J0D01*
G01X-46848Y68907D02*
G03I-394J0D01*
G54D22*
X-105626Y146097D03*
X-71396Y68907D03*
X-88815Y146097D03*
X-54585Y68907D03*
G54D13*
X-202499Y196639D03*
X-154802Y-261D03*
X20Y-153D03*
Y196698D03*
G54D32*
G01X-217097Y216526D02*
X18209D01*
G02X22904Y211831I0J-4695D01*
G01Y-15344D01*
G02X18563Y-19685I-4341J0D01*
G01X-216486D01*
G02X-221220Y-14951I0J4734D01*
G01Y212402D01*
G02X-217097Y216526I4124J0D01*
G54D23*
X-78850Y11281D03*
Y17974D03*
X-68380Y115381D03*
Y122074D03*
X-74080Y115381D03*
Y122074D03*
X-34250Y37940D03*
Y44634D03*
X-39610Y37901D03*
Y44594D03*
X9660Y159584D03*
Y152890D03*
X9160Y144024D03*
Y137331D03*
X9880Y175074D03*
Y168381D03*
G54D14*
X-190080Y174667D03*
X-133410Y-10193D03*
X-30300Y112297D03*
X13880Y35047D03*
G54D24*
X-49070Y115044D03*
Y122130D03*
X-60660Y115084D03*
Y122170D03*
X-15210Y37854D03*
Y44940D03*
X-25740Y37814D03*
Y44900D03*
G54D15*
X-149477Y69107D03*
X-110304D03*
X-114647Y181767D03*
X-75474D03*
G54D16*
X-162960Y163149D03*
X-173370Y163169D03*
X-162960Y174645D03*
X-173370Y174665D03*
G54D25*
X12740Y112097D03*
G54D17*
X-124924Y1447D03*
X-131617D03*
X-93587Y18007D03*
X-93567Y23827D03*
X-107084Y100727D03*
X-113777D03*
X-94364Y135187D03*
X-101057D03*
X-113777Y106127D03*
X-107084D03*
X-72917Y12497D03*
X-66224D03*
X-66254Y23687D03*
X-72947D03*
X-66254Y17977D03*
X-72947D03*
X-86894Y18007D03*
X-86874Y23827D03*
X-66877Y58157D03*
X-60184D03*
G54D26*
X16030Y153644D03*
Y159550D03*
X15920Y169204D03*
Y175110D03*
G54D27*
X15410Y144060D03*
Y138154D03*
G54D18*
X-134088Y10437D03*
X-134158Y33977D03*
X-134198Y22437D03*
X-122592Y10437D03*
X-122662Y33977D03*
X-122702Y22437D03*
G54D28*
G01X-129672Y-202D02*
X-126868D01*
G01X-129672Y3148D02*
X-126868D01*
G01X-111832Y99078D02*
X-109029D01*
G01X-111832Y102428D02*
X-109029D01*
G01X-99112Y133537D02*
X-96309D01*
G01X-109029Y107777D02*
X-111832D01*
G01X-109029Y104426D02*
X-111832D01*
G01X-99112Y136888D02*
X-96309D01*
G01X-68168Y14147D02*
X-70972D01*
G01X-68168Y10796D02*
X-70972D01*
G01X-80500Y16029D02*
Y13226D01*
G01X-77150Y16029D02*
Y13226D01*
G01X-71002Y22037D02*
X-68199D01*
G01X-71002Y25388D02*
X-68199D01*
G01X-71002Y16328D02*
X-68199D01*
G01X-71002Y19678D02*
X-68199D01*
G01X-88839Y19657D02*
X-91642D01*
G01X-88839Y16306D02*
X-91642D01*
G01X-88818Y25477D02*
X-91622D01*
G01X-88818Y22126D02*
X-91622D01*
G01X-70030Y120129D02*
Y117326D01*
G01X-66680Y120129D02*
Y117326D01*
G01X-75730Y120129D02*
Y117326D01*
G01X-72380Y120129D02*
Y117326D01*
G01X-35900Y42689D02*
Y39885D01*
G01X-41260Y42649D02*
Y39846D01*
G01X-37909Y42649D02*
Y39846D01*
G01X-64932Y56508D02*
X-62129D01*
G01X-64932Y59858D02*
X-62129D01*
G01X-32550Y42689D02*
Y39885D01*
G01X11309Y154835D02*
Y157639D01*
G01X7959Y154835D02*
Y157639D01*
G01X10809Y139276D02*
Y142079D01*
G01X7459Y139276D02*
Y142079D01*
G01X11530Y170326D02*
Y173129D01*
G01X8179Y170326D02*
Y173129D01*
G54D19*
X-144090Y157204D03*
Y181770D03*
G54D29*
G01X-172435Y-8928D02*
X-198026D01*
Y32883D01*
X-172435D01*
Y-8928D01*
G01X-171655Y46502D02*
X-197246D01*
Y88313D01*
X-171655D01*
Y46502D01*
G01Y101392D02*
X-197246D01*
Y143203D01*
X-171655D01*
Y101392D01*
G01X-159614Y175315D02*
Y162480D01*
X-166307D01*
Y175315D01*
X-159614D01*
G01X-170024Y175334D02*
Y162500D01*
X-176717D01*
Y175334D01*
X-170024D01*
G01X-134758Y13784D02*
X-121923D01*
Y7091D01*
X-134758D01*
Y13784D01*
G01X-134828Y37324D02*
X-121993D01*
Y30631D01*
X-134828D01*
Y37324D01*
G01X-134868Y25783D02*
X-122033D01*
Y19091D01*
X-134868D01*
Y25783D01*
G01X-154496Y93713D02*
Y44501D01*
G01X-135035Y184448D02*
X-153145D01*
Y154526D01*
X-135035D01*
Y184448D01*
G01X-105284Y44501D02*
Y93713D01*
G01X-107446Y151225D02*
X-86994D01*
Y140969D01*
X-107446D01*
Y151225D01*
G01X-119667Y206373D02*
Y157161D01*
G01X-73216Y74035D02*
X-52764D01*
Y63779D01*
X-73216D01*
Y74035D01*
G01X-70454Y157161D02*
Y206373D01*
G01X-46511Y122524D02*
Y114650D01*
X-51629D01*
Y122524D01*
X-46511D01*
G01X-58101Y122564D02*
Y114690D01*
X-63219D01*
Y122564D01*
X-58101D01*
G01X-12651Y45334D02*
Y37460D01*
X-17769D01*
Y45334D01*
X-12651D01*
G01X-23181Y45294D02*
Y37420D01*
X-28299D01*
Y45294D01*
X-23181D01*
G01X16275Y122097D02*
G03I-3535J0D01*
G01Y112097D02*
G03I-3535J0D01*
G01X16489Y124598D02*
X23990Y125847D01*
G01X16490Y119597D02*
X23990Y118347D01*
G01X16489Y114598D02*
X23990Y115847D01*
G01X16490Y109597D02*
X23990Y108347D01*
G01X10240Y124597D02*
X15240Y119597D01*
G01X10240Y114597D02*
X15240Y109597D01*
G01X24944Y106192D02*
X535D01*
Y128003D01*
X24944D01*
Y106192D01*
G01X14455Y153448D02*
Y159747D01*
X17605D01*
Y153448D01*
X14455D01*
G01X16985Y144257D02*
Y137958D01*
X13835D01*
Y144257D01*
X16985D01*
G01X14345Y169008D02*
Y175307D01*
X17494D01*
Y169008D01*
X14345D01*
M02*
