G04 ================== begin FILE IDENTIFICATION RECORD ==================*
G04 Layout Name:  D:/Sankar/Personal/Power_Board/POWER.brd*
G04 Film Name:    PASTE_TOP*
G04 File Format:  Gerber RS274X*
G04 File Origin:  Cadence Allegro 16.6-P004*
G04 Origin Date:  Wed May 26 20:43:45 2021*
G04 *
G04 Layer:  PIN/PASTEMASK_TOP*
G04 Layer:  PACKAGE GEOMETRY/PASTEMASK_TOP*
G04 Layer:  DRAWING FORMAT/TITLE_BLOCK*
G04 Layer:  BOARD GEOMETRY/OUTLINE*
G04 *
G04 Offset:    (0.000 0.000)*
G04 Mirror:    No*
G04 Mode:      Positive*
G04 Rotation:  0*
G04 FullContactRelief:  No*
G04 UndefLineWidth:     0.000*
G04 ================== end FILE IDENTIFICATION RECORD ====================*
%FSLAX25Y25*MOIN*%
%IR0*IPPOS*OFA0.00000B0.00000*MIA0B0*SFA1.00000B1.00000*%
%AMMACRO20*
4,1,44,.016339,.009256,
.016339,-.009256,
.016208,-.010759,
.015817,-.012217,
.015179,-.013584,
.014314,-.01482,
.013247,-.015887,
.012011,-.016753,
.010644,-.017391,
.009186,-.017781,
.007683,-.017913,
.007677,-.017913,
-.007677,-.017913,
-.00918,-.017782,
-.010638,-.017393,
-.012006,-.016756,
-.013243,-.015891,
-.01431,-.014825,
-.015177,-.013589,
-.015815,-.012222,
-.016207,-.010765,
-.016339,-.009262,
-.016339,-.009256,
-.016339,.009256,
-.016208,.010759,
-.015817,.012217,
-.015179,.013584,
-.014314,.01482,
-.013247,.015887,
-.012011,.016753,
-.010644,.017391,
-.009186,.017781,
-.007683,.017913,
-.007677,.017913,
.007677,.017913,
.00918,.017782,
.010638,.017393,
.012006,.016756,
.013243,.015891,
.01431,.014825,
.015177,.013589,
.015815,.012222,
.016207,.010765,
.016339,.009262,
.016339,.009256,
0.0*
%
%ADD20MACRO20*%
%ADD16R,.078X.022*%
%ADD15R,.079X.098*%
%ADD17R,.091732X.061024*%
%ADD18R,.03937X.043307*%
%ADD12R,.043307X.03937*%
%ADD10R,.151575X.216535*%
%AMMACRO14*
4,1,40,-.047835,-.034697,
-.047835,.034697,
-.047652,.036774,
-.047111,.038788,
-.046229,.040678,
-.045032,.042385,
-.043557,.043859,
-.041848,.045054,
-.039957,.045935,
-.037943,.046473,
-.035878,.046654,
.035878,.046654,
.037955,.046471,
.039969,.04593,
.041859,.045048,
.043566,.043851,
.04504,.042376,
.046235,.040667,
.047116,.038776,
.047654,.036762,
.047835,.034697,
.047835,-.034697,
.047652,-.036774,
.047111,-.038788,
.046229,-.040678,
.045032,-.042385,
.043557,-.043859,
.041848,-.045054,
.039957,-.045935,
.037943,-.046473,
.035878,-.046654,
-.035878,-.046654,
-.037955,-.046471,
-.039969,-.04593,
-.041859,-.045048,
-.043566,-.043851,
-.04504,-.042376,
-.046235,-.040667,
-.047116,-.038776,
-.047654,-.036762,
-.047835,-.034697,
0.0*
%
%ADD14MACRO14*%
%ADD11R,.067717X.041339*%
%ADD13R,.041339X.067717*%
%AMMACRO21*
4,1,44,-.016339,-.009256,
-.016339,.009256,
-.016208,.010759,
-.015817,.012217,
-.015179,.013584,
-.014314,.01482,
-.013247,.015887,
-.012011,.016753,
-.010644,.017391,
-.009186,.017781,
-.007683,.017913,
-.007677,.017913,
.007677,.017913,
.00918,.017782,
.010638,.017393,
.012006,.016756,
.013243,.015891,
.01431,.014825,
.015177,.013589,
.015815,.012222,
.016207,.010765,
.016339,.009262,
.016339,.009256,
.016339,-.009256,
.016208,-.010759,
.015817,-.012217,
.015179,-.013584,
.014314,-.01482,
.013247,-.015887,
.012011,-.016753,
.010644,-.017391,
.009186,-.017781,
.007683,-.017913,
.007677,-.017913,
-.007677,-.017913,
-.00918,-.017782,
-.010638,-.017393,
-.012006,-.016756,
-.013243,-.015891,
-.01431,-.014825,
-.015177,-.013589,
-.015815,-.012222,
-.016207,-.010765,
-.016339,-.009262,
-.016339,-.009256,
0.0*
%
%ADD21MACRO21*%
%ADD19R,.057087X.045276*%
%ADD22C,.019685*%
G75*
%LPD*%
G75*
G54D10*
X-149477Y69107D03*
X-110304D03*
X-114647Y181767D03*
X-75474D03*
G54D11*
X-162960Y163149D03*
X-173370Y163169D03*
X-162960Y174645D03*
X-173370Y174665D03*
G54D20*
X16030Y153644D03*
Y159550D03*
X15920Y169204D03*
Y175110D03*
G54D21*
X15410Y144060D03*
Y138154D03*
G54D12*
X-124924Y1447D03*
X-131617D03*
X-93587Y18007D03*
X-93567Y23827D03*
X-107084Y100727D03*
X-113777D03*
X-94364Y135187D03*
X-101057D03*
X-113777Y106127D03*
X-107084D03*
X-72917Y12497D03*
X-66224D03*
X-66254Y23687D03*
X-72947D03*
X-66254Y17977D03*
X-72947D03*
X-86894Y18007D03*
X-86874Y23827D03*
X-66877Y58157D03*
X-60184D03*
G54D22*
G01X-217097Y216526D02*
X18209D01*
G02X22904Y211831I0J-4695D01*
G01Y-15344D01*
G02X18563Y-19685I-4341J0D01*
G01X-216486D01*
G02X-221220Y-14951I0J4734D01*
G01Y212402D01*
G02X-217097Y216526I4124J0D01*
G54D13*
X-134088Y10437D03*
X-134158Y33977D03*
X-134198Y22437D03*
X-122592Y10437D03*
X-122662Y33977D03*
X-122702Y22437D03*
G54D14*
X-144090Y157204D03*
Y181770D03*
G54D15*
X-97410Y119857D03*
X-63240Y43427D03*
G54D16*
X-107110Y112357D03*
Y117357D03*
Y122357D03*
Y127357D03*
X-72940Y35927D03*
Y40927D03*
Y45927D03*
Y50927D03*
X-87710Y127357D03*
Y122357D03*
Y117357D03*
Y112357D03*
X-53540Y40927D03*
Y35927D03*
Y50927D03*
Y45927D03*
G54D17*
X-105626Y146097D03*
X-71396Y68907D03*
X-88815Y146097D03*
X-54585Y68907D03*
G54D18*
X-78850Y11281D03*
Y17974D03*
X-68380Y115381D03*
Y122074D03*
X-74080Y115381D03*
Y122074D03*
X-34250Y37940D03*
Y44634D03*
X-39610Y37901D03*
Y44594D03*
X9660Y159584D03*
Y152890D03*
X9160Y144024D03*
Y137331D03*
X9880Y175074D03*
Y168381D03*
G54D19*
X-49070Y115044D03*
Y122130D03*
X-60660Y115084D03*
Y122170D03*
X-15210Y37854D03*
Y44940D03*
X-25740Y37814D03*
Y44900D03*
M02*
