G04 ================== begin FILE IDENTIFICATION RECORD ==================*
G04 Layout Name:  D:/Sankar/Personal/Final_Design_file/relay/Relay.brd*
G04 Film Name:    SOLDER_BOT*
G04 File Format:  Gerber RS274X*
G04 File Origin:  Cadence Allegro 16.6-P004*
G04 Origin Date:  Mon Jun 21 11:32:24 2021*
G04 *
G04 Layer:  VIA CLASS/SOLDERMASK_BOTTOM*
G04 Layer:  PIN/SOLDERMASK_BOTTOM*
G04 Layer:  PACKAGE GEOMETRY/SOLDERMASK_BOTTOM*
G04 Layer:  DRAWING FORMAT/TITLE_BLOCK*
G04 Layer:  BOARD GEOMETRY/OUTLINE*
G04 Layer:  BOARD GEOMETRY/SOLDERMASK_BOTTOM*
G04 *
G04 Offset:    (0.000 0.000)*
G04 Mirror:    No*
G04 Mode:      Positive*
G04 Rotation:  0*
G04 FullContactRelief:  No*
G04 UndefLineWidth:     0.000*
G04 ================== end FILE IDENTIFICATION RECORD ====================*
%FSLAX25Y25*MOIN*%
%IR0*IPPOS*OFA0.00000B0.00000*MIA0B0*SFA1.00000B1.00000*%
%ADD13C,.14*%
%ADD14R,.081X.024*%
%ADD11P,.070313X8X22.5*%
%ADD15C,.055*%
%ADD20C,.075*%
%ADD16R,.055X.055*%
%ADD18C,.055039*%
%ADD10C,.064961*%
%ADD19R,.055039X.055039*%
%ADD12C,.076772*%
%ADD17R,.064961X.064961*%
%ADD21C,.001*%
G75*
%LPD*%
G75*
G54D10*
X-769176Y15842D03*
X-768434Y87920D03*
X-766946Y157162D03*
X-768936Y229012D03*
X-767016Y308192D03*
X-594776Y367562D03*
X-562847Y-14151D03*
X-488026Y367692D03*
X-393076Y-14948D03*
X-320596Y364392D03*
X-330596D03*
X-340596D03*
X-238186Y-14448D03*
X-236470Y366050D03*
X-152922Y365243D03*
X5444Y60092D03*
X5984Y139292D03*
X5976Y243825D03*
X7157Y327998D03*
G54D20*
X5976Y270597D03*
Y280597D03*
G54D11*
X-769176Y25842D03*
X-768434Y97920D03*
X-766946Y167162D03*
X-768936Y239012D03*
X-767016Y318192D03*
X-584776Y367562D03*
X-552847Y-14151D03*
X-478026Y367692D03*
X-383076Y-14948D03*
X-228186Y-14448D03*
X-246470Y366050D03*
X-162922Y365243D03*
X5444Y50092D03*
X5984Y129292D03*
X5976Y253825D03*
X7157Y317998D03*
G54D21*
G01X-753796Y371952D02*
X-6246D01*
G02X7684Y366182I0J-19700D01*
G01X8154Y365712D01*
G02X13444Y352941I-12771J-12771D01*
G01Y-2688D01*
G02X-5626Y-21758I-19070J0D01*
G01X-754446D01*
G02X-773956Y-2248I0J19510D01*
G01Y351792D01*
G02X-753796Y371952I20160J0D01*
G54D12*
X-741987Y11437D03*
X-740899Y84182D03*
X-711987Y11437D03*
X-710899Y84182D03*
X-740634Y152860D03*
X-710634D03*
X-740634Y221686D03*
X-710634D03*
X-739282Y294157D03*
X-709282D03*
X-671829Y11437D03*
Y41437D03*
X-670741Y84182D03*
Y114182D03*
X-670477Y152860D03*
Y182860D03*
Y221686D03*
Y251686D03*
X-669124Y294157D03*
Y324157D03*
X-620026Y307406D03*
X-590026D03*
X-579738Y35780D03*
X-549738D03*
X-549868Y307406D03*
Y337406D03*
X-509580Y35780D03*
Y65780D03*
X-526739Y306593D03*
X-496739D03*
X-456582D03*
Y336593D03*
X-414245Y24823D03*
X-384245D03*
X-344088D03*
Y54823D03*
X-291560Y298398D03*
Y328398D03*
X-256328Y25637D03*
X-226328D03*
X-251402Y328398D03*
X-221402D03*
X-186170Y25637D03*
Y55637D03*
X-194412Y300799D03*
Y330799D03*
X-154255D03*
X-124255D03*
X-92335Y36199D03*
Y66199D03*
X-91796Y121106D03*
Y151106D03*
X-95716Y301064D03*
Y331064D03*
X-52178Y66199D03*
X-51639Y151106D03*
X-55559Y331064D03*
X-22178Y66199D03*
X-21639Y151106D03*
X-25559Y331064D03*
G54D13*
X-755856Y353371D03*
X-499950Y-960D03*
X50D03*
Y353371D03*
G54D14*
X-531426Y188471D03*
Y208471D03*
Y203471D03*
Y198471D03*
Y193471D03*
Y223471D03*
Y218471D03*
Y213471D03*
X-512526Y188471D03*
Y193471D03*
Y198471D03*
Y203471D03*
Y208471D03*
Y213471D03*
Y218471D03*
Y223471D03*
G54D15*
X-410166Y134022D03*
Y144022D03*
Y154022D03*
Y164022D03*
Y174022D03*
Y184022D03*
Y194022D03*
Y204022D03*
Y214022D03*
Y244022D03*
Y224022D03*
Y234022D03*
Y254022D03*
Y264022D03*
Y274022D03*
Y284022D03*
Y294022D03*
Y304022D03*
Y314022D03*
X-349143Y134022D03*
Y144022D03*
Y154022D03*
Y164022D03*
Y174022D03*
Y184022D03*
Y194022D03*
Y204022D03*
Y214022D03*
Y244022D03*
Y224022D03*
Y234022D03*
Y254022D03*
Y264022D03*
Y274022D03*
Y284022D03*
Y294022D03*
Y304022D03*
Y314022D03*
G54D16*
X-410166Y324022D03*
X-349143D03*
G54D17*
X-350596Y364392D03*
G54D18*
X4007Y183707D03*
Y213707D03*
Y203707D03*
Y193707D03*
Y223707D03*
G54D19*
Y173707D03*
M02*
