G04 ================== begin FILE IDENTIFICATION RECORD ==================*
G04 Layout Name:  D:/Sankar/Personal/Final_Design_file/12v_12v_power_board/POWER.brd*
G04 Film Name:    SILK_TOP*
G04 File Format:  Gerber RS274X*
G04 File Origin:  Cadence Allegro 16.6-P004*
G04 Origin Date:  Fri Jun 04 19:39:29 2021*
G04 *
G04 Layer:  REF DES/SILKSCREEN_TOP*
G04 Layer:  PACKAGE GEOMETRY/SILKSCREEN_TOP*
G04 Layer:  MANUFACTURING/AUTOSILK_TOP*
G04 Layer:  DRAWING FORMAT/TITLE_BLOCK*
G04 Layer:  BOARD GEOMETRY/OUTLINE*
G04 Layer:  BOARD GEOMETRY/SILKSCREEN_TOP*
G04 *
G04 Offset:    (0.000 0.000)*
G04 Mirror:    No*
G04 Mode:      Positive*
G04 Rotation:  0*
G04 FullContactRelief:  No*
G04 UndefLineWidth:     0.000*
G04 ================== end FILE IDENTIFICATION RECORD ====================*
%FSLAX25Y25*MOIN*%
%IR0*IPPOS*OFA0.00000B0.00000*MIA0B0*SFA1.00000B1.00000*%
%ADD10C,.005*%
%ADD11C,.008*%
%ADD12C,.003937*%
%ADD13C,.007874*%
%ADD14C,.0001*%
%ADD15C,.015748*%
%ADD16C,.019685*%
G75*
%LPD*%
G75*
G36*
G01X-115703Y75279D02*
G03I-787J0D01*
G37*
G54D10*
G01X-192197Y39085D02*
X-194197D01*
G01X-194772Y34136D02*
Y33033D01*
G01X-191622Y34136D02*
Y33033D01*
G01X-197195Y54056D02*
Y81616D01*
X-169636D01*
Y54056D01*
X-197195D01*
G01X-152196Y53890D02*
G03I-400J0D01*
G01X-152980Y54000D02*
X-152211D01*
G01X-131988Y53763D02*
G03I-400J0D01*
G01X-132710Y54000D02*
X-132066D01*
G01X-132000Y53666D02*
Y53859D01*
G01X-98582Y34656D02*
X-110550D01*
G01X-98582Y24262D02*
X-110550D01*
G01X-74861Y62585D02*
X-75648D01*
G01X-74861Y57230D02*
X-75648D01*
G01X-24051Y126391D02*
G03I-400J0D01*
G01X-24537Y126000D02*
X-24365D01*
G01X-5421Y126538D02*
G03I-400J0D01*
G01X-6000Y126180D02*
Y126895D01*
G01X18473Y99698D02*
X16473D01*
G01X15899Y94749D02*
Y93646D01*
G01X19048Y94749D02*
Y93646D01*
G01X13748Y126302D02*
G03I-400J0D01*
G01X13086Y126000D02*
X13609D01*
G01X13000Y126105D02*
Y126500D01*
G01X-401Y133025D02*
Y160584D01*
X27158D01*
Y133025D01*
X-401D01*
G54D11*
G01X-183848Y15987D02*
X-188848D01*
Y17654D01*
X-188598Y18187D01*
X-188265Y18521D01*
X-187598Y18654D01*
X-186931Y18521D01*
X-186515Y18121D01*
X-186265Y17654D01*
Y15987D01*
G01Y17654D02*
X-183848Y18654D01*
G01X-185931Y20554D02*
X-186515Y21021D01*
X-186848Y21421D01*
X-187015Y21954D01*
X-186848Y22421D01*
X-186515Y22754D01*
X-186015Y23021D01*
X-185431Y23087D01*
X-184931Y23021D01*
X-184431Y22754D01*
X-184015Y22354D01*
X-183848Y21887D01*
X-184015Y21354D01*
X-184514Y20887D01*
X-185265Y20621D01*
X-186098Y20554D01*
X-187181Y20687D01*
X-187765Y20887D01*
X-188348Y21220D01*
X-188765Y21687D01*
X-188848Y22154D01*
X-188681Y22621D01*
X-188265Y22954D01*
G01X-193187Y16560D02*
X-198187D01*
Y17893D01*
X-197937Y18426D01*
X-197604Y18826D01*
X-197104Y19160D01*
X-196521Y19426D01*
X-195687Y19493D01*
X-194854Y19426D01*
X-194271Y19160D01*
X-193771Y18826D01*
X-193437Y18426D01*
X-193187Y17893D01*
Y16560D01*
G01Y22526D02*
X-198187D01*
X-197188Y21726D01*
G01X-193187D02*
Y23326D01*
G01X-184456Y89889D02*
X-183956Y90222D01*
X-183623Y90622D01*
X-183456Y91089D01*
X-183623Y91622D01*
X-183956Y92022D01*
X-184456Y92422D01*
X-185123Y92556D01*
X-188456D01*
G01X-183456Y95722D02*
X-188456D01*
X-187456Y94922D01*
G01X-183456D02*
Y96522D01*
G01X-155474Y81896D02*
X-155724Y81496D01*
X-155891Y81030D01*
Y80496D01*
X-155640Y79896D01*
X-155224Y79429D01*
X-154724Y79096D01*
X-153891Y78829D01*
X-153141Y78763D01*
X-152391Y78896D01*
X-151890Y79096D01*
X-151390Y79496D01*
X-151057Y79963D01*
X-150891Y80429D01*
Y80896D01*
X-151057Y81363D01*
X-151307Y81763D01*
X-151640Y82096D01*
G01X-150891Y84929D02*
X-155891D01*
X-154891Y84129D01*
G01X-150891D02*
Y85729D01*
G01X-129938Y25817D02*
X-134938D01*
Y27483D01*
X-134688Y28017D01*
X-134355Y28350D01*
X-133688Y28483D01*
X-133022Y28350D01*
X-132605Y27950D01*
X-132355Y27483D01*
Y25817D01*
G01Y27483D02*
X-129938Y28483D01*
G01Y31650D02*
X-134938D01*
X-133938Y30850D01*
G01X-129938D02*
Y32450D01*
G01X-137158Y81788D02*
X-137408Y81388D01*
X-137574Y80922D01*
Y80388D01*
X-137324Y79788D01*
X-136908Y79322D01*
X-136408Y78988D01*
X-135574Y78722D01*
X-134824Y78655D01*
X-134074Y78788D01*
X-133574Y78988D01*
X-133074Y79388D01*
X-132741Y79855D01*
X-132574Y80322D01*
Y80788D01*
X-132741Y81255D01*
X-132991Y81655D01*
X-133324Y81988D01*
G01X-136741Y83555D02*
X-137241Y83955D01*
X-137491Y84422D01*
X-137574Y84955D01*
X-137408Y85622D01*
X-136991Y86088D01*
X-136491Y86222D01*
X-135991Y86155D01*
X-135574Y85888D01*
X-134741Y84555D01*
X-134158Y83955D01*
X-133324Y83555D01*
X-132574Y83422D01*
Y86222D01*
G01X-106790Y-15170D02*
X-107323Y-15079D01*
X-107790Y-14712D01*
X-108190Y-14162D01*
X-108456Y-13520D01*
X-108590Y-12787D01*
Y-12054D01*
X-108456Y-11320D01*
X-108190Y-10679D01*
X-107790Y-10129D01*
X-107323Y-9762D01*
X-106790Y-9670D01*
X-106256Y-9762D01*
X-105790Y-10129D01*
X-105390Y-10679D01*
X-105123Y-11320D01*
X-104990Y-12054D01*
Y-12787D01*
X-105123Y-13520D01*
X-105390Y-14162D01*
X-105790Y-14712D01*
X-106256Y-15079D01*
X-106790Y-15170D01*
G01X-103556Y-9670D02*
X-101023D01*
X-103556Y-15170D01*
X-101023D01*
G01X-97790D02*
X-98323Y-15079D01*
X-98790Y-14712D01*
X-99190Y-14162D01*
X-99456Y-13520D01*
X-99590Y-12787D01*
Y-12054D01*
X-99456Y-11320D01*
X-99190Y-10679D01*
X-98790Y-10129D01*
X-98323Y-9762D01*
X-97790Y-9670D01*
X-97257Y-9762D01*
X-96790Y-10129D01*
X-96390Y-10679D01*
X-96123Y-11320D01*
X-95990Y-12054D01*
Y-12787D01*
X-96123Y-13520D01*
X-96390Y-14162D01*
X-96790Y-14712D01*
X-97257Y-15079D01*
X-97790Y-15170D01*
G01X-94823D02*
Y-9670D01*
X-91757Y-15170D01*
Y-9670D01*
G01X-87456Y-15170D02*
X-90123D01*
Y-9670D01*
X-87456D01*
G01X-88523Y-12329D02*
X-90123D01*
G01X-86290Y-17004D02*
X-82290D01*
G01X-81523Y-15170D02*
Y-9670D01*
X-79790Y-14254D01*
X-78056Y-9670D01*
Y-15170D01*
G01X-75290D02*
X-75823Y-15079D01*
X-76290Y-14712D01*
X-76690Y-14162D01*
X-76956Y-13520D01*
X-77090Y-12787D01*
Y-12054D01*
X-76956Y-11320D01*
X-76690Y-10679D01*
X-76290Y-10129D01*
X-75823Y-9762D01*
X-75290Y-9670D01*
X-74756Y-9762D01*
X-74290Y-10129D01*
X-73890Y-10679D01*
X-73623Y-11320D01*
X-73490Y-12054D01*
Y-12787D01*
X-73623Y-13520D01*
X-73890Y-14162D01*
X-74290Y-14712D01*
X-74756Y-15079D01*
X-75290Y-15170D01*
G01X-70790Y-9670D02*
Y-15170D01*
G01X-72323Y-9670D02*
X-69257D01*
G01X-66290Y-15170D02*
X-66823Y-15079D01*
X-67290Y-14712D01*
X-67690Y-14162D01*
X-67957Y-13520D01*
X-68090Y-12787D01*
Y-12054D01*
X-67957Y-11320D01*
X-67690Y-10679D01*
X-67290Y-10129D01*
X-66823Y-9762D01*
X-66290Y-9670D01*
X-65756Y-9762D01*
X-65290Y-10129D01*
X-64890Y-10679D01*
X-64623Y-11320D01*
X-64490Y-12054D01*
Y-12787D01*
X-64623Y-13520D01*
X-64890Y-14162D01*
X-65290Y-14712D01*
X-65756Y-15079D01*
X-66290Y-15170D01*
G01X-63123D02*
Y-9670D01*
X-61456D01*
X-60923Y-9946D01*
X-60590Y-10312D01*
X-60456Y-11045D01*
X-60590Y-11779D01*
X-60990Y-12237D01*
X-61456Y-12512D01*
X-63123D01*
G01X-61456D02*
X-60456Y-15170D01*
G01X-59290Y-17004D02*
X-55290D01*
G01X-54123Y-15170D02*
Y-9670D01*
X-52523D01*
X-51990Y-9946D01*
X-51590Y-10587D01*
X-51456Y-11320D01*
X-51590Y-12054D01*
X-51923Y-12604D01*
X-52523Y-12879D01*
X-54123D01*
G01X-48290Y-15170D02*
X-48823Y-15079D01*
X-49290Y-14712D01*
X-49690Y-14162D01*
X-49956Y-13520D01*
X-50090Y-12787D01*
Y-12054D01*
X-49956Y-11320D01*
X-49690Y-10679D01*
X-49290Y-10129D01*
X-48823Y-9762D01*
X-48290Y-9670D01*
X-47756Y-9762D01*
X-47290Y-10129D01*
X-46890Y-10679D01*
X-46623Y-11320D01*
X-46490Y-12054D01*
Y-12787D01*
X-46623Y-13520D01*
X-46890Y-14162D01*
X-47290Y-14712D01*
X-47756Y-15079D01*
X-48290Y-15170D01*
G01X-45790Y-9670D02*
X-44856Y-15170D01*
X-43790Y-9670D01*
X-42723Y-15170D01*
X-41790Y-9670D01*
G01X-37956Y-15170D02*
X-40623D01*
Y-9670D01*
X-37956D01*
G01X-39023Y-12329D02*
X-40623D01*
G01X-36123Y-15170D02*
Y-9670D01*
X-34456D01*
X-33923Y-9946D01*
X-33590Y-10312D01*
X-33456Y-11045D01*
X-33590Y-11779D01*
X-33990Y-12237D01*
X-34456Y-12512D01*
X-36123D01*
G01X-34456D02*
X-33456Y-15170D01*
G01X-30290D02*
Y-9670D01*
X-31090Y-10770D01*
G01Y-15170D02*
X-29490D01*
G01X-27056Y-10587D02*
X-26656Y-10037D01*
X-26190Y-9762D01*
X-25656Y-9670D01*
X-24990Y-9854D01*
X-24523Y-10312D01*
X-24390Y-10862D01*
X-24456Y-11412D01*
X-24723Y-11870D01*
X-26056Y-12787D01*
X-26656Y-13429D01*
X-27056Y-14346D01*
X-27190Y-15170D01*
X-24390D01*
G01X-22956Y-9670D02*
X-21290Y-15170D01*
X-19623Y-9670D01*
G01X-18790Y-17004D02*
X-14790D01*
G01X-13623Y-15170D02*
Y-9670D01*
X-11956D01*
X-11423Y-9946D01*
X-11090Y-10312D01*
X-10956Y-11045D01*
X-11090Y-11779D01*
X-11490Y-12237D01*
X-11956Y-12512D01*
X-13623D01*
G01X-11956D02*
X-10956Y-15170D01*
G01X-6456D02*
X-9123D01*
Y-9670D01*
X-6456D01*
G01X-7523Y-12329D02*
X-9123D01*
G01X-4956Y-9670D02*
X-3290Y-15170D01*
X-1623Y-9670D01*
G01X1210D02*
X677Y-9854D01*
X277Y-10312D01*
X10Y-10862D01*
X-190Y-11596D01*
X-256Y-12420D01*
X-190Y-13246D01*
X10Y-13979D01*
X277Y-14529D01*
X677Y-14987D01*
X1210Y-15170D01*
X1744Y-14987D01*
X2144Y-14529D01*
X2410Y-13979D01*
X2610Y-13246D01*
X2677Y-12420D01*
X2610Y-11596D01*
X2410Y-10862D01*
X2144Y-10312D01*
X1744Y-9854D01*
X1210Y-9670D01*
G01X5710D02*
X5177Y-9854D01*
X4777Y-10312D01*
X4510Y-10862D01*
X4310Y-11596D01*
X4244Y-12420D01*
X4310Y-13246D01*
X4510Y-13979D01*
X4777Y-14529D01*
X5177Y-14987D01*
X5710Y-15170D01*
X6244Y-14987D01*
X6644Y-14529D01*
X6910Y-13979D01*
X7110Y-13246D01*
X7177Y-12420D01*
X7110Y-11596D01*
X6910Y-10862D01*
X6644Y-10312D01*
X6244Y-9854D01*
X5710Y-9670D01*
G01X-109221Y14239D02*
Y19239D01*
X-107554D01*
X-107021Y18989D01*
X-106687Y18656D01*
X-106554Y17989D01*
X-106687Y17323D01*
X-107087Y16906D01*
X-107554Y16656D01*
X-109221D01*
G01X-107554D02*
X-106554Y14239D01*
G01X-104654Y18406D02*
X-104254Y18906D01*
X-103787Y19156D01*
X-103254Y19239D01*
X-102587Y19073D01*
X-102121Y18656D01*
X-101987Y18156D01*
X-102054Y17656D01*
X-102321Y17239D01*
X-103654Y16406D01*
X-104254Y15823D01*
X-104654Y14989D01*
X-104787Y14239D01*
X-101987D01*
G01X-108855Y41689D02*
Y46689D01*
X-107188D01*
X-106655Y46439D01*
X-106322Y46106D01*
X-106188Y45439D01*
X-106322Y44773D01*
X-106722Y44356D01*
X-107188Y44106D01*
X-108855D01*
G01X-107188D02*
X-106188Y41689D01*
G01X-104488Y42439D02*
X-104088Y42022D01*
X-103622Y41772D01*
X-103022Y41689D01*
X-102421Y41856D01*
X-101955Y42189D01*
X-101622Y42772D01*
X-101555Y43439D01*
X-101688Y44106D01*
X-102022Y44523D01*
X-102488Y44856D01*
X-102955Y44939D01*
X-103422Y44856D01*
X-104022Y44523D01*
X-103822Y46689D01*
X-102022D01*
G01X-122780Y76422D02*
Y72839D01*
X-122513Y72089D01*
X-121980Y71589D01*
X-121314Y71422D01*
X-120647Y71589D01*
X-120113Y72089D01*
X-119847Y72839D01*
Y76422D01*
G01X-116813Y71422D02*
Y76422D01*
X-117613Y75422D01*
G01Y71422D02*
X-116013D01*
G01X-119667Y93940D02*
X-120067Y94190D01*
X-120534Y94356D01*
X-121067D01*
X-121667Y94106D01*
X-122134Y93690D01*
X-122467Y93190D01*
X-122734Y92356D01*
X-122801Y91606D01*
X-122667Y90856D01*
X-122467Y90356D01*
X-122067Y89856D01*
X-121600Y89523D01*
X-121134Y89356D01*
X-120667D01*
X-120201Y89523D01*
X-119800Y89773D01*
X-119467Y90106D01*
G01X-118101D02*
X-117701Y89690D01*
X-117234Y89440D01*
X-116634Y89356D01*
X-116034Y89523D01*
X-115567Y89856D01*
X-115234Y90440D01*
X-115167Y91106D01*
X-115300Y91773D01*
X-115634Y92190D01*
X-116100Y92523D01*
X-116567Y92606D01*
X-117034Y92523D01*
X-117634Y92190D01*
X-117434Y94356D01*
X-115634D01*
G01X-77295Y175753D02*
X-72295D01*
Y178420D01*
G01Y181587D02*
X-77295D01*
X-76295Y180787D01*
G01X-72295D02*
Y182387D01*
G01X-64265Y41660D02*
Y46660D01*
X-62598D01*
X-62065Y46410D01*
X-61732Y46076D01*
X-61598Y45410D01*
X-61732Y44743D01*
X-62132Y44326D01*
X-62598Y44076D01*
X-64265D01*
G01X-62598D02*
X-61598Y41660D01*
G01X-57632D02*
Y46660D01*
X-60098Y43076D01*
X-56765D01*
G01X-61004Y37198D02*
X-61404Y37448D01*
X-61871Y37614D01*
X-62404D01*
X-63004Y37364D01*
X-63471Y36948D01*
X-63804Y36448D01*
X-64071Y35614D01*
X-64138Y34864D01*
X-64004Y34114D01*
X-63804Y33614D01*
X-63404Y33114D01*
X-62938Y32781D01*
X-62471Y32614D01*
X-62004D01*
X-61538Y32781D01*
X-61138Y33031D01*
X-60804Y33364D01*
G01X-59238Y34698D02*
X-58771Y35281D01*
X-58371Y35614D01*
X-57838Y35781D01*
X-57371Y35614D01*
X-57038Y35281D01*
X-56771Y34781D01*
X-56704Y34198D01*
X-56771Y33698D01*
X-57038Y33198D01*
X-57438Y32781D01*
X-57904Y32614D01*
X-58438Y32781D01*
X-58904Y33281D01*
X-59171Y34031D01*
X-59238Y34864D01*
X-59104Y35948D01*
X-58904Y36531D01*
X-58571Y37114D01*
X-58104Y37531D01*
X-57638Y37614D01*
X-57171Y37448D01*
X-56838Y37031D01*
G01X-60946Y72840D02*
X-61346Y73090D01*
X-61812Y73257D01*
X-62346D01*
X-62946Y73007D01*
X-63412Y72590D01*
X-63746Y72090D01*
X-64012Y71257D01*
X-64079Y70507D01*
X-63946Y69757D01*
X-63746Y69257D01*
X-63346Y68757D01*
X-62879Y68424D01*
X-62412Y68257D01*
X-61946D01*
X-61479Y68424D01*
X-61079Y68674D01*
X-60746Y69007D01*
G01X-59379Y69257D02*
X-58979Y68674D01*
X-58446Y68340D01*
X-57846Y68257D01*
X-57312Y68340D01*
X-56779Y68757D01*
X-56446Y69257D01*
X-56379Y69757D01*
X-56512Y70340D01*
X-56979Y70757D01*
X-57446Y70924D01*
X-58046D01*
G01X-57446D02*
X-57046Y71174D01*
X-56712Y71590D01*
X-56579Y72090D01*
X-56712Y72590D01*
X-57046Y73007D01*
X-57646Y73257D01*
X-58246Y73174D01*
X-58846Y72840D01*
G01X-61328Y55886D02*
X-61728Y56136D01*
X-62194Y56303D01*
X-62728D01*
X-63328Y56053D01*
X-63794Y55636D01*
X-64128Y55136D01*
X-64395Y54303D01*
X-64461Y53553D01*
X-64328Y52803D01*
X-64128Y52303D01*
X-63728Y51803D01*
X-63261Y51470D01*
X-62795Y51303D01*
X-62328D01*
X-61861Y51470D01*
X-61461Y51720D01*
X-61128Y52053D01*
G01X-57494Y51303D02*
Y56303D01*
X-59961Y52720D01*
X-56628D01*
G01X-63572Y59947D02*
Y64947D01*
X-61906D01*
X-61372Y64696D01*
X-61039Y64363D01*
X-60906Y63697D01*
X-61039Y63030D01*
X-61439Y62613D01*
X-61906Y62363D01*
X-63572D01*
G01X-61906D02*
X-60906Y59947D01*
G01X-59206Y60946D02*
X-58806Y60363D01*
X-58272Y60030D01*
X-57672Y59947D01*
X-57139Y60030D01*
X-56606Y60446D01*
X-56272Y60946D01*
X-56206Y61447D01*
X-56339Y62030D01*
X-56806Y62447D01*
X-57272Y62613D01*
X-57872D01*
G01X-57272D02*
X-56872Y62863D01*
X-56539Y63280D01*
X-56406Y63780D01*
X-56539Y64280D01*
X-56872Y64696D01*
X-57472Y64947D01*
X-58072Y64863D01*
X-58672Y64530D01*
G01X-29240Y132905D02*
X-29490Y132505D01*
X-29657Y132038D01*
Y131505D01*
X-29407Y130905D01*
X-28990Y130438D01*
X-28490Y130105D01*
X-27657Y129838D01*
X-26907Y129772D01*
X-26157Y129905D01*
X-25657Y130105D01*
X-25157Y130505D01*
X-24823Y130972D01*
X-24657Y131438D01*
Y131905D01*
X-24823Y132372D01*
X-25073Y132772D01*
X-25407Y133105D01*
G01X-24657Y135805D02*
X-25740Y135938D01*
X-26657Y136138D01*
X-27490Y136405D01*
X-28407Y136738D01*
X-29657Y137272D01*
Y134605D01*
G01X-9826Y132797D02*
X-10076Y132397D01*
X-10243Y131931D01*
Y131397D01*
X-9993Y130797D01*
X-9576Y130331D01*
X-9076Y129997D01*
X-8243Y129731D01*
X-7493Y129664D01*
X-6743Y129797D01*
X-6243Y129997D01*
X-5743Y130397D01*
X-5410Y130864D01*
X-5243Y131331D01*
Y131797D01*
X-5410Y132264D01*
X-5660Y132664D01*
X-5993Y132997D01*
G01X-5243Y135830D02*
X-5326Y136297D01*
X-5576Y136831D01*
X-5993Y137164D01*
X-6576Y137297D01*
X-7160Y137164D01*
X-7660Y136764D01*
X-7910Y136164D01*
Y135497D01*
X-8076Y135097D01*
X-8493Y134764D01*
X-9076Y134631D01*
X-9660Y134831D01*
X-10076Y135297D01*
X-10243Y135830D01*
X-10076Y136364D01*
X-9660Y136831D01*
X-9076Y137031D01*
X-8493Y136897D01*
X-8076Y136564D01*
X-7910Y136164D01*
Y135497D01*
X-7660Y134897D01*
X-7160Y134497D01*
X-6576Y134364D01*
X-5993Y134497D01*
X-5576Y134831D01*
X-5326Y135364D01*
X-5243Y135830D01*
G01X9143Y73229D02*
X4143D01*
Y74896D01*
X4394Y75429D01*
X4727Y75762D01*
X5393Y75896D01*
X6060Y75762D01*
X6477Y75362D01*
X6727Y74896D01*
Y73229D01*
G01Y74896D02*
X9143Y75896D01*
G01Y78929D02*
X8060Y79062D01*
X7144Y79262D01*
X6310Y79529D01*
X5393Y79862D01*
X4143Y80396D01*
Y77729D01*
G01X17562Y72753D02*
X12562D01*
Y74086D01*
X12812Y74619D01*
X13145Y75019D01*
X13645Y75353D01*
X14228Y75619D01*
X15062Y75686D01*
X15895Y75619D01*
X16478Y75353D01*
X16978Y75019D01*
X17312Y74619D01*
X17562Y74086D01*
Y72753D01*
G01X13395Y77453D02*
X12895Y77853D01*
X12645Y78319D01*
X12562Y78853D01*
X12728Y79519D01*
X13145Y79986D01*
X13645Y80119D01*
X14145Y80053D01*
X14562Y79786D01*
X15395Y78453D01*
X15978Y77853D01*
X16812Y77453D01*
X17562Y77319D01*
Y80119D01*
G01X13291Y102737D02*
X13691Y102486D01*
X14158Y102320D01*
X14691D01*
X15291Y102570D01*
X15758Y102986D01*
X16091Y103486D01*
X16358Y104320D01*
X16425Y105070D01*
X16291Y105820D01*
X16091Y106320D01*
X15691Y106820D01*
X15225Y107153D01*
X14758Y107320D01*
X14291D01*
X13825Y107153D01*
X13425Y106903D01*
X13091Y106570D01*
G01X11391Y106737D02*
X10925Y107153D01*
X10391Y107320D01*
X9858Y107153D01*
X9391Y106653D01*
X9058Y105903D01*
X8925Y105153D01*
Y104236D01*
X9058Y103486D01*
X9391Y102820D01*
X9791Y102486D01*
X10258Y102320D01*
X10791Y102486D01*
X11191Y102820D01*
X11458Y103320D01*
X11591Y103987D01*
X11458Y104570D01*
X11125Y105153D01*
X10725Y105487D01*
X10258Y105570D01*
X9725Y105403D01*
X9325Y104986D01*
X8925Y104236D01*
G01X11877Y167466D02*
X12377Y167799D01*
X12711Y168199D01*
X12877Y168666D01*
X12711Y169199D01*
X12377Y169599D01*
X11877Y169999D01*
X11211Y170133D01*
X7877D01*
G01X8710Y172032D02*
X8211Y172432D01*
X7961Y172899D01*
X7877Y173433D01*
X8044Y174099D01*
X8461Y174566D01*
X8960Y174699D01*
X9461Y174633D01*
X9877Y174366D01*
X10710Y173032D01*
X11294Y172432D01*
X12127Y172032D01*
X12877Y171899D01*
Y174699D01*
G54D12*
G01X-98380Y73311D02*
X-95230D01*
Y52838D01*
X-107041D01*
Y73311D01*
X-102711D01*
G02X-101923Y72523I0J-787D01*
G01Y72130D01*
G03X-101136Y71342I787J0D01*
G01X-100349D01*
G03X-99561Y72130I0J787D01*
G01Y72360D01*
G02X-98611Y73311I950J0D01*
G01X-98380D01*
G54D13*
G01X-181643Y34173D02*
X-185974D01*
G01X-127675Y42052D02*
X-132006D01*
G01X-118658Y80615D02*
Y84946D01*
G01X-37116Y167014D02*
X-106408D01*
Y78825D01*
X-36329D01*
Y167014D01*
X-37116D01*
G01X-75186Y43894D02*
Y39563D01*
G01X-91699Y43874D02*
Y39543D01*
G01X-75186Y30331D02*
Y34662D01*
G01X-75470Y70658D02*
Y66327D01*
G01X-75440Y49059D02*
Y53390D01*
G01X7203Y93600D02*
X11534D01*
G54D14*
G01X-179872Y40866D02*
Y27086D01*
X-187746D01*
Y41259D01*
X-179872D01*
Y40866D01*
G01X-125903Y48745D02*
Y34965D01*
X-133777D01*
Y49138D01*
X-125903D01*
Y48745D01*
G01X-111966Y78844D02*
X-125745D01*
Y86718D01*
X-111572D01*
Y78844D01*
X-111966D01*
G01X-98392Y45646D02*
X-84612D01*
Y37772D01*
X-98785D01*
Y45646D01*
X-98392D01*
G01X-81878Y45665D02*
X-68099D01*
Y37791D01*
X-82272D01*
Y45665D01*
X-81878D01*
G01X-68493Y28560D02*
X-82272D01*
Y36434D01*
X-68099D01*
Y28560D01*
X-68493D01*
G01X-82163Y72429D02*
X-68383D01*
Y64555D01*
X-82556D01*
Y72429D01*
X-82163D01*
G01X-68748Y47288D02*
X-82527D01*
Y55162D01*
X-68354D01*
Y47288D01*
X-68748D01*
G01X5432Y86907D02*
Y100686D01*
X13306D01*
Y86513D01*
X5432D01*
Y86907D01*
G54D15*
G01X-183021Y50946D02*
G03I-787J0D01*
G01X13772Y129915D02*
G03I-787J0D01*
G54D16*
G01X-217097Y216526D02*
X18209D01*
G02X22904Y211831I0J-4695D01*
G01Y-15344D01*
G02X18563Y-19685I-4341J0D01*
G01X-216486D01*
G02X-221220Y-14951I0J4734D01*
G01Y212402D01*
G02X-217097Y216526I4124J0D01*
M02*
