G04 ================== begin FILE IDENTIFICATION RECORD ==================*
G04 Layout Name:  D:/Sankar/Personal/Final_Design_file/12v_12v_power_board/POWER.brd*
G04 Film Name:    TOP*
G04 File Format:  Gerber RS274X*
G04 File Origin:  Cadence Allegro 16.6-P004*
G04 Origin Date:  Fri Jun 04 19:25:55 2021*
G04 *
G04 Layer:  DRAWING FORMAT/TITLE_BLOCK*
G04 Layer:  BOARD GEOMETRY/OUTLINE*
G04 Layer:  ETCH/TOP*
G04 Layer:  PIN/TOP*
G04 Layer:  VIA CLASS/TOP*
G04 *
G04 Offset:    (0.000 0.000)*
G04 Mirror:    No*
G04 Mode:      Positive*
G04 Rotation:  0*
G04 FullContactRelief:  No*
G04 UndefLineWidth:     0.000*
G04 ================== end FILE IDENTIFICATION RECORD ====================*
%FSLAX25Y25*MOIN*%
%IR0*IPPOS*OFA0.00000B0.00000*MIA0B0*SFA1.00000B1.00000*%
%ADD10C,.13*%
%ADD18R,.042126X.105118*%
%ADD16C,.024*%
%ADD22R,.040945X.054331*%
%ADD21R,.523622X.165354*%
%ADD13C,.070866*%
%ADD19R,.102874X.137874*%
%ADD14R,.070866X.070866*%
%ADD20R,.062992X.03189*%
%AMMACRO12*
4,1,44,-.016339,-.009256,
-.016339,.009256,
-.016208,.010759,
-.015817,.012217,
-.015179,.013584,
-.014314,.01482,
-.013247,.015887,
-.012011,.016753,
-.010644,.017391,
-.009186,.017781,
-.007683,.017913,
-.007677,.017913,
.007677,.017913,
.00918,.017782,
.010638,.017393,
.012006,.016756,
.013243,.015891,
.01431,.014825,
.015177,.013589,
.015815,.012222,
.016207,.010765,
.016339,.009262,
.016339,.009256,
.016339,-.009256,
.016208,-.010759,
.015817,-.012217,
.015179,-.013584,
.014314,-.01482,
.013247,-.015887,
.012011,-.016753,
.010644,-.017391,
.009186,-.017781,
.007683,-.017913,
.007677,-.017913,
-.007677,-.017913,
-.00918,-.017782,
-.010638,-.017393,
-.012006,-.016756,
-.013243,-.015891,
-.01431,-.014825,
-.015177,-.013589,
-.015815,-.012222,
-.016207,-.010765,
-.016339,-.009262,
-.016339,-.009256,
0.0*
%
%ADD12MACRO12*%
%ADD11R,.057087X.045276*%
%ADD17R,.045276X.057087*%
%ADD15R,.094488X.03937*%
%ADD23C,.008*%
%ADD24C,.019685*%
%ADD25C,.200007*%
G75*
%LPD*%
G75*
G36*
G01X-203967Y-10976D02*
X-204118Y-10826D01*
G02X-203817Y-10143I283J283D01*
G03X-213359Y-601I448J9990D01*
G02X-214041Y-902I-400J-18D01*
G01X-216090Y1147D01*
Y108329D01*
X-211229Y113190D01*
X-111104D01*
G02X-110822Y112507I0J-400D01*
G01X-119884Y103444D01*
Y90641D01*
X-126425D01*
X-128254Y88813D01*
Y72368D01*
X-125131Y69245D01*
G02X-125413Y68562I-283J-283D01*
G01X-185666D01*
X-186538Y69434D01*
X-200680D01*
X-203165Y66949D01*
Y51053D01*
X-197514Y45402D01*
X-192242D01*
X-191630Y44790D01*
Y37784D01*
X-188163Y34317D01*
Y32530D01*
X-189674D01*
X-189676Y32532D01*
X-190273D01*
G03X-192430Y33923I-2156J-975D01*
G01X-193964D01*
G03X-196331Y31558I-1J-2366D01*
G01Y29706D01*
G03X-193964Y27340I2366J0D01*
G01X-192430D01*
G03X-190274Y28729I1J2366D01*
G01X-188163D01*
Y26865D01*
X-179454D01*
Y33446D01*
X-179227D01*
X-171318Y41355D01*
X-136515D01*
Y35530D01*
X-134177Y33192D01*
X-120133D01*
X-118465Y34859D01*
G02X-118126Y34750I141J-141D01*
G01X-118103Y34604D01*
X-118268Y22617D01*
X-116187Y20383D01*
X-108095D01*
X-105621Y22518D01*
X-105653Y37659D01*
X-105623Y44612D01*
X-105643Y47468D01*
Y57473D01*
X-106142Y57972D01*
X-105800Y58314D01*
Y61980D01*
X-106044Y62225D01*
X-105594Y62676D01*
Y67400D01*
X-105794Y67600D01*
X-105222Y68173D01*
Y72212D01*
X-105325Y72315D01*
G02X-105183Y72656I141J141D01*
G01X-96962D01*
Y68026D01*
X-96298Y67362D01*
Y67094D01*
X-96030D01*
X-95487Y66551D01*
X-86009D01*
X-82789Y69771D01*
Y76964D01*
X-81188Y78566D01*
X-41733D01*
X-38542Y81756D01*
Y102396D01*
X-48654Y112507D01*
G02X-48371Y113190I283J283D01*
G01X-39309D01*
Y105453D01*
X-34629Y100772D01*
X-22878D01*
X-13182Y91076D01*
Y38176D01*
X-21722Y29636D01*
X-61759D01*
Y44693D01*
X-65684Y48619D01*
X-73642D01*
X-73963Y48298D01*
G02X-74646Y48581I-283J283D01*
G01Y55055D01*
X-72162D01*
X-72152Y55065D01*
X-68712D01*
X-68087Y55691D01*
X-68006D01*
Y55772D01*
X-66962Y56815D01*
Y72584D01*
X-68360Y73981D01*
X-74936D01*
X-76392Y72525D01*
Y65269D01*
X-81835D01*
X-83139Y63966D01*
X-95281D01*
X-95963Y63283D01*
X-96298D01*
Y62949D01*
X-97060Y62186D01*
Y58128D01*
X-96811Y57879D01*
X-97246Y57443D01*
Y47828D01*
X-94997Y45579D01*
X-93958D01*
X-92582Y44202D01*
Y26268D01*
X-90626Y24313D01*
X-76725D01*
Y21261D01*
X-73907Y18443D01*
X-10392D01*
X-2910Y25926D01*
Y91067D01*
X-19595Y107752D01*
X-29326D01*
X-30487Y108913D01*
Y111616D01*
G02X-29804Y111899I400J0D01*
G01X-29674Y111769D01*
X19316D01*
X19835Y111250D01*
Y100571D01*
G02X19263Y100210I-400J0D01*
G03X18241Y100442I-1021J-2134D01*
G01X16706D01*
G03X14549Y99051I-1J-2366D01*
G01X13723D01*
Y100907D01*
X5014D01*
Y92682D01*
G02X4475Y92307I-400J0D01*
G03Y87806I-835J-2250D01*
G02X5014Y87431I139J-375D01*
G01Y86292D01*
X13723D01*
Y95243D01*
X14553D01*
G03X16706Y93859I2152J982D01*
G01X18241D01*
G03X19263Y94090I1J2366D01*
G02X19835Y93730I173J-361D01*
G01Y-1960D01*
X10819Y-10976D01*
X-203967D01*
G37*
G36*
G01X-186465Y35447D02*
X-189630Y38612D01*
Y45619D01*
X-191414Y47403D01*
X-196686D01*
X-201165Y51881D01*
Y66121D01*
X-199851Y67434D01*
X-187366D01*
X-186494Y66562D01*
X-123578D01*
X-121726Y64709D01*
X-116365D01*
X-114190Y66885D01*
X-107908D01*
X-107780Y66757D01*
Y63593D01*
X-112675D01*
X-112705Y63623D01*
X-120878D01*
X-122163Y62338D01*
X-122716D01*
X-124734Y60319D01*
Y59767D01*
X-124882Y59619D01*
Y44834D01*
X-126361Y43355D01*
X-171039D01*
X-171088Y43404D01*
X-172098D01*
X-180055Y35447D01*
X-186465D01*
G37*
G36*
G01X-113533Y61622D02*
X-113504Y61593D01*
X-108241D01*
X-107800Y61152D01*
Y59143D01*
X-108153Y58790D01*
X-116943D01*
X-118374Y57359D01*
Y37779D01*
X-120961Y35192D01*
X-133349D01*
X-134515Y36358D01*
Y40268D01*
X-133721Y41062D01*
X-124088D01*
X-122882Y42267D01*
Y58790D01*
X-120050Y61622D01*
X-113533D01*
G37*
G36*
G01X-121530Y68473D02*
X-126213Y73155D01*
Y75783D01*
X-126253D01*
Y87984D01*
X-125597Y88641D01*
X-120158D01*
X-119736Y88220D01*
Y77587D01*
X-114435Y72285D01*
X-108123D01*
X-107222Y71383D01*
Y71075D01*
X-107780D01*
Y68885D01*
X-115018D01*
X-115431Y68473D01*
X-121530D01*
G37*
G36*
G01X-107653Y37661D02*
X-107624Y23432D01*
X-108839Y22383D01*
X-115317D01*
X-116257Y23393D01*
X-116101Y34751D01*
X-116444Y36881D01*
X-116374Y36950D01*
Y56420D01*
X-116004Y56790D01*
X-107789D01*
X-107780Y56781D01*
Y54287D01*
X-107643D01*
Y47461D01*
X-107624Y44610D01*
X-107653Y37661D01*
G37*
G36*
G01X-94492Y68551D02*
Y71075D01*
X-94962D01*
Y73618D01*
X-96001Y74656D01*
X-112328D01*
X-117736Y80065D01*
Y89048D01*
X-117884Y89196D01*
Y102616D01*
X-109701Y110799D01*
X-49774D01*
X-40543Y101567D01*
Y82585D01*
X-42561Y80566D01*
X-82016D01*
X-84790Y77792D01*
Y70599D01*
X-86838Y68551D01*
X-94492D01*
G37*
G36*
G01X-73079Y20443D02*
X-74725Y22089D01*
Y25866D01*
X-74440Y26151D01*
Y44993D01*
X-72814Y46619D01*
X-66513D01*
X-63759Y43865D01*
Y27754D01*
X-63543Y27636D01*
X-20894D01*
X-11182Y37348D01*
Y91904D01*
X-22050Y102773D01*
X-33800D01*
X-37309Y106281D01*
Y116806D01*
X-44845Y124342D01*
X-109642D01*
X-120334Y135034D01*
Y181859D01*
X-111475Y190718D01*
X-32575D01*
X-5478Y163621D01*
Y147843D01*
X-2754Y145118D01*
X17503D01*
X21090Y141532D01*
Y116012D01*
X20217Y115140D01*
X-31164D01*
X-32487Y113817D01*
Y108084D01*
X-30155Y105752D01*
X-20423D01*
X-4910Y90238D01*
Y26754D01*
X-11221Y20443D01*
X-73079D01*
G37*
G36*
G01X-89797Y26313D02*
X-90581Y27097D01*
Y45031D01*
X-91478Y45928D01*
Y46063D01*
X-91614D01*
X-93129Y47579D01*
X-94168D01*
X-95246Y48657D01*
Y54287D01*
X-94492D01*
Y56408D01*
X-87724D01*
X-87656Y56476D01*
X-87141D01*
X-86612Y55948D01*
Y47403D01*
X-85211Y46001D01*
X-81493D01*
X-81286Y45794D01*
X-77154D01*
X-76440Y45080D01*
Y26979D01*
X-77106Y26313D01*
X-89797D01*
G37*
G36*
G01X-84382Y48001D02*
X-84612Y48231D01*
Y56476D01*
X-83830D01*
Y48338D01*
X-83740Y48248D01*
X-83843Y48001D01*
X-84382D01*
G37*
G36*
G01X-80458Y47795D02*
X-81830Y49167D01*
Y57879D01*
X-82428Y58477D01*
X-88484D01*
X-88553Y58408D01*
X-94492D01*
Y61926D01*
X-94452Y61965D01*
X-82310D01*
X-81007Y63269D01*
X-77048D01*
X-76646Y62867D01*
Y48324D01*
X-77175Y47795D01*
X-80458D01*
G37*
G36*
G01X-72990Y57056D02*
X-74029D01*
X-74392Y57418D01*
Y71697D01*
X-74108Y71981D01*
X-69188D01*
X-68963Y71756D01*
Y57644D01*
X-69541Y57065D01*
X-72981D01*
X-72990Y57056D01*
G37*
%LPC*%
G75*
G54D25*
X20Y-153D03*
%LPD*%
G75*
G54D10*
X-203369Y-153D03*
X-202499Y196639D03*
X20Y-153D03*
Y196698D03*
G54D11*
X-183809Y30629D03*
Y37716D03*
X-129840Y38508D03*
Y45595D03*
X9369Y97143D03*
Y90056D03*
G54D20*
X-110939Y55189D03*
Y60189D03*
Y65189D03*
Y70189D03*
X-91648D03*
Y65189D03*
Y60189D03*
Y55189D03*
G54D12*
X-193197Y36537D03*
Y30632D03*
X17473Y97150D03*
Y91245D03*
G54D21*
X-72549Y93786D03*
Y149692D03*
G54D13*
X-183809Y74726D03*
X12985Y153694D03*
G54D22*
X-78955Y59907D03*
X-71553D03*
G54D23*
G01X-183809Y30629D02*
X-190461D01*
X-190463Y30632D01*
X-193197D01*
G01X17473Y97150D02*
X14135D01*
X14127Y97143D01*
X9369D01*
G01Y90056D02*
X3640D01*
G54D14*
X-183809Y60946D03*
X12985Y139915D03*
G54D24*
G01X-217097Y216526D02*
X18209D01*
G02X22904Y211831I0J-4695D01*
G01Y-15344D01*
G02X18563Y-19685I-4341J0D01*
G01X-216486D01*
G02X-221220Y-14951I0J4734D01*
G01Y212402D01*
G02X-217097Y216526I4124J0D01*
G54D15*
X-153321Y61626D03*
Y72255D03*
X-132437Y61684D03*
Y72314D03*
X-24608Y110674D03*
Y121304D03*
X-5145Y110890D03*
Y121520D03*
X13720Y110890D03*
Y121520D03*
G54D16*
X-95295Y12015D03*
X-109829Y12034D03*
X-102528Y12015D03*
X-101293Y38122D03*
X-103890Y42169D03*
X-110181Y17816D03*
X-95805Y18012D03*
X-102684Y17934D03*
X-98118Y67689D03*
X-103672Y67721D03*
X-101136Y63161D03*
X-103408Y58343D03*
X-98400Y58294D03*
X-98274Y47912D03*
X-103890D03*
X-119315Y134437D03*
X-108006Y134349D03*
X-114229D03*
X-118267Y160731D03*
X-106958Y160642D03*
X-113181D03*
X-119149Y152842D03*
X-107840Y152753D03*
X-114062D03*
X-119492Y144080D03*
X-108182Y143992D03*
X-114406D03*
X-103625Y187121D03*
X-97667Y187033D03*
X-118267Y181075D03*
X-106262Y180899D03*
X-112220Y180987D03*
X-94952Y180811D03*
X-101176D03*
X-118962Y174588D03*
X-106958Y174411D03*
X-112916Y174500D03*
X-95648Y174323D03*
X-101871D03*
X-118619Y168012D03*
X-107310Y167924D03*
X-113533D03*
X-109672Y187209D03*
X-65346Y76038D03*
X-72079Y76362D03*
X-79066Y76401D03*
X-92581Y186945D03*
X-86358D03*
X-80213Y186946D03*
X-68208Y186769D03*
X-74167Y186857D03*
X-88984Y180546D03*
X-76979Y180370D03*
X-82938Y180458D03*
X-65670Y180282D03*
X-71893D03*
X-89945Y174323D03*
X-77940Y174147D03*
X-83898Y174235D03*
X-66630Y174059D03*
X-72854D03*
X-43287Y11927D03*
X-39376Y11838D03*
X-35290Y11662D03*
X-42454Y7664D03*
X-38367Y7438D03*
X-43110Y16101D03*
X-39553Y16052D03*
X-35603Y16013D03*
X-42346Y40788D03*
X-38475Y40748D03*
X-42238Y35427D03*
X-38240D03*
X-42277Y30772D03*
X-37750Y30733D03*
X-36838Y91179D03*
X-36877Y85505D03*
X-36662Y96403D03*
X-56899Y186681D03*
X-63122D03*
X-51637Y186946D03*
X-39632Y186769D03*
X-45590Y186857D03*
X-34545Y186681D03*
X-58212Y180370D03*
X-46207Y180193D03*
X-52166Y180282D03*
X-34898Y180105D03*
X-41121D03*
X-60319Y174147D03*
X-48314Y173970D03*
X-54273Y174059D03*
X-37005Y173882D03*
X-43228D03*
X-31644Y11838D03*
X-32791Y7526D03*
X-34124Y40876D03*
X-31772Y16052D03*
X-27999Y16013D03*
X-29978Y40876D03*
X-34280Y35339D03*
X-30282Y35300D03*
X-33095Y30821D03*
X-29312D03*
X-21932Y85485D03*
X-11133Y104360D03*
X-7526Y104311D03*
X-9771Y100313D03*
X-32222Y96256D03*
X-27215Y96207D03*
X-20903Y96138D03*
X-32173Y91091D03*
X-27303Y91003D03*
X-22863Y90915D03*
X-17189D03*
X-31781Y85505D03*
X-27391D03*
X-31213Y173882D03*
X-19208Y173706D03*
X-25167Y173794D03*
X-31125Y168188D03*
X-19120Y168012D03*
X-25078Y168100D03*
X-14034Y167924D03*
X-2822Y104801D03*
X3640Y90056D03*
G54D17*
X-95242Y41709D03*
X-122202Y82781D03*
X-115115D03*
X-71642Y41728D03*
X-78729D03*
X-88155Y41709D03*
X-78729Y32497D03*
X-71642D03*
X-71926Y68492D03*
X-79013D03*
X-78984Y51225D03*
X-71897D03*
G54D18*
X-113936Y29459D03*
X-95196D03*
G54D19*
X-101136Y62681D03*
M02*
