G04 ================== begin FILE IDENTIFICATION RECORD ==================*
G04 Layout Name:  D:/Sankar/Personal/accel (1)/Ozone_Alice_accel/ACCelero.brd*
G04 Film Name:    ASSY_TOP*
G04 File Format:  Gerber RS274X*
G04 File Origin:  Cadence Allegro 16.6-P004*
G04 Origin Date:  Fri May 28 19:22:44 2021*
G04 *
G04 Layer:  REF DES/ASSEMBLY_TOP*
G04 Layer:  PIN/TOP*
G04 Layer:  PACKAGE GEOMETRY/ASSEMBLY_TOP*
G04 Layer:  BOARD GEOMETRY/OUTLINE*
G04 *
G04 Offset:    (0.000 0.000)*
G04 Mirror:    No*
G04 Mode:      Positive*
G04 Rotation:  0*
G04 FullContactRelief:  No*
G04 UndefLineWidth:     0.000*
G04 ================== end FILE IDENTIFICATION RECORD ====================*
%FSLAX25Y25*MOIN*%
%IR0*IPPOS*OFA0.00000B0.00000*MIA0B0*SFA1.00000B1.00000*%
%ADD10C,.13*%
%ADD22R,.07874X.216535*%
%ADD23P,.070313X8X22.5*%
%ADD11C,.06*%
%ADD16R,.03937X.043307*%
%ADD17R,.043307X.03937*%
%ADD15C,.064961*%
%ADD13C,.053937*%
%AMMACRO20*
4,1,40,-.034646,.011811,
.034646,.011811,
.035159,.011765,
.035657,.011631,
.036124,.011412,
.036546,.011116,
.036909,.010751,
.037204,.010328,
.037421,.009861,
.037554,.009362,
.037598,.008858,
.037598,-.008858,
.037552,-.009371,
.037418,-.009869,
.0372,-.010336,
.036904,-.010758,
.036539,-.011122,
.036116,-.011417,
.035649,-.011634,
.03515,-.011767,
.034646,-.011811,
-.034646,-.011811,
-.035159,-.011765,
-.035657,-.011631,
-.036124,-.011412,
-.036546,-.011116,
-.036909,-.010751,
-.037204,-.010328,
-.037421,-.009861,
-.037554,-.009362,
-.037598,-.008858,
-.037598,.008858,
-.037552,.009371,
-.037418,.009869,
-.0372,.010336,
-.036904,.010758,
-.036539,.011122,
-.036116,.011417,
-.035649,.011634,
-.03515,.011767,
-.034646,.011811,
0.0*
%
%ADD20MACRO20*%
%ADD14R,.064961X.064961*%
%ADD12R,.053937X.053937*%
%AMMACRO19*
4,1,44,-.013335,.018307,
.013335,.018307,
.014129,.018239,
.014899,.018034,
.015621,.017699,
.016274,.017243,
.016839,.016681,
.017297,.016029,
.017635,.015307,
.017842,.014538,
.017913,.013745,
.017913,.013732,
.017913,-.013732,
.017844,-.014526,
.017639,-.015295,
.017303,-.016018,
.016847,-.016671,
.016284,-.017235,
.015632,-.017692,
.014911,-.01803,
.014141,-.018237,
.013348,-.018307,
.013335,-.018307,
-.013335,-.018307,
-.014129,-.018239,
-.014899,-.018034,
-.015621,-.017699,
-.016274,-.017243,
-.016839,-.016681,
-.017297,-.016029,
-.017635,-.015307,
-.017842,-.014538,
-.017913,-.013745,
-.017913,-.013732,
-.017913,.013732,
-.017844,.014526,
-.017639,.015295,
-.017303,.016018,
-.016847,.016671,
-.016284,.017235,
-.015632,.017692,
-.014911,.01803,
-.014141,.018237,
-.013348,.018307,
-.013335,.018307,
0.0*
%
%ADD19MACRO19*%
%ADD18R,.045276X.057087*%
%ADD21R,.068898X.023622*%
%ADD24C,.002*%
%ADD25C,.004*%
%ADD26C,.005*%
%ADD27C,.006*%
%ADD28C,.008*%
%ADD29C,.003937*%
%ADD30C,.007874*%
%ADD31C,.019685*%
G75*
%LPD*%
G75*
G36*
G01X128268Y13655D02*
X124520D01*
Y11692D01*
X128268D01*
Y13655D01*
G37*
G36*
G01Y18270D02*
X124523D01*
Y16292D01*
X128268D01*
Y18270D01*
G37*
G36*
G01X138064Y46929D02*
Y50676D01*
X136101D01*
Y46929D01*
X138064D01*
G37*
G36*
G01X142679D02*
Y50674D01*
X140701D01*
Y46929D01*
X142679D01*
G37*
G36*
G01X169022Y32599D02*
Y28851D01*
X170985D01*
Y32599D01*
X169022D01*
G37*
G36*
G01X164407D02*
Y28854D01*
X166385D01*
Y32599D01*
X164407D01*
G37*
G36*
G01X168628Y14095D02*
Y10347D01*
X170591D01*
Y14095D01*
X168628D01*
G37*
G36*
G01X164014D02*
Y10350D01*
X165991D01*
Y14095D01*
X164014D01*
G37*
G36*
G01X169685Y25394D02*
Y20276D01*
X171653D01*
Y25394D01*
X169685D01*
G37*
G36*
G01X163779D02*
Y20276D01*
X165748D01*
Y25394D01*
X163779D01*
G37*
G36*
G01X155827Y46726D02*
X152079D01*
Y44762D01*
X155827D01*
Y46726D01*
G37*
G36*
G01Y51340D02*
X152082D01*
Y49362D01*
X155827D01*
Y51340D01*
G37*
G36*
G01X169022Y38504D02*
Y34757D01*
X170985D01*
Y38504D01*
X169022D01*
G37*
G36*
G01X164407D02*
Y34759D01*
X166385D01*
Y38504D01*
X164407D01*
G37*
G36*
G01X207558Y12723D02*
X211306D01*
Y14686D01*
X207558D01*
Y12723D01*
G37*
G36*
G01Y8108D02*
X211304D01*
Y10086D01*
X207558D01*
Y8108D01*
G37*
G36*
G01X225984Y3701D02*
X221653D01*
Y1771D01*
X225984D01*
Y3701D01*
G37*
G36*
G01Y8701D02*
X221653D01*
Y6771D01*
X225984D01*
Y8701D01*
G37*
G36*
G01Y13701D02*
X221653D01*
Y11771D01*
X225984D01*
Y13701D01*
G37*
G36*
G01Y18701D02*
X221653D01*
Y16771D01*
X225984D01*
Y18701D01*
G37*
G36*
G01X212676Y12723D02*
X216424D01*
Y14686D01*
X212676D01*
Y12723D01*
G37*
G36*
G01Y8108D02*
X216422D01*
Y10086D01*
X212676D01*
Y8108D01*
G37*
G36*
G01X246063Y3701D02*
X241732D01*
Y1771D01*
X246063D01*
Y3701D01*
G37*
G36*
G01Y18701D02*
X241732D01*
Y16771D01*
X246063D01*
Y18701D01*
G37*
G36*
G01Y13701D02*
X241732D01*
Y11771D01*
X246063D01*
Y13701D01*
G37*
G36*
G01Y8701D02*
X241732D01*
Y6771D01*
X246063D01*
Y8701D01*
G37*
G36*
G01X269525Y62520D02*
Y58775D01*
X271503D01*
Y62520D01*
X269525D01*
G37*
G36*
G01X257008Y51057D02*
X253261D01*
Y49093D01*
X257008D01*
Y51057D01*
G37*
G36*
G01Y55671D02*
X253263D01*
Y53693D01*
X257008D01*
Y55671D01*
G37*
G36*
G01X252834Y84376D02*
X256582D01*
Y86340D01*
X252834D01*
Y84376D01*
G37*
G36*
G01Y79762D02*
X256580D01*
Y81740D01*
X252834D01*
Y79762D01*
G37*
G36*
G01X274140Y62520D02*
Y58772D01*
X276103D01*
Y62520D01*
X274140D01*
G37*
G54D10*
X50Y-960D03*
Y117150D03*
X283515Y-960D03*
Y117150D03*
G54D20*
X164527Y46535D03*
Y51535D03*
Y56535D03*
Y61535D03*
Y66535D03*
Y71535D03*
Y76535D03*
Y81535D03*
Y86535D03*
X200826Y61535D03*
Y56535D03*
Y51535D03*
Y46535D03*
Y86535D03*
Y81535D03*
Y76535D03*
Y71535D03*
Y66535D03*
G54D11*
X-394Y34803D03*
Y44803D03*
Y54803D03*
Y64803D03*
Y74803D03*
X25984Y-13386D03*
X33071Y118504D03*
X55984Y-13386D03*
X45984D03*
X35984D03*
X63071Y118504D03*
X53071D03*
X43071D03*
X65984Y-13386D03*
X73071Y118504D03*
X119449Y118898D03*
X109449D03*
X149449D03*
X139449D03*
X129449D03*
X210000D03*
X220000D03*
X230000D03*
X240000D03*
X250000D03*
X288582Y50630D03*
Y60630D03*
G54D30*
G01X65748Y21181D02*
G03I-394J0D01*
G01X126772D02*
G03I-394J0D01*
G01X208740Y44173D02*
G03I-394J0D01*
G54D21*
X222835Y2736D03*
Y7736D03*
Y12736D03*
Y17736D03*
X244882Y2736D03*
Y17736D03*
Y12736D03*
Y7736D03*
G54D12*
X65354Y28740D03*
X126378D03*
G54D31*
G01X-11024Y135827D02*
X295669D01*
X299606Y131890D01*
Y-17716D01*
X295669Y-21654D01*
X-11417D01*
X-15354Y-17716D01*
Y131496D01*
X-11024Y135827D01*
G54D13*
X65354Y58740D03*
Y48740D03*
Y38740D03*
Y88740D03*
Y78740D03*
Y68740D03*
X126378Y58740D03*
Y48740D03*
Y38740D03*
Y88740D03*
Y78740D03*
Y68740D03*
G54D22*
X237008Y49016D03*
Y86417D03*
G54D14*
X111417Y-16535D03*
G54D23*
X285826Y30315D03*
G54D24*
G01X284882Y65247D02*
X284632Y65055D01*
X284465Y64825D01*
X284382Y64557D01*
X284465Y64250D01*
X284632Y64020D01*
X284882Y63790D01*
X285215Y63713D01*
X286882D01*
G01X284382Y61980D02*
X284424Y61712D01*
X284549Y61405D01*
X284757Y61213D01*
X285049Y61137D01*
X285340Y61213D01*
X285590Y61443D01*
X285716Y61788D01*
Y62172D01*
X285799Y62402D01*
X286007Y62593D01*
X286299Y62670D01*
X286590Y62555D01*
X286799Y62286D01*
X286882Y61980D01*
X286799Y61673D01*
X286590Y61405D01*
X286299Y61290D01*
X286007Y61366D01*
X285799Y61558D01*
X285716Y61788D01*
Y62172D01*
X285590Y62516D01*
X285340Y62747D01*
X285049Y62823D01*
X284757Y62747D01*
X284549Y62555D01*
X284424Y62248D01*
X284382Y61980D01*
G54D15*
X141417Y-16535D03*
X126417D03*
X285826Y20315D03*
G54D25*
G01X124728Y16362D02*
Y13559D01*
G01X128078Y16362D02*
Y13559D01*
G01X140771Y50468D02*
X137968D01*
G01X140771Y47118D02*
X137968D01*
G01X166315Y29059D02*
X169118D01*
G01X166315Y32409D02*
X169118D01*
G01X165921Y10555D02*
X168724D01*
G01X165921Y13906D02*
X168724D01*
G01X152287Y49433D02*
Y46630D01*
G01X155638Y49433D02*
Y46630D01*
G01X166315Y34964D02*
X169118D01*
G01X166315Y38315D02*
X169118D01*
G01X207748Y10016D02*
Y12819D01*
G01X216216Y10016D02*
Y12819D01*
G01X212866Y10016D02*
Y12819D01*
G01X211098Y10016D02*
Y12819D01*
G01X253468Y53764D02*
Y50961D01*
G01X256819Y53764D02*
Y50961D01*
G01X256374Y81669D02*
Y84472D01*
G01X253024Y81669D02*
Y84472D01*
G01X271433Y58980D02*
X274236D01*
G01X271433Y62331D02*
X274236D01*
G54D16*
X126378Y11614D03*
Y18307D03*
X153937Y44685D03*
Y51378D03*
X209448Y14764D03*
Y8071D03*
X214567Y14764D03*
Y8071D03*
X255118Y49016D03*
Y55709D03*
X254724Y86417D03*
Y79724D03*
G54D26*
G01X104331Y-1968D02*
X149291D01*
Y-30709D01*
X104331D01*
Y-1968D01*
G01X163779Y25394D02*
X171653D01*
Y20276D01*
X163779D01*
Y25394D01*
G01X177362Y13976D02*
X184055D01*
Y10433D01*
X177362D01*
Y13976D01*
G01X167716Y89468D02*
X197637D01*
Y43602D01*
X167716D01*
Y89468D01*
G01X246457Y90158D02*
X227559D01*
Y45276D01*
X246457D01*
Y90158D01*
G01X289362Y20315D02*
G03I-3535J0D01*
G01Y30315D02*
G03I-3535J0D01*
G01X282077Y17815D02*
X274576Y16565D01*
G01X282076Y22815D02*
X274576Y24065D01*
G01X282077Y27814D02*
X274576Y26565D01*
G01X282076Y32815D02*
X274576Y34065D01*
G01X288326Y17815D02*
X283326Y22815D01*
G01X288326Y27815D02*
X283326Y32815D01*
G01X273622Y36220D02*
X298031D01*
Y14409D01*
X273622D01*
Y36220D01*
G54D17*
X136023Y48819D03*
X142716D03*
X171063Y30709D03*
X164370D03*
X170669Y12205D03*
X163976D03*
X171063Y36614D03*
X164370D03*
X269488Y60630D03*
X276181D03*
G54D27*
G01X23384Y-6586D02*
X23659Y-6936D01*
X23989Y-7169D01*
X24374Y-7286D01*
X24814Y-7169D01*
X25144Y-6936D01*
X25474Y-6586D01*
X25584Y-6119D01*
Y-3786D01*
G01X28744Y-7286D02*
Y-3786D01*
X26709Y-6294D01*
X29459D01*
G01X6406Y77403D02*
X6056Y77128D01*
X5823Y76798D01*
X5706Y76413D01*
X5823Y75973D01*
X6056Y75643D01*
X6406Y75313D01*
X6873Y75203D01*
X9206D01*
G01X6406Y73913D02*
X5998Y73583D01*
X5765Y73143D01*
X5706Y72648D01*
X5765Y72208D01*
X6056Y71768D01*
X6406Y71493D01*
X6756Y71438D01*
X7164Y71548D01*
X7456Y71933D01*
X7573Y72318D01*
Y72813D01*
G01Y72318D02*
X7748Y71988D01*
X8040Y71713D01*
X8390Y71603D01*
X8740Y71713D01*
X9031Y71988D01*
X9206Y72483D01*
X9148Y72978D01*
X8915Y73473D01*
G01X30471Y125304D02*
X30746Y124954D01*
X31076Y124720D01*
X31461Y124604D01*
X31901Y124720D01*
X32231Y124954D01*
X32561Y125304D01*
X32671Y125770D01*
Y128104D01*
G01X33961Y125129D02*
X34291Y124837D01*
X34676Y124662D01*
X35171Y124604D01*
X35666Y124720D01*
X36051Y124954D01*
X36326Y125362D01*
X36381Y125829D01*
X36271Y126296D01*
X35996Y126587D01*
X35611Y126820D01*
X35226Y126879D01*
X34841Y126820D01*
X34346Y126587D01*
X34511Y128104D01*
X35996D01*
G01X54733Y20353D02*
X55083Y20628D01*
X55316Y20958D01*
X55433Y21343D01*
X55316Y21783D01*
X55083Y22113D01*
X54733Y22443D01*
X54266Y22553D01*
X51933D01*
G01X55433Y25053D02*
X51933D01*
X52633Y24393D01*
G01X55433D02*
Y25713D01*
G01X98088Y-74D02*
X98363Y-424D01*
X98693Y-657D01*
X99078Y-774D01*
X99518Y-657D01*
X99848Y-424D01*
X100178Y-74D01*
X100288Y393D01*
Y2726D01*
G01X102788Y-774D02*
Y2726D01*
X102128Y2026D01*
G01Y-774D02*
X103448D01*
G01X106388D02*
Y2726D01*
X105728Y2026D01*
G01Y-774D02*
X107047D01*
G01X115757Y20353D02*
X116107Y20628D01*
X116340Y20958D01*
X116457Y21343D01*
X116340Y21783D01*
X116107Y22113D01*
X115757Y22443D01*
X115290Y22553D01*
X112957D01*
G01X113540Y24008D02*
X113190Y24338D01*
X113015Y24723D01*
X112957Y25163D01*
X113073Y25713D01*
X113365Y26098D01*
X113715Y26208D01*
X114065Y26153D01*
X114357Y25933D01*
X114940Y24833D01*
X115348Y24338D01*
X115932Y24008D01*
X116457Y23898D01*
Y26208D01*
G01X106849Y125698D02*
X107124Y125347D01*
X107454Y125114D01*
X107839Y124998D01*
X108279Y125114D01*
X108609Y125347D01*
X108939Y125698D01*
X109049Y126164D01*
Y128498D01*
G01X110504Y126456D02*
X110889Y126864D01*
X111219Y127098D01*
X111659Y127214D01*
X112044Y127098D01*
X112319Y126864D01*
X112539Y126514D01*
X112594Y126106D01*
X112539Y125756D01*
X112319Y125406D01*
X111989Y125114D01*
X111604Y124998D01*
X111164Y125114D01*
X110779Y125464D01*
X110559Y125989D01*
X110504Y126573D01*
X110614Y127331D01*
X110779Y127739D01*
X111054Y128148D01*
X111439Y128439D01*
X111824Y128498D01*
X112209Y128381D01*
X112484Y128089D01*
G01X128884Y20367D02*
X132384D01*
Y18992D01*
X132209Y18552D01*
X131976Y18277D01*
X131509Y18167D01*
X131042Y18277D01*
X130751Y18607D01*
X130576Y18992D01*
Y20367D01*
G01Y18992D02*
X128884Y18167D01*
G01Y15007D02*
X132384D01*
X129876Y17042D01*
Y14292D01*
G01X144776Y46312D02*
Y42812D01*
X143401D01*
X142961Y42988D01*
X142686Y43221D01*
X142576Y43688D01*
X142686Y44154D01*
X143016Y44446D01*
X143401Y44621D01*
X144776D01*
G01X143401D02*
X142576Y46312D01*
G01X141286Y45788D02*
X140956Y46079D01*
X140571Y46254D01*
X140076Y46312D01*
X139581Y46196D01*
X139196Y45963D01*
X138921Y45554D01*
X138866Y45088D01*
X138976Y44621D01*
X139251Y44329D01*
X139636Y44096D01*
X140021Y44038D01*
X140406Y44096D01*
X140901Y44329D01*
X140736Y42812D01*
X139251D01*
G01X164620Y36423D02*
X164290Y36598D01*
X163905Y36715D01*
X163465D01*
X162970Y36540D01*
X162585Y36248D01*
X162310Y35898D01*
X162090Y35315D01*
X162035Y34790D01*
X162145Y34265D01*
X162310Y33915D01*
X162640Y33565D01*
X163025Y33332D01*
X163410Y33215D01*
X163795D01*
X164180Y33332D01*
X164510Y33506D01*
X164785Y33740D01*
G01X167670Y33215D02*
Y36715D01*
X165635Y34207D01*
X168385D01*
G01X161916Y14711D02*
Y18211D01*
X163291D01*
X163731Y18036D01*
X164006Y17803D01*
X164116Y17336D01*
X164006Y16869D01*
X163676Y16578D01*
X163291Y16403D01*
X161916D01*
G01X163291D02*
X164116Y14711D01*
G01X165406Y15411D02*
X165736Y15003D01*
X166176Y14769D01*
X166671Y14711D01*
X167111Y14769D01*
X167551Y15061D01*
X167826Y15411D01*
X167881Y15761D01*
X167771Y16169D01*
X167386Y16461D01*
X167001Y16578D01*
X166506D01*
G01X167001D02*
X167331Y16753D01*
X167606Y17044D01*
X167716Y17394D01*
X167606Y17744D01*
X167331Y18036D01*
X166836Y18211D01*
X166341Y18153D01*
X165846Y17919D01*
G01X160040Y29980D02*
X159710Y30155D01*
X159325Y30272D01*
X158885D01*
X158390Y30096D01*
X158005Y29805D01*
X157730Y29455D01*
X157510Y28872D01*
X157454Y28347D01*
X157565Y27822D01*
X157730Y27472D01*
X158060Y27122D01*
X158445Y26888D01*
X158830Y26772D01*
X159215D01*
X159600Y26888D01*
X159930Y27063D01*
X160205Y27296D01*
G01X161220Y27472D02*
X161550Y27063D01*
X161990Y26830D01*
X162485Y26772D01*
X162925Y26830D01*
X163365Y27122D01*
X163640Y27472D01*
X163695Y27822D01*
X163585Y28230D01*
X163200Y28522D01*
X162815Y28638D01*
X162320D01*
G01X162815D02*
X163145Y28813D01*
X163420Y29105D01*
X163530Y29455D01*
X163420Y29805D01*
X163145Y30096D01*
X162650Y30272D01*
X162155Y30213D01*
X161660Y29980D01*
G01X156443Y53438D02*
X159943D01*
Y52063D01*
X159768Y51623D01*
X159535Y51348D01*
X159068Y51238D01*
X158601Y51348D01*
X158310Y51678D01*
X158135Y52063D01*
Y53438D01*
G01Y52063D02*
X156443Y51238D01*
G01Y48738D02*
X159943D01*
X159243Y49398D01*
G01X156443D02*
Y48078D01*
G01X164620Y42329D02*
X164290Y42504D01*
X163905Y42620D01*
X163465D01*
X162970Y42445D01*
X162585Y42154D01*
X162310Y41804D01*
X162090Y41220D01*
X162035Y40695D01*
X162145Y40170D01*
X162310Y39820D01*
X162640Y39470D01*
X163025Y39237D01*
X163410Y39120D01*
X163795D01*
X164180Y39237D01*
X164510Y39412D01*
X164785Y39645D01*
G01X165800D02*
X166130Y39354D01*
X166515Y39179D01*
X167010Y39120D01*
X167505Y39237D01*
X167890Y39470D01*
X168165Y39879D01*
X168220Y40345D01*
X168110Y40812D01*
X167835Y41104D01*
X167450Y41337D01*
X167065Y41395D01*
X166680Y41337D01*
X166185Y41104D01*
X166350Y42620D01*
X167835D01*
G01X208852Y8321D02*
X208677Y7991D01*
X208560Y7606D01*
Y7166D01*
X208735Y6671D01*
X209027Y6286D01*
X209377Y6011D01*
X209960Y5791D01*
X210485Y5736D01*
X211010Y5846D01*
X211360Y6011D01*
X211710Y6341D01*
X211944Y6726D01*
X212060Y7111D01*
Y7496D01*
X211944Y7881D01*
X211769Y8211D01*
X211535Y8486D01*
G01X212060Y10601D02*
X211302Y10711D01*
X210660Y10876D01*
X210077Y11096D01*
X209435Y11371D01*
X208560Y11811D01*
Y9611D01*
G01X203734Y8321D02*
X203559Y7991D01*
X203442Y7606D01*
Y7166D01*
X203617Y6671D01*
X203909Y6286D01*
X204259Y6011D01*
X204842Y5791D01*
X205367Y5736D01*
X205892Y5846D01*
X206242Y6011D01*
X206592Y6341D01*
X206826Y6726D01*
X206942Y7111D01*
Y7496D01*
X206826Y7881D01*
X206651Y8211D01*
X206417Y8486D01*
G01X206942Y10711D02*
X206884Y11096D01*
X206709Y11536D01*
X206417Y11811D01*
X206009Y11921D01*
X205601Y11811D01*
X205250Y11481D01*
X205075Y10986D01*
Y10436D01*
X204959Y10106D01*
X204667Y9831D01*
X204259Y9721D01*
X203851Y9886D01*
X203559Y10271D01*
X203442Y10711D01*
X203559Y11151D01*
X203851Y11536D01*
X204259Y11701D01*
X204667Y11591D01*
X204959Y11316D01*
X205075Y10986D01*
Y10436D01*
X205250Y9941D01*
X205601Y9611D01*
X206009Y9501D01*
X206417Y9611D01*
X206709Y9886D01*
X206884Y10326D01*
X206942Y10711D01*
G01X189624Y8268D02*
Y4768D01*
X188524D01*
X188084Y4943D01*
X187754Y5176D01*
X187479Y5526D01*
X187259Y5934D01*
X187204Y6518D01*
X187259Y7101D01*
X187479Y7509D01*
X187754Y7860D01*
X188084Y8093D01*
X188524Y8268D01*
X189624D01*
G01X184814D02*
Y4768D01*
X185474Y5468D01*
G01Y8268D02*
X184154D01*
G01X204717Y39405D02*
Y41914D01*
X204497Y42439D01*
X204057Y42789D01*
X203507Y42905D01*
X202957Y42789D01*
X202517Y42439D01*
X202297Y41914D01*
Y39405D01*
G01X199907Y42905D02*
Y39405D01*
X200567Y40105D01*
G01Y42905D02*
X199247D01*
G01X229858Y21296D02*
X227350D01*
X226825Y21076D01*
X226475Y20636D01*
X226358Y20086D01*
X226475Y19536D01*
X226825Y19096D01*
X227350Y18876D01*
X229858D01*
G01X226358Y16486D02*
X229858D01*
X229158Y17146D01*
G01X226358D02*
Y15826D01*
G01X229858Y12886D02*
X229742Y13326D01*
X229450Y13656D01*
X229100Y13876D01*
X228633Y14041D01*
X228108Y14096D01*
X227583Y14041D01*
X227117Y13876D01*
X226766Y13656D01*
X226475Y13326D01*
X226358Y12886D01*
X226475Y12446D01*
X226766Y12116D01*
X227117Y11896D01*
X227583Y11731D01*
X228108Y11676D01*
X228633Y11731D01*
X229100Y11896D01*
X229450Y12116D01*
X229742Y12446D01*
X229858Y12886D01*
G01X267428Y63136D02*
Y66636D01*
X268803D01*
X269243Y66461D01*
X269518Y66228D01*
X269628Y65761D01*
X269518Y65294D01*
X269188Y65003D01*
X268803Y64828D01*
X267428D01*
G01X268803D02*
X269628Y63136D01*
G01X271083Y66053D02*
X271413Y66403D01*
X271798Y66578D01*
X272238Y66636D01*
X272788Y66520D01*
X273173Y66228D01*
X273283Y65878D01*
X273228Y65528D01*
X273008Y65236D01*
X271908Y64653D01*
X271413Y64244D01*
X271083Y63661D01*
X270973Y63136D01*
X273283D01*
G01X260833Y55458D02*
X261008Y55788D01*
X261124Y56174D01*
Y56614D01*
X260949Y57109D01*
X260658Y57494D01*
X260308Y57768D01*
X259724Y57989D01*
X259199Y58044D01*
X258674Y57934D01*
X258324Y57768D01*
X257974Y57438D01*
X257741Y57054D01*
X257624Y56669D01*
Y56284D01*
X257741Y55899D01*
X257916Y55568D01*
X258149Y55293D01*
G01X257624Y53069D02*
X261124D01*
X260424Y53728D01*
G01X257624D02*
Y52409D01*
G01X249016Y91320D02*
X250591D01*
X252516Y92420D01*
G01Y90220D02*
X250591Y91320D01*
G01X249016Y87720D02*
X252516D01*
X251816Y88380D01*
G01X249016D02*
Y87060D01*
G01X249010Y79975D02*
X248835Y79645D01*
X248718Y79260D01*
Y78820D01*
X248893Y78324D01*
X249185Y77940D01*
X249535Y77665D01*
X250118Y77444D01*
X250643Y77390D01*
X251168Y77500D01*
X251518Y77665D01*
X251868Y77995D01*
X252101Y78380D01*
X252218Y78764D01*
Y79150D01*
X252101Y79535D01*
X251926Y79865D01*
X251693Y80140D01*
G01X249301Y81320D02*
X248952Y81650D01*
X248776Y82035D01*
X248718Y82475D01*
X248835Y83025D01*
X249126Y83410D01*
X249476Y83520D01*
X249826Y83465D01*
X250118Y83245D01*
X250701Y82145D01*
X251110Y81650D01*
X251693Y81320D01*
X252218Y81210D01*
Y83520D01*
G01X254400Y112098D02*
X254125Y112448D01*
X253795Y112681D01*
X253410Y112798D01*
X252970Y112681D01*
X252640Y112448D01*
X252310Y112098D01*
X252200Y111631D01*
Y109298D01*
G01X249700Y112798D02*
Y109298D01*
X250360Y109998D01*
G01Y112798D02*
X249040D01*
G01X246100Y109298D02*
X246540Y109414D01*
X246870Y109706D01*
X247090Y110056D01*
X247255Y110523D01*
X247310Y111048D01*
X247255Y111573D01*
X247090Y112039D01*
X246870Y112389D01*
X246540Y112681D01*
X246100Y112798D01*
X245660Y112681D01*
X245330Y112389D01*
X245110Y112039D01*
X244945Y111573D01*
X244890Y111048D01*
X244945Y110523D01*
X245110Y110056D01*
X245330Y109706D01*
X245660Y109414D01*
X246100Y109298D01*
G01X300276Y34765D02*
X299926Y34490D01*
X299693Y34160D01*
X299576Y33775D01*
X299693Y33335D01*
X299926Y33005D01*
X300276Y32675D01*
X300743Y32565D01*
X303076D01*
G01X299576Y30175D02*
X300334Y30065D01*
X300976Y29900D01*
X301560Y29680D01*
X302201Y29405D01*
X303076Y28965D01*
Y31165D01*
G54D18*
X171260Y22835D03*
X164173D03*
G54D28*
G01X228346Y787D02*
Y19685D01*
G01X241339Y787D02*
X226378D01*
Y19685D01*
X241339D01*
Y787D01*
G54D19*
X177716Y12205D03*
X183700D03*
G54D29*
G01X70354Y23740D02*
Y93740D01*
X60354D01*
Y23740D01*
X70354D01*
Y93740D01*
G01X131378Y23740D02*
Y93740D01*
X121378D01*
Y23740D01*
X131378D01*
Y93740D01*
M02*
