G04 ================== begin FILE IDENTIFICATION RECORD ==================*
G04 Layout Name:  D:/Sankar/Personal/accel (1)/Ozone_Alice_accel/ACCelero.brd*
G04 Film Name:    ASSY_BOT*
G04 File Format:  Gerber RS274X*
G04 File Origin:  Cadence Allegro 16.6-P004*
G04 Origin Date:  Fri May 28 19:22:44 2021*
G04 *
G04 Layer:  REF DES/ASSEMBLY_BOTTOM*
G04 Layer:  PIN/BOTTOM*
G04 Layer:  PACKAGE GEOMETRY/ASSEMBLY_BOTTOM*
G04 Layer:  BOARD GEOMETRY/OUTLINE*
G04 *
G04 Offset:    (0.000 0.000)*
G04 Mirror:    No*
G04 Mode:      Positive*
G04 Rotation:  0*
G04 FullContactRelief:  No*
G04 UndefLineWidth:     0.000*
G04 ================== end FILE IDENTIFICATION RECORD ====================*
%FSLAX25Y25*MOIN*%
%IR0*IPPOS*OFA0.00000B0.00000*MIA0B0*SFA1.00000B1.00000*%
%ADD10C,.13*%
%ADD16P,.070313X8X22.5*%
%ADD11C,.06*%
%ADD15C,.064961*%
%ADD13C,.053937*%
%ADD14R,.064961X.064961*%
%ADD12R,.053937X.053937*%
%ADD17C,.019685*%
G75*
%LPD*%
G75*
G36*
G01X241732Y1771D02*
Y3701D01*
X246063D01*
Y1771D01*
X241732D01*
G37*
G54D10*
X50Y-960D03*
Y117150D03*
X283515Y-960D03*
Y117150D03*
G54D11*
X-394Y34803D03*
Y44803D03*
Y54803D03*
Y64803D03*
Y74803D03*
X25984Y-13386D03*
X33071Y118504D03*
X55984Y-13386D03*
X45984D03*
X35984D03*
X63071Y118504D03*
X53071D03*
X43071D03*
X65984Y-13386D03*
X73071Y118504D03*
X119449Y118898D03*
X109449D03*
X149449D03*
X139449D03*
X129449D03*
X210000D03*
X220000D03*
X230000D03*
X240000D03*
X250000D03*
X288582Y50630D03*
Y60630D03*
G54D12*
X65354Y28740D03*
X126378D03*
G54D13*
X65354Y58740D03*
Y48740D03*
Y38740D03*
Y88740D03*
Y78740D03*
Y68740D03*
X126378Y58740D03*
Y48740D03*
Y38740D03*
Y88740D03*
Y78740D03*
Y68740D03*
G54D14*
X111417Y-16535D03*
G54D15*
X141417D03*
X126417D03*
X285826Y20315D03*
G54D16*
Y30315D03*
G54D17*
G01X-11024Y135827D02*
X295669D01*
X299606Y131890D01*
Y-17716D01*
X295669Y-21654D01*
X-11417D01*
X-15354Y-17716D01*
Y131496D01*
X-11024Y135827D01*
M02*
