G04 ================== begin FILE IDENTIFICATION RECORD ==================*
G04 Layout Name:  D:/Sankar/Personal/accel (1)/Ozone_Alice_accel/ACCelero.brd*
G04 Film Name:    TOP*
G04 File Format:  Gerber RS274X*
G04 File Origin:  Cadence Allegro 16.6-P004*
G04 Origin Date:  Fri May 28 19:22:44 2021*
G04 *
G04 Layer:  DRAWING FORMAT/TITLE_BLOCK*
G04 Layer:  BOARD GEOMETRY/OUTLINE*
G04 Layer:  ETCH/TOP*
G04 Layer:  PIN/TOP*
G04 Layer:  VIA CLASS/TOP*
G04 *
G04 Offset:    (0.000 0.000)*
G04 Mirror:    No*
G04 Mode:      Positive*
G04 Rotation:  0*
G04 FullContactRelief:  No*
G04 UndefLineWidth:     0.000*
G04 ================== end FILE IDENTIFICATION RECORD ====================*
%FSLAX25Y25*MOIN*%
%IR0*IPPOS*OFA0.00000B0.00000*MIA0B0*SFA1.00000B1.00000*%
%ADD10C,.13*%
%ADD23R,.07874X.216535*%
%ADD24P,.070313X8X22.5*%
%ADD12C,.024*%
%ADD11C,.06*%
%ADD17R,.03937X.043307*%
%ADD18R,.043307X.03937*%
%ADD16C,.064961*%
%ADD14C,.053937*%
%AMMACRO21*
4,1,40,-.034646,.011811,
.034646,.011811,
.035159,.011765,
.035657,.011631,
.036124,.011412,
.036546,.011116,
.036909,.010751,
.037204,.010328,
.037421,.009861,
.037554,.009362,
.037598,.008858,
.037598,-.008858,
.037552,-.009371,
.037418,-.009869,
.0372,-.010336,
.036904,-.010758,
.036539,-.011122,
.036116,-.011417,
.035649,-.011634,
.03515,-.011767,
.034646,-.011811,
-.034646,-.011811,
-.035159,-.011765,
-.035657,-.011631,
-.036124,-.011412,
-.036546,-.011116,
-.036909,-.010751,
-.037204,-.010328,
-.037421,-.009861,
-.037554,-.009362,
-.037598,-.008858,
-.037598,.008858,
-.037552,.009371,
-.037418,.009869,
-.0372,.010336,
-.036904,.010758,
-.036539,.011122,
-.036116,.011417,
-.035649,.011634,
-.03515,.011767,
-.034646,.011811,
0.0*
%
%ADD21MACRO21*%
%ADD15R,.064961X.064961*%
%ADD13R,.053937X.053937*%
%AMMACRO20*
4,1,44,-.013335,.018307,
.013335,.018307,
.014129,.018239,
.014899,.018034,
.015621,.017699,
.016274,.017243,
.016839,.016681,
.017297,.016029,
.017635,.015307,
.017842,.014538,
.017913,.013745,
.017913,.013732,
.017913,-.013732,
.017844,-.014526,
.017639,-.015295,
.017303,-.016018,
.016847,-.016671,
.016284,-.017235,
.015632,-.017692,
.014911,-.01803,
.014141,-.018237,
.013348,-.018307,
.013335,-.018307,
-.013335,-.018307,
-.014129,-.018239,
-.014899,-.018034,
-.015621,-.017699,
-.016274,-.017243,
-.016839,-.016681,
-.017297,-.016029,
-.017635,-.015307,
-.017842,-.014538,
-.017913,-.013745,
-.017913,-.013732,
-.017913,.013732,
-.017844,.014526,
-.017639,.015295,
-.017303,.016018,
-.016847,.016671,
-.016284,.017235,
-.015632,.017692,
-.014911,.01803,
-.014141,.018237,
-.013348,.018307,
-.013335,.018307,
0.0*
%
%ADD20MACRO20*%
%ADD19R,.045276X.057087*%
%ADD22R,.068898X.023622*%
%ADD25C,.01*%
%ADD26C,.012*%
%ADD27C,.016*%
%ADD28C,.019685*%
%ADD31C,.100004*%
%ADD29C,.200006*%
%ADD30C,.200007*%
%ADD32C,.093942*%
G75*
%LPD*%
G75*
G36*
G01X787Y-16929D02*
X-12205Y-3937D01*
Y120472D01*
X-1968Y130709D01*
X54474D01*
G02X54756Y130026I0J-400D01*
G01X51071Y126340D01*
Y123087D01*
G03X57700Y116615I2000J-4583D01*
G02X58441I370J-151D01*
G03X61071Y113921I4630J1889D01*
G01Y107600D01*
X51543Y98072D01*
Y83030D01*
X53150Y81423D01*
G02X52867Y80740I-283J-283D01*
G01X31061D01*
X22803Y72482D01*
Y49569D01*
X20038Y46803D01*
X4189D01*
G03X1495Y49433I-4583J-2000D01*
G02Y50174I151J370D01*
G03X-2283I-1889J4630D01*
G02Y49433I-151J-370D01*
G03Y40174I1889J-4630D01*
G02Y39433I-151J-370D01*
G03X4189Y32803I1889J-4630D01*
G01X21455D01*
X27518Y26740D01*
X60657D01*
Y24043D01*
X70051D01*
Y33437D01*
X60657D01*
Y30740D01*
X29175D01*
X23112Y36803D01*
X4189D01*
G03X1495Y39433I-4583J-2000D01*
G02Y40174I151J370D01*
G03X4189Y42803I-1889J4630D01*
G01X21695D01*
X26803Y47912D01*
Y70825D01*
X32718Y76740D01*
X61104D01*
G03X61158Y80850I4250J2000D01*
G01X61103Y80740D01*
X60829D01*
X59490Y80740D01*
X55543Y84687D01*
Y96415D01*
X65071Y105943D01*
Y113921D01*
G03X67700Y116615I-2000J4583D01*
G02X68441I370J-151D01*
G03X77654Y116504I4630J1889D01*
G01X82636D01*
X87370Y111770D01*
Y90769D01*
G02X86694Y90479I-400J0D01*
G03X83712Y90740I-1655J-1739D01*
G01X69604D01*
G03Y86740I-4250J-2000D01*
G01X83712D01*
G03X86694Y87002I1327J2000D01*
G02X87370Y86712I276J-290D01*
G01Y55946D01*
X82164Y50740D01*
X69604D01*
G03Y46740I-4250J-2000D01*
G01X83821D01*
X91370Y54289D01*
Y86184D01*
G02X91933Y86549I400J0D01*
G03X94240Y86740I980J2191D01*
G01X103742D01*
X110661Y93660D01*
Y101534D01*
X112639Y103511D01*
X216576D01*
X222000Y108936D01*
Y114315D01*
G03X224630Y117009I-2000J4583D01*
G02X225370I370J-151D01*
G03X234630I4630J1889D01*
G02X235370I370J-151D01*
G03Y120787I4630J1889D01*
G02X234630I-370J151D01*
G03X225370I-4630J-1889D01*
G02X224630I-370J151D01*
G03X215370I-4630J-1889D01*
G02X214630I-370J151D01*
G03Y117009I-4630J-1889D01*
G02X215370I370J-151D01*
G03X218000Y114315I4630J1889D01*
G01Y110592D01*
X214919Y107512D01*
X110982D01*
X106661Y103190D01*
Y95316D01*
X102085Y90740D01*
X94240D01*
G03X91933Y90931I-1327J-2000D01*
G02X91370Y91296I-163J365D01*
G01Y113427D01*
X84293Y120504D01*
X77654D01*
G03X68441Y120393I-4583J-2000D01*
G02X67700I-370J151D01*
G03X58441I-4630J-1889D01*
G02X57700I-370J151D01*
G03X55071Y123087I-4630J-1889D01*
G01Y124683D01*
X60671Y130283D01*
X124762D01*
X127449Y127596D01*
Y123480D01*
G03X134078Y117009I2000J-4583D01*
G02X134819I370J-151D01*
G03X144078I4630J1889D01*
G02X144819I370J-151D01*
G03Y120787I4630J1889D01*
G02X144078I-370J151D01*
G03X134819I-4630J-1889D01*
G02X134078I-370J151D01*
G03X131449Y123480I-4630J-1889D01*
G01Y129253D01*
X130676Y130026D01*
G02X130959Y130709I283J283D01*
G01X287402D01*
X294882Y123228D01*
Y52665D01*
G02X294540Y52524I-200J0D01*
G01X294334Y52730D01*
X293120D01*
G03X290471Y55259I-4538J-2100D01*
G02Y56000I151J370D01*
G03X284044Y62730I-1889J4630D01*
G01X279846D01*
Y64098D01*
X265822D01*
Y57161D01*
X267387D01*
Y41059D01*
X271177Y37270D01*
X282594D01*
X283726Y36138D01*
Y35637D01*
X280504Y32415D01*
X273933D01*
X256354Y14836D01*
X249827D01*
Y15418D01*
X239937D01*
Y55D01*
X249827D01*
Y5636D01*
X268448D01*
X280628Y17816D01*
G02X281259Y17730I283J-283D01*
G03X290636Y18215I4568J2585D01*
G01X293232D01*
X294199Y19182D01*
G02X294882Y18899I283J-283D01*
G01Y-8661D01*
X286614Y-16929D01*
X132065D01*
G02X131665Y-16530I0J400D01*
G03X131417Y-14941I-5248J-6D01*
G01X131380Y-14825D01*
X148236Y2030D01*
X179235D01*
X179262Y2023D01*
G03Y6639I659J2308D01*
G01X179235Y6631D01*
X146330D01*
X129361Y-10339D01*
G02X128678Y-10056I-283J283D01*
G01Y7949D01*
X129846D01*
Y21973D01*
X128678D01*
Y24043D01*
X131075D01*
Y33437D01*
X121681D01*
Y24043D01*
X124078D01*
Y21973D01*
X122909D01*
Y7949D01*
X124078D01*
Y-11837D01*
G03X121169Y-16530I2340J-4698D01*
G02X120769Y-16929I-400J0D01*
G01X116665D01*
Y-11287D01*
X106169D01*
Y-16929D01*
X70375D01*
G02X70050Y-16296I0J400D01*
G03X61355Y-11497I-4066J2911D01*
G02X60614I-370J151D01*
G03X57985Y-8803I-4630J-1889D01*
G01Y6655D01*
X50041Y14599D01*
X7626D01*
G03Y10598I-1327J-2000D01*
G01X48384D01*
X53984Y4998D01*
Y-8803D01*
G03X51355Y-11497I2000J-4583D01*
G02X50614I-370J151D01*
G03X41918Y-16296I-4630J-1889D01*
G02X41593Y-16929I-325J-233D01*
G01X30375D01*
G02X30050Y-16296I0J400D01*
G03X21919I-4066J2910D01*
G02X21593Y-16929I-325J-233D01*
G01X787D01*
G37*
G36*
G01X249827Y9836D02*
Y10636D01*
X258094D01*
X275672Y28215D01*
X280578D01*
Y28141D01*
X283250Y25469D01*
G02X283170Y24841I-283J-283D01*
G03X281016Y22415I2657J-4526D01*
G01X279287D01*
X266708Y9836D01*
X249827D01*
G37*
G36*
G01X288402Y25469D02*
X291074Y28141D01*
Y32489D01*
X288000Y35563D01*
X287926D01*
Y37878D01*
X284334Y41470D01*
X272917D01*
X271588Y42799D01*
Y57161D01*
X279846D01*
Y58530D01*
X284044D01*
G03X286693Y56000I4538J2100D01*
G02Y55259I-151J-370D01*
G03X292686Y47773I1889J-4630D01*
G02X293297Y47827I328J-229D01*
G01X293962Y47162D01*
Y24886D01*
X291492Y22415D01*
X290636D01*
G03X288483Y24841I-4810J-2100D01*
G02X288402Y25469I202J345D01*
G37*
%LPC*%
G75*
G36*
G01X217542Y756D02*
X195234D01*
X186976Y9014D01*
Y48466D01*
X192045Y53536D01*
X195954D01*
G02X196145Y53741I1408J-1115D01*
G03Y54329I-271J294D01*
G02X195566Y55649I1217J1320D01*
G01Y57422D01*
G02X196145Y58741I1796J-1D01*
G03Y59329I-271J294D01*
G02X195566Y60649I1217J1320D01*
G01Y62422D01*
G02X196145Y63741I1796J-1D01*
G03Y64329I-271J294D01*
G02X195566Y65649I1217J1320D01*
G01Y67422D01*
G02X196145Y68741I1796J-1D01*
G03Y69329I-271J294D01*
G02X195566Y70649I1217J1320D01*
G01Y72422D01*
G02X196145Y73741I1796J-1D01*
G03Y74329I-271J294D01*
G02X195566Y75649I1217J1320D01*
G01Y77422D01*
G02X196145Y78741I1796J-1D01*
G03Y79329I-271J294D01*
G02X195566Y80649I1217J1320D01*
G01Y82422D01*
G02X197361Y84217I1796J-1D01*
G01X204292D01*
G02X205698Y83536I-1J-1796D01*
G01X216533D01*
X221415Y88418D01*
X231571D01*
Y98744D01*
X242445D01*
Y88418D01*
X250927D01*
X251256Y88418D01*
Y90083D01*
X258193D01*
Y82752D01*
X251256D01*
Y84417D01*
X242445D01*
Y74090D01*
X231571D01*
Y84417D01*
X223072D01*
X218190Y79535D01*
X205698D01*
G02X205508Y79329I-1408J1115D01*
G03Y78741I271J-294D01*
G02X205698Y78536I-1217J-1320D01*
G01X216812D01*
X221685Y73663D01*
Y54765D01*
X225434Y51016D01*
X231571D01*
Y61343D01*
X242445D01*
Y51016D01*
X251649D01*
Y52681D01*
X258587D01*
Y45350D01*
X251649D01*
Y47016D01*
X242445D01*
Y36689D01*
X231571D01*
Y47016D01*
X223777D01*
X217684Y53108D01*
Y72006D01*
X215155Y74535D01*
X205698D01*
G02X205508Y74329I-1408J1115D01*
G03Y73741I271J-294D01*
G02X206086Y72422I-1217J-1320D01*
G01Y70649D01*
G02X205508Y69329I-1796J1D01*
G03Y68741I271J-294D01*
G02X206086Y67422I-1217J-1320D01*
G01Y65649D01*
G02X205508Y64329I-1796J1D01*
G03Y63741I271J-294D01*
G02X206086Y62422I-1217J-1320D01*
G01Y60649D01*
G02X205508Y59329I-1796J1D01*
G03Y58741I271J-294D01*
G02X206086Y57422I-1217J-1320D01*
G01Y55649D01*
G02X205508Y54329I-1796J1D01*
G03Y53741I271J-294D01*
G02X206086Y52422I-1217J-1320D01*
G01Y50649D01*
G02X205508Y49329I-1796J1D01*
G03Y48741I271J-294D01*
G02X205698Y48536I-1217J-1320D01*
G01X215316D01*
X224835Y39017D01*
Y20418D01*
X227780D01*
Y15055D01*
X217890D01*
Y20418D01*
X220834D01*
Y37360D01*
X213659Y44535D01*
X205698D01*
G02X204292Y43854I-1408J1115D01*
G01X197361D01*
G02X195566Y45649I1J1796D01*
G01Y47422D01*
G02X196145Y48741I1796J-1D01*
G03Y49329I-271J294D01*
G02X195954Y49535I1217J1320D01*
G01X193702D01*
X190976Y46809D01*
Y10671D01*
X196891Y4756D01*
X205980D01*
Y5574D01*
X203442D01*
X203415Y5566D01*
G02Y10182I-659J2308D01*
G01X203442Y10174D01*
X205030D01*
X205227Y10371D01*
X205980D01*
Y11736D01*
X218035D01*
Y10418D01*
X227780D01*
Y55D01*
X217890D01*
Y736D01*
X217561D01*
X217542Y756D01*
G37*
G36*
G01X174335Y8736D02*
X160310D01*
Y15673D01*
X161254D01*
G03X161643Y16168I0J400D01*
G02X161872Y17888I2333J565D01*
G03X161521Y18480I-351J193D01*
G01X160409D01*
Y20834D01*
X159595D01*
X159546Y20804D01*
G02Y24866I-1279J2031D01*
G01X159595Y24835D01*
X160409D01*
Y27189D01*
X160704D01*
Y40083D01*
X162370D01*
Y40411D01*
X162527Y40569D01*
Y43854D01*
X161062D01*
G02X159267Y45649I1J1796D01*
G01Y47422D01*
G02X160007Y48874I1796J-1D01*
G03Y49197I-118J162D01*
G02X159796Y49378I1055J1453D01*
G01X157405D01*
Y41019D01*
X150468D01*
Y41689D01*
G03X150058Y42089I-400J0D01*
G02Y46888I-59J2399D01*
G03X150468Y47288I10J400D01*
G01Y54535D01*
X145031D01*
G03X144700Y53910I0J-400D01*
G02X145114Y52669I-1984J-1351D01*
G03X145514Y52288I400J18D01*
G01X146382D01*
Y45350D01*
X132358D01*
Y46440D01*
X130473D01*
G02Y51040I-4095J2300D01*
G01X131326D01*
X131405Y51119D01*
X132358D01*
Y52288D01*
X139919D01*
G03X140319Y52669I0J400D01*
G02X140733Y53910I2398J-110D01*
G03X140402Y54535I-331J225D01*
G01X137124D01*
X132645Y59014D01*
Y64421D01*
G02X132300Y66255I2000J1327D01*
G03X131908Y66740I-391J85D01*
G01X130628D01*
G02Y70740I-4250J2000D01*
G01X137600D01*
X144805Y63536D01*
X159655D01*
G02X159846Y63741I1408J-1115D01*
G03Y64329I-271J294D01*
G02X159655Y64535I1217J1320D01*
G01X157626D01*
G02Y68536I-1327J2000D01*
G01X159655D01*
G02X159846Y68741I1408J-1115D01*
G03Y69329I-271J294D01*
G02X159655Y69535I1217J1320D01*
G01X148896D01*
X141691Y76740D01*
X130628D01*
G02X130574Y80850I-4250J2000D01*
G01X130630Y80740D01*
X130904D01*
X143348Y80740D01*
X150553Y73536D01*
X159655D01*
G02X159846Y73741I1408J-1115D01*
G03Y74329I-271J294D01*
G02X159267Y75649I1217J1320D01*
G01Y77422D01*
G02X159846Y78741I1796J-1D01*
G03Y79329I-271J294D01*
G02X159267Y80649I1217J1320D01*
G01Y82422D01*
G02X159846Y83741I1796J-1D01*
G03Y84329I-271J294D01*
G02X159267Y85649I1217J1320D01*
G01Y87422D01*
G02X161062Y89217I1796J-1D01*
G01X167992D01*
G02X169787Y87422I-1J-1796D01*
G01Y85649D01*
G02X169208Y84329I-1796J1D01*
G03Y83741I271J-294D01*
G02X169787Y82422I-1217J-1320D01*
G01Y80649D01*
G02X169208Y79329I-1796J1D01*
G03Y78741I271J-294D01*
G02X169787Y77422I-1217J-1320D01*
G01Y75649D01*
G02X169208Y74329I-1796J1D01*
G03Y73741I271J-294D01*
G02X169787Y72422I-1217J-1320D01*
G01Y70649D01*
G02X169208Y69329I-1796J1D01*
G03Y68741I271J-294D01*
G02X169787Y67422I-1217J-1320D01*
G01Y65649D01*
G02X169208Y64329I-1796J1D01*
G03Y63741I271J-294D01*
G02X169787Y62422I-1217J-1320D01*
G01Y60649D01*
G02X169208Y59329I-1796J1D01*
G03Y58741I271J-294D01*
G02X169787Y57422I-1217J-1320D01*
G01Y55649D01*
G02X169208Y54329I-1796J1D01*
G03Y53741I271J-294D01*
G02X169787Y52422I-1217J-1320D01*
G01Y50649D01*
G02X169208Y49329I-1796J1D01*
G03Y48741I271J-294D01*
G02X169787Y47422I-1217J-1320D01*
G01Y45649D01*
G02X167992Y43854I-1796J1D01*
G01X166527D01*
Y40083D01*
X168035D01*
Y27240D01*
X167937D01*
Y18480D01*
X166430D01*
G03X166080Y17888I0J-400D01*
G02X166309Y16168I-2104J-1155D01*
G03X166698Y15673I389J-94D01*
G01X174335D01*
Y15264D01*
G03X175014Y14978I400J0D01*
G02X176384Y15536I1368J-1400D01*
G01X179049D01*
G02X181008Y13577I2J-1957D01*
G01Y10832D01*
G02X179049Y8874I-1957J-1D01*
G01X176384D01*
G02X175014Y9431I-2J1957D01*
G03X174335Y9145I-280J-286D01*
G01Y8736D01*
G37*
G54D31*
X-394Y74803D03*
X33071Y118504D03*
X109449Y118898D03*
G54D29*
X50Y-960D03*
Y117150D03*
G54D30*
X283515Y-960D03*
Y117150D03*
G54D32*
X65354Y58740D03*
Y38740D03*
Y68740D03*
X126378Y58740D03*
Y88740D03*
%LPD*%
G75*
G36*
G01X138781Y58536D02*
X136646Y60671D01*
Y64421D01*
G03X136912Y64959I-2000J1327D01*
G02X137573Y65110I378J-132D01*
G01X143148Y59535D01*
X159655D01*
G03X159846Y59329I1408J1115D01*
G02Y58741I-271J-294D01*
G03X159655Y58536I1217J-1320D01*
G01X138781D01*
G37*
G54D10*
X50Y-960D03*
Y117150D03*
X283515Y-960D03*
Y117150D03*
G54D20*
X177716Y12205D03*
X183700D03*
G54D11*
X-394Y34803D03*
Y44803D03*
Y54803D03*
Y64803D03*
Y74803D03*
X25984Y-13386D03*
X33071Y118504D03*
X55984Y-13386D03*
X45984D03*
X35984D03*
X63071Y118504D03*
X53071D03*
X43071D03*
X65984Y-13386D03*
X73071Y118504D03*
X119449Y118898D03*
X109449D03*
X149449D03*
X139449D03*
X129449D03*
X210000D03*
X220000D03*
X230000D03*
X240000D03*
X250000D03*
X288582Y50630D03*
Y60630D03*
G54D21*
X164527Y46535D03*
Y51535D03*
Y56535D03*
Y61535D03*
Y66535D03*
Y71535D03*
Y76535D03*
Y81535D03*
Y86535D03*
X200826Y61535D03*
Y56535D03*
Y51535D03*
Y46535D03*
Y86535D03*
Y81535D03*
Y76535D03*
Y71535D03*
Y66535D03*
G54D12*
X6299Y12598D03*
X85039Y88740D03*
X92913D03*
X150000Y44488D03*
X142716Y52559D03*
X134645Y65748D03*
X179921Y4331D03*
X158267Y22835D03*
X163976Y16732D03*
X156299Y66535D03*
X202756Y7874D03*
G54D22*
X222835Y2736D03*
Y7736D03*
Y12736D03*
Y17736D03*
X244882Y2736D03*
Y17736D03*
Y12736D03*
Y7736D03*
G54D13*
X65354Y28740D03*
X126378D03*
G54D14*
X65354Y58740D03*
Y48740D03*
Y38740D03*
Y88740D03*
Y78740D03*
Y68740D03*
X126378Y58740D03*
Y48740D03*
Y38740D03*
Y88740D03*
Y78740D03*
Y68740D03*
G54D23*
X237008Y49016D03*
Y86417D03*
G54D15*
X111417Y-16535D03*
G54D24*
X285826Y30315D03*
G54D25*
G01X-394Y34803D02*
X22283D01*
X28346Y28740D01*
X65354D01*
G01X58661Y78740D02*
X31890D01*
X24803Y71653D01*
Y48740D01*
X20866Y44803D01*
X-394D01*
G01X6299Y12598D02*
X49212D01*
X55984Y5827D01*
Y-13386D01*
G01X63071Y118504D02*
Y106772D01*
X53543Y97244D01*
Y83858D01*
X58661Y78740D01*
G01D02*
X61657D01*
X65354Y78740D01*
G01X129449Y118898D02*
Y128425D01*
X125590Y132283D01*
X59842D01*
X53071Y125512D01*
Y118504D01*
G01X73071D02*
X83464D01*
X89370Y112598D01*
Y55118D01*
X82992Y48740D01*
X65354D01*
G01Y88740D02*
X85039D01*
G01X92913D02*
X102913D01*
X108661Y94488D01*
Y102362D01*
X111811Y105512D01*
X215748D01*
X220000Y109764D01*
Y118898D01*
G01X126417Y-11987D02*
X126378Y-11948D01*
G01Y21672D02*
X126378Y21673D01*
G01X153937Y44685D02*
X150196D01*
X150000Y44488D01*
G01X164527Y61535D02*
X143976D01*
X136771Y68740D01*
X126378D01*
G01X134645Y65748D02*
Y59842D01*
X137952Y56535D01*
X164527D01*
G01X126378Y78740D02*
X130075D01*
X142519Y78740D01*
X149724Y71535D01*
X164527D01*
G01X164370Y30709D02*
Y26886D01*
X164173Y26689D01*
Y22835D01*
G01X164370Y36614D02*
Y30709D01*
G01X164173Y22835D02*
X158267D01*
G01X163976Y12205D02*
Y16732D01*
G01X170669Y12205D02*
X177716D01*
G01X164527Y46535D02*
Y39740D01*
X164370Y39583D01*
Y36614D01*
G01X153937Y51378D02*
X159610D01*
X159767Y51535D01*
X164527D01*
G01Y66535D02*
X156299D01*
G01X200826Y51535D02*
X192874D01*
X188976Y47638D01*
Y9842D01*
X196063Y2756D01*
X218370D01*
X218390Y2736D01*
X222835D01*
G01X209448Y8071D02*
X214567D01*
G01X200826Y46535D02*
X214488D01*
X222835Y38188D01*
Y17736D01*
G01X237008Y86417D02*
X222244D01*
X217362Y81535D01*
X200826D01*
G01X237008Y49016D02*
X224606D01*
X219685Y53937D01*
Y72835D01*
X215984Y76535D01*
X200826D01*
G01X214567Y8071D02*
X218055D01*
X218390Y7736D01*
X222835D01*
G01X237008Y49016D02*
X255118D01*
G01X237008Y86417D02*
X251756D01*
X254724Y86417D01*
G54D16*
X141417Y-16535D03*
X126417D03*
X285826Y20315D03*
G54D26*
G01Y30315D02*
X274803D01*
X257224Y12736D01*
X244882D01*
G01X285826Y20315D02*
X280157D01*
X267578Y7736D01*
X244882D01*
G01X269488Y60630D02*
Y41929D01*
X272047Y39370D01*
X283464D01*
X285826Y37008D01*
Y30315D01*
G01Y20315D02*
X292362D01*
X296062Y24016D01*
Y48031D01*
X293464Y50630D01*
X288582D01*
G01X276181Y60630D02*
X288582D01*
G54D17*
X126378Y11614D03*
Y18307D03*
X153937Y44685D03*
Y51378D03*
X209448Y14764D03*
Y8071D03*
X214567Y14764D03*
Y8071D03*
X255118Y49016D03*
Y55709D03*
X254724Y86417D03*
Y79724D03*
G54D27*
G01X126417Y-16535D02*
X147283Y4331D01*
X179921D01*
G01X126417Y-16535D02*
Y-11987D01*
G01X126378Y-11948D02*
Y11614D01*
G01Y18307D02*
Y21672D01*
G01X126378Y21673D02*
Y28740D01*
G01X142716Y48819D02*
Y52559D01*
G01X126378Y48740D02*
X132279D01*
X132358Y48819D01*
X136023D01*
G01X202756Y7874D02*
X205983D01*
X206180Y8071D01*
X209448D01*
G54D18*
X136023Y48819D03*
X142716D03*
X171063Y30709D03*
X164370D03*
X170669Y12205D03*
X163976D03*
X171063Y36614D03*
X164370D03*
X269488Y60630D03*
X276181D03*
G54D28*
G01X-11024Y135827D02*
X295669D01*
X299606Y131890D01*
Y-17716D01*
X295669Y-21654D01*
X-11417D01*
X-15354Y-17716D01*
Y131496D01*
X-11024Y135827D01*
G54D19*
X171260Y22835D03*
X164173D03*
M02*
