G04 ================== begin FILE IDENTIFICATION RECORD ==================*
G04 Layout Name:  D:/Sankar/Personal/relay/Relay.brd*
G04 Film Name:    ASSY_TOP*
G04 File Format:  Gerber RS274X*
G04 File Origin:  Cadence Allegro 16.6-P004*
G04 Origin Date:  Tue Jun 01 15:29:27 2021*
G04 *
G04 Layer:  REF DES/ASSEMBLY_TOP*
G04 Layer:  PIN/TOP*
G04 Layer:  PACKAGE GEOMETRY/ASSEMBLY_TOP*
G04 Layer:  BOARD GEOMETRY/OUTLINE*
G04 *
G04 Offset:    (0.000 0.000)*
G04 Mirror:    No*
G04 Mode:      Positive*
G04 Rotation:  0*
G04 FullContactRelief:  No*
G04 UndefLineWidth:     0.000*
G04 ================== end FILE IDENTIFICATION RECORD ====================*
%FSLAX25Y25*MOIN*%
%IR0*IPPOS*OFA0.00000B0.00000*MIA0B0*SFA1.00000B1.00000*%
%ADD16R,.062992X.070866*%
%ADD13C,.13*%
%ADD14R,.107087X.042913*%
%ADD17R,.042913X.107087*%
%ADD20R,.081X.024*%
%ADD28C,.06*%
%ADD11P,.070313X8X22.5*%
%ADD19C,.055*%
%ADD22R,.055X.055*%
%ADD15R,.061024X.091732*%
%ADD26C,.055039*%
%ADD18R,.091732X.061024*%
%ADD24R,.03937X.043307*%
%ADD21R,.043307X.03937*%
%ADD10C,.064961*%
%ADD27R,.055039X.055039*%
%ADD12C,.076772*%
%ADD23R,.064961X.064961*%
%ADD25R,.068898X.023622*%
%ADD29C,.001*%
%ADD30C,.004*%
%ADD31C,.005*%
%ADD32C,.006*%
%ADD33C,.008*%
%ADD34C,.007874*%
G75*
%LPD*%
G75*
G36*
G01X-745786Y56463D02*
X-667046D01*
G02X-663109Y52526I1J-3936D01*
G01Y-2592D01*
G02X-667046Y-6529I-3936J-1D01*
G01X-745786D01*
G02X-749723Y-2592I-1J3936D01*
G01Y52526D01*
G02X-745786Y56463I3936J1D01*
G37*
G36*
G01Y128510D02*
X-667046D01*
G02X-663109Y124573I1J-3936D01*
G01Y69455D01*
G02X-667046Y65518I-3936J-1D01*
G01X-745786D01*
G02X-749723Y69455I-1J3936D01*
G01Y124573D01*
G02X-745786Y128510I3936J1D01*
G37*
G36*
G01Y198195D02*
X-667046D01*
G02X-663109Y194258I1J-3936D01*
G01Y139140D01*
G02X-667046Y135203I-3936J-1D01*
G01X-745786D01*
G02X-749723Y139140I-1J3936D01*
G01Y194258D01*
G02X-745786Y198195I3936J1D01*
G37*
G36*
G01X-747755Y269455D02*
X-669015D01*
G02X-665078Y265518I1J-3936D01*
G01Y210400D01*
G02X-669015Y206463I-3936J-2D01*
G01X-747755D01*
G02X-751692Y210400I-1J3936D01*
G01Y265518D01*
G02X-747755Y269455I3936J1D01*
G37*
G36*
G01X-741062Y349376D02*
X-662322D01*
G02X-658385Y345439I1J-3936D01*
G01Y290321D01*
G02X-662322Y286384I-3936J-1D01*
G01X-741062D01*
G02X-744999Y290321I-1J3936D01*
G01Y345439D01*
G02X-741062Y349376I3936J1D01*
G37*
G36*
G01X-647389Y237089D02*
Y243793D01*
X-650331D01*
Y237089D01*
X-647389D01*
G37*
G36*
G01X-636915Y237096D02*
Y243797D01*
X-639884D01*
Y237096D01*
X-636915D01*
G37*
G36*
G01X-634763Y350164D02*
X-556022D01*
G02X-552085Y346227I1J-3936D01*
G01Y291109D01*
G02X-556022Y287172I-3936J-1D01*
G01X-634763D01*
G02X-638700Y291109I-1J3936D01*
G01Y346227D01*
G02X-634763Y350164I3936J1D01*
G37*
G36*
G01X-585091Y84361D02*
X-506351D01*
G02X-502414Y80424I1J-3936D01*
G01Y25306D01*
G02X-506351Y21368I-3936J-1D01*
G01X-585091D01*
G02X-589029Y25306I-2J3936D01*
G01Y80424D01*
G02X-585091Y84361I3936J1D01*
G37*
G36*
G01X-581641Y237877D02*
Y244580D01*
X-584583D01*
Y237877D01*
X-581641D01*
G37*
G36*
G01X-571167Y237884D02*
Y244585D01*
X-574136D01*
Y237884D01*
X-571167D01*
G37*
G36*
G01X-522156Y238671D02*
Y231968D01*
X-519214D01*
Y238671D01*
X-522156D01*
G37*
G36*
G01X-532630Y238664D02*
Y231963D01*
X-529661D01*
Y238664D01*
X-532630D01*
G37*
G36*
G01X-528857Y350558D02*
X-450117D01*
G02X-446180Y346620I1J-3936D01*
G01Y291502D01*
G02X-450117Y287565I-3936J-1D01*
G01X-528857D01*
G02X-532794Y291502I-1J3936D01*
G01Y346620D01*
G02X-528857Y350558I3936J1D01*
G37*
G36*
G01X-429251Y84809D02*
X-350511D01*
G02X-346574Y80872I1J-3936D01*
G01Y25754D01*
G02X-350511Y21817I-3936J-1D01*
G01X-429251D01*
G02X-433188Y25754I-1J3936D01*
G01Y80872D01*
G02X-429251Y84809I3936J1D01*
G37*
G36*
G01X-436272Y152102D02*
Y155850D01*
X-438235D01*
Y152102D01*
X-436272D01*
G37*
G36*
G01X-431657D02*
Y155847D01*
X-433635D01*
Y152102D01*
X-431657D01*
G37*
G36*
G01X-327181Y305902D02*
Y302155D01*
X-325217D01*
Y305902D01*
X-327181D01*
G37*
G36*
G01X-331795D02*
Y302157D01*
X-329817D01*
Y305902D01*
X-331795D01*
G37*
G36*
G01X-326041Y325962D02*
Y322215D01*
X-324077D01*
Y325962D01*
X-326041D01*
G37*
G36*
G01X-330655D02*
Y322217D01*
X-328677D01*
Y325962D01*
X-330655D01*
G37*
G36*
G01X-217459Y286620D02*
X-296200D01*
G02X-300137Y290558I-1J3936D01*
G01Y345676D01*
G02X-296200Y349613I3936J2D01*
G01X-217459D01*
G02X-213522Y345676I1J-3936D01*
G01Y290558D01*
G02X-217459Y286620I-3936J-1D01*
G37*
G36*
G01X-271382Y85351D02*
X-192641D01*
G02X-188704Y81414I1J-3936D01*
G01Y26296D01*
G02X-192641Y22359I-3936J-1D01*
G01X-271382D01*
G02X-275318Y26296I-1J3936D01*
G01Y81414D01*
G02X-271382Y85351I3936J1D01*
G37*
G36*
G01X-241484Y247719D02*
Y254422D01*
X-244425D01*
Y247719D01*
X-241484D01*
G37*
G36*
G01X-231009Y247726D02*
Y254427D01*
X-233978D01*
Y247726D01*
X-231009D01*
G37*
G36*
G01X-180817Y251663D02*
Y244960D01*
X-177876D01*
Y251663D01*
X-180817D01*
G37*
G36*
G01X-191291Y251657D02*
Y244955D01*
X-188322D01*
Y251657D01*
X-191291D01*
G37*
G36*
G01X-119428Y286620D02*
X-198168D01*
G02X-202105Y290558I-1J3936D01*
G01Y345676D01*
G02X-198168Y349613I3936J2D01*
G01X-119428D01*
G02X-115491Y345676I1J-3936D01*
G01Y290558D01*
G02X-119428Y286620I-3936J-1D01*
G37*
G36*
G01X-23759Y19691D02*
X-102499D01*
G02X-106436Y23628I-1J3936D01*
G01Y78747D01*
G02X-102499Y82684I3936J1D01*
G01X-23759D01*
G02X-19822Y78747I1J-3936D01*
G01Y23628D01*
G02X-23759Y19691I-3936J-1D01*
G37*
G36*
G01X-24152Y98825D02*
X-102892D01*
G02X-106830Y102763I-1J3936D01*
G01Y157880D01*
G02X-102892Y161817I3936J1D01*
G01X-24152D01*
G02X-20215Y157880I1J-3936D01*
G01Y102763D01*
G02X-24152Y98825I-3936J-2D01*
G37*
G36*
G01X-78386Y243388D02*
X-74639D01*
Y245351D01*
X-78386D01*
Y243388D01*
G37*
G36*
G01Y238773D02*
X-74641D01*
Y240751D01*
X-78386D01*
Y238773D01*
G37*
G36*
G01X-62135Y241385D02*
X-66466D01*
Y239455D01*
X-62135D01*
Y241385D01*
G37*
G36*
G01Y246385D02*
X-66466D01*
Y244455D01*
X-62135D01*
Y246385D01*
G37*
G36*
G01Y251385D02*
X-66466D01*
Y249455D01*
X-62135D01*
Y251385D01*
G37*
G36*
G01Y256385D02*
X-66466D01*
Y254455D01*
X-62135D01*
Y256385D01*
G37*
G36*
G01X-83574Y267411D02*
Y260708D01*
X-80632D01*
Y267411D01*
X-83574D01*
G37*
G36*
G01X-94048Y267404D02*
Y260703D01*
X-91079D01*
Y267404D01*
X-94048D01*
G37*
G36*
G01X-19822Y287408D02*
X-98562D01*
G02X-102499Y291345I-1J3936D01*
G01Y346463D01*
G02X-98562Y350400I3936J2D01*
G01X-19822D01*
G02X-15885Y346463I1J-3936D01*
G01Y291345D01*
G02X-19822Y287408I-3936J-1D01*
G37*
G36*
G01X-42056Y241385D02*
X-46387D01*
Y239455D01*
X-42056D01*
Y241385D01*
G37*
G36*
G01Y256385D02*
X-46387D01*
Y254455D01*
X-42056D01*
Y256385D01*
G37*
G36*
G01Y251385D02*
X-46387D01*
Y249455D01*
X-42056D01*
Y251385D01*
G37*
G36*
G01Y246385D02*
X-46387D01*
Y244455D01*
X-42056D01*
Y246385D01*
G37*
G36*
G01X-11766Y278578D02*
X-8019D01*
Y280541D01*
X-11766D01*
Y278578D01*
G37*
G36*
G01Y273963D02*
X-8021D01*
Y275941D01*
X-11766D01*
Y273963D01*
G37*
G54D10*
X-769176Y15842D03*
X-768434Y87920D03*
X-766946Y157162D03*
X-768936Y229012D03*
X-767016Y308192D03*
X-594776Y367562D03*
X-547436Y-14818D03*
X-488026Y367692D03*
X-393076Y-14948D03*
X-320596Y364392D03*
X-330596D03*
X-340596D03*
X-238186Y-14448D03*
X-251186Y367012D03*
X-152922Y365243D03*
X5444Y60092D03*
X5984Y139292D03*
X5976Y243825D03*
X7157Y327998D03*
G54D11*
X-769176Y25842D03*
X-768434Y97920D03*
X-766946Y167162D03*
X-768936Y239012D03*
X-767016Y318192D03*
X-537436Y-14818D03*
X-584776Y367562D03*
X-478026Y367692D03*
X-383076Y-14948D03*
X-261186Y367012D03*
X-228186Y-14448D03*
X-162922Y365243D03*
X5444Y50092D03*
X5984Y129292D03*
X5976Y253825D03*
X7157Y317998D03*
G54D20*
X-468040Y129416D03*
X-449140D03*
Y124416D03*
Y119416D03*
Y114416D03*
Y109416D03*
Y104416D03*
Y99416D03*
X-468040Y94416D03*
Y99416D03*
Y104416D03*
Y109416D03*
Y114416D03*
Y119416D03*
Y124416D03*
X-449140Y94416D03*
X-244814Y203038D03*
Y208038D03*
Y213038D03*
Y218038D03*
Y223038D03*
Y228038D03*
Y233038D03*
Y238038D03*
X-225914Y203038D03*
Y208038D03*
Y238038D03*
Y233038D03*
Y228038D03*
Y223038D03*
Y218038D03*
Y213038D03*
G54D30*
G01X-639831Y243538D02*
X-647430D01*
G01X-639831Y237341D02*
X-647430D01*
G01X-574084Y244325D02*
X-581682D01*
G01X-574084Y238128D02*
X-581682D01*
G01X-529713Y232223D02*
X-522115D01*
G01X-529713Y238420D02*
X-522115D01*
G01X-433565Y155642D02*
X-436368D01*
G01X-433565Y152291D02*
X-436368D01*
G01X-329888Y302363D02*
X-327085D01*
G01X-329888Y305713D02*
X-327085D01*
G01X-328748Y322422D02*
X-325945D01*
G01X-328748Y325773D02*
X-325945D01*
G01X-233926Y254168D02*
X-241524D01*
G01X-233926Y247971D02*
X-241524D01*
G01X-188375Y245215D02*
X-180776D01*
G01X-188375Y251412D02*
X-180776D01*
G01X-74846Y240681D02*
Y243484D01*
G01X-78197Y240681D02*
Y243484D01*
G01X-91131Y260963D02*
X-83533D01*
G01X-91131Y267160D02*
X-83533D01*
G01X-8226Y275870D02*
Y278674D01*
G01X-11577Y275870D02*
Y278674D01*
G54D12*
X-731032Y2250D03*
Y74298D03*
Y143983D03*
X-733001Y215242D03*
X-726308Y295164D03*
X-683001Y2250D03*
X-675127Y25873D03*
X-683001Y74298D03*
Y49494D03*
Y143983D03*
X-675127Y97920D03*
X-683001Y121542D03*
X-675127Y167605D03*
X-683001Y191227D03*
X-684969Y215242D03*
X-677095Y238865D03*
X-684969Y262487D03*
X-678276Y295164D03*
X-670402Y318786D03*
X-678276Y342408D03*
X-620009Y295951D03*
X-570337Y30148D03*
X-571977Y295951D03*
X-564103Y319573D03*
X-571977Y343195D03*
X-522306Y30148D03*
X-514432Y53770D03*
X-522306Y77392D03*
X-514103Y296345D03*
X-414497Y30597D03*
X-466072Y296345D03*
X-458198Y319967D03*
X-466072Y343589D03*
X-366465Y30597D03*
X-358591Y54219D03*
X-366465Y77841D03*
X-256628Y31138D03*
X-288119Y317211D03*
X-280245Y293589D03*
X-232213Y340833D03*
X-280245D03*
X-208596Y31138D03*
X-200722Y54760D03*
X-208596Y78382D03*
X-190087Y317211D03*
X-182213Y293589D03*
Y340833D03*
X-134182D03*
X-86544Y26660D03*
Y73904D03*
X-94418Y50282D03*
X-94812Y129416D03*
X-86938Y105794D03*
Y153038D03*
X-90481Y317998D03*
X-82607Y294376D03*
Y341620D03*
X-38513Y73904D03*
X-38906Y153038D03*
X-34576Y341620D03*
G54D21*
X-438313Y153992D03*
X-431620D03*
X-325140Y304012D03*
X-331833D03*
X-324000Y324072D03*
X-330693D03*
G54D31*
G01X-772926Y13342D02*
X-780426Y12092D01*
G01X-772926Y18342D02*
X-780426Y19592D01*
G01X-772926Y23342D02*
X-780426Y22092D01*
G01X-781381Y31748D02*
X-756971D01*
Y9937D01*
X-781381D01*
Y31748D01*
G01X-772926Y28343D02*
X-780426Y29592D01*
G01X-772184Y85419D02*
X-779684Y84170D01*
G01X-780639Y103825D02*
X-756229D01*
Y82014D01*
X-780639D01*
Y103825D01*
G01X-772184Y90420D02*
X-779684Y91670D01*
G01X-772184Y95419D02*
X-779684Y94170D01*
G01X-772184Y100420D02*
X-779684Y101670D01*
G01X-770696Y154662D02*
X-778196Y153412D01*
G01X-770696Y159663D02*
X-778196Y160912D01*
G01X-770696Y164662D02*
X-778196Y163412D01*
G01X-770696Y169663D02*
X-778196Y170912D01*
G01X-779151Y173068D02*
X-754741D01*
Y151257D01*
X-779151D01*
Y173068D01*
G01X-772686Y226512D02*
X-780186Y225262D01*
G01X-772686Y231513D02*
X-780187Y232762D01*
G01X-772686Y236512D02*
X-780186Y235262D01*
G01X-772686Y241513D02*
X-780187Y242762D01*
G01X-781141Y244918D02*
X-756732D01*
Y223107D01*
X-781141D01*
Y244918D01*
G01X-770766Y305692D02*
X-778266Y304442D01*
G01X-770766Y310693D02*
X-778266Y311942D01*
G01X-770766Y315692D02*
X-778266Y314442D01*
G01X-770766Y320693D02*
X-778266Y321942D01*
G01X-779221Y324098D02*
X-754811D01*
Y302287D01*
X-779221D01*
Y324098D01*
G01X-765641Y15842D02*
G03I-3535J0D01*
G01Y25842D02*
G03I-3535J0D01*
G01X-766676Y13342D02*
X-771676Y18342D01*
G01X-766676Y23342D02*
X-771676Y28342D01*
G01X-764898Y87920D02*
G03I-3535J0D01*
G01X-765934Y85420D02*
X-770934Y90420D01*
G01X-764898Y97920D02*
G03I-3535J0D01*
G01X-765934Y95420D02*
X-770934Y100420D01*
G01X-763411Y157162D02*
G03I-3535J0D01*
G01Y167162D02*
G03I-3535J0D01*
G01X-764446Y154662D02*
X-769446Y159662D01*
G01X-764446Y164662D02*
X-769446Y169662D01*
G01X-765401Y229012D02*
G03I-3535J0D01*
G01Y239012D02*
G03I-3535J0D01*
G01X-766436Y226512D02*
X-771436Y231512D01*
G01X-766436Y236512D02*
X-771436Y241512D01*
G01X-763481Y308192D02*
G03I-3535J0D01*
G01Y318192D02*
G03I-3535J0D01*
G01X-764516Y305692D02*
X-769516Y310692D01*
G01X-764516Y315692D02*
X-769516Y320692D01*
G01X-640861Y18209D02*
Y31595D01*
X-630231D01*
Y18209D01*
X-640861D01*
G01X-625137Y292D02*
Y20744D01*
X-614881D01*
Y292D01*
X-625137D01*
G01X-629467Y81788D02*
Y102241D01*
X-619211D01*
Y81788D01*
X-629467D01*
G01X-644561Y99739D02*
Y113125D01*
X-633931D01*
Y99739D01*
X-644561D01*
G01X-628286Y142024D02*
Y162477D01*
X-618030D01*
Y142024D01*
X-628286D01*
G01X-643411Y159939D02*
Y173325D01*
X-632781D01*
Y159939D01*
X-643411D01*
G01X-631042Y198323D02*
Y218776D01*
X-620786D01*
Y198323D01*
X-631042D01*
G01X-633169Y274397D02*
X-619783D01*
Y263767D01*
X-633169D01*
Y274397D01*
G01X-645931Y216159D02*
Y229545D01*
X-635301D01*
Y216159D01*
X-645931D01*
G01X-651101Y258953D02*
X-630648D01*
Y248697D01*
X-651101D01*
Y258953D01*
G01X-591241Y367562D02*
G03I-3535J0D01*
G01X-597276Y371312D02*
X-598526Y378812D01*
G01X-597276Y365062D02*
X-592276Y370062D01*
G01X-578870Y379767D02*
Y355358D01*
X-600682D01*
Y379767D01*
X-578870D01*
G01X-543901Y-14818D02*
G03I-3535J0D01*
G01X-533901D02*
G03I-3535J0D01*
G01X-549937Y-11068D02*
X-551186Y-3568D01*
G01X-544936Y-11068D02*
X-543686Y-3567D01*
G01X-539937Y-11068D02*
X-541186Y-3568D01*
G01X-534936Y-11068D02*
X-533686Y-3567D01*
G01X-549936Y-17318D02*
X-544936Y-12318D01*
G01X-539936Y-17318D02*
X-534936Y-12318D01*
G01X-531531Y-2613D02*
Y-27022D01*
X-553342D01*
Y-2613D01*
X-531531D01*
G01X-567439Y275747D02*
X-554053D01*
Y265117D01*
X-567439D01*
Y275747D01*
G01X-585353Y261315D02*
X-564900D01*
Y251059D01*
X-585353D01*
Y261315D01*
G01X-581241Y367562D02*
G03I-3535J0D01*
G01X-592276Y371312D02*
X-591026Y378813D01*
G01X-587276Y371312D02*
X-588526Y378812D01*
G01X-582276Y371312D02*
X-581026Y378813D01*
G01X-587276Y365062D02*
X-582276Y370062D01*
G01X-462725Y24691D02*
Y11306D01*
X-473355D01*
Y24691D01*
X-462725D01*
G01X-462912Y56178D02*
Y35725D01*
X-473168D01*
Y56178D01*
X-462912D01*
G01X-487322Y264859D02*
X-466869D01*
Y254603D01*
X-487322D01*
Y264859D01*
G01X-484491Y367692D02*
G03I-3535J0D01*
G01X-474491D02*
G03I-3535J0D01*
G01X-490526Y371442D02*
X-491776Y378942D01*
G01X-485526Y371442D02*
X-484276Y378942D01*
G01X-480526Y371442D02*
X-481776Y378942D01*
G01X-475526Y371442D02*
X-474276Y378942D01*
G01X-490526Y365192D02*
X-485526Y370192D01*
G01X-480526Y365192D02*
X-475526Y370192D01*
G01X-472121Y379897D02*
Y355487D01*
X-493931D01*
Y379897D01*
X-472121D01*
G01X-414772Y328223D02*
X-405560D01*
Y129821D01*
X-414772D01*
Y328223D01*
G01X-469399Y278757D02*
X-456013D01*
Y268127D01*
X-469399D01*
Y278757D01*
G01X-389541Y-14948D02*
G03I-3535J0D01*
G01X-379541D02*
G03I-3535J0D01*
G01X-395576Y-11198D02*
X-396826Y-3698D01*
G01X-390576Y-11198D02*
X-389326Y-3697D01*
G01X-385576Y-11198D02*
X-386826Y-3698D01*
G01X-380576Y-11198D02*
X-379326Y-3697D01*
G01X-395576Y-17448D02*
X-390576Y-12448D01*
G01X-385576Y-17448D02*
X-380576Y-12448D01*
G01X-377170Y-2743D02*
Y-27152D01*
X-398982D01*
Y-2743D01*
X-377170D01*
G01X-353749Y328223D02*
X-344536D01*
Y129821D01*
X-353749D01*
Y328223D01*
G01X-356502Y351597D02*
Y377187D01*
X-314691D01*
Y351597D01*
X-356502D01*
G01X-316931Y60059D02*
Y73445D01*
X-306301D01*
Y60059D01*
X-316931D01*
G01X-334214Y42106D02*
Y62559D01*
X-323958D01*
Y42106D01*
X-334214D01*
G01X-234651Y-14448D02*
G03I-3535J0D01*
G01X-224651D02*
G03I-3535J0D01*
G01X-240687Y-10698D02*
X-241936Y-3198D01*
G01X-235686Y-10698D02*
X-234436Y-3197D01*
G01X-230687Y-10698D02*
X-231936Y-3198D01*
G01X-240686Y-16948D02*
X-235686Y-11948D01*
G01X-222281Y-2243D02*
Y-26652D01*
X-244092D01*
Y-2243D01*
X-222281D01*
G01X-234479Y103237D02*
X-221093D01*
Y92607D01*
X-234479D01*
Y103237D01*
G01X-215060Y111384D02*
X-235513D01*
Y121640D01*
X-215060D01*
Y111384D01*
G01X-245042Y269050D02*
X-224590D01*
Y258795D01*
X-245042D01*
Y269050D01*
G01X-247651Y367012D02*
G03I-3535J0D01*
G01X-257651D02*
G03I-3535J0D01*
G01X-248686Y363263D02*
X-247436Y355762D01*
G01X-253687Y363262D02*
X-254936Y355762D01*
G01X-258686Y363263D02*
X-257436Y355762D01*
G01X-263687Y363262D02*
X-264936Y355762D01*
G01X-248686Y369512D02*
X-253686Y364512D01*
G01X-258686Y369512D02*
X-263686Y364512D01*
G01X-267092Y354808D02*
Y379217D01*
X-245281D01*
Y354808D01*
X-267092D01*
G01X-225686Y-10698D02*
X-224436Y-3197D01*
G01X-230686Y-16948D02*
X-225686Y-11948D01*
G01X-180932Y267660D02*
X-160480D01*
Y257404D01*
X-180932D01*
Y267660D01*
G01X-227099Y282367D02*
X-213713D01*
Y271737D01*
X-227099D01*
Y282367D01*
G01X-123781Y47849D02*
Y61235D01*
X-113151D01*
Y47849D01*
X-123781D01*
G01X-129448Y67201D02*
Y46748D01*
X-139704D01*
Y67201D01*
X-129448D01*
G01X-112751Y137095D02*
Y123709D01*
X-123381D01*
Y137095D01*
X-112751D01*
G01X-129054Y154996D02*
Y134544D01*
X-139310D01*
Y154996D01*
X-129054D01*
G01X-163059Y283357D02*
X-149673D01*
Y272727D01*
X-163059D01*
Y283357D01*
G01X-149387Y365243D02*
G03I-3535J0D01*
G01X-159387D02*
G03I-3535J0D01*
G01X-150422Y361493D02*
X-149172Y353992D01*
G01X-155422Y361493D02*
X-156672Y353992D01*
G01X-160422Y361493D02*
X-159172Y353992D01*
G01X-165422Y361493D02*
X-166672Y353992D01*
G01X-150422Y367743D02*
X-155422Y362742D01*
G01X-160422Y367743D02*
X-165422Y362742D01*
G01X-168828Y353038D02*
Y377447D01*
X-147016D01*
Y353038D01*
X-168828D01*
G01X-55442Y282369D02*
X-42056D01*
Y271739D01*
X-55442D01*
Y282369D01*
G01X-83778Y282182D02*
X-63326D01*
Y271926D01*
X-83778D01*
Y282182D01*
G01X8980Y60092D02*
G03I-3536J0D01*
G01Y50092D02*
G03I-3536J0D01*
G01X9194Y62592D02*
X16694Y63842D01*
G01X9194Y57592D02*
X16694Y56342D01*
G01X9194Y52592D02*
X16694Y53842D01*
G01X9194Y47592D02*
X16694Y46342D01*
G01X2944Y62592D02*
X7944Y57592D01*
G01X2944Y52592D02*
X7944Y47592D01*
G01X17649Y44187D02*
X-6761D01*
Y65998D01*
X17649D01*
Y44187D01*
G01X9519Y139292D02*
G03I-3535J0D01*
G01Y129292D02*
G03I-3535J0D01*
G01X9734Y141792D02*
X17234Y143042D01*
G01X9734Y136792D02*
X17234Y135542D01*
G01X9734Y131792D02*
X17234Y133042D01*
G01X9734Y126792D02*
X17234Y125542D01*
G01X3484Y141792D02*
X8484Y136792D01*
G01X3484Y131792D02*
X8484Y126792D01*
G01X18189Y123387D02*
X-6221D01*
Y145198D01*
X18189D01*
Y123387D01*
G01X8606Y169507D02*
X-591D01*
Y227908D01*
X8606D01*
Y169507D01*
G01X9511Y243825D02*
G03I-3535J0D01*
G01Y253825D02*
G03I-3535J0D01*
G01X2226Y241325D02*
X-5274Y240075D01*
G01X2226Y246326D02*
X-5275Y247575D01*
G01X2226Y251325D02*
X-5274Y250075D01*
G01X2226Y256326D02*
X-5275Y257575D01*
G01X8476Y241325D02*
X3476Y246325D01*
G01X8476Y251325D02*
X3476Y256325D01*
G01X-6229Y259731D02*
X18180D01*
Y237920D01*
X-6229D01*
Y259731D01*
G01X10692Y327998D02*
G03I-3535J0D01*
G01Y317998D02*
G03I-3535J0D01*
G01X4657Y330498D02*
X9657Y325498D01*
G01X4657Y320498D02*
X9657Y315498D01*
G01X19361Y312093D02*
X-5048D01*
Y333904D01*
X19361D01*
Y312093D01*
G01X10907Y325498D02*
X18407Y324248D01*
G01X10906Y320499D02*
X18407Y321748D01*
G01X10907Y315498D02*
X18407Y314248D01*
G01X10906Y330499D02*
X18407Y331748D01*
G54D22*
X-410166Y324022D03*
X-349143D03*
G54D13*
X-755856Y353371D03*
X-499950Y-960D03*
X50D03*
Y353371D03*
G54D32*
G01X-450740Y131616D02*
X-466440D01*
Y92216D01*
X-450740D01*
Y131616D01*
G01X-468040Y94416D02*
X-466440D01*
G01X-468040Y99416D02*
X-466440D01*
G01X-468040Y104416D02*
X-466440D01*
G01X-468040Y109416D02*
X-466440D01*
G01X-468040Y114416D02*
X-466440D01*
G01X-468040Y119416D02*
X-466440D01*
G01X-468040Y124416D02*
X-466440D01*
G01X-468040Y129416D02*
X-466440D01*
G01X-449140D02*
X-450740D01*
G01X-449140Y124416D02*
X-450740D01*
G01X-449140Y119416D02*
X-450740D01*
G01X-449140Y114416D02*
X-450740D01*
G01X-449140Y109416D02*
X-450740D01*
G01X-449140Y104416D02*
X-450740D01*
G01X-449140Y99416D02*
X-450740D01*
G01X-449140Y94416D02*
X-450740D01*
G01X-243214Y200838D02*
X-227514D01*
Y240238D01*
X-243214D01*
Y200838D01*
G01X-244814Y203038D02*
X-243214D01*
G01X-244814Y208038D02*
X-243214D01*
G01X-244814Y213038D02*
X-243214D01*
G01X-244814Y218038D02*
X-243214D01*
G01X-244814Y223038D02*
X-243214D01*
G01X-244814Y228038D02*
X-243214D01*
G01X-244814Y233038D02*
X-243214D01*
G01X-244814Y238038D02*
X-243214D01*
G01X-225914Y203038D02*
X-227514D01*
G01X-225914Y238038D02*
X-227514D01*
G01X-225914Y233038D02*
X-227514D01*
G01X-225914Y228038D02*
X-227514D01*
G01X-225914Y223038D02*
X-227514D01*
G01X-225914Y218038D02*
X-227514D01*
G01X-225914Y213038D02*
X-227514D01*
G01X-225914Y208038D02*
X-227514D01*
G54D23*
X-350596Y364392D03*
G54D14*
X-635546Y18938D03*
Y30867D03*
X-639246Y112397D03*
Y100468D03*
X-638096Y172597D03*
Y160668D03*
X-640616Y228817D03*
Y216888D03*
X-468040Y12034D03*
Y23963D03*
X-311616Y72717D03*
Y60788D03*
X-118466Y60507D03*
Y48578D03*
X-118066Y124438D03*
Y136367D03*
G54D33*
G01X-754326Y30176D02*
X-754876Y29842D01*
X-755243Y29442D01*
X-755426Y28976D01*
X-755243Y28442D01*
X-754876Y28042D01*
X-754326Y27642D01*
X-753593Y27509D01*
X-749926D01*
G01X-755426Y24476D02*
X-754234Y24342D01*
X-753226Y24142D01*
X-752309Y23876D01*
X-751301Y23542D01*
X-749926Y23009D01*
Y25676D01*
G01X-753584Y102253D02*
X-754134Y101920D01*
X-754501Y101520D01*
X-754684Y101053D01*
X-754501Y100520D01*
X-754134Y100120D01*
X-753584Y99720D01*
X-752851Y99586D01*
X-749184D01*
G01X-752392Y97686D02*
X-751750Y97220D01*
X-751384Y96820D01*
X-751201Y96286D01*
X-751384Y95820D01*
X-751750Y95486D01*
X-752301Y95220D01*
X-752942Y95153D01*
X-753492Y95220D01*
X-754042Y95486D01*
X-754501Y95886D01*
X-754684Y96353D01*
X-754501Y96886D01*
X-753951Y97353D01*
X-753126Y97620D01*
X-752209Y97686D01*
X-751017Y97553D01*
X-750376Y97353D01*
X-749734Y97020D01*
X-749276Y96553D01*
X-749184Y96086D01*
X-749367Y95620D01*
X-749826Y95286D01*
G01X-752096Y171496D02*
X-752646Y171162D01*
X-753013Y170762D01*
X-753196Y170296D01*
X-753013Y169762D01*
X-752646Y169362D01*
X-752096Y168962D01*
X-751363Y168829D01*
X-747696D01*
G01X-752371Y167129D02*
X-752830Y166729D01*
X-753105Y166262D01*
X-753196Y165662D01*
X-753013Y165062D01*
X-752646Y164596D01*
X-752004Y164262D01*
X-751271Y164196D01*
X-750538Y164329D01*
X-750079Y164662D01*
X-749713Y165129D01*
X-749621Y165596D01*
X-749713Y166062D01*
X-750079Y166662D01*
X-747696Y166462D01*
Y164662D01*
G01X-754086Y243346D02*
X-754636Y243012D01*
X-755003Y242612D01*
X-755186Y242146D01*
X-755003Y241612D01*
X-754636Y241212D01*
X-754086Y240812D01*
X-753353Y240679D01*
X-749686D01*
G01X-755186Y236712D02*
X-749686D01*
X-753628Y239179D01*
Y235846D01*
G01X-752166Y322526D02*
X-752716Y322192D01*
X-753083Y321792D01*
X-753266Y321326D01*
X-753083Y320792D01*
X-752716Y320392D01*
X-752166Y319992D01*
X-751433Y319859D01*
X-747766D01*
G01X-752166Y318159D02*
X-752808Y317759D01*
X-753174Y317226D01*
X-753266Y316625D01*
X-753174Y316092D01*
X-752716Y315559D01*
X-752166Y315225D01*
X-751616Y315159D01*
X-750975Y315292D01*
X-750516Y315759D01*
X-750333Y316226D01*
Y316826D01*
G01Y316226D02*
X-750058Y315825D01*
X-749600Y315492D01*
X-749050Y315359D01*
X-748499Y315492D01*
X-748041Y315825D01*
X-747766Y316425D01*
X-747858Y317025D01*
X-748224Y317625D01*
G01X-662585Y-21884D02*
Y-27384D01*
X-664251D01*
X-664785Y-27108D01*
X-665118Y-26742D01*
X-665252Y-26008D01*
X-665118Y-25275D01*
X-664718Y-24817D01*
X-664251Y-24542D01*
X-662585D01*
G01X-664251D02*
X-665252Y-21884D01*
G01X-667085Y-27384D02*
Y-21884D01*
X-669752D01*
G01X-672785D02*
X-672918Y-23075D01*
X-673118Y-24083D01*
X-673385Y-25000D01*
X-673718Y-26008D01*
X-674252Y-27384D01*
X-671585D01*
G01X-662585Y50164D02*
Y44664D01*
X-664251D01*
X-664785Y44939D01*
X-665118Y45306D01*
X-665252Y46039D01*
X-665118Y46772D01*
X-664718Y47230D01*
X-664251Y47506D01*
X-662585D01*
G01X-664251D02*
X-665252Y50164D01*
G01X-667085Y44664D02*
Y50164D01*
X-669752D01*
G01X-671651Y47872D02*
X-672118Y47230D01*
X-672518Y46864D01*
X-673052Y46680D01*
X-673518Y46864D01*
X-673851Y47230D01*
X-674118Y47780D01*
X-674185Y48422D01*
X-674118Y48972D01*
X-673851Y49522D01*
X-673451Y49980D01*
X-672985Y50164D01*
X-672452Y49980D01*
X-671985Y49431D01*
X-671718Y48606D01*
X-671651Y47689D01*
X-671785Y46497D01*
X-671985Y45855D01*
X-672318Y45214D01*
X-672785Y44755D01*
X-673251Y44664D01*
X-673718Y44847D01*
X-674052Y45306D01*
G01X-662585Y119849D02*
Y114349D01*
X-664251D01*
X-664785Y114624D01*
X-665118Y114990D01*
X-665252Y115724D01*
X-665118Y116457D01*
X-664718Y116915D01*
X-664251Y117190D01*
X-662585D01*
G01X-664251D02*
X-665252Y119849D01*
G01X-667085Y114349D02*
Y119849D01*
X-669752D01*
G01X-671451Y119024D02*
X-671851Y119482D01*
X-672318Y119757D01*
X-672918Y119849D01*
X-673518Y119666D01*
X-673985Y119299D01*
X-674318Y118657D01*
X-674385Y117924D01*
X-674252Y117190D01*
X-673918Y116732D01*
X-673451Y116366D01*
X-672985Y116274D01*
X-672518Y116366D01*
X-671918Y116732D01*
X-672118Y114349D01*
X-673918D01*
G01X-664553Y191109D02*
Y185609D01*
X-666220D01*
X-666753Y185884D01*
X-667087Y186250D01*
X-667220Y186984D01*
X-667087Y187717D01*
X-666687Y188175D01*
X-666220Y188450D01*
X-664553D01*
G01X-666220D02*
X-667220Y191109D01*
G01X-669053Y185609D02*
Y191109D01*
X-671720D01*
G01X-675687D02*
Y185609D01*
X-673220Y189550D01*
X-676553D01*
G01X-657860Y271030D02*
Y265530D01*
X-659527D01*
X-660060Y265805D01*
X-660394Y266172D01*
X-660527Y266905D01*
X-660394Y267638D01*
X-659994Y268096D01*
X-659527Y268372D01*
X-657860D01*
G01X-659527D02*
X-660527Y271030D01*
G01X-662360Y265530D02*
Y271030D01*
X-665027D01*
G01X-666727Y269930D02*
X-667127Y270572D01*
X-667660Y270938D01*
X-668260Y271030D01*
X-668794Y270938D01*
X-669327Y270480D01*
X-669660Y269930D01*
X-669727Y269380D01*
X-669594Y268738D01*
X-669127Y268280D01*
X-668660Y268096D01*
X-668060D01*
G01X-668660D02*
X-669060Y267822D01*
X-669394Y267363D01*
X-669527Y266813D01*
X-669394Y266263D01*
X-669060Y265805D01*
X-668460Y265530D01*
X-667860Y265622D01*
X-667260Y265988D01*
G01X-642239Y9974D02*
X-647739D01*
Y11641D01*
X-647464Y12175D01*
X-647097Y12508D01*
X-646364Y12641D01*
X-645631Y12508D01*
X-645172Y12108D01*
X-644897Y11641D01*
Y9974D01*
G01Y11641D02*
X-642239Y12641D01*
G01Y15808D02*
X-647739D01*
X-646639Y15008D01*
G01X-642239D02*
Y16608D01*
G01X-647739Y20308D02*
X-647556Y19774D01*
X-647097Y19375D01*
X-646547Y19108D01*
X-645814Y18908D01*
X-644989Y18841D01*
X-644164Y18908D01*
X-643431Y19108D01*
X-642880Y19375D01*
X-642422Y19774D01*
X-642239Y20308D01*
X-642422Y20841D01*
X-642880Y21241D01*
X-643431Y21508D01*
X-644164Y21708D01*
X-644989Y21775D01*
X-645814Y21708D01*
X-646547Y21508D01*
X-647097Y21241D01*
X-647556Y20841D01*
X-647739Y20308D01*
G01X-612135Y25733D02*
X-606635D01*
Y24400D01*
X-606910Y23866D01*
X-607276Y23466D01*
X-607826Y23133D01*
X-608468Y22866D01*
X-609385Y22799D01*
X-610301Y22866D01*
X-610943Y23133D01*
X-611493Y23466D01*
X-611860Y23866D01*
X-612135Y24400D01*
Y25733D01*
G01Y19766D02*
X-606635D01*
X-607734Y20566D01*
G01X-612135D02*
Y18966D01*
G01X-611310Y16733D02*
X-611768Y16333D01*
X-612043Y15866D01*
X-612135Y15266D01*
X-611951Y14666D01*
X-611585Y14200D01*
X-610943Y13866D01*
X-610210Y13799D01*
X-609476Y13933D01*
X-609018Y14266D01*
X-608651Y14733D01*
X-608560Y15199D01*
X-608651Y15666D01*
X-609018Y16266D01*
X-606635Y16066D01*
Y14266D01*
G01X-645939Y93754D02*
X-651439D01*
Y95421D01*
X-651164Y95954D01*
X-650797Y96288D01*
X-650064Y96421D01*
X-649331Y96288D01*
X-648872Y95888D01*
X-648597Y95421D01*
Y93754D01*
G01Y95421D02*
X-645939Y96421D01*
G01X-646580Y98454D02*
X-646122Y98921D01*
X-645939Y99454D01*
X-646122Y99988D01*
X-646672Y100454D01*
X-647497Y100788D01*
X-648322Y100921D01*
X-649331D01*
X-650156Y100788D01*
X-650889Y100454D01*
X-651256Y100054D01*
X-651439Y99588D01*
X-651256Y99054D01*
X-650889Y98654D01*
X-650339Y98388D01*
X-649606Y98254D01*
X-648964Y98388D01*
X-648322Y98721D01*
X-647956Y99121D01*
X-647864Y99588D01*
X-648047Y100121D01*
X-648506Y100521D01*
X-649331Y100921D01*
G01X-616465Y107229D02*
X-610965D01*
Y105896D01*
X-611240Y105363D01*
X-611607Y104963D01*
X-612157Y104629D01*
X-612799Y104363D01*
X-613716Y104296D01*
X-614632Y104363D01*
X-615274Y104629D01*
X-615824Y104963D01*
X-616190Y105363D01*
X-616465Y105896D01*
Y107229D01*
G01Y101263D02*
X-610965D01*
X-612065Y102063D01*
G01X-616465D02*
Y100463D01*
G01Y95963D02*
X-610965D01*
X-614907Y98429D01*
Y95096D01*
G01X-644789Y153954D02*
X-650289D01*
Y155621D01*
X-650014Y156155D01*
X-649647Y156488D01*
X-648914Y156621D01*
X-648181Y156488D01*
X-647722Y156088D01*
X-647447Y155621D01*
Y153954D01*
G01Y155621D02*
X-644789Y156621D01*
G01Y159788D02*
X-644881Y160254D01*
X-645156Y160788D01*
X-645614Y161121D01*
X-646256Y161254D01*
X-646897Y161121D01*
X-647447Y160721D01*
X-647722Y160121D01*
Y159454D01*
X-647906Y159054D01*
X-648364Y158721D01*
X-649006Y158588D01*
X-649647Y158788D01*
X-650106Y159254D01*
X-650289Y159788D01*
X-650106Y160321D01*
X-649647Y160788D01*
X-649006Y160988D01*
X-648364Y160854D01*
X-647906Y160521D01*
X-647722Y160121D01*
Y159454D01*
X-647447Y158854D01*
X-646897Y158454D01*
X-646256Y158321D01*
X-645614Y158454D01*
X-645156Y158788D01*
X-644881Y159321D01*
X-644789Y159788D01*
G01X-615284Y167465D02*
X-609784D01*
Y166132D01*
X-610059Y165598D01*
X-610426Y165198D01*
X-610976Y164865D01*
X-611618Y164598D01*
X-612534Y164532D01*
X-613451Y164598D01*
X-614093Y164865D01*
X-614643Y165198D01*
X-615009Y165598D01*
X-615284Y166132D01*
Y167465D01*
G01Y161498D02*
X-609784D01*
X-610884Y162298D01*
G01X-615284D02*
Y160698D01*
G01X-614184Y158465D02*
X-614826Y158065D01*
X-615193Y157532D01*
X-615284Y156932D01*
X-615193Y156398D01*
X-614734Y155865D01*
X-614184Y155532D01*
X-613634Y155465D01*
X-612993Y155598D01*
X-612534Y156065D01*
X-612351Y156532D01*
Y157132D01*
G01Y156532D02*
X-612076Y156132D01*
X-611618Y155798D01*
X-611068Y155665D01*
X-610518Y155798D01*
X-610059Y156132D01*
X-609784Y156732D01*
X-609876Y157332D01*
X-610243Y157932D01*
G01X-630112Y235630D02*
Y230130D01*
X-631779D01*
X-632312Y230405D01*
X-632646Y230771D01*
X-632779Y231504D01*
X-632646Y232238D01*
X-632246Y232696D01*
X-631779Y232971D01*
X-630112D01*
G01X-631779D02*
X-632779Y235630D01*
G01X-634679Y233338D02*
X-635146Y232696D01*
X-635546Y232330D01*
X-636079Y232146D01*
X-636546Y232330D01*
X-636879Y232696D01*
X-637146Y233246D01*
X-637212Y233888D01*
X-637146Y234438D01*
X-636879Y234988D01*
X-636479Y235446D01*
X-636012Y235630D01*
X-635479Y235446D01*
X-635012Y234896D01*
X-634746Y234071D01*
X-634679Y233155D01*
X-634812Y231963D01*
X-635012Y231321D01*
X-635346Y230680D01*
X-635812Y230221D01*
X-636279Y230130D01*
X-636746Y230313D01*
X-637079Y230771D01*
G01X-647309Y210174D02*
X-652809D01*
Y211841D01*
X-652534Y212375D01*
X-652167Y212708D01*
X-651434Y212841D01*
X-650701Y212708D01*
X-650242Y212308D01*
X-649967Y211841D01*
Y210174D01*
G01Y211841D02*
X-647309Y212841D01*
G01Y215874D02*
X-648501Y216008D01*
X-649509Y216208D01*
X-650426Y216474D01*
X-651434Y216808D01*
X-652809Y217341D01*
Y214674D01*
G01X-625660Y245951D02*
Y240451D01*
X-626993D01*
X-627527Y240726D01*
X-627927Y241093D01*
X-628260Y241643D01*
X-628527Y242285D01*
X-628594Y243201D01*
X-628527Y244118D01*
X-628260Y244760D01*
X-627927Y245310D01*
X-627527Y245676D01*
X-626993Y245951D01*
X-625660D01*
G01X-631627D02*
Y240451D01*
X-630827Y241551D01*
G01Y245951D02*
X-632427D01*
G01X-636127D02*
Y240451D01*
X-635327Y241551D01*
G01Y245951D02*
X-636927D01*
G01X-618040Y223764D02*
X-612540D01*
Y222431D01*
X-612815Y221898D01*
X-613182Y221498D01*
X-613732Y221164D01*
X-614374Y220898D01*
X-615290Y220831D01*
X-616207Y220898D01*
X-616849Y221164D01*
X-617399Y221498D01*
X-617765Y221898D01*
X-618040Y222431D01*
Y223764D01*
G01Y217798D02*
X-612540D01*
X-613640Y218598D01*
G01X-618040D02*
Y216998D01*
G01X-613457Y214564D02*
X-612907Y214164D01*
X-612632Y213698D01*
X-612540Y213164D01*
X-612724Y212498D01*
X-613182Y212031D01*
X-613732Y211898D01*
X-614282Y211964D01*
X-614740Y212231D01*
X-615657Y213564D01*
X-616299Y214164D01*
X-617215Y214564D01*
X-618040Y214698D01*
Y211898D01*
G01X-639154Y275775D02*
Y281275D01*
X-637487D01*
X-636954Y281000D01*
X-636620Y280634D01*
X-636487Y279900D01*
X-636620Y279167D01*
X-637020Y278709D01*
X-637487Y278434D01*
X-639154D01*
G01X-637487D02*
X-636487Y275775D01*
G01X-634787Y276600D02*
X-634387Y276142D01*
X-633921Y275867D01*
X-633321Y275775D01*
X-632720Y275958D01*
X-632254Y276325D01*
X-631920Y276967D01*
X-631854Y277700D01*
X-631987Y278434D01*
X-632320Y278892D01*
X-632787Y279258D01*
X-633254Y279350D01*
X-633720Y279258D01*
X-634320Y278892D01*
X-634120Y281275D01*
X-632320D01*
G01X-533103Y-29668D02*
X-533436Y-29118D01*
X-533836Y-28751D01*
X-534303Y-28568D01*
X-534836Y-28751D01*
X-535236Y-29118D01*
X-535636Y-29668D01*
X-535770Y-30401D01*
Y-34068D01*
G01X-538936Y-28568D02*
X-539403Y-28659D01*
X-539936Y-28934D01*
X-540270Y-29392D01*
X-540403Y-30034D01*
X-540270Y-30676D01*
X-539870Y-31226D01*
X-539270Y-31501D01*
X-538603D01*
X-538203Y-31684D01*
X-537870Y-32143D01*
X-537736Y-32784D01*
X-537936Y-33426D01*
X-538403Y-33884D01*
X-538936Y-34068D01*
X-539470Y-33884D01*
X-539936Y-33426D01*
X-540136Y-32784D01*
X-540003Y-32143D01*
X-539670Y-31684D01*
X-539270Y-31501D01*
X-538603D01*
X-538003Y-31226D01*
X-537603Y-30676D01*
X-537470Y-30034D01*
X-537603Y-29392D01*
X-537936Y-28934D01*
X-538470Y-28659D01*
X-538936Y-28568D01*
G01X-539433Y240132D02*
Y245632D01*
X-537766D01*
X-537232Y245356D01*
X-536899Y244990D01*
X-536766Y244256D01*
X-536899Y243523D01*
X-537299Y243065D01*
X-537766Y242790D01*
X-539433D01*
G01X-537766D02*
X-536766Y240132D01*
G01X-533599D02*
Y245632D01*
X-534399Y244532D01*
G01Y240132D02*
X-532799D01*
G01X-564364Y236417D02*
Y230917D01*
X-566031D01*
X-566564Y231192D01*
X-566898Y231559D01*
X-567031Y232292D01*
X-566898Y233025D01*
X-566498Y233484D01*
X-566031Y233759D01*
X-564364D01*
G01X-566031D02*
X-567031Y236417D01*
G01X-570998D02*
Y230917D01*
X-568531Y234859D01*
X-571864D01*
G01X-551561Y271817D02*
Y266317D01*
X-553228D01*
X-553761Y266592D01*
X-554094Y266959D01*
X-554228Y267692D01*
X-554094Y268426D01*
X-553694Y268884D01*
X-553228Y269159D01*
X-551561D01*
G01X-553228D02*
X-554228Y271817D01*
G01X-556061Y266317D02*
Y271817D01*
X-558728D01*
G01X-560628Y267234D02*
X-561028Y266684D01*
X-561494Y266409D01*
X-562028Y266317D01*
X-562694Y266501D01*
X-563161Y266959D01*
X-563294Y267509D01*
X-563228Y268059D01*
X-562961Y268517D01*
X-561628Y269434D01*
X-561028Y270076D01*
X-560628Y270992D01*
X-560494Y271817D01*
X-563294D01*
G01X-559912Y248313D02*
Y242813D01*
X-561245D01*
X-561779Y243089D01*
X-562179Y243455D01*
X-562512Y244005D01*
X-562779Y244647D01*
X-562845Y245564D01*
X-562779Y246480D01*
X-562512Y247122D01*
X-562179Y247672D01*
X-561779Y248038D01*
X-561245Y248313D01*
X-559912D01*
G01X-565879D02*
Y242813D01*
X-565079Y243913D01*
G01Y248313D02*
X-566679D01*
G01X-570379Y242813D02*
X-569845Y242997D01*
X-569445Y243455D01*
X-569179Y244005D01*
X-568979Y244738D01*
X-568912Y245564D01*
X-568979Y246389D01*
X-569179Y247122D01*
X-569445Y247672D01*
X-569845Y248130D01*
X-570379Y248313D01*
X-570912Y248130D01*
X-571312Y247672D01*
X-571579Y247122D01*
X-571779Y246389D01*
X-571845Y245564D01*
X-571779Y244738D01*
X-571579Y244005D01*
X-571312Y243455D01*
X-570912Y242997D01*
X-570379Y242813D01*
G01X-573424Y277125D02*
Y282625D01*
X-571757D01*
X-571224Y282350D01*
X-570891Y281984D01*
X-570757Y281250D01*
X-570891Y280517D01*
X-571291Y280059D01*
X-571757Y279784D01*
X-573424D01*
G01X-571757D02*
X-570757Y277125D01*
G01X-569057Y278225D02*
X-568657Y277583D01*
X-568124Y277217D01*
X-567524Y277125D01*
X-566990Y277217D01*
X-566457Y277675D01*
X-566124Y278225D01*
X-566057Y278775D01*
X-566191Y279417D01*
X-566657Y279875D01*
X-567124Y280059D01*
X-567724D01*
G01X-567124D02*
X-566724Y280334D01*
X-566391Y280792D01*
X-566257Y281342D01*
X-566391Y281892D01*
X-566724Y282350D01*
X-567324Y282625D01*
X-567924Y282534D01*
X-568524Y282167D01*
G01X-580443Y352712D02*
X-580776Y353262D01*
X-581176Y353629D01*
X-581643Y353812D01*
X-582176Y353629D01*
X-582576Y353262D01*
X-582976Y352712D01*
X-583109Y351979D01*
Y348312D01*
G01X-585009Y349229D02*
X-585409Y348679D01*
X-585876Y348404D01*
X-586409Y348312D01*
X-587076Y348496D01*
X-587543Y348954D01*
X-587676Y349504D01*
X-587609Y350054D01*
X-587343Y350512D01*
X-586009Y351429D01*
X-585409Y352071D01*
X-585009Y352987D01*
X-584876Y353812D01*
X-587676D01*
G01X-501890Y6014D02*
Y514D01*
X-503556D01*
X-504090Y789D01*
X-504423Y1156D01*
X-504557Y1889D01*
X-504423Y2623D01*
X-504023Y3081D01*
X-503556Y3356D01*
X-501890D01*
G01X-503556D02*
X-504557Y6014D01*
G01X-506390Y514D02*
Y6014D01*
X-509057D01*
G01X-512223D02*
Y514D01*
X-511423Y1614D01*
G01Y6014D02*
X-513023D01*
G01X-515456Y3723D02*
X-515923Y3081D01*
X-516323Y2714D01*
X-516857Y2531D01*
X-517323Y2714D01*
X-517656Y3081D01*
X-517923Y3631D01*
X-517990Y4273D01*
X-517923Y4823D01*
X-517656Y5373D01*
X-517256Y5831D01*
X-516790Y6014D01*
X-516257Y5831D01*
X-515790Y5281D01*
X-515523Y4456D01*
X-515456Y3539D01*
X-515590Y2348D01*
X-515790Y1706D01*
X-516123Y1064D01*
X-516590Y606D01*
X-517056Y514D01*
X-517523Y697D01*
X-517857Y1156D01*
G01X-475914Y30736D02*
X-481414D01*
Y32070D01*
X-481139Y32603D01*
X-480773Y33003D01*
X-480223Y33336D01*
X-479581Y33603D01*
X-478664Y33670D01*
X-477748Y33603D01*
X-477106Y33336D01*
X-476556Y33003D01*
X-476189Y32603D01*
X-475914Y32070D01*
Y30736D01*
G01Y36703D02*
X-481414D01*
X-480314Y35903D01*
G01X-475914D02*
Y37503D01*
G01X-478206Y39936D02*
X-478848Y40403D01*
X-479214Y40803D01*
X-479398Y41337D01*
X-479214Y41803D01*
X-478848Y42136D01*
X-478298Y42403D01*
X-477656Y42470D01*
X-477106Y42403D01*
X-476556Y42136D01*
X-476098Y41736D01*
X-475914Y41270D01*
X-476098Y40736D01*
X-476647Y40270D01*
X-477472Y40003D01*
X-478389Y39936D01*
X-479581Y40070D01*
X-480223Y40270D01*
X-480864Y40603D01*
X-481323Y41070D01*
X-481414Y41536D01*
X-481231Y42003D01*
X-480773Y42336D01*
G01X-475384Y280135D02*
Y285635D01*
X-473717D01*
X-473184Y285360D01*
X-472850Y284993D01*
X-472717Y284260D01*
X-472850Y283527D01*
X-473250Y283068D01*
X-473717Y282793D01*
X-475384D01*
G01X-473717D02*
X-472717Y280135D01*
G01X-470817Y284718D02*
X-470417Y285268D01*
X-469950Y285543D01*
X-469417Y285635D01*
X-468750Y285452D01*
X-468284Y284993D01*
X-468150Y284443D01*
X-468217Y283893D01*
X-468484Y283435D01*
X-469817Y282518D01*
X-470417Y281877D01*
X-470817Y280960D01*
X-470950Y280135D01*
X-468150D01*
G01X-473693Y352842D02*
X-474026Y353392D01*
X-474426Y353759D01*
X-474893Y353942D01*
X-475426Y353759D01*
X-475826Y353392D01*
X-476226Y352842D01*
X-476359Y352109D01*
Y348442D01*
G01X-479526Y353942D02*
Y348442D01*
X-478726Y349542D01*
G01Y353942D02*
X-480326D01*
G01X-461347Y32926D02*
X-455847D01*
Y31260D01*
X-456122Y30726D01*
X-456489Y30393D01*
X-457222Y30260D01*
X-457956Y30393D01*
X-458414Y30793D01*
X-458689Y31260D01*
Y32926D01*
G01Y31260D02*
X-461347Y30260D01*
G01X-456764Y28360D02*
X-456214Y27960D01*
X-455939Y27493D01*
X-455847Y26960D01*
X-456031Y26293D01*
X-456489Y25826D01*
X-457039Y25693D01*
X-457589Y25760D01*
X-458047Y26026D01*
X-458964Y27360D01*
X-459606Y27960D01*
X-460522Y28360D01*
X-461347Y28493D01*
Y25693D01*
G01X-459056Y23860D02*
X-458414Y23393D01*
X-458047Y22993D01*
X-457864Y22460D01*
X-458047Y21993D01*
X-458414Y21660D01*
X-458964Y21393D01*
X-459606Y21326D01*
X-460156Y21393D01*
X-460706Y21660D01*
X-461164Y22060D01*
X-461347Y22526D01*
X-461164Y23060D01*
X-460614Y23526D01*
X-459789Y23793D01*
X-458872Y23860D01*
X-457681Y23726D01*
X-457039Y23526D01*
X-456397Y23193D01*
X-455939Y22726D01*
X-455847Y22260D01*
X-456031Y21793D01*
X-456489Y21460D01*
G01X-436081Y82754D02*
Y86696D01*
X-436348Y87521D01*
X-436881Y88071D01*
X-437548Y88254D01*
X-438214Y88071D01*
X-438748Y87521D01*
X-439014Y86696D01*
Y82754D01*
G01X-442848Y88254D02*
Y82754D01*
X-440381Y86696D01*
X-443714D01*
G01X-426626Y151486D02*
Y145986D01*
X-428293D01*
X-428826Y146261D01*
X-429160Y146628D01*
X-429293Y147361D01*
X-429160Y148094D01*
X-428760Y148552D01*
X-428293Y148828D01*
X-426626D01*
G01X-428293D02*
X-429293Y151486D01*
G01X-431193Y146902D02*
X-431593Y146353D01*
X-432060Y146077D01*
X-432593Y145986D01*
X-433260Y146169D01*
X-433727Y146628D01*
X-433860Y147177D01*
X-433793Y147728D01*
X-433526Y148186D01*
X-432193Y149102D01*
X-431593Y149744D01*
X-431193Y150661D01*
X-431060Y151486D01*
X-433860D01*
G01X-436960D02*
Y145986D01*
X-436160Y147086D01*
G01Y151486D02*
X-437760D01*
G01X-445656Y272211D02*
Y266711D01*
X-447322D01*
X-447856Y266986D01*
X-448189Y267353D01*
X-448322Y268086D01*
X-448189Y268819D01*
X-447789Y269278D01*
X-447322Y269553D01*
X-445656D01*
G01X-447322D02*
X-448322Y272211D01*
G01X-450156Y266711D02*
Y272211D01*
X-452822D01*
G01X-455989D02*
Y266711D01*
X-455189Y267811D01*
G01Y272211D02*
X-456789D01*
G01X-461880Y251857D02*
Y246357D01*
X-463214D01*
X-463747Y246632D01*
X-464147Y246998D01*
X-464481Y247548D01*
X-464747Y248190D01*
X-464814Y249107D01*
X-464747Y250023D01*
X-464481Y250665D01*
X-464147Y251215D01*
X-463747Y251582D01*
X-463214Y251857D01*
X-461880D01*
G01X-466714Y251215D02*
X-467180Y251673D01*
X-467714Y251857D01*
X-468247Y251673D01*
X-468714Y251124D01*
X-469047Y250298D01*
X-469181Y249473D01*
Y248465D01*
X-469047Y247640D01*
X-468714Y246907D01*
X-468314Y246540D01*
X-467847Y246357D01*
X-467314Y246540D01*
X-466914Y246907D01*
X-466647Y247457D01*
X-466514Y248190D01*
X-466647Y248832D01*
X-466980Y249473D01*
X-467381Y249840D01*
X-467847Y249932D01*
X-468381Y249749D01*
X-468780Y249290D01*
X-469181Y248465D01*
G01X-378743Y-29798D02*
X-379076Y-29248D01*
X-379476Y-28881D01*
X-379943Y-28698D01*
X-380476Y-28881D01*
X-380876Y-29248D01*
X-381276Y-29798D01*
X-381409Y-30531D01*
Y-34198D01*
G01X-384576Y-28698D02*
Y-34198D01*
X-383776Y-33098D01*
G01Y-28698D02*
X-385376D01*
G01X-387609Y-29522D02*
X-388009Y-29064D01*
X-388476Y-28789D01*
X-389076Y-28698D01*
X-389676Y-28881D01*
X-390143Y-29248D01*
X-390476Y-29889D01*
X-390543Y-30623D01*
X-390409Y-31356D01*
X-390076Y-31814D01*
X-389609Y-32181D01*
X-389143Y-32273D01*
X-388676Y-32181D01*
X-388076Y-31814D01*
X-388276Y-34198D01*
X-390076D01*
G01X-346049Y6463D02*
Y963D01*
X-347716D01*
X-348249Y1238D01*
X-348583Y1605D01*
X-348716Y2338D01*
X-348583Y3071D01*
X-348183Y3530D01*
X-347716Y3805D01*
X-346049D01*
G01X-347716D02*
X-348716Y6463D01*
G01X-350549Y963D02*
Y6463D01*
X-353216D01*
G01X-356383D02*
Y963D01*
X-355583Y2063D01*
G01Y6463D02*
X-357183D01*
G01X-359416Y5638D02*
X-359816Y6096D01*
X-360283Y6371D01*
X-360883Y6463D01*
X-361483Y6280D01*
X-361949Y5913D01*
X-362283Y5271D01*
X-362349Y4538D01*
X-362216Y3805D01*
X-361883Y3346D01*
X-361416Y2980D01*
X-360949Y2888D01*
X-360483Y2980D01*
X-359883Y3346D01*
X-360083Y963D01*
X-361883D01*
G01X-400523Y331493D02*
X-401073Y331160D01*
X-401440Y330760D01*
X-401623Y330293D01*
X-401440Y329760D01*
X-401073Y329360D01*
X-400523Y328960D01*
X-399790Y328826D01*
X-396123D01*
G01X-401623Y325660D02*
X-396123D01*
X-397223Y326460D01*
G01X-401623D02*
Y324860D01*
G01X-399331Y322426D02*
X-398689Y321960D01*
X-398323Y321560D01*
X-398140Y321026D01*
X-398323Y320560D01*
X-398689Y320226D01*
X-399240Y319960D01*
X-399881Y319893D01*
X-400431Y319960D01*
X-400981Y320226D01*
X-401440Y320626D01*
X-401623Y321093D01*
X-401440Y321626D01*
X-400890Y322093D01*
X-400065Y322360D01*
X-399148Y322426D01*
X-397956Y322293D01*
X-397314Y322093D01*
X-396673Y321760D01*
X-396214Y321293D01*
X-396123Y320826D01*
X-396306Y320360D01*
X-396764Y320026D01*
G01X-359772Y382224D02*
X-359439Y381674D01*
X-359039Y381308D01*
X-358572Y381124D01*
X-358039Y381308D01*
X-357639Y381674D01*
X-357239Y382224D01*
X-357105Y382958D01*
Y386624D01*
G01X-355205Y385708D02*
X-354805Y386258D01*
X-354339Y386533D01*
X-353805Y386624D01*
X-353139Y386441D01*
X-352672Y385983D01*
X-352539Y385433D01*
X-352605Y384883D01*
X-352872Y384424D01*
X-354205Y383508D01*
X-354805Y382866D01*
X-355205Y381949D01*
X-355339Y381124D01*
X-352539D01*
G01X-349439D02*
Y386624D01*
X-350239Y385524D01*
G01Y381124D02*
X-348639D01*
G01X-318309Y51825D02*
X-323809D01*
Y53491D01*
X-323534Y54025D01*
X-323167Y54358D01*
X-322434Y54491D01*
X-321701Y54358D01*
X-321242Y53958D01*
X-320967Y53491D01*
Y51825D01*
G01Y53491D02*
X-318309Y54491D01*
G01X-322892Y56391D02*
X-323442Y56791D01*
X-323718Y57258D01*
X-323809Y57791D01*
X-323626Y58458D01*
X-323167Y58925D01*
X-322618Y59058D01*
X-322067Y58991D01*
X-321609Y58724D01*
X-320692Y57391D01*
X-320051Y56791D01*
X-319134Y56391D01*
X-318309Y56258D01*
Y59058D01*
G01X-323809Y62158D02*
X-323626Y61625D01*
X-323167Y61225D01*
X-322618Y60958D01*
X-321884Y60758D01*
X-321059Y60691D01*
X-320234Y60758D01*
X-319501Y60958D01*
X-318951Y61225D01*
X-318492Y61625D01*
X-318309Y62158D01*
X-318492Y62691D01*
X-318951Y63091D01*
X-319501Y63358D01*
X-320234Y63558D01*
X-321059Y63625D01*
X-321884Y63558D01*
X-322618Y63358D01*
X-323167Y63091D01*
X-323626Y62691D01*
X-323809Y62158D01*
G01X-321212Y67547D02*
X-315712D01*
Y66214D01*
X-315987Y65680D01*
X-316354Y65280D01*
X-316904Y64947D01*
X-317546Y64680D01*
X-318462Y64614D01*
X-319379Y64680D01*
X-320021Y64947D01*
X-320571Y65280D01*
X-320937Y65680D01*
X-321212Y66214D01*
Y67547D01*
G01X-316629Y62847D02*
X-316079Y62447D01*
X-315804Y61980D01*
X-315712Y61447D01*
X-315896Y60780D01*
X-316354Y60314D01*
X-316904Y60180D01*
X-317454Y60247D01*
X-317912Y60514D01*
X-318829Y61847D01*
X-319471Y62447D01*
X-320387Y62847D01*
X-321212Y62980D01*
Y60180D01*
G01X-316629Y58347D02*
X-316079Y57947D01*
X-315804Y57480D01*
X-315712Y56947D01*
X-315896Y56280D01*
X-316354Y55814D01*
X-316904Y55680D01*
X-317454Y55747D01*
X-317912Y56014D01*
X-318829Y57347D01*
X-319471Y57947D01*
X-320387Y58347D01*
X-321212Y58480D01*
Y55680D01*
G01X-339499Y331493D02*
X-340049Y331160D01*
X-340416Y330760D01*
X-340599Y330293D01*
X-340416Y329760D01*
X-340049Y329360D01*
X-339499Y328960D01*
X-338766Y328826D01*
X-335099D01*
G01X-340599Y325660D02*
X-335099D01*
X-336199Y326460D01*
G01X-340599D02*
Y324860D01*
G01Y321293D02*
X-339408Y321160D01*
X-338399Y320960D01*
X-337482Y320693D01*
X-336474Y320360D01*
X-335099Y319826D01*
Y322493D01*
G01X-336826Y306518D02*
Y312018D01*
X-335159D01*
X-334626Y311743D01*
X-334292Y311377D01*
X-334159Y310644D01*
X-334292Y309910D01*
X-334692Y309452D01*
X-335159Y309177D01*
X-336826D01*
G01X-335159D02*
X-334159Y306518D01*
G01X-332259Y311102D02*
X-331859Y311652D01*
X-331392Y311927D01*
X-330859Y312018D01*
X-330192Y311835D01*
X-329726Y311377D01*
X-329593Y310827D01*
X-329659Y310277D01*
X-329926Y309818D01*
X-331259Y308902D01*
X-331859Y308260D01*
X-332259Y307343D01*
X-332393Y306518D01*
X-329593D01*
G01X-327759Y311102D02*
X-327359Y311652D01*
X-326893Y311927D01*
X-326359Y312018D01*
X-325693Y311835D01*
X-325226Y311377D01*
X-325092Y310827D01*
X-325159Y310277D01*
X-325426Y309818D01*
X-326759Y308902D01*
X-327359Y308260D01*
X-327759Y307343D01*
X-327892Y306518D01*
X-325092D01*
G01X-335686Y326578D02*
Y332078D01*
X-334019D01*
X-333486Y331803D01*
X-333152Y331437D01*
X-333019Y330703D01*
X-333152Y329970D01*
X-333552Y329512D01*
X-334019Y329237D01*
X-335686D01*
G01X-334019D02*
X-333019Y326578D01*
G01X-331119Y331162D02*
X-330719Y331712D01*
X-330252Y331987D01*
X-329719Y332078D01*
X-329052Y331895D01*
X-328586Y331437D01*
X-328452Y330887D01*
X-328519Y330336D01*
X-328786Y329878D01*
X-330119Y328962D01*
X-330719Y328320D01*
X-331119Y327403D01*
X-331252Y326578D01*
X-328452D01*
G01X-326819Y327678D02*
X-326419Y327036D01*
X-325886Y326670D01*
X-325286Y326578D01*
X-324752Y326670D01*
X-324219Y327128D01*
X-323886Y327678D01*
X-323819Y328228D01*
X-323952Y328870D01*
X-324419Y329328D01*
X-324886Y329512D01*
X-325486D01*
G01X-324886D02*
X-324486Y329787D01*
X-324152Y330245D01*
X-324019Y330795D01*
X-324152Y331345D01*
X-324486Y331803D01*
X-325086Y332078D01*
X-325686Y331987D01*
X-326286Y331620D01*
G01X-300661Y364967D02*
Y370467D01*
X-298994D01*
X-298461Y370192D01*
X-298128Y369825D01*
X-297994Y369092D01*
X-298128Y368359D01*
X-298528Y367900D01*
X-298994Y367625D01*
X-300661D01*
G01X-298994D02*
X-297994Y364967D01*
G01X-296161Y370467D02*
Y364967D01*
X-293494D01*
G01X-290328D02*
X-289861Y365058D01*
X-289328Y365334D01*
X-288994Y365792D01*
X-288861Y366434D01*
X-288994Y367075D01*
X-289394Y367625D01*
X-289994Y367900D01*
X-290661D01*
X-291061Y368084D01*
X-291394Y368542D01*
X-291528Y369184D01*
X-291328Y369825D01*
X-290861Y370284D01*
X-290328Y370467D01*
X-289794Y370284D01*
X-289328Y369825D01*
X-289128Y369184D01*
X-289261Y368542D01*
X-289594Y368084D01*
X-289994Y367900D01*
X-290661D01*
X-291261Y367625D01*
X-291661Y367075D01*
X-291794Y366434D01*
X-291661Y365792D01*
X-291328Y365334D01*
X-290794Y365058D01*
X-290328Y364967D01*
G01X-223853Y-29298D02*
X-224186Y-28748D01*
X-224586Y-28381D01*
X-225053Y-28198D01*
X-225586Y-28381D01*
X-225986Y-28748D01*
X-226386Y-29298D01*
X-226520Y-30031D01*
Y-33698D01*
G01X-229686Y-28198D02*
Y-33698D01*
X-228886Y-32598D01*
G01Y-28198D02*
X-230486D01*
G01X-234986D02*
Y-33698D01*
X-232520Y-29756D01*
X-235853D01*
G01X-242714Y104615D02*
Y110115D01*
X-241047D01*
X-240514Y109840D01*
X-240181Y109473D01*
X-240047Y108740D01*
X-240181Y108007D01*
X-240581Y107548D01*
X-241047Y107273D01*
X-242714D01*
G01X-241047D02*
X-240047Y104615D01*
G01X-236881D02*
Y110115D01*
X-237681Y109015D01*
G01Y104615D02*
X-236081D01*
G01X-233514Y105256D02*
X-233047Y104798D01*
X-232514Y104615D01*
X-231981Y104798D01*
X-231514Y105348D01*
X-231181Y106173D01*
X-231047Y106998D01*
Y108007D01*
X-231181Y108832D01*
X-231514Y109565D01*
X-231914Y109932D01*
X-232381Y110115D01*
X-232914Y109932D01*
X-233314Y109565D01*
X-233581Y109015D01*
X-233714Y108282D01*
X-233581Y107640D01*
X-233247Y106998D01*
X-232847Y106632D01*
X-232381Y106540D01*
X-231847Y106723D01*
X-231447Y107182D01*
X-231047Y108007D01*
G01X-240501Y124386D02*
Y129886D01*
X-239168D01*
X-238634Y129611D01*
X-238234Y129244D01*
X-237901Y128695D01*
X-237634Y128053D01*
X-237568Y127136D01*
X-237634Y126220D01*
X-237901Y125578D01*
X-238234Y125028D01*
X-238634Y124661D01*
X-239168Y124386D01*
X-240501D01*
G01X-235801Y128970D02*
X-235401Y129519D01*
X-234934Y129795D01*
X-234401Y129886D01*
X-233734Y129703D01*
X-233268Y129244D01*
X-233134Y128695D01*
X-233201Y128144D01*
X-233468Y127686D01*
X-234801Y126770D01*
X-235401Y126128D01*
X-235801Y125211D01*
X-235934Y124386D01*
X-233134D01*
G01X-230034D02*
Y129886D01*
X-230834Y128786D01*
G01Y124386D02*
X-229234D01*
G01X-221957Y246259D02*
Y240759D01*
X-223624D01*
X-224157Y241034D01*
X-224490Y241401D01*
X-224624Y242134D01*
X-224490Y242868D01*
X-224090Y243326D01*
X-223624Y243601D01*
X-221957D01*
G01X-223624D02*
X-224624Y246259D01*
G01X-227790D02*
Y240759D01*
X-226990Y241859D01*
G01Y246259D02*
X-228590D01*
G01X-232290D02*
Y240759D01*
X-231490Y241859D01*
G01Y246259D02*
X-233090D01*
G01X-257873Y249700D02*
Y245758D01*
X-257607Y244933D01*
X-257073Y244383D01*
X-256407Y244200D01*
X-255740Y244383D01*
X-255207Y244933D01*
X-254940Y245758D01*
Y249700D01*
G01X-253173Y248783D02*
X-252773Y249333D01*
X-252307Y249608D01*
X-251773Y249700D01*
X-251107Y249517D01*
X-250640Y249058D01*
X-250507Y248508D01*
X-250573Y247958D01*
X-250840Y247500D01*
X-252173Y246583D01*
X-252773Y245942D01*
X-253173Y245025D01*
X-253307Y244200D01*
X-250507D01*
G01X-219601Y256048D02*
Y250548D01*
X-220935D01*
X-221468Y250823D01*
X-221868Y251190D01*
X-222201Y251740D01*
X-222468Y252381D01*
X-222535Y253298D01*
X-222468Y254215D01*
X-222201Y254856D01*
X-221868Y255406D01*
X-221468Y255773D01*
X-220935Y256048D01*
X-219601D01*
G01X-224301Y251465D02*
X-224701Y250915D01*
X-225168Y250640D01*
X-225702Y250548D01*
X-226368Y250731D01*
X-226835Y251190D01*
X-226968Y251740D01*
X-226902Y252290D01*
X-226635Y252748D01*
X-225301Y253665D01*
X-224701Y254306D01*
X-224301Y255223D01*
X-224168Y256048D01*
X-226968D01*
G01X-228601Y254948D02*
X-229001Y255590D01*
X-229535Y255956D01*
X-230135Y256048D01*
X-230668Y255956D01*
X-231201Y255498D01*
X-231535Y254948D01*
X-231601Y254398D01*
X-231468Y253757D01*
X-231001Y253298D01*
X-230535Y253115D01*
X-229935D01*
G01X-230535D02*
X-230935Y252840D01*
X-231268Y252381D01*
X-231402Y251831D01*
X-231268Y251281D01*
X-230935Y250823D01*
X-230335Y250548D01*
X-229735Y250640D01*
X-229135Y251006D01*
G01X-235334Y283745D02*
Y289245D01*
X-233667D01*
X-233134Y288970D01*
X-232800Y288604D01*
X-232667Y287870D01*
X-232800Y287137D01*
X-233200Y286679D01*
X-233667Y286404D01*
X-235334D01*
G01X-233667D02*
X-232667Y283745D01*
G01X-229501D02*
Y289245D01*
X-230300Y288145D01*
G01Y283745D02*
X-228701D01*
G01X-226267Y288329D02*
X-225867Y288878D01*
X-225400Y289154D01*
X-224867Y289245D01*
X-224200Y289062D01*
X-223734Y288604D01*
X-223600Y288054D01*
X-223667Y287504D01*
X-223934Y287045D01*
X-225267Y286129D01*
X-225867Y285487D01*
X-226267Y284570D01*
X-226400Y283745D01*
X-223600D01*
G01X-265520Y381862D02*
X-265186Y381312D01*
X-264786Y380946D01*
X-264320Y380762D01*
X-263786Y380946D01*
X-263386Y381312D01*
X-262986Y381862D01*
X-262853Y382596D01*
Y386262D01*
G01X-260820Y381404D02*
X-260353Y380946D01*
X-259820Y380762D01*
X-259286Y380946D01*
X-258820Y381495D01*
X-258486Y382320D01*
X-258353Y383146D01*
Y384154D01*
X-258486Y384979D01*
X-258820Y385712D01*
X-259220Y386079D01*
X-259686Y386262D01*
X-260220Y386079D01*
X-260620Y385712D01*
X-260886Y385162D01*
X-261020Y384429D01*
X-260886Y383787D01*
X-260553Y383146D01*
X-260153Y382779D01*
X-259686Y382687D01*
X-259153Y382870D01*
X-258753Y383329D01*
X-258353Y384154D01*
G01X-188180Y7004D02*
Y1504D01*
X-189847D01*
X-190380Y1779D01*
X-190713Y2146D01*
X-190847Y2879D01*
X-190713Y3613D01*
X-190313Y4071D01*
X-189847Y4346D01*
X-188180D01*
G01X-189847D02*
X-190847Y7004D01*
G01X-192680Y1504D02*
Y7004D01*
X-195347D01*
G01X-198513D02*
Y1504D01*
X-197713Y2604D01*
G01Y7004D02*
X-199313D01*
G01X-201547Y5904D02*
X-201947Y6546D01*
X-202480Y6913D01*
X-203080Y7004D01*
X-203614Y6913D01*
X-204147Y6454D01*
X-204480Y5904D01*
X-204547Y5354D01*
X-204413Y4713D01*
X-203947Y4254D01*
X-203480Y4071D01*
X-202880D01*
G01X-203480D02*
X-203880Y3796D01*
X-204213Y3338D01*
X-204347Y2788D01*
X-204213Y2238D01*
X-203880Y1779D01*
X-203280Y1504D01*
X-202680Y1596D01*
X-202080Y1963D01*
G01X-200344Y253123D02*
Y258623D01*
X-198677D01*
X-198144Y258348D01*
X-197811Y257982D01*
X-197677Y257248D01*
X-197811Y256515D01*
X-198211Y256057D01*
X-198677Y255782D01*
X-200344D01*
G01X-198677D02*
X-197677Y253123D01*
G01X-194511D02*
Y258623D01*
X-195311Y257523D01*
G01Y253123D02*
X-193711D01*
G01X-189211D02*
Y258623D01*
X-191677Y254682D01*
X-188344D01*
G01X-171294Y284735D02*
Y290235D01*
X-169627D01*
X-169094Y289960D01*
X-168761Y289593D01*
X-168627Y288860D01*
X-168761Y288127D01*
X-169161Y287668D01*
X-169627Y287393D01*
X-171294D01*
G01X-169627D02*
X-168627Y284735D01*
G01X-165461D02*
Y290235D01*
X-166261Y289135D01*
G01Y284735D02*
X-164661D01*
G01X-162427Y285835D02*
X-162027Y285193D01*
X-161494Y284827D01*
X-160894Y284735D01*
X-160360Y284827D01*
X-159827Y285285D01*
X-159494Y285835D01*
X-159427Y286385D01*
X-159561Y287026D01*
X-160027Y287485D01*
X-160494Y287668D01*
X-161094D01*
G01X-160494D02*
X-160094Y287943D01*
X-159761Y288402D01*
X-159627Y288952D01*
X-159761Y289502D01*
X-160094Y289960D01*
X-160694Y290235D01*
X-161294Y290143D01*
X-161894Y289777D01*
G01X-202630Y364967D02*
Y370467D01*
X-200963D01*
X-200429Y370192D01*
X-200096Y369825D01*
X-199963Y369092D01*
X-200096Y368359D01*
X-200496Y367900D01*
X-200963Y367625D01*
X-202630D01*
G01X-200963D02*
X-199963Y364967D01*
G01X-198130Y370467D02*
Y364967D01*
X-195463D01*
G01X-193430Y365608D02*
X-192963Y365150D01*
X-192430Y364967D01*
X-191896Y365150D01*
X-191429Y365700D01*
X-191096Y366525D01*
X-190963Y367350D01*
Y368359D01*
X-191096Y369184D01*
X-191429Y369917D01*
X-191830Y370284D01*
X-192296Y370467D01*
X-192830Y370284D01*
X-193229Y369917D01*
X-193496Y369367D01*
X-193630Y368634D01*
X-193496Y367992D01*
X-193163Y367350D01*
X-192763Y366984D01*
X-192296Y366892D01*
X-191763Y367075D01*
X-191363Y367534D01*
X-190963Y368359D01*
G01X-125159Y39614D02*
X-130659D01*
Y41281D01*
X-130384Y41814D01*
X-130017Y42148D01*
X-129284Y42281D01*
X-128551Y42148D01*
X-128093Y41748D01*
X-127817Y41281D01*
Y39614D01*
G01Y41281D02*
X-125159Y42281D01*
G01Y45448D02*
X-130659D01*
X-129559Y44648D01*
G01X-125159D02*
Y46248D01*
G01Y49948D02*
X-125251Y50414D01*
X-125526Y50948D01*
X-125984Y51281D01*
X-126626Y51414D01*
X-127267Y51281D01*
X-127817Y50881D01*
X-128093Y50281D01*
Y49614D01*
X-128276Y49214D01*
X-128734Y48881D01*
X-129376Y48748D01*
X-130017Y48948D01*
X-130476Y49414D01*
X-130659Y49948D01*
X-130476Y50481D01*
X-130017Y50948D01*
X-129376Y51148D01*
X-128734Y51014D01*
X-128276Y50681D01*
X-128093Y50281D01*
Y49614D01*
X-127817Y49014D01*
X-127267Y48614D01*
X-126626Y48481D01*
X-125984Y48614D01*
X-125526Y48948D01*
X-125251Y49481D01*
X-125159Y49948D01*
G01X-142450Y41760D02*
X-147950D01*
Y43093D01*
X-147674Y43627D01*
X-147308Y44027D01*
X-146758Y44360D01*
X-146116Y44627D01*
X-145200Y44694D01*
X-144283Y44627D01*
X-143641Y44360D01*
X-143091Y44027D01*
X-142724Y43627D01*
X-142450Y43093D01*
Y41760D01*
G01X-147033Y46460D02*
X-147583Y46860D01*
X-147858Y47327D01*
X-147950Y47860D01*
X-147766Y48527D01*
X-147308Y48994D01*
X-146758Y49127D01*
X-146208Y49060D01*
X-145750Y48793D01*
X-144833Y47460D01*
X-144191Y46860D01*
X-143274Y46460D01*
X-142450Y46327D01*
Y49127D01*
G01X-147950Y52227D02*
X-147766Y51693D01*
X-147308Y51293D01*
X-146758Y51027D01*
X-146024Y50827D01*
X-145200Y50760D01*
X-144374Y50827D01*
X-143641Y51027D01*
X-143091Y51293D01*
X-142633Y51693D01*
X-142450Y52227D01*
X-142633Y52760D01*
X-143091Y53160D01*
X-143641Y53427D01*
X-144374Y53627D01*
X-145200Y53693D01*
X-146024Y53627D01*
X-146758Y53427D01*
X-147308Y53160D01*
X-147766Y52760D01*
X-147950Y52227D01*
G01X-111373Y145330D02*
X-105873D01*
Y143664D01*
X-106148Y143130D01*
X-106515Y142797D01*
X-107248Y142664D01*
X-107982Y142797D01*
X-108440Y143197D01*
X-108715Y143664D01*
Y145330D01*
G01Y143664D02*
X-111373Y142664D01*
G01Y139497D02*
X-105873D01*
X-106973Y140297D01*
G01X-111373D02*
Y138697D01*
G01Y135130D02*
X-110182Y134997D01*
X-109173Y134797D01*
X-108256Y134530D01*
X-107248Y134197D01*
X-105873Y133664D01*
Y136330D01*
G01X-142056Y129555D02*
X-147556D01*
Y130889D01*
X-147281Y131422D01*
X-146914Y131822D01*
X-146364Y132155D01*
X-145722Y132422D01*
X-144806Y132489D01*
X-143889Y132422D01*
X-143248Y132155D01*
X-142697Y131822D01*
X-142331Y131422D01*
X-142056Y130889D01*
Y129555D01*
G01Y135522D02*
X-147556D01*
X-146456Y134722D01*
G01X-142056D02*
Y136322D01*
G01X-142697Y138889D02*
X-142239Y139355D01*
X-142056Y139889D01*
X-142239Y140422D01*
X-142789Y140889D01*
X-143614Y141222D01*
X-144439Y141355D01*
X-145448D01*
X-146272Y141222D01*
X-147006Y140889D01*
X-147373Y140489D01*
X-147556Y140022D01*
X-147373Y139489D01*
X-147006Y139089D01*
X-146456Y138822D01*
X-145722Y138689D01*
X-145081Y138822D01*
X-144439Y139155D01*
X-144072Y139555D01*
X-143981Y140022D01*
X-144164Y140555D01*
X-144622Y140955D01*
X-145448Y141355D01*
G01X-155491Y254658D02*
Y249158D01*
X-156824D01*
X-157358Y249433D01*
X-157758Y249800D01*
X-158091Y250350D01*
X-158358Y250992D01*
X-158425Y251908D01*
X-158358Y252825D01*
X-158091Y253467D01*
X-157758Y254017D01*
X-157358Y254383D01*
X-156824Y254658D01*
X-155491D01*
G01X-161458D02*
Y249158D01*
X-160658Y250258D01*
G01Y254658D02*
X-162258D01*
G01X-165824D02*
X-165958Y253467D01*
X-166158Y252458D01*
X-166424Y251542D01*
X-166758Y250533D01*
X-167291Y249158D01*
X-164624D01*
G01X-167255Y380092D02*
X-166922Y379542D01*
X-166522Y379176D01*
X-166055Y378992D01*
X-165522Y379176D01*
X-165122Y379542D01*
X-164722Y380092D01*
X-164589Y380826D01*
Y384493D01*
G01X-161422Y378992D02*
Y384493D01*
X-162222Y383393D01*
G01Y378992D02*
X-160622D01*
G01X-156922Y384493D02*
X-157455Y384309D01*
X-157855Y383851D01*
X-158122Y383301D01*
X-158322Y382567D01*
X-158389Y381742D01*
X-158322Y380917D01*
X-158122Y380184D01*
X-157855Y379634D01*
X-157455Y379176D01*
X-156922Y378992D01*
X-156389Y379176D01*
X-155989Y379634D01*
X-155722Y380184D01*
X-155522Y380917D01*
X-155455Y381742D01*
X-155522Y382567D01*
X-155722Y383301D01*
X-155989Y383851D01*
X-156389Y384309D01*
X-156922Y384493D01*
G01X-106960Y98038D02*
Y103538D01*
X-105294D01*
X-104760Y103263D01*
X-104427Y102896D01*
X-104293Y102163D01*
X-104427Y101429D01*
X-104827Y100971D01*
X-105294Y100696D01*
X-106960D01*
G01X-105294D02*
X-104293Y98038D01*
G01X-102460Y103538D02*
Y98038D01*
X-99793D01*
G01X-96627D02*
Y103538D01*
X-97427Y102438D01*
G01Y98038D02*
X-95827D01*
G01X-93394Y102621D02*
X-92994Y103171D01*
X-92527Y103446D01*
X-91993Y103538D01*
X-91327Y103355D01*
X-90860Y102896D01*
X-90727Y102346D01*
X-90793Y101796D01*
X-91060Y101338D01*
X-92394Y100421D01*
X-92994Y99779D01*
X-93394Y98863D01*
X-93527Y98038D01*
X-90727D01*
G01X-107354Y177172D02*
Y182672D01*
X-105687D01*
X-105154Y182397D01*
X-104820Y182030D01*
X-104687Y181297D01*
X-104820Y180563D01*
X-105220Y180105D01*
X-105687Y179830D01*
X-107354D01*
G01X-105687D02*
X-104687Y177172D01*
G01X-102854Y182672D02*
Y177172D01*
X-100187D01*
G01X-97021D02*
Y182672D01*
X-97821Y181572D01*
G01Y177172D02*
X-96221D01*
G01X-92521D02*
Y182672D01*
X-93320Y181572D01*
G01Y177172D02*
X-91721D01*
G01X-79002Y233743D02*
X-84502D01*
Y235409D01*
X-84227Y235943D01*
X-83861Y236276D01*
X-83127Y236409D01*
X-82394Y236276D01*
X-81936Y235876D01*
X-81661Y235409D01*
Y233743D01*
G01Y235409D02*
X-79002Y236409D01*
G01X-83586Y238309D02*
X-84136Y238709D01*
X-84411Y239176D01*
X-84502Y239709D01*
X-84319Y240376D01*
X-83861Y240843D01*
X-83311Y240976D01*
X-82761Y240909D01*
X-82302Y240643D01*
X-81386Y239309D01*
X-80744Y238709D01*
X-79827Y238309D01*
X-79002Y238176D01*
Y240976D01*
G01Y244876D02*
X-84502D01*
X-80561Y242409D01*
Y245743D01*
G01X-59772Y238471D02*
Y257369D01*
G01X-46780Y238471D02*
X-61741D01*
Y257369D01*
X-46780D01*
Y238471D01*
G01X-103100Y268871D02*
Y274371D01*
X-101434D01*
X-100900Y274096D01*
X-100567Y273730D01*
X-100434Y272996D01*
X-100567Y272263D01*
X-100967Y271805D01*
X-101434Y271530D01*
X-103100D01*
G01X-101434D02*
X-100434Y268871D01*
G01X-97267D02*
Y274371D01*
X-98067Y273271D01*
G01Y268871D02*
X-96467D01*
G01X-94034Y271163D02*
X-93567Y271805D01*
X-93167Y272171D01*
X-92634Y272355D01*
X-92167Y272171D01*
X-91834Y271805D01*
X-91567Y271255D01*
X-91500Y270613D01*
X-91567Y270063D01*
X-91834Y269513D01*
X-92234Y269055D01*
X-92700Y268871D01*
X-93234Y269055D01*
X-93700Y269604D01*
X-93967Y270430D01*
X-94034Y271346D01*
X-93900Y272538D01*
X-93700Y273180D01*
X-93367Y273821D01*
X-92900Y274280D01*
X-92434Y274371D01*
X-91967Y274188D01*
X-91634Y273730D01*
G01X-58337Y269180D02*
Y263680D01*
X-59671D01*
X-60204Y263955D01*
X-60604Y264321D01*
X-60937Y264871D01*
X-61204Y265513D01*
X-61271Y266430D01*
X-61204Y267346D01*
X-60937Y267988D01*
X-60604Y268538D01*
X-60204Y268905D01*
X-59671Y269180D01*
X-58337D01*
G01X-64304D02*
Y263680D01*
X-63504Y264779D01*
G01Y269180D02*
X-65104D01*
G01X-68804D02*
X-69270Y269088D01*
X-69804Y268813D01*
X-70137Y268355D01*
X-70271Y267713D01*
X-70137Y267071D01*
X-69737Y266521D01*
X-69137Y266246D01*
X-68471D01*
X-68070Y266063D01*
X-67737Y265605D01*
X-67604Y264963D01*
X-67804Y264321D01*
X-68270Y263863D01*
X-68804Y263680D01*
X-69337Y263863D01*
X-69804Y264321D01*
X-70004Y264963D01*
X-69870Y265605D01*
X-69537Y266063D01*
X-69137Y266246D01*
X-68471D01*
X-67871Y266521D01*
X-67471Y267071D01*
X-67337Y267713D01*
X-67471Y268355D01*
X-67804Y268813D01*
X-68337Y269088D01*
X-68804Y269180D01*
G01X-63677Y283747D02*
Y289246D01*
X-62010D01*
X-61477Y288971D01*
X-61143Y288605D01*
X-61010Y287872D01*
X-61143Y287138D01*
X-61543Y286680D01*
X-62010Y286405D01*
X-63677D01*
G01X-62010D02*
X-61010Y283747D01*
G01X-57843D02*
Y289246D01*
X-58643Y288147D01*
G01Y283747D02*
X-57043D01*
G01X-54810Y284571D02*
X-54410Y284113D01*
X-53943Y283838D01*
X-53343Y283747D01*
X-52743Y283930D01*
X-52277Y284296D01*
X-51943Y284938D01*
X-51877Y285671D01*
X-52010Y286405D01*
X-52343Y286863D01*
X-52810Y287230D01*
X-53277Y287321D01*
X-53743Y287230D01*
X-54343Y286863D01*
X-54143Y289246D01*
X-52343D01*
G01X-103023Y365754D02*
Y371254D01*
X-101356D01*
X-100823Y370979D01*
X-100490Y370613D01*
X-100356Y369879D01*
X-100490Y369146D01*
X-100890Y368688D01*
X-101356Y368413D01*
X-103023D01*
G01X-101356D02*
X-100356Y365754D01*
G01X-98523Y371254D02*
Y365754D01*
X-95856D01*
G01X-92690D02*
Y371254D01*
X-93490Y370154D01*
G01Y365754D02*
X-91890D01*
G01X-88190Y371254D02*
X-88723Y371071D01*
X-89123Y370613D01*
X-89390Y370063D01*
X-89590Y369329D01*
X-89656Y368504D01*
X-89590Y367679D01*
X-89390Y366946D01*
X-89123Y366396D01*
X-88723Y365938D01*
X-88190Y365754D01*
X-87656Y365938D01*
X-87256Y366396D01*
X-86990Y366946D01*
X-86790Y367679D01*
X-86723Y368504D01*
X-86790Y369329D01*
X-86990Y370063D01*
X-87256Y370613D01*
X-87656Y371071D01*
X-88190Y371254D01*
G01X-9406Y45759D02*
X-8856Y46092D01*
X-8489Y46492D01*
X-8306Y46959D01*
X-8489Y47492D01*
X-8856Y47892D01*
X-9406Y48292D01*
X-10139Y48426D01*
X-13806D01*
G01X-8306Y51592D02*
X-13806D01*
X-12706Y50792D01*
G01X-8306D02*
Y52392D01*
G01X-9406Y54625D02*
X-8764Y55025D01*
X-8398Y55559D01*
X-8306Y56159D01*
X-8398Y56692D01*
X-8856Y57225D01*
X-9406Y57559D01*
X-9956Y57625D01*
X-10597Y57492D01*
X-11056Y57025D01*
X-11239Y56559D01*
Y55959D01*
G01Y56559D02*
X-11514Y56959D01*
X-11972Y57292D01*
X-12522Y57425D01*
X-13073Y57292D01*
X-13531Y56959D01*
X-13806Y56359D01*
X-13714Y55759D01*
X-13348Y55159D01*
G01X-8866Y124959D02*
X-8316Y125292D01*
X-7949Y125692D01*
X-7766Y126159D01*
X-7949Y126692D01*
X-8316Y127092D01*
X-8866Y127492D01*
X-9599Y127626D01*
X-13266D01*
G01X-7766Y130792D02*
X-13266D01*
X-12166Y129992D01*
G01X-7766D02*
Y131592D01*
G01X-12350Y134025D02*
X-12899Y134425D01*
X-13174Y134892D01*
X-13266Y135426D01*
X-13083Y136092D01*
X-12624Y136559D01*
X-12074Y136692D01*
X-11524Y136626D01*
X-11066Y136359D01*
X-10149Y135025D01*
X-9508Y134425D01*
X-8591Y134025D01*
X-7766Y133892D01*
Y136692D01*
G01X-5640Y166189D02*
X-5090Y166522D01*
X-4724Y166922D01*
X-4541Y167389D01*
X-4724Y167922D01*
X-5090Y168322D01*
X-5640Y168722D01*
X-6374Y168855D01*
X-10041D01*
G01X-9124Y170755D02*
X-9674Y171155D01*
X-9949Y171622D01*
X-10041Y172155D01*
X-9857Y172822D01*
X-9399Y173289D01*
X-8849Y173422D01*
X-8299Y173355D01*
X-7841Y173089D01*
X-6924Y171755D01*
X-6282Y171155D01*
X-5365Y170755D01*
X-4541Y170622D01*
Y173422D01*
G01X-10041Y176522D02*
X-9857Y175989D01*
X-9399Y175589D01*
X-8849Y175322D01*
X-8116Y175122D01*
X-7290Y175055D01*
X-6466Y175122D01*
X-5732Y175322D01*
X-5182Y175589D01*
X-4724Y175989D01*
X-4541Y176522D01*
X-4724Y177055D01*
X-5182Y177455D01*
X-5732Y177722D01*
X-6466Y177922D01*
X-7290Y177989D01*
X-8116Y177922D01*
X-8849Y177722D01*
X-9399Y177455D01*
X-9857Y177055D01*
X-10041Y176522D01*
G01X-31956Y262329D02*
X-35898D01*
X-36723Y262062D01*
X-37273Y261529D01*
X-37456Y260862D01*
X-37273Y260195D01*
X-36723Y259662D01*
X-35898Y259395D01*
X-31956D01*
G01X-36356Y257829D02*
X-36998Y257429D01*
X-37364Y256896D01*
X-37456Y256296D01*
X-37364Y255762D01*
X-36906Y255229D01*
X-36356Y254896D01*
X-35806Y254829D01*
X-35164Y254962D01*
X-34706Y255429D01*
X-34522Y255896D01*
Y256496D01*
G01Y255896D02*
X-34248Y255496D01*
X-33789Y255162D01*
X-33239Y255029D01*
X-32689Y255162D01*
X-32231Y255496D01*
X-31956Y256096D01*
X-32048Y256696D01*
X-32414Y257296D01*
G01X-12382Y268932D02*
X-17882D01*
Y270599D01*
X-17607Y271132D01*
X-17241Y271466D01*
X-16507Y271599D01*
X-15774Y271466D01*
X-15316Y271066D01*
X-15041Y270599D01*
Y268932D01*
G01Y270599D02*
X-12382Y271599D01*
G01X-16966Y273499D02*
X-17516Y273899D01*
X-17791Y274366D01*
X-17882Y274899D01*
X-17699Y275566D01*
X-17241Y276032D01*
X-16691Y276166D01*
X-16140Y276099D01*
X-15682Y275832D01*
X-14766Y274499D01*
X-14124Y273899D01*
X-13207Y273499D01*
X-12382Y273366D01*
Y276166D01*
G01X-13207Y277799D02*
X-12749Y278199D01*
X-12474Y278666D01*
X-12382Y279266D01*
X-12566Y279866D01*
X-12932Y280332D01*
X-13574Y280666D01*
X-14307Y280732D01*
X-15041Y280599D01*
X-15499Y280266D01*
X-15866Y279799D01*
X-15957Y279332D01*
X-15866Y278866D01*
X-15499Y278266D01*
X-17882Y278466D01*
Y280266D01*
G01X2876Y289030D02*
X2326Y288697D01*
X1959Y288297D01*
X1776Y287830D01*
X1959Y287297D01*
X2326Y286897D01*
X2876Y286497D01*
X3609Y286364D01*
X7276D01*
G01X1776Y283197D02*
X7276D01*
X6176Y283997D01*
G01X1776D02*
Y282397D01*
G01Y278697D02*
X1867Y278230D01*
X2142Y277697D01*
X2600Y277364D01*
X3242Y277230D01*
X3884Y277364D01*
X4434Y277764D01*
X4709Y278364D01*
Y279030D01*
X4892Y279430D01*
X5350Y279764D01*
X5992Y279897D01*
X6634Y279697D01*
X7092Y279230D01*
X7276Y278697D01*
X7092Y278164D01*
X6634Y277697D01*
X5992Y277497D01*
X5350Y277630D01*
X4892Y277964D01*
X4709Y278364D01*
Y279030D01*
X4434Y279630D01*
X3884Y280030D01*
X3242Y280164D01*
X2600Y280030D01*
X2142Y279697D01*
X1867Y279164D01*
X1776Y278697D01*
G01X-7693Y313665D02*
X-7143Y313998D01*
X-6777Y314398D01*
X-6593Y314865D01*
X-6777Y315398D01*
X-7143Y315798D01*
X-7693Y316198D01*
X-8427Y316332D01*
X-12093D01*
G01X-6593Y319498D02*
X-12093D01*
X-10993Y318698D01*
G01X-6593D02*
Y320298D01*
G01Y323998D02*
X-12093D01*
X-10993Y323198D01*
G01X-6593D02*
Y324798D01*
G01X20826Y258159D02*
X20276Y257825D01*
X19909Y257425D01*
X19726Y256959D01*
X19909Y256425D01*
X20276Y256025D01*
X20826Y255625D01*
X21559Y255492D01*
X25226D01*
G01X19726Y252325D02*
X25226D01*
X24126Y253125D01*
G01X19726D02*
Y251525D01*
G01X20367Y248959D02*
X19909Y248492D01*
X19726Y247959D01*
X19909Y247425D01*
X20459Y246958D01*
X21284Y246625D01*
X22109Y246492D01*
X23117D01*
X23942Y246625D01*
X24676Y246958D01*
X25042Y247359D01*
X25226Y247825D01*
X25042Y248359D01*
X24676Y248759D01*
X24126Y249025D01*
X23392Y249159D01*
X22751Y249025D01*
X22109Y248692D01*
X21742Y248292D01*
X21650Y247825D01*
X21834Y247292D01*
X22292Y246892D01*
X23117Y246492D01*
G54D24*
X-76496Y245429D03*
Y238736D03*
X-9876Y280618D03*
Y273926D03*
G54D15*
X-620009Y18924D03*
Y2113D03*
X-624339Y83609D03*
X-623158Y143845D03*
X-624339Y100420D03*
X-625914Y200144D03*
X-623158Y160656D03*
X-625914Y216956D03*
X-468040Y37546D03*
Y54357D03*
X-329086Y60738D03*
Y43927D03*
X-134576Y48570D03*
Y65381D03*
X-134182Y136365D03*
Y153176D03*
G54D34*
G01X-619615Y26266D02*
G03I-394J0D01*
G01X-623946Y107763D02*
G03I-394J0D01*
G01X-622765Y167998D02*
G03I-394J0D01*
G01X-624733Y253825D02*
G03I-394J0D01*
G01X-625520Y224298D02*
G03I-394J0D01*
G01X-558985Y256188D02*
G03I-394J0D01*
G01X-467647Y30203D02*
G03I-394J0D01*
G01X-460954Y259731D02*
G03I-394J0D01*
G01X-401229Y324022D02*
G03I-394J0D01*
G01X-328692Y68080D02*
G03I-394J0D01*
G01X-340206Y324022D02*
G03I-394J0D01*
G01X-350202Y379550D02*
G03I-394J0D01*
G01X-240641Y116512D02*
G03I-393J0D01*
G01X-218674Y263922D02*
G03I-394J0D01*
G01X-134182Y41227D02*
G03I-394J0D01*
G01X-133788Y129022D02*
G03I-394J0D01*
G01X-154564Y262532D02*
G03I-394J0D01*
G01X-57410Y277054D02*
G03I-394J0D01*
G01X-4135Y173707D02*
G03I-394J0D01*
G54D25*
X-65284Y240420D03*
Y245420D03*
Y250420D03*
Y255420D03*
X-43237D03*
Y250420D03*
Y245420D03*
Y240420D03*
G54D16*
X-649142Y240439D03*
X-638119D03*
X-531426Y235321D03*
X-583394Y241227D03*
X-572371D03*
X-520402Y235321D03*
X-243237Y251069D03*
X-232213D03*
X-179064Y248313D03*
X-190087D03*
X-81820Y264061D03*
X-92844D03*
G54D26*
X4007Y203707D03*
Y193707D03*
Y183707D03*
Y223707D03*
Y213707D03*
G54D17*
X-620511Y269082D03*
X-632441D03*
X-554782Y270432D03*
X-566711D03*
X-456741Y273442D03*
X-468670D03*
X-233751Y97922D03*
X-221822D03*
X-214441Y277052D03*
X-226370D03*
X-150402Y278042D03*
X-162331D03*
X-54713Y277054D03*
X-42784D03*
G54D27*
X4007Y173707D03*
G54D18*
X-632469Y253825D03*
X-649280D03*
X-566721Y256188D03*
X-583532D03*
X-468690Y259731D03*
X-485501D03*
X-233692Y116512D03*
X-243222Y263922D03*
X-216881Y116512D03*
X-226411Y263922D03*
X-179111Y262532D03*
X-162300D03*
X-65147Y277054D03*
X-81958D03*
G54D19*
X-410166Y134022D03*
Y144022D03*
Y154022D03*
Y164022D03*
Y174022D03*
Y184022D03*
Y194022D03*
Y204022D03*
Y244022D03*
Y254022D03*
Y264022D03*
Y214022D03*
Y224022D03*
Y234022D03*
Y274022D03*
Y284022D03*
Y294022D03*
Y304022D03*
Y314022D03*
X-349143Y134022D03*
Y144022D03*
Y154022D03*
Y164022D03*
Y174022D03*
Y184022D03*
Y194022D03*
Y204022D03*
Y244022D03*
Y254022D03*
Y264022D03*
Y214022D03*
Y224022D03*
Y234022D03*
Y274022D03*
Y284022D03*
Y294022D03*
Y304022D03*
Y314022D03*
G54D28*
X5976Y270597D03*
Y280597D03*
G54D29*
G01X-753796Y371952D02*
X-6246D01*
G02X7684Y366182I0J-19700D01*
G01X8154Y365712D01*
G02X13444Y352941I-12771J-12771D01*
G01Y-2688D01*
G02X-5626Y-21758I-19070J0D01*
G01X-754446D01*
G02X-773956Y-2248I0J19510D01*
G01Y351792D01*
G02X-753796Y371952I20160J0D01*
M02*
